<?xml version="1.0" encoding="utf-8" standalone="yes"?>
<!DOCTYPE svg PUBLIC "-//W3C//DTD SVG 1.1//EN" "http://www.w3.org/Graphics/SVG/1.1/DTD/svg11.dtd">
<svg width="900" height="613" viewBox="0 0 900 613" style="fill:none;stroke:none;fill-rule:evenodd;clip-rule:evenodd;stroke-linecap:round;stroke-linejoin:round;stroke-miterlimit:1.5;" version="1.1" xmlns="http://www.w3.org/2000/svg" xmlns:xlink="http://www.w3.org/1999/xlink"><style class="text-font-style fontImports" data-font-family="Roboto">@import url(https://fonts.googleapis.com/css2?family=Roboto:wght@400;700&amp;amp;display=block);</style><g id="items" style="isolation: isolate"><g id="blend" style="mix-blend-mode: normal"><g id="g-root-cp_0_line-0_1haq8ps15e8d1i-fill" data-item-order="-439601" transform="translate(206, 183)"></g><g id="g-root-cp_0_line-0_2_18f38gw15e8du7-fill" data-item-order="-439597" transform="translate(38, 339)"></g><g id="g-root-cp_0_line-0_4_13z9qcg15e8emg-fill" data-item-order="-439569" transform="translate(206, 339)"></g><g id="g-root-cp_0b_g-0b_zk2pb415e8c8x-fill" data-item-order="-439563" transform="translate(470.1328125, 39)"></g><g id="g-root-cp_0a_g-0a_qofp2815e8d1m-fill" data-item-order="-439545" transform="translate(488.39453125, 39)"></g><g id="g-root-cp_4_g-4_dcz6ow15e8emj-fill" data-item-order="-439535" transform="translate(668, 201)"></g><g id="g-root-cp_3_g-3_8xs5nk15e8c90-fill" data-item-order="-439525" transform="translate(596, 304)"></g><g id="g-root-cp_2_g-2_255eo15e8d1p-fill" data-item-order="-439515" transform="translate(524, 159)"></g><g id="g-root-cp_1_g-1_1lrsp0g15e8efi-fill" data-item-order="-439505" transform="translate(452, 219)"></g><g id="g-root-cp_4_dashed-4_1hclnz415e8c1z-fill" data-item-order="-439495" transform="translate(704, 272.9609375)"></g><g id="g-root-cp_3_dashed-3_1hclnz415e8c20-fill" data-item-order="-439491" transform="translate(632, 375.972900390625)"></g><g id="g-root-cp_2_dashed-2_1cws5uo15e8cu9-fill" data-item-order="-439487" transform="translate(560, 231)"></g><g id="g-root-cp_1_dashed-1_14155ls15e8dmy-fill" data-item-order="-439483" transform="translate(488, 291)"></g><g id="g-root-ic_bust_142e3s015ei7t8-fill" data-item-order="0" transform="translate(539, 174)"></g><g id="g-root-ic_bulb_147dwgw15emg3k-fill" data-item-order="0" transform="translate(683, 216)"></g><g id="g-root-ic_1_qtfhr415e8d8k-fill" data-item-order="0" transform="translate(467, 234)"></g><g id="g-root-tx_idealfor_18iu2zk15e8bv1-fill" data-item-order="0" transform="translate(38, 243)"><g id="tx_idealfor_18iu2zk15e8bv1-fill" stroke="none" fill="#f4f4f4"><g><text style="font: 15px Roboto, sans-serif; white-space: pre;" font-size="15px" font-family="Roboto, sans-serif"><tspan x="12" y="31" dominant-baseline="ideographic">Ideal for developing </tspan><tspan x="12" y="49" dominant-baseline="ideographic">new features in </tspan><tspan x="12" y="67" dominant-baseline="ideographic">isolation.</tspan></text></g></g></g><g id="g-root-tx_bestfora_hwjjc015e8bv3-fill" data-item-order="0" transform="translate(230, 243)"><g id="tx_bestfora_hwjjc015e8bv3-fill" stroke="none" fill="#f4f4f4"><g><text style="font: 15px Roboto, sans-serif; white-space: pre;" font-size="15px" font-family="Roboto, sans-serif"><tspan x="12" y="28" dominant-baseline="ideographic">Best for addressing </tspan><tspan x="12" y="46" dominant-baseline="ideographic">specific bugs </tspan><tspan x="12" y="64" dominant-baseline="ideographic">without disrupting </tspan><tspan x="12" y="82" dominant-baseline="ideographic">the main codebase.</tspan></text></g></g></g><g id="g-root-tx_suitable_18k315s15e8e17-fill" data-item-order="0" transform="translate(230, 423)"><g id="tx_suitable_18k315s15e8e17-fill" stroke="none" fill="#f4f4f4"><g><text style="font: 15px Roboto, sans-serif; white-space: pre;" font-size="15px" font-family="Roboto, sans-serif"><tspan x="12" y="28" dominant-baseline="ideographic">Suitable for trying </tspan><tspan x="12" y="46" dominant-baseline="ideographic">out new ideas </tspan><tspan x="12" y="64" dominant-baseline="ideographic">without affecting the </tspan><tspan x="12" y="82" dominant-baseline="ideographic">main project.</tspan></text></g></g></g><g id="g-root-tx_bugfixbr_v7dkm815e8dfy-fill" data-item-order="0" transform="translate(230, 183)"><g id="tx_bugfixbr_v7dkm815e8dfy-fill" stroke="none" fill="#fb6762"><g><text style="font: 20px Roboto, sans-serif; white-space: pre;" font-size="20px" font-family="Roboto, sans-serif"><tspan x="12" y="34" dominant-baseline="ideographic">Bug Fix </tspan><tspan x="12" y="58" dominant-baseline="ideographic">Branches</tspan></text></g></g></g><g id="g-root-ic_box_59iu815ejkeg-fill" data-item-order="0" transform="translate(611, 318)"></g><g id="g-root-tx_featureb_1upb4io15e8cn8-fill" data-item-order="0" transform="translate(38, 183)"><g id="tx_featureb_1upb4io15e8cn8-fill" stroke="none" fill="#43dd93"><g><text style="font: 20px Roboto, sans-serif; white-space: pre;" font-size="20px" font-family="Roboto, sans-serif"><tspan x="12" y="34" dominant-baseline="ideographic">Feature </tspan><tspan x="12" y="58" dominant-baseline="ideographic">Branches</tspan></text></g></g></g><g id="g-root-tx_whichbra_zlbnhc15e8ef7-fill" data-item-order="0" transform="translate(38, 99)"><g id="tx_whichbra_zlbnhc15e8ef7-fill" stroke="none" fill="#f4f4f4"><g><text style="font: 20px Roboto, sans-serif; white-space: pre;" font-size="20px" font-family="Roboto, sans-serif"><tspan x="12" y="34" dominant-baseline="ideographic">Which branching strategy should be </tspan><tspan x="12" y="58" dominant-baseline="ideographic">used?</tspan></text></g></g></g><g id="g-root-tx_releaseb_90wj3415e8dfk-fill" data-item-order="0" transform="translate(38, 363)"><g id="tx_releaseb_90wj3415e8dfk-fill" stroke="none" fill="#4f91fc"><g><text style="font: 20px Roboto, sans-serif; white-space: pre;" font-size="20px" font-family="Roboto, sans-serif"><tspan x="12" y="34" dominant-baseline="ideographic">Release </tspan><tspan x="12" y="58" dominant-baseline="ideographic">Branches</tspan></text></g></g></g><g id="g-root-tx_experime_1lvjjj415e8cga-fill" data-item-order="0" transform="translate(230, 363)"><g id="tx_experime_1lvjjj415e8cga-fill" stroke="none" fill="#ffe711"><g><text style="font: 20px Roboto, sans-serif; white-space: pre;" font-size="20px" font-family="Roboto, sans-serif"><tspan x="12" y="34" dominant-baseline="ideographic">Experiment </tspan><tspan x="12" y="58" dominant-baseline="ideographic">Branches</tspan></text></g></g></g><g id="g-root-tx_usedforp_59iu815e8e89-fill" data-item-order="0" transform="translate(38, 423)"><g id="tx_usedforp_59iu815e8e89-fill" stroke="none" fill="#f4f4f4"><g><text style="font: 15px Roboto, sans-serif; white-space: pre;" font-size="15px" font-family="Roboto, sans-serif"><tspan x="12" y="31" dominant-baseline="ideographic">Used for preparing </tspan><tspan x="12" y="49" dominant-baseline="ideographic">and stabilizing </tspan><tspan x="12" y="67" dominant-baseline="ideographic">releases.</tspan></text></g></g></g><g id="g-root-cp_0_line-0_1haq8ps15e8d1i-stroke" data-item-order="-439601" transform="translate(206, 183)"><g id="cp_0_line-0_1haq8ps15e8d1i-stroke" fill="none" stroke-linecap="round" stroke-linejoin="round" stroke-miterlimit="4" stroke="#b7b7b7" stroke-width="2"><g><path d="M 10 10L 10 166"></path></g></g></g><g id="g-root-cp_0_line-0_2_18f38gw15e8du7-stroke" data-item-order="-439597" transform="translate(38, 339)"><g id="cp_0_line-0_2_18f38gw15e8du7-stroke" fill="none" stroke-linecap="round" stroke-linejoin="round" stroke-miterlimit="4" stroke="#b7b7b7" stroke-width="2"><g><path d="M 346 10L 10 10"></path></g></g></g><g id="g-root-cp_0_line-0_4_13z9qcg15e8emg-stroke" data-item-order="-439569" transform="translate(206, 339)"><g id="cp_0_line-0_4_13z9qcg15e8emg-stroke" fill="none" stroke-linecap="round" stroke-linejoin="round" stroke-miterlimit="4" stroke="#b7b7b7" stroke-width="2"><g><path d="M 10 10L 10 190"></path></g></g></g><g id="g-root-cp_0b_g-0b_zk2pb415e8c8x-stroke" data-item-order="-439563" transform="translate(470.1328125, 39)"><g id="cp_0b_g-0b_zk2pb415e8c8x-stroke" fill="none" stroke-linecap="round" stroke-linejoin="round" stroke-miterlimit="4" stroke="#f4f4f4" stroke-width="2"><g><path d="M 10.000001 195C 11.520401 151.2383 26.191101 108.8817 52.186301 73.4994L 64.047901 57.3544C 74.2383 43.484 80.296201 27.0686 81.601301 10M 46.026001 195C 47.528401 158.909 59.743301 124.0164 81.198001 94.8141L 93.059601 78.6691C 107.791701 58.6171 116.319701 34.7443 117.676701 10M 165.868001 10L 165.868001 14.7908C 165.868001 44.0842 153.273601 71.9636 131.2931 91.3275L 128.645701 93.6597C 116.574801 104.2936 106.596101 116.8257 99.000001 130.6134M 201.868001 10L 201.868001 14.7908C 201.868001 54.423 184.828601 92.1423 155.090201 118.3404L 152.442801 120.6726C 144.998901 127.2303 138.6314 134.7648 133.465101 143C 132.885601 143.8867 131.5945 145.9995 131.066601 147.3571M 261.867188 10L 261.867188 35.9597C 261.867188 72.7455 242.059788 106.6815 210.029888 124.7724L 187.408888 137.5491C 166.683688 149.255 153.867188 171.2136 153.867188 195.0161L 153.867188 280M 297.867188 10L 297.867188 35.9597C 297.867188 85.7287 271.068888 131.6421 227.734388 156.1181L 205.113388 168.8947C 195.692888 174.2156 189.867188 184.1968 189.867188 195.0161L 189.867188 280"></path></g></g><g id="cp_0b_g-0b_zk2pb415e8c8x-stroke" fill="none" stroke-linecap="round" stroke-linejoin="round" stroke-miterlimit="4" stroke="#f4f4f4" stroke-width="2"><g><path d="M 357.868035 10L 357.868035 54.5797C 357.868035 88.3075 341.195235 119.8548 313.328335 138.8549L 259.927735 175.2644M 393.867935 10L 393.867935 54.5797C 393.867935 100.2115 371.310735 142.893 333.608435 168.5991L 280.207835 205.0086"></path></g></g></g><g id="g-root-cp_0a_g-0a_qofp2815e8d1m-stroke" data-item-order="-439545" transform="translate(488.39453125, 39)"><g id="cp_0a_g-0a_qofp2815e8d1m-stroke" fill="none" stroke-linecap="round" stroke-linejoin="round" stroke-miterlimit="4" stroke="#f4f4f4" stroke-width="2" stroke-dasharray="5.0, 7.0"><g><path d="M 10 190C 12.402 151.8553 25.695 115.0991 48.4282 84.1567L 60.2898 68.0117C 72.7513 51.0504 80.046 30.907 81.3813 10M 165.604138 10L 165.604138 14.7908C 165.604138 49.2536 150.787338 82.0529 124.927838 104.8339C 115.147838 113.4496 105.814038 123.233 99.335938 134.6276M 260.605469 10L 260.605469 35.5772C 260.605469 78.9238 237.518369 118.9125 200.185169 140.2299L 177.773569 153.0271C 162.840269 161.5541 153.605469 177.5495 153.605469 194.8882L 153.605469 275M 255.392578 187.1904L 305.205678 153.227C 337.990178 130.8739 357.605278 93.7595 357.605278 54.0797L 357.605278 10"></path></g></g></g><g id="g-root-cp_4_g-4_dcz6ow15e8emj-stroke" data-item-order="-439535" transform="translate(668, 201)"><g id="cp_4_g-4_dcz6ow15e8emj-stroke" fill="none" stroke-linecap="round" stroke-linejoin="round" stroke-miterlimit="4" stroke="#ffe711" stroke-width="2"><g><path d="M 64 76.988609L 64 363.999969M 28 76.988609L 28 363.999969"></path></g></g><g id="cp_4_g-4_dcz6ow15e8emj-stroke" fill="none" stroke-linecap="round" stroke-linejoin="round" stroke-miterlimit="4" stroke="#ffe711" stroke-width="2"><g><path d="M 10 46C 10 65.882251 26.117749 82 46 82C 65.882251 82 82 65.882251 82 46C 82 26.117749 65.882251 10 46 10C 26.117749 10 10 26.117749 10 46"></path></g></g></g><g id="g-root-cp_3_g-3_8xs5nk15e8c90-stroke" data-item-order="-439525" transform="translate(596, 304)"><g id="cp_3_g-3_8xs5nk15e8c90-stroke" fill="none" stroke-linecap="round" stroke-linejoin="round" stroke-miterlimit="4" stroke="#4f91fc" stroke-width="2"><g><path d="M 64 77.443687L 64 261.000031M 28 77.443687L 28 261.000031"></path></g></g><g id="cp_3_g-3_8xs5nk15e8c90-stroke" fill="none" stroke-linecap="round" stroke-linejoin="round" stroke-miterlimit="4" stroke="#4f91fc" stroke-width="2"><g><path d="M 10 46C 10 65.882251 26.117749 82 46 82C 65.882251 82 82 65.882251 82 46C 82 26.117749 65.882251 10 46 10C 26.117749 10 10 26.117749 10 46"></path></g></g></g><g id="g-root-cp_2_g-2_255eo15e8d1p-stroke" data-item-order="-439515" transform="translate(524, 159)"><g id="cp_2_g-2_255eo15e8d1p-stroke" fill="none" stroke-linecap="round" stroke-linejoin="round" stroke-miterlimit="4" stroke="#fb6762" stroke-width="2"><g><path d="M 64 77.127289L 64 406.000092M 28 77.127289L 28 406.000092"></path></g></g><g id="cp_2_g-2_255eo15e8d1p-stroke" fill="none" stroke-linecap="round" stroke-linejoin="round" stroke-miterlimit="4" stroke="#fb6762" stroke-width="2"><g><path d="M 10 46C 10 65.882251 26.117749 82 46 82C 65.882251 82 82 65.882251 82 46C 82 26.117749 65.882251 10 46 10C 26.117749 10 10 26.117749 10 46"></path></g></g></g><g id="g-root-cp_1_g-1_1lrsp0g15e8efi-stroke" data-item-order="-439505" transform="translate(452, 219)"><g id="cp_1_g-1_1lrsp0g15e8efi-stroke" fill="none" stroke-linecap="round" stroke-linejoin="round" stroke-miterlimit="4" stroke="#43dd93" stroke-width="2"><g><path d="M 64 77.000008L 64 346.000031M 28 77.000008L 28 346.000031"></path></g></g><g id="cp_1_g-1_1lrsp0g15e8efi-stroke" fill="none" stroke-linecap="round" stroke-linejoin="round" stroke-miterlimit="4" stroke="#43dd93" stroke-width="2"><g><path d="M 10 46C 10 65.882251 26.117749 82 46 82C 65.882251 82 82 65.882251 82 46C 82 26.117749 65.882251 10 46 10C 26.117749 10 10 26.117749 10 46"></path></g></g></g><g id="g-root-cp_4_dashed-4_1hclnz415e8c1z-stroke" data-item-order="-439495" transform="translate(704, 272.9609375)"><g id="cp_4_dashed-4_1hclnz415e8c1z-stroke" fill="none" stroke-linecap="round" stroke-linejoin="round" stroke-miterlimit="4" stroke="#ffe711" stroke-width="2" stroke-dasharray="5.0, 7.0"><g><path d="M 10 10L 10 292.039215"></path></g></g></g><g id="g-root-cp_3_dashed-3_1hclnz415e8c20-stroke" data-item-order="-439491" transform="translate(632, 375.972900390625)"><g id="cp_3_dashed-3_1hclnz415e8c20-stroke" fill="none" stroke-linecap="round" stroke-linejoin="round" stroke-miterlimit="4" stroke="#4f91fc" stroke-width="2" stroke-dasharray="5.0, 7.0"><g><path d="M 10 10L 10 189.029327"></path></g></g></g><g id="g-root-cp_2_dashed-2_1cws5uo15e8cu9-stroke" data-item-order="-439487" transform="translate(560, 231)"><g id="cp_2_dashed-2_1cws5uo15e8cu9-stroke" fill="none" stroke-linecap="round" stroke-linejoin="round" stroke-miterlimit="4" stroke="#fb6762" stroke-width="2" stroke-dasharray="5.0, 7.0"><g><path d="M 10 10L 10 334"></path></g></g></g><g id="g-root-cp_1_dashed-1_14155ls15e8dmy-stroke" data-item-order="-439483" transform="translate(488, 291)"><g id="cp_1_dashed-1_14155ls15e8dmy-stroke" fill="none" stroke-linecap="round" stroke-linejoin="round" stroke-miterlimit="4" stroke="#43dd93" stroke-width="2" stroke-dasharray="5.0, 7.0"><g><path d="M 10 10L 10 274"></path></g></g></g><g id="g-root-ic_bust_142e3s015ei7t8-stroke" data-item-order="0" transform="translate(539, 174)"><g id="ic_bust_142e3s015ei7t8-stroke" fill="none" stroke-linecap="round" stroke-linejoin="round" stroke-miterlimit="4" stroke="#fb6762" stroke-width="2"><g><path d="M 44.585251 44.772503L 50.988503 51.175751M 30.383999 38.950249C 30.383999 43.530483 34.097015 47.2435 38.67725 47.2435C 43.257484 47.2435 46.970497 43.530483 46.970497 38.950249C 46.970497 34.370014 43.257484 30.657 38.67725 30.657C 34.097015 30.657 30.383999 34.370014 30.383999 38.950249M 11.386 48.66975L 12.32225 48.66975M 16.23 48.66975L 17.16625 48.66975M 22.7855 48.66975L 23.723499 48.66975M 36.83625 42.112499L 37.772499 41.17625M 38.708752 36.493248L 38.708752 35.088001M 29.396999 27.35825L 30.33325 28.2945M 28.4065 48.66975L 29.342751 48.66975M 19.911734 21.136242L 21.352112 19.695864C 22.210594 18.842838 23.597372 18.845051 24.453129 19.700815L 25.848955 21.096645C 27.102467 22.350149 27.104681 24.381804 25.853907 25.638037L 25.853907 25.638037C 24.598469 26.893475 22.563002 26.893476 21.307564 25.638037L 19.911734 24.242208C 19.054045 23.38452 19.054047 21.993931 19.911734 21.136242ZM 15.711613 16.534618L 16.749821 15.496408C 16.749821 15.496408 18.504507 13.741724 20.259195 15.496408L 21.151386 16.388601C 21.151386 16.388601 22.906071 18.143286 21.151386 19.897972L 20.113176 20.936182C 20.113176 20.936182 18.35849 22.690866 16.603806 20.936182L 15.711613 20.043989C 15.711613 20.043989 13.956926 18.289303 15.711613 16.534618M 11.0185 15.2045C 10.8435 16.5345 13.535 19.098249 15.159 17.19425M 15.39175 10.83125C 16.719999 10.65625 19.283751 13.3495 17.379749 14.97175M 21.077499 16.313999L 22.682251 12.99775M 24.4585 19.695L 26.506001 16.462749M 16.529249 20.8605L 13.21475 22.467001M 19.912001 24.24325L 16.677999 26.290751"></path></g></g></g><g id="g-root-ic_bulb_147dwgw15emg3k-stroke" data-item-order="0" transform="translate(683, 216)"><g id="ic_bulb_147dwgw15emg3k-stroke" fill="none" stroke-linecap="round" stroke-linejoin="round" stroke-miterlimit="4" stroke="#ffe711" stroke-width="2"><g><path d="M 24.0875 26.834999C 23.264999 30.334999 24.3675 33.205002 30.0725 31.875C 34.57 35.637501 36.7925 33.852501 37.702499 30.125C 38.524998 26.625 36.302498 20.08 32.942501 16.93C 32.750256 16.737186 32.475052 16.652002 32.2075 16.702499C 31.941364 16.743618 31.708988 16.904991 31.577499 17.139999C 29.25 21.27 25.032501 22.880001 24.0875 26.834999ZM 26.625 45.875L 35.375 45.875M 26.625 49.375L 35.375 49.375M 31 49.375L 31 51.125M 31 42.375C 31 42.375 28.2875 28.620001 31.9275 22.827499M 46.75 25.75C 46.502247 17.295887 39.454468 10.639651 31 10.875C 22.545534 10.639651 15.497754 17.295887 15.25 25.75C 15.386044 32.531059 20.046051 38.381161 26.625 40.029999L 26.625 41.5C 26.625 41.98325 27.01675 42.375 27.5 42.375L 34.5 42.375C 34.98325 42.375 35.375 41.98325 35.375 41.5L 35.375 40.029999C 41.953949 38.381161 46.61396 32.531059 46.75 25.75Z"></path></g></g></g><g id="g-root-ic_1_qtfhr415e8d8k-stroke" data-item-order="0" transform="translate(467, 234)"><g id="ic_1_qtfhr415e8d8k-stroke" fill="none" stroke-linecap="round" stroke-linejoin="round" stroke-miterlimit="4" stroke="#43dd93" stroke-width="2"><g><path d="M 33.625 37.107498L 33.625 26.17M 37.125 32.75C 36.002441 33.152767 34.817589 33.354191 33.625 33.344997M 12.625 13.9375C 17.457493 13.9375 21.375 17.855009 21.375 22.6875C 24.274496 22.6875 26.625 25.038006 26.625 27.9375C 26.625 37.440002 37.6325 38.4375 42.375 38.4375C 47.207493 38.4375 51.125 42.355011 51.125 47.1875L 51.125 50.6875L 10.875 50.6875L 10.875 13.9375ZM 21.375 22.6875L 19.345001 25.7325M 50.6525 26.6425C 48.601398 32.062557 42.546963 34.796059 37.125 32.75C 39.176105 27.329943 45.230537 24.596441 50.652504 26.6425ZM 33.625 11.3125C 35.596661 13.281967 36.70451 15.954453 36.70451 18.741251C 36.70451 21.528048 35.596661 24.200533 33.625 26.170002C 31.653341 24.200533 30.54549 21.528048 30.54549 18.741251C 30.54549 15.954453 31.653341 13.281967 33.625 11.3125Z"></path></g></g></g><g id="g-root-tx_idealfor_18iu2zk15e8bv1-stroke" data-item-order="0" transform="translate(38, 243)"></g><g id="g-root-tx_bestfora_hwjjc015e8bv3-stroke" data-item-order="0" transform="translate(230, 243)"></g><g id="g-root-tx_suitable_18k315s15e8e17-stroke" data-item-order="0" transform="translate(230, 423)"></g><g id="g-root-tx_bugfixbr_v7dkm815e8dfy-stroke" data-item-order="0" transform="translate(230, 183)"></g><g id="g-root-ic_box_59iu815ejkeg-stroke" data-item-order="0" transform="translate(611, 318)"><g id="ic_box_59iu815ejkeg-stroke" fill="none" stroke-linecap="round" stroke-linejoin="round" stroke-miterlimit="4" stroke="#4f91fc" stroke-width="2"><g><path d="M 11.75 41.722252L 31 46.972252M 31 46.972252L 50.25 41.722252M 11.75 41.722252L 21.362751 39.203999M 11.75 49.703999L 11.75 41.941002M 50.25 41.941002L 50.25 49.703999M 31 50.578999L 31 46.972252M 37.125 20.6085C 37.125 23.991249 36.104752 32.858501 31 32.858501C 25.89525 32.858501 24.875 24 24.875 20.6085C 24.875 14.4835 31 11.421 31 11.421C 31 11.421 37.125 14.4835 37.125 20.6085ZM 28.59725 20.38975C 28.596962 21.716955 29.672794 22.793022 31 22.793022C 32.327206 22.793022 33.403038 21.716955 33.402752 20.38975C 33.403038 19.062544 32.327206 17.986479 31 17.986479C 29.672794 17.986479 28.596962 19.062544 28.59725 20.38975M 26.94525 31.28175L 25.53125 31.990499C 24.731756 32.414871 23.999348 32.955036 23.35775 33.593498C 23.043745 33.930286 22.558285 34.045715 22.126299 33.886299C 21.694313 33.726887 21.400208 33.323776 21.380249 32.86375C 21.072128 30.170206 22.578575 27.596485 25.078001 26.546251M 35.054752 31.28175L 36.46875 31.990499C 37.268242 32.414871 38.000652 32.955036 38.642246 33.593498C 38.956253 33.930286 39.441715 34.045715 39.873699 33.886299C 40.305683 33.726887 40.599792 33.323776 40.619751 32.86375C 40.927876 30.170206 39.421429 27.596485 36.922001 26.546251M 50.25 41.722252L 40.637249 39.203999M 33.450001 38.012249C 33.450001 39.365002 32.352749 42.637501 31 42.637501C 29.647251 42.637501 28.550001 39.365002 28.550001 38.012249C 28.550001 36.659153 29.646904 35.562252 31 35.562252C 32.3531 35.562252 33.450001 36.659153 33.450001 38.012249Z"></path></g></g></g><g id="g-root-tx_featureb_1upb4io15e8cn8-stroke" data-item-order="0" transform="translate(38, 183)"></g><g id="g-root-tx_whichbra_zlbnhc15e8ef7-stroke" data-item-order="0" transform="translate(38, 99)"></g><g id="g-root-tx_releaseb_90wj3415e8dfk-stroke" data-item-order="0" transform="translate(38, 363)"></g><g id="g-root-tx_experime_1lvjjj415e8cga-stroke" data-item-order="0" transform="translate(230, 363)"></g><g id="g-root-tx_usedforp_59iu815e8e89-stroke" data-item-order="0" transform="translate(38, 423)"></g></g></g></svg>