<?xml version="1.0" encoding="utf-8" standalone="yes"?>
<!DOCTYPE svg PUBLIC "-//W3C//DTD SVG 1.1//EN" "http://www.w3.org/Graphics/SVG/1.1/DTD/svg11.dtd">
<svg width="1034" height="512" viewBox="0 0 1034 512" style="fill:none;stroke:none;fill-rule:evenodd;clip-rule:evenodd;stroke-linecap:round;stroke-linejoin:round;stroke-miterlimit:1.5;" version="1.1" xmlns="http://www.w3.org/2000/svg" xmlns:xlink="http://www.w3.org/1999/xlink"><style class="text-font-style fontImports" data-font-family="Roboto">@import url(https://fonts.googleapis.com/css2?family=Roboto:wght@400;700&amp;amp;display=block);</style><g id="items" style="isolation: isolate"><g id="blend" style="mix-blend-mode: normal"><g id="g-root-cp_2_Frame_6_145h8y0zut5hg-fill" data-item-order="-410155" transform="translate(477, 243)"></g><g id="g-root-cp_1_g-1_v9u8p4zut6a5-fill" data-item-order="-410131" transform="translate(309, 327)"></g><g id="g-root-cp_1_line_qun7nszut3wm-fill" data-item-order="-410119" transform="translate(476, 386)"></g><g id="g-root-cp_3_g-3_hz07ewzut4pb-fill" data-item-order="-410109" transform="translate(526, 326)"></g><g id="g-root-cp_3_line_3_dj6pagzut5hk-fill" data-item-order="-410087" transform="translate(526, 386)"></g><g id="g-root-sy_2_line-2_dj6pagzut5hl-fill" data-item-order="-410079" transform="translate(501, 302)"></g><g id="g-root-tx_whichcom_93d760zut69u-fill" data-item-order="0" transform="translate(207, 38)"><g id="tx_whichcom_93d760zut69u-fill" stroke="none" fill="#f4f4f4"><g><text style="font: bold 25px Roboto, sans-serif; white-space: pre;" font-weight="bold" font-size="25px" font-family="Roboto, sans-serif"><tspan x="13.19" y="43" dominant-baseline="ideographic">Which command should I use to manage directories?</tspan></text></g></g></g><g id="g-root-tx_changedi_8co08zut3wr-fill" data-item-order="0" transform="translate(423, 154)"><g id="tx_changedi_8co08zut3wr-fill" stroke="none" fill="#43dd93"><g><text style="font: 20px Roboto, sans-serif; white-space: pre;" font-size="20px" font-family="Roboto, sans-serif"><tspan x="12" y="34" dominant-baseline="ideographic">Change Directory</tspan></text></g></g></g><g id="g-root-tx_usecdton_1ly07m0zut5ak-fill" data-item-order="0" transform="translate(393, 190)"><g id="tx_usecdton_1ly07m0zut5ak-fill" stroke="none" fill="#f4f4f4"><g><text style="font: 15px Roboto, sans-serif; white-space: pre;" font-size="15px" font-family="Roboto, sans-serif"><tspan x="12" y="28" dominant-baseline="ideographic">Use `cd` to navigate to different </tspan><tspan x="12" y="46" dominant-baseline="ideographic">directories.</tspan></text></g></g></g><g id="g-root-ic_exch_1hi6phkzut62t-fill" data-item-order="0" transform="translate(489, 255)"></g><g id="g-root-tx_listfile_v6pv9kzv06bq-fill" data-item-order="0" transform="translate(200, 326)"><g id="tx_listfile_v6pv9kzv06bq-fill" stroke="none" fill="#4f91fc"><g><text style="font: 20px Roboto, sans-serif; white-space: pre;" font-size="20px" font-family="Roboto, sans-serif"><tspan x="12.83" y="34" dominant-baseline="ideographic">List Files</tspan></text></g></g></g><g id="g-root-ic_sear_dg2buwzv05j5-fill" data-item-order="0" transform="translate(320, 338)"></g><g id="g-root-ic_1_qns2vczugh6p-fill" data-item-order="0" transform="translate(658, 338)"></g><g id="g-root-tx_createdi_hs52mgzut5hi-fill" data-item-order="0" transform="translate(730, 326)"><g id="tx_createdi_hs52mgzut5hi-fill" stroke="none" fill="#f79438"><g><text style="font: 20px Roboto, sans-serif; white-space: pre;" font-size="20px" font-family="Roboto, sans-serif"><tspan x="12" y="34" dominant-baseline="ideographic">Create Directory</tspan></text></g></g></g><g id="g-root-tx_uselsord_mb2v0ozv074f-fill" data-item-order="0" transform="translate(44, 362)"><g id="tx_uselsord_mb2v0ozv074f-fill" stroke="none" fill="#f4f4f4"><g><text style="font: 15px Roboto, sans-serif; white-space: pre;" font-size="15px" font-family="Roboto, sans-serif"><tspan x="20.06" y="28" dominant-baseline="ideographic">Use `ls` or `dir` to view contents of </tspan><tspan x="110.48" y="46" dominant-baseline="ideographic">the current directory.</tspan></text></g></g></g><g id="g-root-tx_usemkdir_4hb1c8zut3wn-fill" data-item-order="0" transform="translate(730, 362)"><g id="tx_usemkdir_4hb1c8zut3wn-fill" stroke="none" fill="#f4f4f4"><g><text style="font: 15px Roboto, sans-serif; white-space: pre;" font-size="15px" font-family="Roboto, sans-serif"><tspan x="12" y="28" dominant-baseline="ideographic">Use `mkdir` to create new </tspan><tspan x="12" y="46" dominant-baseline="ideographic">directories.</tspan></text></g></g></g><g id="g-root-cp_2_Frame_6_145h8y0zut5hg-stroke" data-item-order="-410155" transform="translate(477, 243)"><g id="cp_2_Frame_6_145h8y0zut5hg-stroke" fill="none" stroke-linecap="round" stroke-linejoin="round" stroke-miterlimit="4" stroke="#43dd93" stroke-width="2"><g><path d="M 69.6667 39.5C 69.6667 55.7924 56.3098 69 39.8333 69C 23.3568 69 10 55.7924 10 39.5C 10 23.2076 23.3568 10 39.8333 10C 56.3098 10 69.6667 23.2076 69.6667 39.5ZM 69.1491 45C 69.5404 43.0937 69.6667 41.5205 69.6667 39.5C 69.6667 37.4795 69.3314 34.9063 68.9401 33"></path></g></g></g><g id="g-root-cp_1_g-1_v9u8p4zut6a5-stroke" data-item-order="-410131" transform="translate(309, 327)"><g id="cp_1_g-1_v9u8p4zut6a5-stroke" fill="none" stroke-linecap="round" stroke-linejoin="round" stroke-miterlimit="4" stroke="#4f91fc" stroke-width="2"><g><path d="M 69.6667 39.5C 69.6667 55.7924 56.3098 69 39.8333 69C 23.3568 69 10 55.7924 10 39.5C 10 23.2076 23.3568 10 39.8333 10C 56.3098 10 69.6667 23.2076 69.6667 39.5ZM 177 69C 177 55.9661 166.1812 45 153 45L 69.1491 45C 69.5404 43.0937 69.6667 41.5205 69.6667 39.5C 69.6667 37.4795 69.3314 34.9063 68.9401 33L 153 33C 172.7718 33 189 49.4491 189 69"></path></g></g></g><g id="g-root-cp_1_line_qun7nszut3wm-stroke" data-item-order="-410119" transform="translate(476, 386)"><g id="cp_1_line_qun7nszut3wm-stroke" fill="none" stroke-linecap="round" stroke-linejoin="round" stroke-miterlimit="4" stroke="#4f91fc" stroke-width="2"><g><path d="M 10 10L 10 44C 14.6863 44 17.3137 44 22 44L 22 10"></path></g></g></g><g id="g-root-cp_3_g-3_hz07ewzut4pb-stroke" data-item-order="-410109" transform="translate(526, 326)"><g id="cp_3_g-3_hz07ewzut4pb-stroke" fill="none" stroke-linecap="round" stroke-linejoin="round" stroke-miterlimit="4" stroke="#f79438" stroke-width="2"><g><path d="M 129.3333 39.5C 129.3333 55.7924 142.6902 69 159.1667 69C 175.6432 69 189 55.7924 189 39.5C 189 23.2076 175.6432 10 159.1667 10C 142.6902 10 129.3333 23.2076 129.3333 39.5ZM 10 70L 10 69C 10 49.4491 26.2282 33 46 33L 130.0599 33C 129.6686 34.9063 129.3333 37.4795 129.3333 39.5C 129.3333 41.5205 129.4596 43.0937 129.8509 45L 46 45C 32.8188 45 22 55.9661 22 69L 22 70"></path></g></g></g><g id="g-root-cp_3_line_3_dj6pagzut5hk-stroke" data-item-order="-410087" transform="translate(526, 386)"><g id="cp_3_line_3_dj6pagzut5hk-stroke" fill="none" stroke-linecap="round" stroke-linejoin="round" stroke-miterlimit="4" stroke="#f79438" stroke-width="2"><g><path d="M 10 10L 10 44L 22 44L 22 10"></path></g></g></g><g id="g-root-sy_2_line-2_dj6pagzut5hl-stroke" data-item-order="-410079" transform="translate(501, 302)"><g id="sy_2_line-2_dj6pagzut5hl-stroke" fill="none" stroke-linecap="round" stroke-linejoin="round" stroke-miterlimit="4" stroke="#43dd93" stroke-width="2"><g><path d="M 10 10L 22 10L 22 128L 10 128Z"></path></g></g></g><g id="g-root-tx_whichcom_93d760zut69u-stroke" data-item-order="0" transform="translate(207, 38)"></g><g id="g-root-tx_changedi_8co08zut3wr-stroke" data-item-order="0" transform="translate(423, 154)"></g><g id="g-root-tx_usecdton_1ly07m0zut5ak-stroke" data-item-order="0" transform="translate(393, 190)"></g><g id="g-root-ic_exch_1hi6phkzut62t-stroke" data-item-order="0" transform="translate(489, 255)"><g id="ic_exch_1hi6phkzut62t-stroke" fill="none" stroke-linecap="round" stroke-linejoin="round" stroke-miterlimit="4" stroke="#43dd93" stroke-width="2"><g><path d="M 31.75 24.25L 31.75 15.25C 31.75 14.421573 31.078428 13.75 30.25 13.75L 19.75 13.75C 19.277864 13.75 18.833282 13.527709 18.549999 13.15L 17.200001 11.35C 16.916718 10.972291 16.472136 10.75 16 10.75L 12.25 10.75C 11.421573 10.75 10.75 11.421573 10.75 12.25L 10.75 25.75C 10.75 26.578428 11.421573 27.25 12.25 27.25L 21.25 27.25M 43.75 31.75L 33.25 31.75C 32.777863 31.75 32.333282 31.527708 32.049999 31.150002L 30.700001 29.349998C 30.416719 28.972292 29.972136 28.75 29.5 28.75L 25.75 28.75C 24.921572 28.75 24.25 29.421572 24.25 30.25L 24.25 43.75C 24.25 44.578426 24.921572 45.25 25.75 45.25L 43.75 45.25C 44.578426 45.25 45.25 44.578426 45.25 43.75L 45.25 33.25C 45.25 32.421574 44.578426 31.75 43.75 31.75ZM 45.25 21.25L 45.25 19C 45.25 17.75736 44.242641 16.75 43 16.75L 35.5 16.75M 38.5 13.75L 35.5 16.75L 38.5 19.75M 10.75 34.75L 10.75 37C 10.75 38.242641 11.75736 39.25 13 39.25L 20.5 39.25M 17.5 42.25L 20.5 39.25L 17.5 36.25"></path></g></g></g><g id="g-root-tx_listfile_v6pv9kzv06bq-stroke" data-item-order="0" transform="translate(200, 326)"></g><g id="g-root-ic_sear_dg2buwzv05j5-stroke" data-item-order="0" transform="translate(320, 338)"><g id="ic_sear_dg2buwzv05j5-stroke" fill="none" stroke-linecap="round" stroke-linejoin="round" stroke-miterlimit="4" stroke="#4f91fc" stroke-width="2"><g><path d="M 28.75 35.543499C 28.75 39.295444 31.791553 42.336998 35.543499 42.336998C 39.295444 42.336998 42.336998 39.295444 42.336998 35.543499C 42.336998 31.791553 39.295444 28.75 35.543499 28.75C 31.791553 28.75 28.75 31.791553 28.75 35.543499ZM 45.25 45.25L 40.378002 40.378002M 16.75 22.75L 31 22.75M 16.75 27.25L 25.75 27.25M 16.75 18.25L 27.25 18.25M 16.75 31.75L 22.75 31.75M 16.75 36.25L 22.75 36.25M 28.75 45.25L 12.25 45.25C 11.421573 45.25 10.75 44.578426 10.75 43.75L 10.75 12.25C 10.75 11.421573 11.421573 10.75 12.25 10.75L 32.189499 10.75C 32.587292 10.750085 32.968761 10.908176 33.25 11.1895L 38.810501 16.75C 39.091827 17.031239 39.249916 17.412708 39.25 17.810499L 39.25 24.25"></path></g></g></g><g id="g-root-ic_1_qns2vczugh6p-stroke" data-item-order="0" transform="translate(658, 338)"><g id="ic_1_qns2vczugh6p-stroke" fill="none" stroke-linecap="round" stroke-linejoin="round" stroke-miterlimit="4" stroke="#f79438" stroke-width="2"><g><path d="M 10 10M 38.412552 32.57515L 39.351849 36.2341C 39.763752 37.838951 38.796852 39.473801 37.192001 39.885849L 21.148991 44.00425C 19.54417 44.416302 17.909229 43.449249 17.497255 41.844402L 11.829325 19.765795C 11.417339 18.160975 12.384325 16.526035 13.989145 16.114059L 30.032051 11.995584C 31.35145 11.6569 32.691101 12.250165 33.354851 13.363615M 10 10M 38.409252 27.028151L 38.409252 15.314455M 10 10M 32.552799 21.170904L 44.2663 21.170904"></path></g></g></g><g id="g-root-tx_createdi_hs52mgzut5hi-stroke" data-item-order="0" transform="translate(730, 326)"></g><g id="g-root-tx_uselsord_mb2v0ozv074f-stroke" data-item-order="0" transform="translate(44, 362)"></g><g id="g-root-tx_usemkdir_4hb1c8zut3wn-stroke" data-item-order="0" transform="translate(730, 362)"></g></g></g></svg>