<?xml version="1.0" encoding="utf-8" standalone="yes"?>
<!DOCTYPE svg PUBLIC "-//W3C//DTD SVG 1.1//EN" "http://www.w3.org/Graphics/SVG/1.1/DTD/svg11.dtd">
<svg width="760" height="510" viewBox="0 0 760 510" style="fill:none;stroke:none;fill-rule:evenodd;clip-rule:evenodd;stroke-linecap:round;stroke-linejoin:round;stroke-miterlimit:1.5;" version="1.1" xmlns="http://www.w3.org/2000/svg" xmlns:xlink="http://www.w3.org/1999/xlink"><style class="text-font-style fontImports" data-font-family="Roboto">@import url(https://fonts.googleapis.com/css2?family=Roboto:wght@400;700&amp;amp;display=block);</style><g id="items" style="isolation: isolate"><g id="blend" style="mix-blend-mode: normal"><g id="g-root-cp_0_g-0_1lrss3k1868hzh-fill" data-item-order="-294257" transform="translate(104.26998901367188, 155.465087890625)"></g><g id="g-root-cp_3_g-3_1hbz9z41868irq-fill" data-item-order="-294253" transform="translate(26, 122)"></g><g id="g-root-cp_2_g-2_18gc9q81868jkf-fill" data-item-order="-294249" transform="translate(125.23599243164062, 297.465087890625)"></g><g id="g-root-cp_1_g-1_1cw5ruo1868jk0-fill" data-item-order="-294245" transform="translate(227.77499389648438, 122.27294921875)"></g><g id="g-root-cp_1_g-1_1_140irls1868kcp-fill" data-item-order="-294225" transform="translate(438.052001953125, 130.64794921875)"></g><g id="g-root-cp_2_g-2_1_zlbqkg1868hz6-fill" data-item-order="-294209" transform="translate(438.052001953125, 226.64794921875)"></g><g id="g-root-cp_3_g-3_1_qpoqbk1868irv-fill" data-item-order="-294195" transform="translate(438.053955078125, 346.64794921875)"></g><g id="g-root-tx_benefits_zmkoqo1868k5g-fill" data-item-order="0" transform="translate(184, 38)"><g id="tx_benefits_zmkoqo1868k5g-fill" stroke="none" fill="#f4f4f4"><g><text style="font: bold 25px Roboto, sans-serif; white-space: pre;" font-weight="bold" font-size="25px" font-family="Roboto, sans-serif"><tspan x="12.48" y="43" dominant-baseline="ideographic">Benefits of Using .gitignore Files</tspan></text></g></g></g><g id="g-root-tx_preventi_dhbd5c1408zd8-fill" data-item-order="0" transform="translate(474.053955078125, 130.64892578125)"><g id="tx_preventi_dhbd5c1408zd8-fill" stroke="none" fill="#fb6762"><g><text style="font: 20px Roboto, sans-serif; white-space: pre;" font-size="20px" font-family="Roboto, sans-serif"><tspan x="12" y="34" dominant-baseline="ideographic">Preventing Tracking</tspan></text></g></g></g><g id="g-root-tx_prevents_1urrvps1408ydi-fill" data-item-order="0" transform="translate(474.053955078125, 166.64892578125)"><g id="tx_prevents_1urrvps1408ydi-fill" stroke="none" fill="#f4f4f4"><g><text style="font: 15px Roboto, sans-serif; white-space: pre;" font-size="15px" font-family="Roboto, sans-serif"><tspan x="12" y="28" dominant-baseline="ideographic">Prevents unnecessary files from </tspan><tspan x="12" y="46" dominant-baseline="ideographic">being tracked by Git</tspan></text></g></g></g><g id="g-root-ic_dust_dg3n7k1868jda-fill" data-item-order="0" transform="translate(78.5260009765625, 191)"></g><g id="g-root-ic_disa_7q6vk140sooy-fill" data-item-order="0" transform="translate(276.5260009765625, 191)"></g><g id="g-root-tx_protecti_dj6seo1408ydn-fill" data-item-order="0" transform="translate(474.053955078125, 226.64892578125)"><g id="tx_protecti_dj6seo1408ydn-fill" stroke="none" fill="#43dd93"><g><text style="font: 20px Roboto, sans-serif; white-space: pre;" font-size="20px" font-family="Roboto, sans-serif"><tspan x="12" y="34" dominant-baseline="ideographic">Protecting Sensitive </tspan><tspan x="12" y="58" dominant-baseline="ideographic">Information</tspan></text></g></g></g><g id="g-root-tx_keepssen_93daa81408z5w-fill" data-item-order="0" transform="translate(474.053955078125, 286.64892578125)"><g id="tx_keepssen_93daa81408z5w-fill" stroke="none" fill="#f4f4f4"><g><text style="font: 15px Roboto, sans-serif; white-space: pre;" font-size="15px" font-family="Roboto, sans-serif"><tspan x="12" y="28" dominant-baseline="ideographic">Keeps sensitive data safe from </tspan><tspan x="12" y="46" dominant-baseline="ideographic">accidental commits</tspan></text></g></g></g><g id="g-root-ic_lock_1lymonk140llos-fill" data-item-order="0" transform="translate(177.97601318359375, 357)"></g><g id="g-root-tx_keepingr_7qa1c1408zyl-fill" data-item-order="0" transform="translate(474.053955078125, 346.64892578125)"><g id="tx_keepingr_7qa1c1408zyl-fill" stroke="none" fill="#a6da37"><g><text style="font: 20px Roboto, sans-serif; white-space: pre;" font-size="20px" font-family="Roboto, sans-serif"><tspan x="12" y="34" dominant-baseline="ideographic">Keeping Repository Clean</tspan></text></g></g></g><g id="g-root-tx_maintain_1lxdtn414091ce-fill" data-item-order="0" transform="translate(474.053955078125, 382.64892578125)"><g id="tx_maintain_1lxdtn414091ce-fill" stroke="none" fill="#f4f4f4"><g><text style="font: 15px Roboto, sans-serif; white-space: pre;" font-size="15px" font-family="Roboto, sans-serif"><tspan x="12" y="28" dominant-baseline="ideographic">Maintains a clutter-free and </tspan><tspan x="12" y="46" dominant-baseline="ideographic">organized repository</tspan></text></g></g></g><g id="g-root-cp_0_g-0_1lrss3k1868hzh-stroke" data-item-order="-294257" transform="translate(104.26998901367188, 155.465087890625)"><g id="cp_0_g-0_1lrss3k1868hzh-stroke" fill="none" stroke-linecap="round" stroke-linejoin="round" stroke-miterlimit="4" stroke="#f4f4f4" stroke-width="2"><g><path d="M 67.4251 80.7868L 82.4105 106.9928L 52.0142 107.4793L 10 180.25L 90.1797 180.25L 106.6466 152L 123.5653 180.25L 206.5878 180.25L 165.2431 108.6389L 133.5057 108.5072L 149.0411 80.5762L 108.2939 10L 67.4251 80.7868Z"></path></g></g></g><g id="g-root-cp_3_g-3_1hbz9z41868irq-stroke" data-item-order="-294253" transform="translate(26, 122)"><g id="cp_3_g-3_1hbz9z41868irq-stroke" fill="none" stroke-linecap="round" stroke-linejoin="round" stroke-miterlimit="4" stroke="#a6da37" stroke-width="2"><g><path d="M 160.6799 140.4576L 86.0805 10L 10 142.8693L 160.6799 140.4576Z"></path></g></g></g><g id="g-root-cp_2_g-2_18gc9q81868jkf-stroke" data-item-order="-294249" transform="translate(125.23599243164062, 297.465087890625)"><g id="cp_2_g-2_18gc9q81868jkf-stroke" fill="none" stroke-linecap="round" stroke-linejoin="round" stroke-miterlimit="4" stroke="#43dd93" stroke-width="2"><g><path d="M 85.6799 10L 10 139.8338L 163.1085 139.2867L 85.6799 10Z"></path></g></g></g><g id="g-root-cp_1_g-1_1cw5ruo1868jk0-stroke" data-item-order="-294245" transform="translate(227.77499389648438, 122.27294921875)"><g id="cp_1_g-1_1cw5ruo1868jk0-stroke" fill="none" stroke-linecap="round" stroke-linejoin="round" stroke-miterlimit="4" stroke="#fb6762" stroke-width="2"><g><path d="M 10 141.6985L 160.2793 142.3223L 83.2513 10L 10 141.6985Z"></path></g></g></g><g id="g-root-cp_1_g-1_1_140irls1868kcp-stroke" data-item-order="-294225" transform="translate(438.052001953125, 130.64794921875)"><g id="cp_1_g-1_1_140irls1868kcp-stroke" fill="none" stroke-linecap="round" stroke-linejoin="round" stroke-miterlimit="4" stroke="#fb6762" stroke-width="2"><g><path d="M 10 10L 10 39L 34 24.1778L 10 10Z"></path></g></g></g><g id="g-root-cp_2_g-2_1_zlbqkg1868hz6-stroke" data-item-order="-294209" transform="translate(438.052001953125, 226.64794921875)"><g id="cp_2_g-2_1_zlbqkg1868hz6-stroke" fill="none" stroke-linecap="round" stroke-linejoin="round" stroke-miterlimit="4" stroke="#43dd93" stroke-width="2"><g><path d="M 10 10L 10 39L 34 24.1778L 10 10Z"></path></g></g></g><g id="g-root-cp_3_g-3_1_qpoqbk1868irv-stroke" data-item-order="-294195" transform="translate(438.053955078125, 346.64794921875)"><g id="cp_3_g-3_1_qpoqbk1868irv-stroke" fill="none" stroke-linecap="round" stroke-linejoin="round" stroke-miterlimit="4" stroke="#a6da37" stroke-width="2"><g><path d="M 10 10L 10 39L 34 24.1778L 10 10Z"></path></g></g></g><g id="g-root-tx_benefits_zmkoqo1868k5g-stroke" data-item-order="0" transform="translate(184, 38)"></g><g id="g-root-tx_preventi_dhbd5c1408zd8-stroke" data-item-order="0" transform="translate(474.053955078125, 130.64892578125)"></g><g id="g-root-tx_prevents_1urrvps1408ydi-stroke" data-item-order="0" transform="translate(474.053955078125, 166.64892578125)"></g><g id="g-root-ic_dust_dg3n7k1868jda-stroke" data-item-order="0" transform="translate(78.5260009765625, 191)"><g id="ic_dust_dg3n7k1868jda-stroke" fill="none" stroke-linecap="round" stroke-linejoin="round" stroke-miterlimit="4" stroke="#a6da37" stroke-width="2"><g><path d="M 10 10M 56.499802 42.5L 37.499802 56.5L 56.499802 56.5L 56.499802 42.5ZM 56.499802 42.5L 56.499802 12.5M 10 10M 11.500122 11.5L 22.50012 30.5M 18.100079 41.099998C 16.10008 37.700001 18.100079 33.099998 22.50008 30.5C 26.90008 28.099939 31.9 28.699921 33.700001 32.099998L 18.100079 41.099998ZM 10 10M 18.1001 41.099998L 22.500099 48.900002M 10 10M 23.30018 38.099998L 27.70018 45.900002M 10 10M 28.50012 35.099998L 32.9002 42.900002M 10 10M 33.700001 32.099998L 38.099998 39.900002M 13.90012 56.500198C 13.6792 56.500198 13.50012 56.321201 13.50012 56.100201C 13.50012 55.879398 13.6792 55.700199 13.90012 55.700199M 13.90004 56.500198C 14.12096 56.500198 14.300039 56.321201 14.300039 56.100201C 14.300039 55.879398 14.12096 55.700199 13.90004 55.700199M 20.90012 56.500198C 20.679199 56.500198 20.50012 56.321201 20.50012 56.100201C 20.50012 55.879398 20.679199 55.700199 20.90012 55.700199M 20.90004 56.500198C 21.12096 56.500198 21.300041 56.321201 21.300041 56.100201C 21.300041 55.879398 21.12096 55.700199 20.90004 55.700199M 27.90012 56.500198C 27.679199 56.500198 27.50012 56.321201 27.50012 56.100201C 27.50012 55.879398 27.679199 55.700199 27.90012 55.700199M 27.90004 56.500198C 28.12096 56.500198 28.300039 56.321201 28.300039 56.100201C 28.300039 55.879398 28.12096 55.700199 27.90004 55.700199"></path></g></g></g><g id="g-root-ic_disa_7q6vk140sooy-stroke" data-item-order="0" transform="translate(276.5260009765625, 191)"><g id="ic_disa_7q6vk140sooy-stroke" fill="none" stroke-linecap="round" stroke-linejoin="round" stroke-miterlimit="4" stroke="#fb6762" stroke-width="2"><g><path d="M 29 57L 13 57C 11.895431 57 11 56.104568 11 55L 11 13C 11 11.895431 11.895431 11 13 11L 39.585999 11C 40.11639 11.000113 40.625015 11.210901 41 11.586L 48.414001 19C 48.789101 19.374985 48.999886 19.88361 49 20.414L 49 27M 35.214001 31.780001L 25.271999 26.427999C 24.798553 26.164074 24.22072 26.170725 23.753475 26.445478C 23.286228 26.720232 22.999516 27.22196 23 27.764L 23 39.236C 22.999516 39.778038 23.286228 40.279766 23.753475 40.55452C 24.22072 40.829273 24.798553 40.835922 25.271999 40.571999L 29.622 37.896M 33 45C 33 51.627419 38.372581 57 45 57C 51.627419 57 57 51.627419 57 45C 57 38.372581 51.627419 33 45 33C 38.372581 33 33 38.372581 33 45ZM 36.515999 53.484001L 53.486 36.514"></path></g></g></g><g id="g-root-tx_protecti_dj6seo1408ydn-stroke" data-item-order="0" transform="translate(474.053955078125, 226.64892578125)"></g><g id="g-root-tx_keepssen_93daa81408z5w-stroke" data-item-order="0" transform="translate(474.053955078125, 286.64892578125)"></g><g id="g-root-ic_lock_1lymonk140llos-stroke" data-item-order="0" transform="translate(177.97601318359375, 357)"><g id="ic_lock_1lymonk140llos-stroke" fill="none" stroke-linecap="round" stroke-linejoin="round" stroke-miterlimit="4" stroke="#43dd93" stroke-width="2"><g><path d="M 11.044 19.001999C 11.044001 23.420277 19.550591 27.002001 30.044001 27.002001C 40.537411 27.002001 49.043999 23.420277 49.043999 19.001999C 49.043999 14.583722 40.537411 11.002 30.044001 11.002C 19.550591 11.002 11.044001 14.583722 11.044001 19.001999ZM 32.042 34.958C 31.382 34.987999 30.718 35.001999 30.042 35.001999C 19.549999 35.001999 11.042 31.422001 11.042 27.002001M 32.042 43.958C 31.382 43.987999 30.718 44.001999 30.042 44.001999C 19.549999 44.001999 11.042 40.422001 11.042 36.001999M 49.042 28.002001L 49.042 19.001999M 11.042 19L 11.042 45C 11.042 49.419998 19.549999 53 30.042 53C 30.718 53 31.386 52.986 32.042 52.956001M 57.042 55C 57.042 56.104568 56.146568 57 55.042 57L 41.042 57C 39.937431 57 39.042 56.104568 39.042 55L 39.042 43C 39.042 41.895432 39.937431 41 41.042 41L 55.042 41C 56.146568 41 57.042 41.895432 57.042 43ZM 45.542 49.127998C 45.542 50.508713 46.661289 51.628002 48.042 51.628002C 49.422714 51.628002 50.542 50.508713 50.542 49.128002C 50.542 47.747288 49.422714 46.628002 48.042 46.628002C 46.661289 46.628002 45.542 47.747288 45.542 49.128002ZM 53.042 38C 53.042 35.238579 50.803425 33 48.042 33C 45.280579 33 43.042 35.238579 43.042 38L 43.042 41L 53.042 41Z"></path></g></g></g><g id="g-root-tx_keepingr_7qa1c1408zyl-stroke" data-item-order="0" transform="translate(474.053955078125, 346.64892578125)"></g><g id="g-root-tx_maintain_1lxdtn414091ce-stroke" data-item-order="0" transform="translate(474.053955078125, 382.64892578125)"></g></g></g></svg>