<?xml version="1.0" encoding="utf-8" standalone="yes"?>
<!DOCTYPE svg PUBLIC "-//W3C//DTD SVG 1.1//EN" "http://www.w3.org/Graphics/SVG/1.1/DTD/svg11.dtd">
<svg width="786" height="390" viewBox="0 0 786 390" style="fill:none;stroke:none;fill-rule:evenodd;clip-rule:evenodd;stroke-linecap:round;stroke-linejoin:round;stroke-miterlimit:1.5;" version="1.1" xmlns="http://www.w3.org/2000/svg" xmlns:xlink="http://www.w3.org/1999/xlink"><style class="text-font-style fontImports" data-font-family="Roboto">@import url(https://fonts.googleapis.com/css2?family=Roboto:wght@400;700&amp;amp;display=block);</style><g id="items" style="isolation: isolate"><g id="blend" style="mix-blend-mode: normal"><g id="g-root-sy_3_line_1ly0dx4zkmjv3-fill" data-item-order="-38843" transform="translate(296, 164)"></g><g id="g-root-sy_1_line_1hitcvszkmhhk-fill" data-item-order="-38837" transform="translate(295.9999084472656, 56)"></g><g id="g-root-sy_2_line_1hitcvszkmhhl-fill" data-item-order="-38831" transform="translate(295.9997863769531, 164)"></g><g id="g-root-sy_0_line_1d2zurczkmi9u-fill" data-item-order="-38827" transform="translate(224, 164)"></g><g id="g-root-ic_mana_1q6yuewzkgwej-fill" data-item-order="0" transform="translate(416, 38)"></g><g id="g-root-tx_usegitfo_4g26bczknw1s-fill" data-item-order="0" transform="translate(464, 44)"><g id="tx_usegitfo_4g26bczknw1s-fill" stroke="none" fill="#43dd93"><g><text style="font: 20px Roboto, sans-serif; white-space: pre;" font-size="20px" font-family="Roboto, sans-serif"><tspan x="12" y="34" dominant-baseline="ideographic">Use Git for Version Control</tspan></text></g></g></g><g id="g-root-ic_2_1uu9yewzkwc91-fill" data-item-order="0" transform="translate(80, 92)"></g><g id="g-root-tx_gitallow_958sqgzkmjuv-fill" data-item-order="0" transform="translate(464, 80)"><g id="tx_gitallow_958sqgzkmjuv-fill" stroke="none" fill="#f4f4f4"><g><text style="font: 15px Roboto, sans-serif; white-space: pre;" font-size="15px" font-family="Roboto, sans-serif"><tspan x="12" y="28" dominant-baseline="ideographic">Git allows tracking changes, comparing </tspan><tspan x="12" y="46" dominant-baseline="ideographic">snapshots, and collaborating with others.</tspan></text></g></g></g><g id="g-root-ic_text_1lz9f94zkfhmy-fill" data-item-order="0" transform="translate(416, 146)"></g><g id="g-root-tx_howtoman_1ulj81kzknwnd-fill" data-item-order="0" transform="translate(14, 164)"><g id="tx_howtoman_1ulj81kzknwnd-fill" stroke="none" fill="#f4f4f4"><g><text style="font: bold 25px Roboto, sans-serif; white-space: pre;" font-weight="bold" font-size="25px" font-family="Roboto, sans-serif"><tspan x="15.38" y="40" dominant-baseline="ideographic">How to manage </tspan><tspan x="24.9" y="70" dominant-baseline="ideographic">code changes </tspan><tspan x="82.16" y="100" dominant-baseline="ideographic">and </tspan><tspan x="23.04" y="130" dominant-baseline="ideographic">collaboration?</tspan></text></g></g></g><g id="g-root-tx_useremot_dl2auwzkmj2m-fill" data-item-order="0" transform="translate(464, 152)"><g id="tx_useremot_dl2auwzkmj2m-fill" stroke="none" fill="#4f91fc"><g><text style="font: 20px Roboto, sans-serif; white-space: pre;" font-size="20px" font-family="Roboto, sans-serif"><tspan x="12" y="34" dominant-baseline="ideographic">Use Remote Repository</tspan></text></g></g></g><g id="g-root-tx_uploadin_qwit88zkmhhp-fill" data-item-order="0" transform="translate(464, 188)"><g id="tx_uploadin_qwit88zkmhhp-fill" stroke="none" fill="#f4f4f4"><g><text style="font: 15px Roboto, sans-serif; white-space: pre;" font-size="15px" font-family="Roboto, sans-serif"><tspan x="12" y="28" dominant-baseline="ideographic">Uploading code to a remote repository </tspan><tspan x="12" y="46" dominant-baseline="ideographic">ensures accessibility and safety.</tspan></text></g></g></g><g id="g-root-ic_move_1q5ppx4zknxfm-fill" data-item-order="0" transform="translate(416, 254)"></g><g id="g-root-tx_trackcha_zrjce0zkmjus-fill" data-item-order="0" transform="translate(464, 260)"><g id="tx_trackcha_zrjce0zkmjus-fill" stroke="none" fill="#f79438"><g><text style="font: 20px Roboto, sans-serif; white-space: pre;" font-size="20px" font-family="Roboto, sans-serif"><tspan x="12" y="34" dominant-baseline="ideographic">Track Changes Over Time</tspan></text></g></g></g><g id="g-root-tx_gitrecor_1d2zurczkmi9v-fill" data-item-order="0" transform="translate(464, 296)"><g id="tx_gitrecor_1d2zurczkmi9v-fill" stroke="none" fill="#f4f4f4"><g><text style="font: 15px Roboto, sans-serif; white-space: pre;" font-size="15px" font-family="Roboto, sans-serif"><tspan x="12" y="28" dominant-baseline="ideographic">Git records who made changes and when, </tspan><tspan x="12" y="46" dominant-baseline="ideographic">facilitating easy tracking.</tspan></text></g></g></g><g id="g-root-sy_3_line_1ly0dx4zkmjv3-stroke" data-item-order="-38843" transform="translate(296, 164)"><g id="sy_3_line_1ly0dx4zkmjv3-stroke" fill="none" stroke-linecap="round" stroke-linejoin="round" stroke-miterlimit="4" stroke="#f79438" stroke-width="2"><g><path d="M 116 118L 57.95 118C 44.7 118 33.95 107.25 33.95 94L 33.95 33.95C 33.95 20.72 23.23 10 10 10"></path><path d="M 110 124.5L 116.5 118L 110 111.5" stroke-dasharray="none"></path></g></g></g><g id="g-root-sy_1_line_1hitcvszkmhhk-stroke" data-item-order="-38837" transform="translate(295.9999084472656, 56)"><g id="sy_1_line_1hitcvszkmhhk-stroke" fill="none" stroke-linecap="round" stroke-linejoin="round" stroke-miterlimit="4" stroke="#43dd93" stroke-width="2"><g><path d="M 116.000092 10L 58.950092 10C 45.700092 10 34.950092 20.75 34.950092 34L 34.950092 94.05C 34.950092 107.28 24.230092 118 11.000092 118L 10.000092 118"></path><path d="M 110.000092 16.5L 116.500092 10L 110.000092 3.5" stroke-dasharray="none"></path></g></g></g><g id="g-root-sy_2_line_1hitcvszkmhhl-stroke" data-item-order="-38831" transform="translate(295.9997863769531, 164)"><g id="sy_2_line_1hitcvszkmhhl-stroke" fill="none" stroke-linecap="round" stroke-linejoin="round" stroke-miterlimit="4" stroke="#4f91fc" stroke-width="2"><g><path d="M 116.000214 10L 10.000214 10"></path><path d="M 110.000214 16.5L 116.500214 10L 110.000214 3.5" stroke-dasharray="none"></path></g></g></g><g id="g-root-sy_0_line_1d2zurczkmi9u-stroke" data-item-order="-38827" transform="translate(224, 164)"><g id="sy_0_line_1d2zurczkmi9u-stroke" fill="none" stroke-linecap="round" stroke-linejoin="round" stroke-miterlimit="4" stroke="#f4f4f4" stroke-width="2"><g><path d="M 82 10L 10 10"></path></g></g></g><g id="g-root-ic_mana_1q6yuewzkgwej-stroke" data-item-order="0" transform="translate(416, 38)"><g id="ic_mana_1q6yuewzkgwej-stroke" fill="none" stroke-linecap="round" stroke-linejoin="round" stroke-miterlimit="4" stroke="#43dd93" stroke-width="2"><g><path d="M 11.5 28L 14.5 28M 20.5 28L 28 28M 34 28L 44.5 28M 41.4655 25L 44.5 28L 41.4655 31M 14.5 28C 14.5 29.656855 15.843145 31 17.5 31C 19.156855 31 20.5 29.656855 20.5 28C 20.5 26.343145 19.156855 25 17.5 25C 15.843145 25 14.5 26.343145 14.5 28M 28 28C 28 29.656855 29.343145 31 31 31C 32.656853 31 34 29.656855 34 28C 34 26.343145 32.656853 25 31 25C 29.343145 25 28 26.343145 28 28M 31 25L 31 19.75M 17.5 36.25L 17.5 31M 26.5 10.75L 35.5 10.75C 35.5 10.75 37 10.75 37 12.25L 37 18.25C 37 18.25 37 19.75 35.5 19.75L 26.5 19.75C 26.5 19.75 25 19.75 25 18.25L 25 12.25C 25 12.25 25 10.75 26.5 10.75M 13 36.25L 22 36.25C 22 36.25 23.5 36.25 23.5 37.75L 23.5 43.75C 23.5 43.75 23.5 45.25 22 45.25L 13 45.25C 13 45.25 11.5 45.25 11.5 43.75L 11.5 37.75C 11.5 37.75 11.5 36.25 13 36.25"></path></g></g></g><g id="g-root-tx_usegitfo_4g26bczknw1s-stroke" data-item-order="0" transform="translate(464, 44)"></g><g id="g-root-ic_2_1uu9yewzkwc91-stroke" data-item-order="0" transform="translate(80, 92)"><g id="ic_2_1uu9yewzkwc91-stroke" fill="none" stroke-linecap="round" stroke-linejoin="round" stroke-miterlimit="4" stroke="#f4f4f4" stroke-width="2"><g><path d="M 18.75 66.25L 13.725 60C 12.117295 58.01062 11.2355 55.53278 11.225 52.975002L 11.225 40C 11.224977 39.001091 11.623496 38.043457 12.332173 37.339474C 13.040852 36.635487 14.001114 36.24334 15 36.25L 15 36.25C 17.071068 36.25 18.75 37.928932 18.75 40L 18.75 49.674999M 30 66.25L 30 58.400002C 30.004435 56.181534 29.342514 54.012867 28.099998 52.174995L 25.25 47.875C 24.750898 47.045189 23.932407 46.457241 22.986681 46.24918C 22.040953 46.041119 21.051281 46.231274 20.25 46.775002L 20.25 46.775002C 18.78768 47.758202 18.284325 49.675232 19.075001 51.25L 22.5 56.875M 61.25 66.25L 66.25 59.949997C 67.857704 57.960625 68.739502 55.48278 68.75 52.924999L 68.75 40C 68.75 37.928932 67.071068 36.25 65 36.25L 65 36.25C 62.928932 36.25 61.25 37.928932 61.25 40L 61.25 49.674999M 50 66.25L 50 58.400002C 49.995564 56.181534 50.657486 54.012867 51.900002 52.174995L 54.75 47.875C 55.249104 47.045189 56.067589 46.457241 57.013321 46.24918C 57.959045 46.041119 58.948715 46.231274 59.75 46.775002L 59.75 46.775002C 61.212318 47.758202 61.715675 49.675232 60.925003 51.25L 57.5 56.875M 51.25 15L 61.25 25L 51.25 35M 31.25 15L 21.25 25L 31.25 35M 43.75 13.75L 38.75 36.25"></path></g></g></g><g id="g-root-tx_gitallow_958sqgzkmjuv-stroke" data-item-order="0" transform="translate(464, 80)"></g><g id="g-root-ic_text_1lz9f94zkfhmy-stroke" data-item-order="0" transform="translate(416, 146)"><g id="ic_text_1lz9f94zkfhmy-stroke" fill="none" stroke-linecap="round" stroke-linejoin="round" stroke-miterlimit="4" stroke="#4f91fc" stroke-width="2"><g><path d="M 40.75 30.859001C 43.105339 29.770241 44.581764 27.379015 44.499996 24.7855C 44.471603 22.866314 43.663738 21.041248 42.262142 19.729908C 40.86055 18.418568 38.985828 17.733786 37.069 17.833C 35.35989 14.393121 31.841 12.226844 28 12.25C 22.765785 12.179777 18.380125 16.193558 17.987499 21.4135C 16.424858 21.069933 14.790498 21.444935 13.533941 22.435364C 12.277384 23.425793 11.530971 24.927336 11.5 26.527C 11.375261 28.865057 12.962808 30.949186 15.25 31.450001M 35.5 43.75L 20.5 43.75C 19.671574 43.75 19 43.078426 19 42.25L 19 27.25C 19 26.421572 19.671574 25.75 20.5 25.75L 35.5 25.75C 36.328426 25.75 37 26.421572 37 27.25L 37 42.25C 37 43.078426 36.328426 43.75 35.5 43.75ZM 23.5 30.25L 32.5 30.25M 23.5 34.75L 32.5 34.75M 23.5 39.25L 26.875 39.25"></path></g></g></g><g id="g-root-tx_howtoman_1ulj81kzknwnd-stroke" data-item-order="0" transform="translate(14, 164)"></g><g id="g-root-tx_useremot_dl2auwzkmj2m-stroke" data-item-order="0" transform="translate(464, 152)"></g><g id="g-root-tx_uploadin_qwit88zkmhhp-stroke" data-item-order="0" transform="translate(464, 188)"></g><g id="g-root-ic_move_1q5ppx4zknxfm-stroke" data-item-order="0" transform="translate(416, 254)"><g id="ic_move_1q5ppx4zknxfm-stroke" fill="none" stroke-linecap="round" stroke-linejoin="round" stroke-miterlimit="4" stroke="#f79438" stroke-width="2"><g><path d="M 15.25 10.75L 15.25 45.25M 21.25 19.75L 39.25 19.75C 39.25 19.75 40.75 19.75 40.75 21.25L 40.75 24.25C 40.75 24.25 40.75 25.75 39.25 25.75L 21.25 25.75C 21.25 25.75 19.75 25.75 19.75 24.25L 19.75 21.25C 19.75 21.25 19.75 19.75 21.25 19.75M 21.25 28.75L 31.75 28.75C 31.75 28.75 33.25 28.75 33.25 30.25L 33.25 33.25C 33.25 33.25 33.25 34.75 31.75 34.75L 21.25 34.75C 21.25 34.75 19.75 34.75 19.75 33.25L 19.75 30.25C 19.75 30.25 19.75 28.75 21.25 28.75M 28.75 13.75L 19.75 13.75M 22.75 10.75L 19.75 13.75L 22.75 16.75M 28.75 42.25L 19.75 42.25M 22.75 39.25L 19.75 42.25L 22.75 45.25"></path></g></g></g><g id="g-root-tx_trackcha_zrjce0zkmjus-stroke" data-item-order="0" transform="translate(464, 260)"></g><g id="g-root-tx_gitrecor_1d2zurczkmi9v-stroke" data-item-order="0" transform="translate(464, 296)"></g></g></g></svg>