<?xml version="1.0" encoding="utf-8" standalone="yes"?>
<!DOCTYPE svg PUBLIC "-//W3C//DTD SVG 1.1//EN" "http://www.w3.org/Graphics/SVG/1.1/DTD/svg11.dtd">
<svg width="672" height="780" viewBox="0 0 672 780" style="fill:none;stroke:none;fill-rule:evenodd;clip-rule:evenodd;stroke-linecap:round;stroke-linejoin:round;stroke-miterlimit:1.5;" version="1.1" xmlns="http://www.w3.org/2000/svg" xmlns:xlink="http://www.w3.org/1999/xlink"><style class="text-font-style fontImports" data-font-family="Roboto">@import url(https://fonts.googleapis.com/css2?family=Roboto:wght@400;700&amp;amp;display=block);</style><g id="items" style="isolation: isolate"><g id="blend" style="mix-blend-mode: normal"><g id="g-root-cp_2_sign-2_zp1soo11imhho-fill" data-item-order="-426803" transform="translate(326, 242)"></g><g id="g-root-cp_4_sign-4_v98ak811imi9x-fill" data-item-order="-426779" transform="translate(326, 482)"></g><g id="g-root-cp_1_sign-1_hye9a011imgp2-fill" data-item-order="-426755" transform="translate(152, 122)"></g><g id="g-root-cp_3_sign-3_92r91411imhhr-fill" data-item-order="-426731" transform="translate(152, 362)"></g><g id="g-root-cp_5_sign-5_4mxqwo11imia0-fill" data-item-order="-426707" transform="translate(176, 602)"></g><g id="g-root-tx_gitconce_7qpvc11imfwh-fill" data-item-order="0" transform="translate(248, 38)"><g id="tx_gitconce_7qpvc11imfwh-fill" stroke="none" fill="#484848"><g><text style="font: bold 25px Roboto, sans-serif; white-space: pre;" font-weight="bold" font-size="25px" font-family="Roboto, sans-serif"><tspan x="15.65" y="43" dominant-baseline="ideographic">Git Concepts</tspan></text></g></g></g><g id="g-root-ic_1_8ye3qw11ijnyf-fill" data-item-order="0" transform="translate(182, 152)"></g><g id="g-root-tx_commit_1cuw7lk11iwbgm-fill" data-item-order="0" transform="translate(230, 158)"><g id="tx_commit_1cuw7lk11iwbgm-fill" stroke="none" fill="#484848"><g><text style="font: bold 20px Roboto, sans-serif; white-space: pre;" font-weight="bold" font-size="20px" font-family="Roboto, sans-serif"><tspan x="20.91" y="34" dominant-baseline="ideographic">Commit</tspan></text></g></g></g><g id="g-root-tx_asnapsho_1qd7rlk11imgi2-fill" data-item-order="0" transform="translate(338, 152)"><g id="tx_asnapsho_1qd7rlk11imgi2-fill" stroke="none" fill="#484848"><g><text style="font: 15px Roboto, sans-serif; white-space: pre;" font-size="15px" font-family="Roboto, sans-serif"><tspan x="12" y="28" dominant-baseline="ideographic">A snapshot of your project at a </tspan><tspan x="12" y="46" dominant-baseline="ideographic">specific point in time.</tspan></text></g></g></g><g id="g-root-tx_acollect_zk26bc11iw9vr-fill" data-item-order="0" transform="translate(98, 272)"><g id="tx_acollect_zk26bc11iw9vr-fill" stroke="none" fill="#484848"><g><text style="font: 15px Roboto, sans-serif; white-space: pre;" font-size="15px" font-family="Roboto, sans-serif"><tspan x="17.72" y="28" dominant-baseline="ideographic">A collection of files and folders </tspan><tspan x="50.39" y="46" dominant-baseline="ideographic">that make up your project.</tspan></text></g></g></g><g id="g-root-tx_reposito_hxrvco11is26i-fill" data-item-order="0" transform="translate(338, 278)"><g id="tx_reposito_hxrvco11is26i-fill" stroke="none" fill="#484848"><g><text style="font: bold 20px Roboto, sans-serif; white-space: pre;" font-weight="bold" font-size="20px" font-family="Roboto, sans-serif"><tspan x="12" y="34" dominant-baseline="ideographic">Repository</tspan></text></g></g></g><g id="g-root-ic_file_1lxe9h411imhab-fill" data-item-order="0" transform="translate(458, 272)"></g><g id="g-root-ic_arro_v48o6w11iwao0-fill" data-item-order="0" transform="translate(182, 392)"></g><g id="g-root-tx_remote_1upx5rs11igu80-fill" data-item-order="0" transform="translate(230, 398)"><g id="tx_remote_1upx5rs11igu80-fill" stroke="none" fill="#484848"><g><text style="font: bold 20px Roboto, sans-serif; white-space: pre;" font-weight="bold" font-size="20px" font-family="Roboto, sans-serif"><tspan x="22.2" y="34" dominant-baseline="ideographic">Remote</tspan></text></g></g></g><g id="g-root-tx_areposit_6huuw11is4jo-fill" data-item-order="0" transform="translate(338, 392)"><g id="tx_areposit_6huuw11is4jo-fill" stroke="none" fill="#484848"><g><text style="font: 15px Roboto, sans-serif; white-space: pre;" font-size="15px" font-family="Roboto, sans-serif"><tspan x="12" y="28" dominant-baseline="ideographic">A repository that is stored on a </tspan><tspan x="12" y="46" dominant-baseline="ideographic">server for collaboration.</tspan></text></g></g></g><g id="g-root-tx_makingac_1lua5iw11igv0p-fill" data-item-order="0" transform="translate(110, 512)"><g id="tx_makingac_1lua5iw11igv0p-fill" stroke="none" fill="#484848"><g><text style="font: 15px Roboto, sans-serif; white-space: pre;" font-size="15px" font-family="Roboto, sans-serif"><tspan x="15.36" y="28" dominant-baseline="ideographic">Making a copy of a repository </tspan><tspan x="91.56" y="46" dominant-baseline="ideographic">on your computer.</tspan></text></g></g></g><g id="g-root-tx_clone_zit85411ijoxz-fill" data-item-order="0" transform="translate(338, 518)"><g id="tx_clone_zit85411ijoxz-fill" stroke="none" fill="#484848"><g><text style="font: bold 20px Roboto, sans-serif; white-space: pre;" font-weight="bold" font-size="20px" font-family="Roboto, sans-serif"><tspan x="12" y="34" dominant-baseline="ideographic">Clone</tspan></text></g></g></g><g id="g-root-ic_1_1qdubug11is45n-fill" data-item-order="0" transform="translate(410, 512)"></g><g id="g-root-ic_1_18itn5k11igwlm-fill" data-item-order="0" transform="translate(206, 632)"></g><g id="g-root-tx_push_94mxrs11iuw3w-fill" data-item-order="0" transform="translate(254, 638)"><g id="tx_push_94mxrs11iuw3w-fill" stroke="none" fill="#484848"><g><text style="font: bold 20px Roboto, sans-serif; white-space: pre;" font-weight="bold" font-size="20px" font-family="Roboto, sans-serif"><tspan x="22.42" y="34" dominant-baseline="ideographic">Push</tspan></text></g></g></g><g id="g-root-tx_sendingy_8wiohk11ijoy1-fill" data-item-order="0" transform="translate(338, 632)"><g id="tx_sendingy_8wiohk11ijoy1-fill" stroke="none" fill="#484848"><g><text style="font: 15px Roboto, sans-serif; white-space: pre;" font-size="15px" font-family="Roboto, sans-serif"><tspan x="12" y="28" dominant-baseline="ideographic">Sending your commits to a </tspan><tspan x="12" y="46" dominant-baseline="ideographic">remote repository.</tspan></text></g></g></g><g id="g-root-cp_2_sign-2_zp1soo11imhho-stroke" data-item-order="-426803" transform="translate(326, 242)"><g id="cp_2_sign-2_zp1soo11imhho-stroke" fill="none" stroke-linecap="round" stroke-linejoin="round" stroke-miterlimit="4" stroke="#de8431" stroke-width="2"><g><path d="M 160 106L 10 106M 10 10L 160 10M 160 10C 186.5097 10 208 31.4903 208 58C 208 84.5097 186.5097 106 160 106M 10 106L 10 10"></path></g></g></g><g id="g-root-cp_4_sign-4_v98ak811imi9x-stroke" data-item-order="-426779" transform="translate(326, 482)"><g id="cp_4_sign-4_v98ak811imi9x-stroke" fill="none" stroke-linecap="round" stroke-linejoin="round" stroke-miterlimit="4" stroke="#de58a9" stroke-width="2"><g><path d="M 112 106L 10 106M 10 10L 112 10M 112 10C 138.5097 10 160 31.4903 160 58C 160 84.5097 138.5097 106 112 106M 10 106L 10 10"></path></g></g></g><g id="g-root-cp_1_sign-1_hye9a011imgp2-stroke" data-item-order="-426755" transform="translate(152, 122)"><g id="cp_1_sign-1_hye9a011imgp2-stroke" fill="none" stroke-linecap="round" stroke-linejoin="round" stroke-miterlimit="4" stroke="#e0cb15" stroke-width="2"><g><path d="M 58 10L 184.000008 10M 184.000008 106L 58 106M 58 106C 31.4903 106 10 84.5097 10 58C 10 31.4903 31.4903 10 58 10M 184 10L 184 106"></path></g></g></g><g id="g-root-cp_3_sign-3_92r91411imhhr-stroke" data-item-order="-426731" transform="translate(152, 362)"><g id="cp_3_sign-3_92r91411imhhr-stroke" fill="none" stroke-linecap="round" stroke-linejoin="round" stroke-miterlimit="4" stroke="#e55753" stroke-width="2"><g><path d="M 58 10L 184.000008 10M 184.000008 106L 58 106M 58 106C 31.4903 106 10 84.5097 10 58C 10 31.4903 31.4903 10 58 10M 184 10L 184 106"></path></g></g></g><g id="g-root-cp_5_sign-5_4mxqwo11imia0-stroke" data-item-order="-426707" transform="translate(176, 602)"><g id="cp_5_sign-5_4mxqwo11imia0-stroke" fill="none" stroke-linecap="round" stroke-linejoin="round" stroke-miterlimit="4" stroke="#ba5de5" stroke-width="2"><g><path d="M 58 10L 160 10M 160 106L 58 106M 58 106C 31.4903 106 10 84.5097 10 58C 10 31.4903 31.4903 10 58 10M 160 10L 160 106"></path></g></g></g><g id="g-root-tx_gitconce_7qpvc11imfwh-stroke" data-item-order="0" transform="translate(248, 38)"></g><g id="g-root-ic_1_8ye3qw11ijnyf-stroke" data-item-order="0" transform="translate(182, 152)"><g id="ic_1_8ye3qw11ijnyf-stroke" fill="none" stroke-linecap="round" stroke-linejoin="round" stroke-miterlimit="4" stroke="#e0cb15" stroke-width="2"><g><path d="M 32.5 40.449997C 39.841 39.501999 45.25 36.304001 45.25 32.5C 45.25 30.362499 43.536999 28.421501 40.75 26.9575M 15.25 26.9575C 12.463 28.421501 10.75 30.362499 10.75 32.5075C 10.75 37.064499 18.473499 40.7575 28 40.7575M 23.5 15.25L 25.546001 12.25L 30.453999 12.25L 32.5 15.25L 35.5 15.25C 36.789616 15.382576 37.765331 16.476681 37.75 17.773001L 37.75 26.5C 37.75 27.742641 36.742641 28.75 35.5 28.75L 20.5 28.75C 19.25736 28.75 18.25 27.742641 18.25 26.5L 18.25 17.773001C 18.234669 16.476681 19.210386 15.382576 20.5 15.25L 23.5 15.25M 24.25 22C 24.25 24.071068 25.928932 25.75 28 25.75C 30.071068 25.75 31.75 24.071068 31.75 22C 31.75 19.928932 30.071068 18.25 28 18.25C 25.928932 18.25 24.25 19.928932 24.25 22ZM 25 43.75L 28 40.75L 25 37.75"></path></g></g></g><g id="g-root-tx_commit_1cuw7lk11iwbgm-stroke" data-item-order="0" transform="translate(230, 158)"></g><g id="g-root-tx_asnapsho_1qd7rlk11imgi2-stroke" data-item-order="0" transform="translate(338, 152)"></g><g id="g-root-tx_acollect_zk26bc11iw9vr-stroke" data-item-order="0" transform="translate(98, 272)"></g><g id="g-root-tx_reposito_hxrvco11is26i-stroke" data-item-order="0" transform="translate(338, 278)"></g><g id="g-root-ic_file_1lxe9h411imhab-stroke" data-item-order="0" transform="translate(458, 272)"><g id="ic_file_1lxe9h411imhab-stroke" fill="none" stroke-linecap="round" stroke-linejoin="round" stroke-miterlimit="4" stroke="#de8431" stroke-width="2"><g><path d="M 35.5 10.87L 35.5 16.75C 35.5 17.578426 36.171574 18.25 37 18.25L 42.880001 18.25M 17.5 28.75L 17.5 12.25C 17.5 11.421573 18.171574 10.75 19 10.75L 34.879002 10.75C 35.276791 10.750085 35.65826 10.908176 35.939499 11.1895L 42.560501 17.810499C 42.841827 18.09174 42.999916 18.473207 43 18.871L 43 40.75C 43 41.578426 42.328426 42.25 41.5 42.25L 34 42.25M 22 18.25L 31.75 18.25M 22 18.25L 31.75 18.25M 22 22.75L 33.25 22.75M 22 27.25L 37.75 27.25M 32.5 31.75L 22 31.75C 21.527864 31.75 21.083282 31.527708 20.799999 31.150002L 19.450001 29.349998C 19.166718 28.972292 18.722136 28.75 18.25 28.75L 14.5 28.75C 13.671573 28.75 13 29.421572 13 30.25L 13 43.75C 13 44.578426 13.671573 45.25 14.5 45.25L 32.5 45.25C 33.328426 45.25 34 44.578426 34 43.75L 34 33.25C 34 32.421574 33.328426 31.75 32.5 31.75Z"></path></g></g></g><g id="g-root-ic_arro_v48o6w11iwao0-stroke" data-item-order="0" transform="translate(182, 392)"><g id="ic_arro_v48o6w11iwao0-stroke" fill="none" stroke-linecap="round" stroke-linejoin="round" stroke-miterlimit="4" stroke="#e55753" stroke-width="2"><g><path d="M 45.25 20.5L 45.25 21.9685C 45.253372 23.21767 44.249092 24.236006 43 24.25L 29.5 24.25C 28.251247 24.235195 27.247444 23.217335 27.25 21.9685L 27.25 13C 27.25 11.75736 28.25736 10.75 29.5 10.75L 43 10.75C 44.242641 10.75 45.25 11.75736 45.25 13ZM 45.25 19.75L 27.25 19.75M 40 27.25L 32.5 27.25M 36.25 24.25L 36.25 27.25M 28.75 38.5L 28.75 39.968498C 28.753372 41.217667 27.749096 42.236004 26.5 42.25L 13 42.25C 11.751249 42.235195 10.747444 41.217335 10.75 39.968498L 10.75 31C 10.75 29.75736 11.75736 28.75 13 28.75L 26.5 28.75C 27.742641 28.75 28.75 29.75736 28.75 31ZM 28.75 37.75L 10.75 37.75M 23.5 45.25L 16 45.25M 19.75 42.25L 19.75 45.25M 13.75 22.75L 13.75 18.625C 13.749171 15.518055 16.268055 12.999171 19.375 13L 22 13M 16.75 19.75L 13.75 22.75L 10.75 19.75M 19.75 10.75L 22 13L 19.75 15.25"></path></g></g></g><g id="g-root-tx_remote_1upx5rs11igu80-stroke" data-item-order="0" transform="translate(230, 398)"></g><g id="g-root-tx_areposit_6huuw11is4jo-stroke" data-item-order="0" transform="translate(338, 392)"></g><g id="g-root-tx_makingac_1lua5iw11igv0p-stroke" data-item-order="0" transform="translate(110, 512)"></g><g id="g-root-tx_clone_zit85411ijoxz-stroke" data-item-order="0" transform="translate(338, 518)"></g><g id="g-root-ic_1_1qdubug11is45n-stroke" data-item-order="0" transform="translate(410, 512)"><g id="ic_1_1qdubug11is45n-stroke" fill="none" stroke-linecap="round" stroke-linejoin="round" stroke-miterlimit="4" stroke="#de58a9" stroke-width="2"><g><path d="M 13.7575 24.248499L 13.7575 27.998499M 13.7575 31.748499L 13.7575 35.498501M 13.7575 18.25L 13.7575 19.75C 13.7575 20.578426 14.429072 21.25 15.2575 21.25L 16.7575 21.25M 13.7575 39.25L 13.7575 40.75C 13.7575 41.578426 14.429072 42.25 15.2575 42.25L 16.7575 42.25M 20.5 21.248501L 25 21.248501M 20.5 42.248501L 25 42.248501M 13.7575 10.7485L 13.7575 14.4985M 40.75 24.25C 40.75 25.078428 40.078426 25.75 39.25 25.75L 30.25 25.75C 29.421572 25.75 28.75 25.078428 28.75 24.25L 28.75 12.25C 28.75 11.421573 29.421572 10.75 30.25 10.75L 34.75 10.75C 35.69939 10.801482 36.602737 11.175628 37.310501 11.8105L 39.689499 14.1895C 40.324371 14.897264 40.698517 15.80061 40.75 16.75ZM 35.5 10.8535L 35.5 14.5C 35.5 15.328427 36.171574 16 37 16L 40.643501 16M 40.75 43.75C 40.75 44.578426 40.078426 45.25 39.25 45.25L 30.25 45.25C 29.421572 45.25 28.75 44.578426 28.75 43.75L 28.75 31.75C 28.75 30.921572 29.421572 30.25 30.25 30.25L 34.921001 30.25C 35.772312 30.25 36.58873 30.588329 37.190498 31.190498L 39.689499 33.689499C 40.324371 34.397263 40.698517 35.30061 40.75 36.25ZM 35.5 30.304001L 35.5 34C 35.5 34.828426 36.171574 35.5 37 35.5L 40.645 35.5"></path></g></g></g><g id="g-root-ic_1_18itn5k11igwlm-stroke" data-item-order="0" transform="translate(206, 632)"><g id="ic_1_18itn5k11igwlm-stroke" fill="none" stroke-linecap="round" stroke-linejoin="round" stroke-miterlimit="4" stroke="#ba5de5" stroke-width="2"><g><path d="M 45.25 42.25C 45.25 43.906857 43.906857 45.25 42.25 45.25L 13.75 45.25C 12.093145 45.25 10.75 43.906857 10.75 42.25L 10.75 36.25C 10.75 34.593143 12.093145 33.25 13.75 33.25L 42.25 33.25C 43.906857 33.25 45.25 34.593143 45.25 36.25ZM 15.25 40.75L 40.75 40.75M 35.218002 37.375C 35.010895 37.375 34.843002 37.542892 34.843002 37.75C 34.843002 37.957108 35.010895 38.125 35.218002 38.125C 35.425106 38.125 35.593002 37.957108 35.593002 37.75C 35.593002 37.542892 35.425106 37.375 35.218002 37.375L 35.218002 37.375M 39.656502 37.375C 39.449394 37.375 39.281502 37.542892 39.281502 37.75C 39.281502 37.957108 39.449394 38.125 39.656502 38.125C 39.863605 38.125 40.031502 37.957108 40.031502 37.75C 40.031898 37.650421 39.992519 37.554802 39.922104 37.48439C 39.851692 37.413979 39.756077 37.374599 39.656502 37.375L 39.656502 37.375M 27.25 10.75L 27.25 28.75M 19 19L 27.25 10.75L 35.5 19"></path></g></g></g><g id="g-root-tx_push_94mxrs11iuw3w-stroke" data-item-order="0" transform="translate(254, 638)"></g><g id="g-root-tx_sendingy_8wiohk11ijoy1-stroke" data-item-order="0" transform="translate(338, 632)"></g></g></g></svg>