<?xml version="1.0" encoding="utf-8" standalone="yes"?>
<!DOCTYPE svg PUBLIC "-//W3C//DTD SVG 1.1//EN" "http://www.w3.org/Graphics/SVG/1.1/DTD/svg11.dtd">
<svg width="672" height="468" viewBox="0 0 672 468" style="fill:none;stroke:none;fill-rule:evenodd;clip-rule:evenodd;stroke-linecap:round;stroke-linejoin:round;stroke-miterlimit:1.5;" version="1.1" xmlns="http://www.w3.org/2000/svg" xmlns:xlink="http://www.w3.org/1999/xlink"><style class="text-font-style fontImports" data-font-family="Roboto">@import url(https://fonts.googleapis.com/css2?family=Roboto:wght@400;700&amp;amp;display=block);</style><g id="items" style="isolation: isolate"><g id="blend" style="mix-blend-mode: normal"><g id="g-root-sy_-1_line_1cws2of12wdeks-fill" data-item-order="-3737" transform="translate(569, 289.99609375)"></g><g id="g-root-sy_-1_vector_18gykjz12wdfd1-fill" data-item-order="-3733" transform="translate(14, 289.99609375)"></g><g id="g-root-sy_6_cu-smallCircle_18gykjz12wdfd2-fill" data-item-order="-3729" transform="translate(563, 287)"></g><g id="g-root-sy_5_cu-smallCircle_zlbkb312wdg5r-fill" data-item-order="-3725" transform="translate(467, 287)"></g><g id="g-root-sy_4_cu-smallCircle_14152fj12wdg5c-fill" data-item-order="-3721" transform="translate(371, 287)"></g><g id="g-root-sy_3_cu-smallCircle_v5i26n12wdgy1-fill" data-item-order="-3717" transform="translate(275, 287)"></g><g id="g-root-sy_2_cu-smallCircle_qqb15b12wdeki-fill" data-item-order="-3713" transform="translate(179, 287)"></g><g id="g-root-sy_1_cu-smallCircle_qqb15b12wdekj-fill" data-item-order="-3709" transform="translate(83, 287)"></g><g id="g-root-tx_gitrepos_1430hov12wdf5u-fill" data-item-order="0" transform="translate(26, 38)"><g id="tx_gitrepos_1430hov12wdf5u-fill" stroke="none" fill="#484848"><g><text style="font: bold 25px Roboto, sans-serif; white-space: pre;" font-weight="bold" font-size="25px" font-family="Roboto, sans-serif"><tspan x="12.23" y="43" dominant-baseline="ideographic">Git Repository Initialization and Committing Changes</tspan></text></g></g></g><g id="g-root-tx_initiali_1q9hj7z12wdf67-fill" data-item-order="0" transform="translate(224, 170)"><g id="tx_initiali_1q9hj7z12wdf67-fill" stroke="none" fill="#484848"><g><text style="font: 20px Roboto, sans-serif; white-space: pre;" font-size="20px" font-family="Roboto, sans-serif"><tspan x="27.13" y="34" dominant-baseline="ideographic">Initialize </tspan><tspan x="16.54" y="58" dominant-baseline="ideographic">Repository</tspan></text></g></g></g><g id="g-root-tx_commitch_4j7ij312wdgy5-fill" data-item-order="0" transform="translate(428, 170)"><g id="tx_commitch_4j7ij312wdgy5-fill" stroke="none" fill="#484848"><g><text style="font: 20px Roboto, sans-serif; white-space: pre;" font-size="20px" font-family="Roboto, sans-serif"><tspan x="15.85" y="34" dominant-baseline="ideographic">Commit </tspan><tspan x="12.26" y="58" dominant-baseline="ideographic">Changes</tspan></text></g></g></g><g id="g-root-tx_opengitb_1hduiz312wdgqp-fill" data-item-order="0" transform="translate(20, 194)"><g id="tx_opengitb_1hduiz312wdgqp-fill" stroke="none" fill="#484848"><g><text style="font: 20px Roboto, sans-serif; white-space: pre;" font-size="20px" font-family="Roboto, sans-serif"><tspan x="12.86" y="34" dominant-baseline="ideographic">Open Git Bash</tspan></text></g></g></g><g id="g-root-ic_1_v64plb12wkgec-fill" data-item-order="0" transform="translate(62, 230)"></g><g id="g-root-ic_rust_14651fz12wev4f-fill" data-item-order="0" transform="translate(254, 230)"></g><g id="g-root-ic_1_i0wuxb12wrg8w-fill" data-item-order="0" transform="translate(446, 230)"></g><g id="g-root-ic_2_qtfkwf12whnnz-fill" data-item-order="0" transform="translate(158, 302)"></g><g id="g-root-ic_page_dccplb12wvq4k-fill" data-item-order="0" transform="translate(350, 302)"></g><g id="g-root-ic_mana_v7dhfz12wdfyj-fill" data-item-order="0" transform="translate(542, 302)"></g><g id="g-root-tx_navigate_1lto13j12wdfyg-fill" data-item-order="0" transform="translate(122, 362)"><g id="tx_navigate_1lto13j12wdfyg-fill" stroke="none" fill="#484848"><g><text style="font: 20px Roboto, sans-serif; white-space: pre;" font-size="20px" font-family="Roboto, sans-serif"><tspan x="16.75" y="34" dominant-baseline="ideographic">Navigate to </tspan><tspan x="39.63" y="58" dominant-baseline="ideographic">Folder</tspan></text></g></g></g><g id="g-root-tx_stagecha_40hhr12wdekm-fill" data-item-order="0" transform="translate(302, 362)"><g id="tx_stagecha_40hhr12wdekm-fill" stroke="none" fill="#484848"><g><text style="font: 20px Roboto, sans-serif; white-space: pre;" font-size="20px" font-family="Roboto, sans-serif"><tspan x="14.89" y="34" dominant-baseline="ideographic">Stage Changes</tspan></text></g></g></g><g id="g-root-tx_viewcomm_huo0wf12wdfd8-fill" data-item-order="0" transform="translate(500, 362)"><g id="tx_viewcomm_huo0wf12wdfd8-fill" stroke="none" fill="#484848"><g><text style="font: 20px Roboto, sans-serif; white-space: pre;" font-size="20px" font-family="Roboto, sans-serif"><tspan x="13.96" y="34" dominant-baseline="ideographic">View Commit </tspan><tspan x="41.71" y="58" dominant-baseline="ideographic">History</tspan><tspan x="29.32" y="82" dominant-baseline="ideographic">(Optional)</tspan></text></g></g></g><g id="g-root-sy_-1_line_1cws2of12wdeks-stroke" data-item-order="-3737" transform="translate(569, 289.99609375)"><g id="sy_-1_line_1cws2of12wdeks-stroke" fill="none" stroke-linecap="round" stroke-linejoin="round" stroke-miterlimit="4" stroke="#484848" stroke-width="2"><g><path d="M 77 10.003906L 10 10.003906"></path><path d="M 71 16.503906L 77.5 10.003906L 71 3.503906" stroke-dasharray="none"></path></g></g></g><g id="g-root-sy_-1_vector_18gykjz12wdfd1-stroke" data-item-order="-3733" transform="translate(14, 289.99609375)"><g id="sy_-1_vector_18gykjz12wdfd1-stroke" fill="none" stroke-linecap="round" stroke-linejoin="round" stroke-miterlimit="4" stroke="#484848" stroke-width="2"><g><path d="M 559 9.999992L 469 9.999992M 463 9.999992L 373 9.999992M 367 9.999992L 277 9.999992M 271 9.999992L 181 9.999992M 174.9976 9.999992L 84.9976 9.999992M 78.9976 9.999992L 10 9.999992"></path></g></g></g><g id="g-root-sy_6_cu-smallCircle_18gykjz12wdfd2-stroke" data-item-order="-3729" transform="translate(563, 287)"><g id="sy_6_cu-smallCircle_18gykjz12wdfd2-stroke" fill="none" stroke-linecap="round" stroke-linejoin="round" stroke-miterlimit="4" stroke="#484848" stroke-width="2"><g><path d="M 16 13C 16 14.6569 14.6569 16 13 16C 11.3431 16 10 14.6569 10 13C 10 11.3431 11.3431 10 13 10C 14.6569 10 16 11.3431 16 13Z"></path></g></g></g><g id="g-root-sy_5_cu-smallCircle_zlbkb312wdg5r-stroke" data-item-order="-3725" transform="translate(467, 287)"><g id="sy_5_cu-smallCircle_zlbkb312wdg5r-stroke" fill="none" stroke-linecap="round" stroke-linejoin="round" stroke-miterlimit="4" stroke="#484848" stroke-width="2"><g><path d="M 16 13C 16 14.6569 14.6569 16 13 16C 11.3431 16 10 14.6569 10 13C 10 11.3431 11.3431 10 13 10C 14.6569 10 16 11.3431 16 13Z"></path></g></g></g><g id="g-root-sy_4_cu-smallCircle_14152fj12wdg5c-stroke" data-item-order="-3721" transform="translate(371, 287)"><g id="sy_4_cu-smallCircle_14152fj12wdg5c-stroke" fill="none" stroke-linecap="round" stroke-linejoin="round" stroke-miterlimit="4" stroke="#484848" stroke-width="2"><g><path d="M 16 13C 16 14.6569 14.6569 16 13 16C 11.3431 16 10 14.6569 10 13C 10 11.3431 11.3431 10 13 10C 14.6569 10 16 11.3431 16 13Z"></path></g></g></g><g id="g-root-sy_3_cu-smallCircle_v5i26n12wdgy1-stroke" data-item-order="-3717" transform="translate(275, 287)"><g id="sy_3_cu-smallCircle_v5i26n12wdgy1-stroke" fill="none" stroke-linecap="round" stroke-linejoin="round" stroke-miterlimit="4" stroke="#484848" stroke-width="2"><g><path d="M 16 13C 16 14.6569 14.6569 16 13 16C 11.3431 16 10 14.6569 10 13C 10 11.3431 11.3431 10 13 10C 14.6569 10 16 11.3431 16 13Z"></path></g></g></g><g id="g-root-sy_2_cu-smallCircle_qqb15b12wdeki-stroke" data-item-order="-3713" transform="translate(179, 287)"><g id="sy_2_cu-smallCircle_qqb15b12wdeki-stroke" fill="none" stroke-linecap="round" stroke-linejoin="round" stroke-miterlimit="4" stroke="#484848" stroke-width="2"><g><path d="M 16 13C 16 14.6569 14.6569 16 13 16C 11.3431 16 10 14.6569 10 13C 10 11.3431 11.3431 10 13 10C 14.6569 10 16 11.3431 16 13Z"></path></g></g></g><g id="g-root-sy_1_cu-smallCircle_qqb15b12wdekj-stroke" data-item-order="-3709" transform="translate(83, 287)"><g id="sy_1_cu-smallCircle_qqb15b12wdekj-stroke" fill="none" stroke-linecap="round" stroke-linejoin="round" stroke-miterlimit="4" stroke="#484848" stroke-width="2"><g><path d="M 16 13C 16 14.6569 14.6569 16 13 16C 11.3431 16 10 14.6569 10 13C 10 11.3431 11.3431 10 13 10C 14.6569 10 16 11.3431 16 13Z"></path></g></g></g><g id="g-root-tx_gitrepos_1430hov12wdf5u-stroke" data-item-order="0" transform="translate(26, 38)"></g><g id="g-root-tx_initiali_1q9hj7z12wdf67-stroke" data-item-order="0" transform="translate(224, 170)"></g><g id="g-root-tx_commitch_4j7ij312wdgy5-stroke" data-item-order="0" transform="translate(428, 170)"></g><g id="g-root-tx_opengitb_1hduiz312wdgqp-stroke" data-item-order="0" transform="translate(20, 194)"></g><g id="g-root-ic_1_v64plb12wkgec-stroke" data-item-order="0" transform="translate(62, 230)"><g id="ic_1_v64plb12wkgec-stroke" fill="none" stroke-linecap="round" stroke-linejoin="round" stroke-miterlimit="4" stroke="#4e88e7" stroke-width="2"><g><path d="M 34 11C 22.710445 10.989351 13.082205 19.174097 11.274927 30.31806C 9.46765 41.462021 16.015713 52.270168 26.73 55.827999C 27.878 56.028 28.242001 55.354 28.242001 54.745998C 28.242001 54.195999 28.254 52.672001 28.242001 50.745998C 21.841999 52.133999 20.52 47.716 20.52 47.716C 20.098045 46.326046 19.192863 45.132847 17.967999 44.351997C 15.88 42.924 18.124001 42.952 18.124001 42.952C 19.601326 43.154766 20.902054 44.028809 21.647999 45.32C 22.276947 46.466057 23.33811 47.312988 24.595106 47.672131C 25.852102 48.031269 27.200523 47.872795 28.34 47.231998C 28.44611 46.069351 28.963858 44.982792 29.800001 44.168003C 24.694 43.584 19.324001 41.612 19.324001 32.795998C 19.29158 30.510563 20.140278 28.300371 21.694 26.624001C 20.989958 24.640976 21.070087 22.463902 21.917999 20.538C 21.917999 20.538 23.852001 19.92 28.242001 22.897999C 32.01231 21.863369 35.991692 21.863369 39.762001 22.898001C 44.161999 19.922001 46.080002 20.538 46.080002 20.538C 46.928215 22.463619 47.009762 24.640316 46.307999 26.624001C 47.862122 28.301443 48.709572 30.513554 48.674 32.799999C 48.674 41.639999 43.296001 43.582001 38.172001 44.147999C 39.285561 45.266937 39.859676 46.813477 39.746002 48.388L 39.746002 54.756001C 39.746002 55.369999 40.118 56.049999 41.285999 55.827999C 52.003197 52.269238 58.551495 41.45649 56.739853 30.310144C 54.928211 19.163797 45.292599 10.981462 34 11Z"></path></g></g></g><g id="g-root-ic_rust_14651fz12wev4f-stroke" data-item-order="0" transform="translate(254, 230)"><g id="ic_rust_14651fz12wev4f-stroke" fill="none" stroke-linecap="round" stroke-linejoin="round" stroke-miterlimit="4" stroke="#92bd39" stroke-width="2"><g><path d="M 56.939999 27C 56.220001 18 46.240002 11 34 11C 21.299999 11 11 18.619999 11 28C 11 36.139999 18.74 42.919998 29 44.599998M 28.860001 37.299999C 24.74 35.32 22 32 22 28C 22 21.880001 28.719999 16.92 37 16.92C 44.82 16.92 51.240002 21.34 51.939999 26.92M 50.959999 46.599998C 54.990437 45.386627 57.52087 41.400536 56.903847 37.236885C 56.286823 33.073235 52.709114 29.992325 48.499996 29.999998L 34 30L 34 57L 41 57L 41 47L 42 47C 46.2822 48.426353 49.125519 52.488239 49 57L 57 57C 57 57 54.779999 48.860001 50.959999 46.599998ZM 46.5 42L 41 42L 41 35L 46.5 35C 48.432999 35 50 36.567005 50 38.5C 50 40.432999 48.432999 42 46.5 42Z"></path></g></g></g><g id="g-root-ic_1_i0wuxb12wrg8w-stroke" data-item-order="0" transform="translate(446, 230)"><g id="ic_1_i0wuxb12wrg8w-stroke" fill="none" stroke-linecap="round" stroke-linejoin="round" stroke-miterlimit="4" stroke="#de8431" stroke-width="2"><g><path d="M 29 42L 25 46L 25 38L 24 38C 16.82896 37.979126 11.02087 32.171036 11 25C 11 17.85 16.85 11 24 11L 40 11C 47.150002 11 53 17.85 53 25C 53.002659 26.7166 52.662685 28.416468 52 30M 33 45C 33 51.627419 38.372581 57 45 57C 51.627419 57 57 51.627419 57 45C 57 38.372581 51.627419 33 45 33C 38.372581 33 33 38.372581 33 45ZM 50.348 41.510002L 44.537998 49.257999C 44.276604 49.605644 43.877338 49.82291 43.44347 49.8536C 43.009598 49.884289 42.583725 49.725388 42.275997 49.417999L 39.276001 46.417999"></path></g></g></g><g id="g-root-ic_2_qtfkwf12whnnz-stroke" data-item-order="0" transform="translate(158, 302)"><g id="ic_2_qtfkwf12whnnz-stroke" fill="none" stroke-linecap="round" stroke-linejoin="round" stroke-miterlimit="4" stroke="#3cc583" stroke-width="2"><g><path d="M 39 29L 39 17C 39 15.895431 38.104568 15 37 15L 23 15C 22.370485 15 21.77771 14.703611 21.4 14.2L 19.6 11.8C 19.22229 11.296389 18.629515 11 18 11L 13 11C 11.895431 11 11 11.895431 11 13L 11 31C 11 32.104568 11.895431 33 13 33L 25 33M 55 39L 41 39C 40.370483 39 39.77771 38.703613 39.400002 38.200001L 37.599998 35.799999C 37.22229 35.296387 36.629517 35 36 35L 31 35C 29.89543 35 29 35.895432 29 37L 29 55C 29 56.104568 29.89543 57 31 57L 55 57C 56.104568 57 57 56.104568 57 55L 57 41C 57 39.895432 56.104568 39 55 39ZM 57 25L 57 22C 57 20.343147 55.656857 19 54 19L 44 19M 48 15L 44 19L 48 23M 11 43L 11 46C 11 47.656857 12.343145 49 14 49L 24 49M 20 53L 24 49L 20 45"></path></g></g></g><g id="g-root-ic_page_dccplb12wvq4k-stroke" data-item-order="0" transform="translate(350, 302)"><g id="ic_page_dccplb12wvq4k-stroke" fill="none" stroke-linecap="round" stroke-linejoin="round" stroke-miterlimit="4" stroke="#e0cb15" stroke-width="2"><g><path d="M 42.5994 22.37282L 42.5994 18.423801C 42.5994 17.825901 42.360401 17.24296 41.9268 16.82444L 37.442802 12.51968C 37.0242 12.10116 36.4562 11.876954 35.873199 11.876954L 16.638559 11.876954C 15.39794 11.876954 14.396481 12.8784 14.396481 14.11902L 14.396481 43.265999C 14.396481 44.506599 15.39794 45.507999 16.638559 45.507999L 25.016079 45.507999M 51.361401 56.123199C 52.602001 56.123199 53.603401 55.121799 53.603401 53.881199L 53.603401 29.039021C 53.603401 28.441139 53.364201 27.8582 52.930801 27.43968L 48.446602 23.13492C 48.028 22.7164 47.460201 22.49218 46.877201 22.49218L 27.64246 22.49218C 26.40184 22.49218 25.4004 23.493641 25.4004 24.734261L 25.4004 53.881199C 25.4004 55.121799 26.40184 56.123199 27.64246 56.123199L 51.361401 56.123199ZM 10 10M 39.501999 32.636803L 39.501999 45.9804M 10 10M 46.173801 39.308601L 32.830002 39.308601"></path></g></g></g><g id="g-root-ic_mana_v7dhfz12wdfyj-stroke" data-item-order="0" transform="translate(542, 302)"><g id="ic_mana_v7dhfz12wdfyj-stroke" fill="none" stroke-linecap="round" stroke-linejoin="round" stroke-miterlimit="4" stroke="#e55753" stroke-width="2"><g><path d="M 12 34L 16 34M 24 34L 34 34M 42 34L 56 34M 51.953999 30L 56 34L 51.953999 38M 16 34C 16 36.209137 17.790861 38 20 38C 22.209139 38 24 36.209137 24 34C 24 31.790861 22.209139 30 20 30C 17.790861 30 16 31.790861 16 34M 34 34C 34 36.209137 35.790863 38 38 38C 40.209137 38 42 36.209137 42 34C 42 31.790861 40.209137 30 38 30C 35.790863 30 34 31.790861 34 34M 38 30L 38 23M 20 45L 20 38M 32 11L 44 11C 44 11 46 11 46 13L 46 21C 46 21 46 23 44 23L 32 23C 32 23 30 23 30 21L 30 13C 30 13 30 11 32 11M 14 45L 26 45C 26 45 28 45 28 47L 28 55C 28 55 28 57 26 57L 14 57C 14 57 12 57 12 55L 12 47C 12 47 12 45 14 45"></path></g></g></g><g id="g-root-tx_navigate_1lto13j12wdfyg-stroke" data-item-order="0" transform="translate(122, 362)"></g><g id="g-root-tx_stagecha_40hhr12wdekm-stroke" data-item-order="0" transform="translate(302, 362)"></g><g id="g-root-tx_viewcomm_huo0wf12wdfd8-stroke" data-item-order="0" transform="translate(500, 362)"></g></g></g></svg>