<?xml version="1.0" encoding="utf-8" standalone="yes"?>
<!DOCTYPE svg PUBLIC "-//W3C//DTD SVG 1.1//EN" "http://www.w3.org/Graphics/SVG/1.1/DTD/svg11.dtd">
<svg width="636" height="528" viewBox="0 0 636 528" style="fill:none;stroke:none;fill-rule:evenodd;clip-rule:evenodd;stroke-linecap:round;stroke-linejoin:round;stroke-miterlimit:1.5;" version="1.1" xmlns="http://www.w3.org/2000/svg" xmlns:xlink="http://www.w3.org/1999/xlink"><style class="text-font-style fontImports" data-font-family="Roboto">@import url(https://fonts.googleapis.com/css2?family=Roboto:wght@400;700&amp;amp;display=block);</style><g id="items" style="isolation: isolate"><g id="blend" style="mix-blend-mode: normal"><g id="g-root-cp_lines-pros_g-lines-pros_8ydef414ah0jz-fill" data-item-order="-254003" transform="translate(74, 122)"></g><g id="g-root-cp_lines-cons_g-lines-cons_4ijwao14ah1c8-fill" data-item-order="-253985" transform="translate(374, 122)"></g><g id="g-root-cp_pros-lines-bottom_g-pros-lines-bottom_2qe6814ah24h-fill" data-item-order="-253965" transform="translate(26, 170)"></g><g id="g-root-cp_lines-pros-1_g-lines-pros-1_1q8twzk14agzka-fill" data-item-order="-253947" transform="translate(50, 194)"></g><g id="g-root-cp_lines-pros-2_g-lines-pros-2_1q8twzk14agzkb-fill" data-item-order="-253929" transform="translate(50, 254)"></g><g id="g-root-cp_lines-pros-3_g-lines-pros-3_1lt0ev414ah0ck-fill" data-item-order="-253911" transform="translate(50, 314)"></g><g id="g-root-cp_lines-pros-4_g-lines-pros-4_1cxdem814ah159-fill" data-item-order="-253893" transform="translate(50, 374)"></g><g id="g-root-cp_cons-lines-bottom_g-cons-lines-bottom_18hjwhs14ah1xi-fill" data-item-order="-253873" transform="translate(326, 170)"></g><g id="g-root-cp_lines-cons-1_g-lines-cons-1_zmjdc014agzkf-fill" data-item-order="-253855" transform="translate(350, 194)"></g><g id="g-root-cp_lines-cons-2_g-lines-cons-2_v6pv7k14ah0co-fill" data-item-order="-253837" transform="translate(350, 254)"></g><g id="g-root-tx_markdown_qqwd3414ah14x-fill" data-item-order="0" transform="translate(242, 38)"><g id="tx_markdown_qqwd3414ah14x-fill" stroke="none" fill="#484848"><g><text style="font: bold 25px Roboto, sans-serif; white-space: pre;" font-weight="bold" font-size="25px" font-family="Roboto, sans-serif"><tspan x="16.95" y="43" dominant-baseline="ideographic">Markdown</tspan></text></g></g></g><g id="g-root-tx_pros_hv9cu814ah1xm-fill" data-item-order="0" transform="translate(134, 134)"><g id="tx_pros_hv9cu814ah1xm-fill" stroke="none" fill="#484848"><g><text style="font: bold 20px Roboto, sans-serif; white-space: pre;" font-weight="bold" font-size="20px" font-family="Roboto, sans-serif"><tspan x="13.26" y="34" dominant-baseline="ideographic">Pros</tspan></text></g></g></g><g id="g-root-tx_cons_4ltfk14ah14z-fill" data-item-order="0" transform="translate(428, 134)"><g id="tx_cons_4ltfk14ah14z-fill" stroke="none" fill="#484848"><g><text style="font: bold 20px Roboto, sans-serif; white-space: pre;" font-weight="bold" font-size="20px" font-family="Roboto, sans-serif"><tspan x="17.07" y="34" dominant-baseline="ideographic">Cons</tspan></text></g></g></g><g id="g-root-tx_simplesy_1luvu4g14agzd0-fill" data-item-order="0" transform="translate(104, 206)"><g id="tx_simplesy_1luvu4g14agzd0-fill" stroke="none" fill="#484848"><g><text style="font: 15px Roboto, sans-serif; white-space: pre;" font-size="15px" font-family="Roboto, sans-serif"><tspan x="17.45" y="31" dominant-baseline="ideographic">Simple syntax</tspan></text></g></g></g><g id="g-root-tx_limitedf_hx4s3k14ah0y0-fill" data-item-order="0" transform="translate(392, 206)"><g id="tx_limitedf_hx4s3k14ah0y0-fill" stroke="none" fill="#484848"><g><text style="font: 15px Roboto, sans-serif; white-space: pre;" font-size="15px" font-family="Roboto, sans-serif"><tspan x="14.05" y="31" dominant-baseline="ideographic">Limited formatting</tspan></text></g></g></g><g id="g-root-tx_readabil_18jfbr414ah0xx-fill" data-item-order="0" transform="translate(116, 266)"><g id="tx_readabil_18jfbr414ah0xx-fill" stroke="none" fill="#484848"><g><text style="font: 15px Roboto, sans-serif; white-space: pre;" font-size="15px" font-family="Roboto, sans-serif"><tspan x="15.32" y="31" dominant-baseline="ideographic">Readability</tspan></text></g></g></g><g id="g-root-tx_notforco_dhb9z414ah1q9-fill" data-item-order="0" transform="translate(374, 266)"><g id="tx_notforco_dhb9z414ah1q9-fill" stroke="none" fill="#484848"><g><text style="font: 15px Roboto, sans-serif; white-space: pre;" font-size="15px" font-family="Roboto, sans-serif"><tspan x="14.31" y="31" dominant-baseline="ideographic">Not for complex layouts</tspan></text></g></g></g><g id="g-root-tx_versatil_znsbi814ah1qm-fill" data-item-order="0" transform="translate(122, 326)"><g id="tx_versatil_znsbi814ah1qm-fill" stroke="none" fill="#484848"><g><text style="font: 15px Roboto, sans-serif; white-space: pre;" font-size="15px" font-family="Roboto, sans-serif"><tspan x="16.84" y="31" dominant-baseline="ideographic">Versatile</tspan></text></g></g></g><g id="g-root-tx_easyconv_mcya8014ah05r-fill" data-item-order="0" transform="translate(98, 386)"><g id="tx_easyconv_mcya8014ah05r-fill" stroke="none" fill="#484848"><g><text style="font: 15px Roboto, sans-serif; white-space: pre;" font-size="15px" font-family="Roboto, sans-serif"><tspan x="15.81" y="31" dominant-baseline="ideographic">Easy conversion</tspan></text></g></g></g><g id="g-root-cp_lines-pros_g-lines-pros_8ydef414ah0jz-stroke" data-item-order="-254003" transform="translate(74, 122)"><g id="cp_lines-pros_g-lines-pros_8ydef414ah0jz-stroke" fill="none" stroke-linecap="round" stroke-linejoin="round" stroke-miterlimit="4" stroke="#92bd39" stroke-width="2"><g><path d="M 178 22L 178 20C 178 14.4772 173.5228 10 168 10L 20 10C 14.4772 10 10 14.4772 10 20L 10 22M 10 58L 10 22M 178 22L 178 40L 178 58"></path></g></g></g><g id="g-root-cp_lines-cons_g-lines-cons_4ijwao14ah1c8-stroke" data-item-order="-253985" transform="translate(374, 122)"><g id="cp_lines-cons_g-lines-cons_4ijwao14ah1c8-stroke" fill="none" stroke-linecap="round" stroke-linejoin="round" stroke-miterlimit="4" stroke="#e55753" stroke-width="2"><g><path d="M 178 22L 178 20C 178 14.4772 173.5228 10 168 10L 20 10C 14.4772 10 10 14.4772 10 20L 10 22M 10 58L 10 22M 178 22L 178 40L 178 58"></path></g></g></g><g id="g-root-cp_pros-lines-bottom_g-pros-lines-bottom_2qe6814ah24h-stroke" data-item-order="-253965" transform="translate(26, 170)"><g id="cp_pros-lines-bottom_g-pros-lines-bottom_2qe6814ah24h-stroke" fill="none" stroke-linecap="round" stroke-linejoin="round" stroke-miterlimit="4" stroke="#92bd39" stroke-width="2"><g><path d="M 274 34.000002L 274 262M 10 262L 10 34.000002M 274 34L 274 30C 274 18.9543 265.0457 10 254 10L 226 10L 58 10L 30 10C 18.9543 10 10 18.9543 10 30L 10 34M 10 262L 10 266C 10 277.0457 18.9543 286 30 286L 254 286C 265.0457 286 274 277.0457 274 266L 274 262"></path></g></g></g><g id="g-root-cp_lines-pros-1_g-lines-pros-1_1q8twzk14agzka-stroke" data-item-order="-253947" transform="translate(50, 194)"><g id="cp_lines-pros-1_g-lines-pros-1_1q8twzk14agzka-stroke" fill="none" stroke-linecap="round" stroke-linejoin="round" stroke-miterlimit="4" stroke="#92bd39" stroke-width="2"><g><path d="M 226 20C 226 14.4772 221.5228 10 216 10L 20 10C 14.4772 10 10 14.4772 10 20M 10 48L 10 20M 226 20L 226 34L 226 48M 10 48C 10 53.5228 14.4772 58 20 58L 216 58C 218.7974 58 221.3265 56.8514 223.1414 55C 224.9097 53.1962 226 50.7255 226 48"></path></g></g></g><g id="g-root-cp_lines-pros-2_g-lines-pros-2_1q8twzk14agzkb-stroke" data-item-order="-253929" transform="translate(50, 254)"><g id="cp_lines-pros-2_g-lines-pros-2_1q8twzk14agzkb-stroke" fill="none" stroke-linecap="round" stroke-linejoin="round" stroke-miterlimit="4" stroke="#92bd39" stroke-width="2"><g><path d="M 226 20C 226 14.4772 221.5228 10 216 10L 20 10C 14.4772 10 10 14.4772 10 20M 10 48L 10 20M 226 20L 226 34L 226 48M 10 48C 10 53.5228 14.4772 58 20 58L 216 58C 218.7974 58 221.3265 56.8514 223.1414 55C 224.9097 53.1962 226 50.7255 226 48"></path></g></g></g><g id="g-root-cp_lines-pros-3_g-lines-pros-3_1lt0ev414ah0ck-stroke" data-item-order="-253911" transform="translate(50, 314)"><g id="cp_lines-pros-3_g-lines-pros-3_1lt0ev414ah0ck-stroke" fill="none" stroke-linecap="round" stroke-linejoin="round" stroke-miterlimit="4" stroke="#92bd39" stroke-width="2"><g><path d="M 226 20C 226 14.4772 221.5228 10 216 10L 20 10C 14.4772 10 10 14.4772 10 20M 10 48L 10 20M 226 20L 226 34L 226 48M 10 48C 10 53.5228 14.4772 58 20 58L 216 58C 218.7974 58 221.3265 56.8514 223.1414 55C 224.9097 53.1962 226 50.7255 226 48"></path></g></g></g><g id="g-root-cp_lines-pros-4_g-lines-pros-4_1cxdem814ah159-stroke" data-item-order="-253893" transform="translate(50, 374)"><g id="cp_lines-pros-4_g-lines-pros-4_1cxdem814ah159-stroke" fill="none" stroke-linecap="round" stroke-linejoin="round" stroke-miterlimit="4" stroke="#92bd39" stroke-width="2"><g><path d="M 226 20C 226 14.4772 221.5228 10 216 10L 20 10C 14.4772 10 10 14.4772 10 20M 10 48L 10 20M 226 20L 226 34L 226 48M 10 48C 10 53.5228 14.4772 58 20 58L 216 58C 218.7974 58 221.3265 56.8514 223.1414 55C 224.9097 53.1962 226 50.7255 226 48"></path></g></g></g><g id="g-root-cp_cons-lines-bottom_g-cons-lines-bottom_18hjwhs14ah1xi-stroke" data-item-order="-253873" transform="translate(326, 170)"><g id="cp_cons-lines-bottom_g-cons-lines-bottom_18hjwhs14ah1xi-stroke" fill="none" stroke-linecap="round" stroke-linejoin="round" stroke-miterlimit="4" stroke="#e55753" stroke-width="2"><g><path d="M 274 34.000002L 274 262M 10 262L 10 34.000002M 274 34L 274 30C 274 18.9543 265.0457 10 254 10L 226 10L 58 10L 30 10C 18.9543 10 10 18.9543 10 30L 10 34M 10 262L 10 266C 10 277.0457 18.9543 286 30 286L 254 286C 265.0457 286 274 277.0457 274 266L 274 262"></path></g></g></g><g id="g-root-cp_lines-cons-1_g-lines-cons-1_zmjdc014agzkf-stroke" data-item-order="-253855" transform="translate(350, 194)"><g id="cp_lines-cons-1_g-lines-cons-1_zmjdc014agzkf-stroke" fill="none" stroke-linecap="round" stroke-linejoin="round" stroke-miterlimit="4" stroke="#e55753" stroke-width="2"><g><path d="M 226 20C 226 14.4772 221.5228 10 216 10L 20 10C 14.4772 10 10 14.4772 10 20M 10 48L 10 20M 226 20L 226 34L 226 48M 10 48C 10 53.5228 14.4772 58 20 58L 216 58C 218.7974 58 221.3265 56.8514 223.1414 55C 224.9097 53.1962 226 50.7255 226 48"></path></g></g></g><g id="g-root-cp_lines-cons-2_g-lines-cons-2_v6pv7k14ah0co-stroke" data-item-order="-253837" transform="translate(350, 254)"><g id="cp_lines-cons-2_g-lines-cons-2_v6pv7k14ah0co-stroke" fill="none" stroke-linecap="round" stroke-linejoin="round" stroke-miterlimit="4" stroke="#e55753" stroke-width="2"><g><path d="M 226 20C 226 14.4772 221.5228 10 216 10L 20 10C 14.4772 10 10 14.4772 10 20M 10 48L 10 20M 226 20L 226 34L 226 48M 10 48C 10 53.5228 14.4772 58 20 58L 216 58C 218.7974 58 221.3265 56.8514 223.1414 55C 224.9097 53.1962 226 50.7255 226 48"></path></g></g></g><g id="g-root-tx_markdown_qqwd3414ah14x-stroke" data-item-order="0" transform="translate(242, 38)"></g><g id="g-root-tx_pros_hv9cu814ah1xm-stroke" data-item-order="0" transform="translate(134, 134)"></g><g id="g-root-tx_cons_4ltfk14ah14z-stroke" data-item-order="0" transform="translate(428, 134)"></g><g id="g-root-tx_simplesy_1luvu4g14agzd0-stroke" data-item-order="0" transform="translate(104, 206)"></g><g id="g-root-tx_limitedf_hx4s3k14ah0y0-stroke" data-item-order="0" transform="translate(392, 206)"></g><g id="g-root-tx_readabil_18jfbr414ah0xx-stroke" data-item-order="0" transform="translate(116, 266)"></g><g id="g-root-tx_notforco_dhb9z414ah1q9-stroke" data-item-order="0" transform="translate(374, 266)"></g><g id="g-root-tx_versatil_znsbi814ah1qm-stroke" data-item-order="0" transform="translate(122, 326)"></g><g id="g-root-tx_easyconv_mcya8014ah05r-stroke" data-item-order="0" transform="translate(98, 386)"></g></g></g></svg>