<?xml version="1.0" encoding="utf-8" standalone="yes"?>
<!DOCTYPE svg PUBLIC "-//W3C//DTD SVG 1.1//EN" "http://www.w3.org/Graphics/SVG/1.1/DTD/svg11.dtd">
<svg width="1034" height="560" viewBox="0 0 1034 560" style="fill:none;stroke:none;fill-rule:evenodd;clip-rule:evenodd;stroke-linecap:round;stroke-linejoin:round;stroke-miterlimit:1.5;" version="1.1" xmlns="http://www.w3.org/2000/svg" xmlns:xlink="http://www.w3.org/1999/xlink"><style class="text-font-style fontImports" data-font-family="Roboto">@import url(https://fonts.googleapis.com/css2?family=Roboto:wght@400;700&amp;amp;display=block);</style><g id="items" style="isolation: isolate"><g id="blend" style="mix-blend-mode: normal"><g id="g-root-cp_2_Frame_6_mcc5xb12cbgnd-fill" data-item-order="-457483" transform="translate(477, 267)"></g><g id="g-root-cp_1_g-1_hx54vz12cbe9u-fill" data-item-order="-457459" transform="translate(309, 351)"></g><g id="g-root-cp_1_line_91i4n312cbf2j-fill" data-item-order="-457447" transform="translate(476, 410)"></g><g id="g-root-cp_3_g-3_91i4n312cbf2k-fill" data-item-order="-457437" transform="translate(526, 350)"></g><g id="g-root-cp_3_line_3_4lomin12cbfut-fill" data-item-order="-457415" transform="translate(526, 410)"></g><g id="g-root-sy_2_line-2_1ur5o8v12cbgge-fill" data-item-order="-457407" transform="translate(501, 326)"></g><g id="g-root-tx_howtohan_1qbyn7j12cbe2v-fill" data-item-order="0" transform="translate(327, 38)"><g id="tx_howtohan_1qbyn7j12cbe2v-fill" stroke="none" fill="#484848"><g><text style="font: bold 25px Roboto, sans-serif; white-space: pre;" font-weight="bold" font-size="25px" font-family="Roboto, sans-serif"><tspan x="12.73" y="43" dominant-baseline="ideographic">How to handle merge conflicts?</tspan></text></g></g></g><g id="g-root-tx_acceptre_1lw553312cbev4-fill" data-item-order="0" transform="translate(399, 154)"><g id="tx_acceptre_1lw553312cbev4-fill" stroke="none" fill="#4e88e7"><g><text style="font: 20px Roboto, sans-serif; white-space: pre;" font-size="20px" font-family="Roboto, sans-serif"><tspan x="12" y="34" dominant-baseline="ideographic">Accept Remote Change</tspan></text></g></g></g><g id="g-root-tx_keepsthe_1d0i4u712cbfnt-fill" data-item-order="0" transform="translate(399, 190)"><g id="tx_keepsthe_1d0i4u712cbfnt-fill" stroke="none" fill="#484848"><g><text style="font: 15px Roboto, sans-serif; white-space: pre;" font-size="15px" font-family="Roboto, sans-serif"><tspan x="12" y="31" dominant-baseline="ideographic">Keeps the changes from the </tspan><tspan x="12" y="49" dominant-baseline="ideographic">remote branch, discarding the </tspan><tspan x="12" y="67" dominant-baseline="ideographic">current changes.</tspan></text></g></g></g><g id="g-root-ic_arro_zpo3jz12cbe2y-fill" data-item-order="0" transform="translate(489, 279)"></g><g id="g-root-tx_acceptcu_2qqyn12ch0y0-fill" data-item-order="0" transform="translate(68, 350)"><g id="tx_acceptcu_2qqyn12ch0y0-fill" stroke="none" fill="#3cc583"><g><text style="font: 20px Roboto, sans-serif; white-space: pre;" font-size="20px" font-family="Roboto, sans-serif"><tspan x="18.31" y="34" dominant-baseline="ideographic">Accept Current Change</tspan></text></g></g></g><g id="g-root-ic_badg_18hk9a712ch0qz-fill" data-item-order="0" transform="translate(320, 362)"></g><g id="g-root-ic_relo_dhbpxb12ccutn-fill" data-item-order="0" transform="translate(658, 362)"></g><g id="g-root-tx_editmanu_1414jjz12cmn0h-fill" data-item-order="0" transform="translate(730, 350)"><g id="tx_editmanu_1414jjz12cmn0h-fill" stroke="none" fill="#e0cb15"><g><text style="font: 20px Roboto, sans-serif; white-space: pre;" font-size="20px" font-family="Roboto, sans-serif"><tspan x="12" y="34" dominant-baseline="ideographic">Edit Manually</tspan></text></g></g></g><g id="g-root-tx_keepsthe_1uo1atb12ch1j5-fill" data-item-order="0" transform="translate(80, 386)"><g id="tx_keepsthe_1uo1atb12ch1j5-fill" stroke="none" fill="#484848"><g><text style="font: 15px Roboto, sans-serif; white-space: pre;" font-size="15px" font-family="Roboto, sans-serif"><tspan x="25.03" y="31" dominant-baseline="ideographic">Keeps the changes from the </tspan><tspan x="14.08" y="49" dominant-baseline="ideographic">current branch, discarding the </tspan><tspan x="100.17" y="67" dominant-baseline="ideographic">remote changes.</tspan></text></g></g></g><g id="g-root-tx_allowsma_qpo16n12cmole-fill" data-item-order="0" transform="translate(730, 386)"><g id="tx_allowsma_qpo16n12cmole-fill" stroke="none" fill="#484848"><g><text style="font: 15px Roboto, sans-serif; white-space: pre;" font-size="15px" font-family="Roboto, sans-serif"><tspan x="12" y="31" dominant-baseline="ideographic">Allows manual resolution of the </tspan><tspan x="12" y="49" dominant-baseline="ideographic">conflict by combining or modifying </tspan><tspan x="12" y="67" dominant-baseline="ideographic">changes.</tspan></text></g></g></g><g id="g-root-cp_2_Frame_6_mcc5xb12cbgnd-stroke" data-item-order="-457483" transform="translate(477, 267)"><g id="cp_2_Frame_6_mcc5xb12cbgnd-stroke" fill="none" stroke-linecap="round" stroke-linejoin="round" stroke-miterlimit="4" stroke="#4e88e7" stroke-width="2"><g><path d="M 69.6667 39.5C 69.6667 55.7924 56.3098 69 39.8333 69C 23.3568 69 10 55.7924 10 39.5C 10 23.2076 23.3568 10 39.8333 10C 56.3098 10 69.6667 23.2076 69.6667 39.5ZM 69.1491 45C 69.5404 43.0937 69.6667 41.5205 69.6667 39.5C 69.6667 37.4795 69.3314 34.9063 68.9401 33"></path></g></g></g><g id="g-root-cp_1_g-1_hx54vz12cbe9u-stroke" data-item-order="-457459" transform="translate(309, 351)"><g id="cp_1_g-1_hx54vz12cbe9u-stroke" fill="none" stroke-linecap="round" stroke-linejoin="round" stroke-miterlimit="4" stroke="#3cc583" stroke-width="2"><g><path d="M 69.6667 39.5C 69.6667 55.7924 56.3098 69 39.8333 69C 23.3568 69 10 55.7924 10 39.5C 10 23.2076 23.3568 10 39.8333 10C 56.3098 10 69.6667 23.2076 69.6667 39.5ZM 177 69C 177 55.9661 166.1812 45 153 45L 69.1491 45C 69.5404 43.0937 69.6667 41.5205 69.6667 39.5C 69.6667 37.4795 69.3314 34.9063 68.9401 33L 153 33C 172.7718 33 189 49.4491 189 69"></path></g></g></g><g id="g-root-cp_1_line_91i4n312cbf2j-stroke" data-item-order="-457447" transform="translate(476, 410)"><g id="cp_1_line_91i4n312cbf2j-stroke" fill="none" stroke-linecap="round" stroke-linejoin="round" stroke-miterlimit="4" stroke="#3cc583" stroke-width="2"><g><path d="M 10 10L 10 68.000004C 14.6863 68.000004 17.3137 68.000004 22 68.000004L 22 10"></path></g></g></g><g id="g-root-cp_3_g-3_91i4n312cbf2k-stroke" data-item-order="-457437" transform="translate(526, 350)"><g id="cp_3_g-3_91i4n312cbf2k-stroke" fill="none" stroke-linecap="round" stroke-linejoin="round" stroke-miterlimit="4" stroke="#e0cb15" stroke-width="2"><g><path d="M 129.3333 39.5C 129.3333 55.7924 142.6902 69 159.1667 69C 175.6432 69 189 55.7924 189 39.5C 189 23.2076 175.6432 10 159.1667 10C 142.6902 10 129.3333 23.2076 129.3333 39.5ZM 10 70L 10 69C 10 49.4491 26.2282 33 46 33L 130.0599 33C 129.6686 34.9063 129.3333 37.4795 129.3333 39.5C 129.3333 41.5205 129.4596 43.0937 129.8509 45L 46 45C 32.8188 45 22 55.9661 22 69L 22 70"></path></g></g></g><g id="g-root-cp_3_line_3_4lomin12cbfut-stroke" data-item-order="-457415" transform="translate(526, 410)"><g id="cp_3_line_3_4lomin12cbfut-stroke" fill="none" stroke-linecap="round" stroke-linejoin="round" stroke-miterlimit="4" stroke="#e0cb15" stroke-width="2"><g><path d="M 10 10L 10 68.000004L 22 68.000004L 22 10"></path></g></g></g><g id="g-root-sy_2_line-2_1ur5o8v12cbgge-stroke" data-item-order="-457407" transform="translate(501, 326)"><g id="sy_2_line-2_1ur5o8v12cbgge-stroke" fill="none" stroke-linecap="round" stroke-linejoin="round" stroke-miterlimit="4" stroke="#4e88e7" stroke-width="2"><g><path d="M 10 10L 22 10L 22 152L 10 152Z"></path></g></g></g><g id="g-root-tx_howtohan_1qbyn7j12cbe2v-stroke" data-item-order="0" transform="translate(327, 38)"></g><g id="g-root-tx_acceptre_1lw553312cbev4-stroke" data-item-order="0" transform="translate(399, 154)"></g><g id="g-root-tx_keepsthe_1d0i4u712cbfnt-stroke" data-item-order="0" transform="translate(399, 190)"></g><g id="g-root-ic_arro_zpo3jz12cbe2y-stroke" data-item-order="0" transform="translate(489, 279)"><g id="ic_arro_zpo3jz12cbe2y-stroke" fill="none" stroke-linecap="round" stroke-linejoin="round" stroke-miterlimit="4" stroke="#4e88e7" stroke-width="2"><g><path d="M 20.46097 19.50391L 17.70508 19.50391C 14.39137 19.50391 11.70508 22.190199 11.70508 25.503851L 11.70508 33.34375C 11.70508 36.657402 14.39137 39.34375 17.70508 39.34375L 26.322401 39.34375M 39.1684 27.783699C 41.96545 27.783699 44.296448 25.3363 44.296448 22.539206C 44.296448 19.742125 41.96545 17.411215 39.1684 17.411215C 38.11945 17.411215 37.070648 17.760851 36.254799 18.343584C 35.5555 14.730685 32.408802 11.93359 28.562801 11.93359C 24.250599 11.93359 20.637701 15.429955 20.637701 19.858675C 20.637701 24.287395 24.13405 27.783699 28.562801 27.783699L 39.1684 27.783699ZM 10 10M 33.33205 39.34375L 44.294952 39.34375M 10 10M 22.108406 34.621151L 26.82955 39.339401L 22.108406 44.06065M 10 10M 37.521549 44.066349L 32.799252 39.34705L 37.521549 34.624748"></path></g></g></g><g id="g-root-tx_acceptcu_2qqyn12ch0y0-stroke" data-item-order="0" transform="translate(68, 350)"></g><g id="g-root-ic_badg_18hk9a712ch0qz-stroke" data-item-order="0" transform="translate(320, 362)"><g id="ic_badg_18hk9a712ch0qz-stroke" fill="none" stroke-linecap="round" stroke-linejoin="round" stroke-miterlimit="4" stroke="#3cc583" stroke-width="2"><g><path d="M 34 24.25L 27.895 32.389C 27.695076 32.655514 27.389437 32.822273 27.057129 32.846153C 26.724819 32.870033 26.398476 32.748688 26.162498 32.5135L 22.4995 28.848999M 26.049999 11.6815C 26.523962 11.089218 27.241423 10.744451 28 10.744451C 28.758575 10.744451 29.476038 11.089218 29.949999 11.681499L 32.267502 14.566C 32.801769 15.230697 33.638268 15.576835 34.486 15.484L 38.163998 15.0835C 38.916149 15.003331 39.664162 15.267942 40.198586 15.803242C 40.733009 16.338539 40.996399 17.086985 40.915001 17.839001L 40.5145 21.515499C 40.422306 22.363461 40.768978 23.199883 41.434002 23.734001L 44.317001 26.049999C 44.908772 26.524281 45.253151 27.241627 45.253151 28C 45.253151 28.758375 44.908772 29.475719 44.317001 29.950001L 41.433998 32.267502C 40.768993 32.800972 40.422264 33.636963 40.5145 34.484505L 40.915001 38.162498C 40.997234 38.915123 40.733627 39.664421 40.198273 40.199776C 39.662922 40.73513 38.913624 40.998734 38.160999 40.9165L 34.483002 40.515999C 33.63512 40.424377 32.798965 40.770935 32.2645 41.435501L 29.950001 44.315502C 29.476038 44.907784 28.758575 45.252548 28 45.252548C 27.241423 45.252548 26.523962 44.907784 26.049999 44.315498L 23.7355 41.432499C 23.201035 40.767937 22.36488 40.421379 21.517 40.513L 17.839001 40.913498C 17.086376 40.995735 16.337078 40.732128 15.801723 40.196777C 15.266371 39.661423 15.002764 38.912125 15.085 38.1595L 15.4855 34.481499C 15.577737 33.633965 15.231009 32.79797 14.566 32.264503L 11.683 29.950001C 11.09123 29.475719 10.74685 28.758375 10.74685 28C 10.74685 27.241627 11.09123 26.524281 11.683 26.050001L 14.566 23.734001C 15.231024 23.199883 15.577695 22.363461 15.4855 21.515499L 15.085 17.839001C 15.003439 17.086407 15.267208 16.337378 15.802342 15.801951C 16.337479 15.266525 17.086361 15.002349 17.839001 15.0835L 21.517 15.484C 22.364731 15.576835 23.201231 15.230697 23.7355 14.566Z"></path></g></g></g><g id="g-root-ic_relo_dhbpxb12ccutn-stroke" data-item-order="0" transform="translate(658, 362)"><g id="ic_relo_dhbpxb12ccutn-stroke" fill="none" stroke-linecap="round" stroke-linejoin="round" stroke-miterlimit="4" stroke="#e0cb15" stroke-width="2"><g><path d="M 39.324997 33.625L 44.875 33.625L 44.875 26.875M 44.574997 33.625C 43.525002 29.724998 40.074997 26.875 35.875 26.875C 30.924999 26.875 26.875 30.924999 26.875 35.875C 26.875 40.824997 30.924999 44.875 35.875 44.875C 38.724998 44.875 41.275002 43.525002 42.925003 41.425003M 21.452049 42.1735L 11.125 44.875L 13.819016 34.519451M 21.452049 42.1735L 13.819016 34.519451M 21.452049 42.1735L 22.799065 40.82275M 13.819016 34.519451L 35.520851 12.757615C 37.616203 10.656481 41.058548 10.506398 43.303448 12.757615C 45.3988 14.858755 45.3988 18.310555 43.303448 20.561785L 40.759148 23.11318M 34.92205 13.3579L 42.715599 21.151344M 36.269051 22.513014L 31.03075 17.260164"></path></g></g></g><g id="g-root-tx_editmanu_1414jjz12cmn0h-stroke" data-item-order="0" transform="translate(730, 350)"></g><g id="g-root-tx_keepsthe_1uo1atb12ch1j5-stroke" data-item-order="0" transform="translate(80, 386)"></g><g id="g-root-tx_allowsma_qpo16n12cmole-stroke" data-item-order="0" transform="translate(730, 386)"></g></g></g></svg>