<?xml version="1.0" encoding="utf-8" standalone="yes"?>
<!DOCTYPE svg PUBLIC "-//W3C//DTD SVG 1.1//EN" "http://www.w3.org/Graphics/SVG/1.1/DTD/svg11.dtd">
<svg width="768" height="468" viewBox="0 0 768 468" style="fill:none;stroke:none;fill-rule:evenodd;clip-rule:evenodd;stroke-linecap:round;stroke-linejoin:round;stroke-miterlimit:1.5;" version="1.1" xmlns="http://www.w3.org/2000/svg" xmlns:xlink="http://www.w3.org/1999/xlink"><style class="text-font-style fontImports" data-font-family="Roboto">@import url(https://fonts.googleapis.com/css2?family=Roboto:wght@400;700&amp;amp;display=block);</style><g id="items" style="isolation: isolate"><g id="blend" style="mix-blend-mode: normal"><g id="g-root-sy_-1_line_1czwg2o154im81-fill" data-item-order="999995687" transform="translate(665, 289.99609375)"></g><g id="g-root-sy_-1_vector_1449fts154in0q-fill" data-item-order="999995691" transform="translate(14, 289.99609375)"></g><g id="g-root-sy_7_cu-smallCircle_1449fts154in0r-fill" data-item-order="999995695" transform="translate(659, 287)"></g><g id="g-root-sy_6_cu-smallCircle_zp2esg154ikn8-fill" data-item-order="999995699" transform="translate(563, 287)"></g><g id="g-root-sy_5_cu-smallCircle_qtfejk154ilfx-fill" data-item-order="999995703" transform="translate(467, 287)"></g><g id="g-root-sy_4_cu-smallCircle_mdlwf4154im86-fill" data-item-order="999995707" transform="translate(371, 287)"></g><g id="g-root-sy_3_cu-smallCircle_mdlwf4154im87-fill" data-item-order="999995711" transform="translate(275, 287)"></g><g id="g-root-sy_2_cu-smallCircle_hxseao154in0g-fill" data-item-order="999995715" transform="translate(179, 287)"></g><g id="g-root-sy_1_cu-smallCircle_92rv4w154iknd-fill" data-item-order="999995719" transform="translate(83, 287)"></g><g id="g-root-ic_2_1hiubmo154immi-fill" data-item-order="1000000000" transform="translate(638, 230)"></g><g id="g-root-ic_pape_v3mq1s154a7et-fill" data-item-order="1000000000" transform="translate(446, 230)"></g><g id="g-root-ic_writ_dg3k2o154lgcl-fill" data-item-order="1000000000" transform="translate(254, 230)"></g><g id="g-root-ic_clon_1cy174w154h79e-fill" data-item-order="1000000000" transform="translate(62, 230)"></g><g id="g-root-tx_makechan_qvatsw154ikge-fill" data-item-order="1000000000" transform="translate(206, 194)"><g id="tx_makechan_qvatsw154ikge-fill" stroke="none" fill="#484848"><g><text style="font: 20px Roboto, sans-serif; white-space: pre;" font-size="20px" font-family="Roboto, sans-serif"><tspan x="16.02" y="34" dominant-baseline="ideographic">Make Changes</tspan></text></g></g></g><g id="g-root-tx_forkrepo_4ots9s154ikg0-fill" data-item-order="1000000000" transform="translate(14, 194)"><g id="tx_forkrepo_4ots9s154ikg0-fill" stroke="none" fill="#484848"><g><text style="font: 20px Roboto, sans-serif; white-space: pre;" font-size="20px" font-family="Roboto, sans-serif"><tspan x="12.47" y="34" dominant-baseline="ideographic">Fork Repository</tspan></text></g></g></g><g id="g-root-tx_mergepul_4myd0g154ilfm-fill" data-item-order="1000000000" transform="translate(608, 170)"><g id="tx_mergepul_4myd0g154ilfm-fill" stroke="none" fill="#484848"><g><text style="font: 20px Roboto, sans-serif; white-space: pre;" font-size="20px" font-family="Roboto, sans-serif"><tspan x="14.1" y="34" dominant-baseline="ideographic">Merge Pull </tspan><tspan x="25.12" y="58" dominant-baseline="ideographic">Request</tspan></text></g></g></g><g id="g-root-ic_butt_1unfsdc154blzh-fill" data-item-order="1000000000" transform="translate(158, 302)"></g><g id="g-root-ic_requ_mfheu8154frb4-fill" data-item-order="1000000000" transform="translate(350, 302)"></g><g id="g-root-ic_1_1luwz8g154r2fi-fill" data-item-order="1000000000" transform="translate(542, 302)"></g><g id="g-root-tx_reviewch_1qclwm8154imtf-fill" data-item-order="1000000000" transform="translate(524, 362)"><g id="tx_reviewch_1qclwm8154imtf-fill" stroke="none" fill="#484848"><g><text style="font: 20px Roboto, sans-serif; white-space: pre;" font-size="20px" font-family="Roboto, sans-serif"><tspan x="20.5" y="34" dominant-baseline="ideographic">Review </tspan><tspan x="12.94" y="58" dominant-baseline="ideographic">Changes</tspan></text></g></g></g><g id="g-root-tx_clonerep_djubfk154im1b-fill" data-item-order="1000000000" transform="translate(128, 362)"><g id="tx_clonerep_djubfk154im1b-fill" stroke="none" fill="#484848"><g><text style="font: 20px Roboto, sans-serif; white-space: pre;" font-size="20px" font-family="Roboto, sans-serif"><tspan x="38.54" y="34" dominant-baseline="ideographic">Clone </tspan><tspan x="16.54" y="58" dominant-baseline="ideographic">Repository</tspan></text></g></g></g><g id="g-root-tx_createpu_1464v34154im19-fill" data-item-order="1000000000" transform="translate(320, 362)"><g id="tx_createpu_1464v34154im19-fill" stroke="none" fill="#484848"><g><text style="font: 20px Roboto, sans-serif; white-space: pre;" font-size="20px" font-family="Roboto, sans-serif"><tspan x="13.23" y="34" dominant-baseline="ideographic">Create Pull </tspan><tspan x="25.12" y="58" dominant-baseline="ideographic">Request</tspan></text></g></g></g><g id="g-root-tx_pullrequ_1uuau00154il1l-fill" data-item-order="1000000000" transform="translate(248, 38)"><g id="tx_pullrequ_1uuau00154il1l-fill" stroke="none" fill="#484848"><g><text style="font: bold 25px Roboto, sans-serif; white-space: pre;" font-weight="bold" font-size="25px" font-family="Roboto, sans-serif"><tspan x="16.3" y="43" dominant-baseline="ideographic">Pull Request Process</tspan></text></g></g></g><g id="g-root-tx_writedes_1hhldgg154ikgc-fill" data-item-order="1000000000" transform="translate(416, 170)"><g id="tx_writedes_1hhldgg154ikgc-fill" stroke="none" fill="#484848"><g><text style="font: 20px Roboto, sans-serif; white-space: pre;" font-size="20px" font-family="Roboto, sans-serif"><tspan x="40.83" y="34" dominant-baseline="ideographic">Write </tspan><tspan x="13.38" y="58" dominant-baseline="ideographic">Description</tspan></text></g></g></g><g id="g-root-sy_-1_line_1czwg2o154im81-stroke" data-item-order="999995687" transform="translate(665, 289.99609375)"><g id="sy_-1_line_1czwg2o154im81-stroke" fill="none" stroke-linecap="round" stroke-linejoin="round" stroke-miterlimit="4" stroke="#a3a3a3" stroke-width="2"><g><path d="M 77 10.003906L 10 10.003906"></path><path d="M 71 16.503906L 77.5 10.003906L 71 3.503906" stroke-dasharray="none"></path></g></g></g><g id="g-root-sy_-1_vector_1449fts154in0q-stroke" data-item-order="999995691" transform="translate(14, 289.99609375)"><g id="sy_-1_vector_1449fts154in0q-stroke" fill="none" stroke-linecap="round" stroke-linejoin="round" stroke-miterlimit="4" stroke="#a3a3a3" stroke-width="2"><g><path d="M 655 9.999992L 565 9.999992M 559 9.999992L 469 9.999992M 463 9.999992L 373 9.999992M 367 9.999992L 277 9.999992M 271 9.999992L 181 9.999992M 174.9976 9.999992L 84.9976 9.999992M 78.9976 9.999992L 10 9.999992"></path></g></g></g><g id="g-root-sy_7_cu-smallCircle_1449fts154in0r-stroke" data-item-order="999995695" transform="translate(659, 287)"><g id="sy_7_cu-smallCircle_1449fts154in0r-stroke" fill="none" stroke-linecap="round" stroke-linejoin="round" stroke-miterlimit="4" stroke="#969696" stroke-width="2"><g><path d="M 16 13C 16 14.6569 14.6569 16 13 16C 11.3431 16 10 14.6569 10 13C 10 11.3431 11.3431 10 13 10C 14.6569 10 16 11.3431 16 13Z"></path></g></g></g><g id="g-root-sy_6_cu-smallCircle_zp2esg154ikn8-stroke" data-item-order="999995699" transform="translate(563, 287)"><g id="sy_6_cu-smallCircle_zp2esg154ikn8-stroke" fill="none" stroke-linecap="round" stroke-linejoin="round" stroke-miterlimit="4" stroke="#969696" stroke-width="2"><g><path d="M 16 13C 16 14.6569 14.6569 16 13 16C 11.3431 16 10 14.6569 10 13C 10 11.3431 11.3431 10 13 10C 14.6569 10 16 11.3431 16 13Z"></path></g></g></g><g id="g-root-sy_5_cu-smallCircle_qtfejk154ilfx-stroke" data-item-order="999995703" transform="translate(467, 287)"><g id="sy_5_cu-smallCircle_qtfejk154ilfx-stroke" fill="none" stroke-linecap="round" stroke-linejoin="round" stroke-miterlimit="4" stroke="#969696" stroke-width="2"><g><path d="M 16 13C 16 14.6569 14.6569 16 13 16C 11.3431 16 10 14.6569 10 13C 10 11.3431 11.3431 10 13 10C 14.6569 10 16 11.3431 16 13Z"></path></g></g></g><g id="g-root-sy_4_cu-smallCircle_mdlwf4154im86-stroke" data-item-order="999995707" transform="translate(371, 287)"><g id="sy_4_cu-smallCircle_mdlwf4154im86-stroke" fill="none" stroke-linecap="round" stroke-linejoin="round" stroke-miterlimit="4" stroke="#969696" stroke-width="2"><g><path d="M 16 13C 16 14.6569 14.6569 16 13 16C 11.3431 16 10 14.6569 10 13C 10 11.3431 11.3431 10 13 10C 14.6569 10 16 11.3431 16 13Z"></path></g></g></g><g id="g-root-sy_3_cu-smallCircle_mdlwf4154im87-stroke" data-item-order="999995711" transform="translate(275, 287)"><g id="sy_3_cu-smallCircle_mdlwf4154im87-stroke" fill="none" stroke-linecap="round" stroke-linejoin="round" stroke-miterlimit="4" stroke="#969696" stroke-width="2"><g><path d="M 16 13C 16 14.6569 14.6569 16 13 16C 11.3431 16 10 14.6569 10 13C 10 11.3431 11.3431 10 13 10C 14.6569 10 16 11.3431 16 13Z"></path></g></g></g><g id="g-root-sy_2_cu-smallCircle_hxseao154in0g-stroke" data-item-order="999995715" transform="translate(179, 287)"><g id="sy_2_cu-smallCircle_hxseao154in0g-stroke" fill="none" stroke-linecap="round" stroke-linejoin="round" stroke-miterlimit="4" stroke="#969696" stroke-width="2"><g><path d="M 16 13C 16 14.6569 14.6569 16 13 16C 11.3431 16 10 14.6569 10 13C 10 11.3431 11.3431 10 13 10C 14.6569 10 16 11.3431 16 13Z"></path></g></g></g><g id="g-root-sy_1_cu-smallCircle_92rv4w154iknd-stroke" data-item-order="999995719" transform="translate(83, 287)"><g id="sy_1_cu-smallCircle_92rv4w154iknd-stroke" fill="none" stroke-linecap="round" stroke-linejoin="round" stroke-miterlimit="4" stroke="#969696" stroke-width="2"><g><path d="M 16 13C 16 14.6569 14.6569 16 13 16C 11.3431 16 10 14.6569 10 13C 10 11.3431 11.3431 10 13 10C 14.6569 10 16 11.3431 16 13Z"></path></g></g></g><g id="g-root-ic_2_1hiubmo154immi-stroke" data-item-order="1000000000" transform="translate(638, 230)"><g id="ic_2_1hiubmo154immi-stroke" fill="none" stroke-linecap="round" stroke-linejoin="round" stroke-miterlimit="4" stroke="#e55753" stroke-width="2"><g><path d="M 27.865999 17.133999C 27.865053 20.522383 30.611614 23.269712 34 23.269712C 37.388382 23.269712 40.134945 20.522383 40.133999 17.133999C 40.134945 13.745616 37.388382 10.998286 34 10.998286C 30.611614 10.998286 27.865053 13.745616 27.865999 17.133999M 42.178001 50.866001C 42.177052 54.254379 44.923615 57.001709 48.311996 57.001709C 51.700382 57.001709 54.446945 54.254379 54.445995 50.865997C 54.446945 47.477615 51.700382 44.730286 48.311996 44.730286C 44.923615 44.730286 42.177052 47.477615 42.177998 50.865997M 13.554 50.866001C 13.553053 54.254379 16.299616 57.001709 19.688 57.001709C 23.076382 57.001709 25.822945 54.254379 25.821999 50.865997C 25.822945 47.477615 23.076382 44.730286 19.688 44.730286C 16.299616 44.730286 13.553053 47.477615 13.554 50.865997M 34 23.265999L 34 26.844C 34 30.796148 30.796148 34 26.844 34C 22.89185 34 19.688 37.20385 19.688 41.155998L 19.688 44.734001M 34 23.265999L 34 26.844C 34 30.796148 37.20385 34 41.155998 34C 45.108147 34 48.312 37.20385 48.312 41.155998L 48.312 44.734001"></path></g></g></g><g id="g-root-ic_pape_v3mq1s154a7et-stroke" data-item-order="1000000000" transform="translate(446, 230)"><g id="ic_pape_v3mq1s154a7et-stroke" fill="none" stroke-linecap="round" stroke-linejoin="round" stroke-miterlimit="4" stroke="#e0cb15" stroke-width="2"><g><path d="M 35.080002 37.162003L 28.007999 39.992001L 30.837999 32.919998L 49.222 14.535999L 53.464001 18.778L 35.080002 37.162003ZM 53.464001 18.778L 49.222 14.535999L 51.344002 12.414C 52.097225 11.634132 53.212635 11.321366 54.26152 11.595913C 55.31041 11.87046 56.129543 12.689593 56.404087 13.73848C 56.678635 14.787367 56.365868 15.902777 55.586002 16.656ZM 30.837999 32.919998L 35.080002 37.162003M 49.222 14.535999C 47.631863 12.946237 45.054138 12.946237 43.464001 14.536L 39 19L 37 19M 55.585999 12.414L 57 11M 28.007999 39.992001L 26 42M 37 15L 15 15C 12.790861 15 11 16.790861 11 19L 11 53C 11 55.209141 12.790861 57 15 57L 34 57L 45 46L 45 34M 34 57L 34 48C 34 46.895432 34.895432 46 36 46L 45 46"></path></g></g></g><g id="g-root-ic_writ_dg3k2o154lgcl-stroke" data-item-order="1000000000" transform="translate(254, 230)"><g id="ic_writ_dg3k2o154lgcl-stroke" fill="none" stroke-linecap="round" stroke-linejoin="round" stroke-miterlimit="4" stroke="#3cc583" stroke-width="2"><g><path d="M 49 30L 49 53C 49 55.209141 47.209141 57 45 57L 15 57C 12.790861 57 11 55.209141 11 53L 11 19C 11 16.790861 12.790861 15 15 15L 36.862 15M 35.080002 37.162003L 28.007999 39.992001L 30.837999 32.919998L 49.222 14.535999L 53.464001 18.778L 35.080002 37.162003ZM 53.464001 18.778L 49.222 14.535999L 51.344002 12.414C 52.097225 11.634132 53.212635 11.321366 54.26152 11.595913C 55.31041 11.87046 56.129543 12.689593 56.404087 13.73848C 56.678635 14.787367 56.365868 15.902777 55.586002 16.656ZM 30.837999 32.919998L 35.080002 37.162003M 49.222 14.535999C 47.631863 12.946237 45.054138 12.946237 43.464001 14.536L 39 19L 37 19M 55.585999 12.414L 57 11M 28.007999 39.992001L 26 42"></path></g></g></g><g id="g-root-ic_clon_1cy174w154h79e-stroke" data-item-order="1000000000" transform="translate(62, 230)"><g id="ic_clon_1cy174w154h79e-stroke" fill="none" stroke-linecap="round" stroke-linejoin="round" stroke-miterlimit="4" stroke="#4e88e7" stroke-width="2"><g><path d="M 49.754002 51.5L 31.0352 51.5M 13.753901 47C 13.753901 48.193401 14.22802 49.338001 15.07192 50.181999C 15.91584 51.025799 17.06044 51.5 18.253899 51.5L 20.97266 51.5M 49.754002 37.125L 49.754002 41C 49.754002 41.795601 49.049599 42.5 48.254002 42.5L 18.253899 42.5C 15.8029 42.5 13.753901 44.549 13.753901 47L 13.753901 17.5C 13.753901 14.232 16.485901 11.5 19.753899 11.5L 31.004 11.5M 46.754002 51.5L 46.754002 42.5M 54.249599 31.625401L 38.400803 31.625401C 37.167603 31.625401 36.136803 30.594601 36.136803 29.36132L 36.136803 27.375M 39.155602 11.5C 37.5112 11.5 36.136803 12.87456 36.136803 14.5188L 36.136803 27.42918C 36.136803 26.19602 37.167603 25.1651 38.400803 25.1651L 53.494801 25.1651C 53.895199 25.1651 54.249599 24.81072 54.249599 24.4104L 54.249599 12.2547C 54.249599 11.854382 53.895199 11.5 53.494801 11.5L 39.155602 11.5ZM 10 10M 51.691399 31.625L 51.691399 25.5M 21.503899 34C 21.089699 34 20.753899 33.6642 20.753899 33.25C 20.753899 32.8358 21.089699 32.5 21.503899 32.5M 21.503899 34C 21.918121 34 22.253899 33.6642 22.253899 33.25C 22.253899 32.8358 21.918121 32.5 21.503899 32.5M 21.503899 27C 21.089699 27 20.753899 26.664221 20.753899 26.25C 20.753899 25.835781 21.089699 25.5 21.503899 25.5M 21.503899 27C 21.918121 27 22.253899 26.664221 22.253899 26.25C 22.253899 25.835781 21.918121 25.5 21.503899 25.5M 21.503899 20C 21.089699 20 20.753899 19.664219 20.753899 19.25C 20.753899 18.835781 21.089699 18.5 21.503899 18.5M 21.503899 20C 21.918121 20 22.253899 19.664219 22.253899 19.25C 22.253899 18.835781 21.918121 18.5 21.503899 18.5M 21.003899 47.5L 21.003899 56.5L 26.003901 52.875L 31.004 56.5L 31.004 47.5"></path></g></g></g><g id="g-root-tx_makechan_qvatsw154ikge-stroke" data-item-order="1000000000" transform="translate(206, 194)"></g><g id="g-root-tx_forkrepo_4ots9s154ikg0-stroke" data-item-order="1000000000" transform="translate(14, 194)"></g><g id="g-root-tx_mergepul_4myd0g154ilfm-stroke" data-item-order="1000000000" transform="translate(608, 170)"></g><g id="g-root-ic_butt_1unfsdc154blzh-stroke" data-item-order="1000000000" transform="translate(158, 302)"><g id="ic_butt_1unfsdc154blzh-stroke" fill="none" stroke-linecap="round" stroke-linejoin="round" stroke-miterlimit="4" stroke="#1eabda" stroke-width="2"><g><path d="M 34 11L 34 44.23M 42 34.23L 34 44.23L 26 34.23M 29 25L 20 25C 18.895432 25 18 25.895432 18 27L 18 55C 18 56.104568 18.895432 57 20 57L 48 57C 49.104568 57 50 56.104568 50 55L 50 27C 50 25.895432 49.104568 25 48 25L 39 25"></path></g></g></g><g id="g-root-ic_requ_mfheu8154frb4-stroke" data-item-order="1000000000" transform="translate(350, 302)"><g id="ic_requ_mfheu8154frb4-stroke" fill="none" stroke-linecap="round" stroke-linejoin="round" stroke-miterlimit="4" stroke="#92bd39" stroke-width="2"><g><path d="M 44.731998 50.866001C 44.731052 54.254379 47.477615 57.001709 50.865997 57.001709C 54.254379 57.001709 57.000942 54.254379 56.999996 50.865997C 57.000942 47.477615 54.254379 44.730286 50.865997 44.730286C 47.477615 44.730286 44.731052 47.477615 44.731998 50.865997M 50.866001 44.734001L 50.866001 27.356001C 50.866001 21.710545 46.289455 17.134001 40.644001 17.134001L 32.466 17.133999M 38.599998 11L 32.466 17.133999L 38.599998 23.265999M 11 17.133999C 10.999054 20.522383 13.745616 23.269712 17.133999 23.269712C 20.522383 23.269712 23.268946 20.522383 23.267998 17.133999C 23.268946 13.745616 20.522383 10.998286 17.133999 10.998286C 13.745616 10.998286 10.999054 13.745616 11 17.133999M 17.133999 23.265999L 17.133999 40.643997C 17.134001 46.289455 21.710545 50.866001 27.356001 50.866001L 35.534 50.866001M 29.4 57L 35.534 50.866001L 29.4 44.734001"></path></g></g></g><g id="g-root-ic_1_1luwz8g154r2fi-stroke" data-item-order="1000000000" transform="translate(542, 302)"><g id="ic_1_1luwz8g154r2fi-stroke" fill="none" stroke-linecap="round" stroke-linejoin="round" stroke-miterlimit="4" stroke="#de8431" stroke-width="2"><g><path d="M 49 33L 49 55C 49 56.104568 48.104568 57 47 57L 13 57C 11.895431 57 11 56.104568 11 55L 11 17C 11 15.895431 11.895431 15 13 15L 39 15M 35.648003 38.014L 25.75 42.254002L 29.992001 32.354L 51.348 11L 57.004002 16.656L 35.648003 38.014ZM 53.334 20.327999L 47.675999 14.67M 35.648003 38.014L 29.992001 32.354"></path></g></g></g><g id="g-root-tx_reviewch_1qclwm8154imtf-stroke" data-item-order="1000000000" transform="translate(524, 362)"></g><g id="g-root-tx_clonerep_djubfk154im1b-stroke" data-item-order="1000000000" transform="translate(128, 362)"></g><g id="g-root-tx_createpu_1464v34154im19-stroke" data-item-order="1000000000" transform="translate(320, 362)"></g><g id="g-root-tx_pullrequ_1uuau00154il1l-stroke" data-item-order="1000000000" transform="translate(248, 38)"></g><g id="g-root-tx_writedes_1hhldgg154ikgc-stroke" data-item-order="1000000000" transform="translate(416, 170)"></g></g></g></svg>