<?xml version="1.0" encoding="utf-8" standalone="yes"?>
<!DOCTYPE svg PUBLIC "-//W3C//DTD SVG 1.1//EN" "http://www.w3.org/Graphics/SVG/1.1/DTD/svg11.dtd">
<svg width="822" height="744" viewBox="0 0 822 744" style="fill:none;stroke:none;fill-rule:evenodd;clip-rule:evenodd;stroke-linecap:round;stroke-linejoin:round;stroke-miterlimit:1.5;" version="1.1" xmlns="http://www.w3.org/2000/svg" xmlns:xlink="http://www.w3.org/1999/xlink"><style class="text-font-style fontImports" data-font-family="Roboto">@import url(https://fonts.googleapis.com/css2?family=Roboto:wght@400;700&amp;amp;display=block);</style><g id="items" style="isolation: isolate"><g id="blend" style="mix-blend-mode: normal"><g id="g-root-sy_0d_cu_18gb1gw140r951-fill" data-item-order="-218512" transform="translate(14.481704711914062, 486.599609375)"></g><g id="g-root-sy_0c_cu_v4uj3k140rapy-fill" data-item-order="-218508" transform="translate(103.38888549804688, 226.8359375)"></g><g id="g-root-sy_0b_cu_m9tzxs140r8cv-fill" data-item-order="-218504" transform="translate(49.848876953125, 202.96484375)"></g><g id="g-root-sy_0a_cu_hu0htc140r954-fill" data-item-order="-218500" transform="translate(217.576416015625, 199.763671875)"></g><g id="g-root-sy_3_cu_de6zow140r9xd-fill" data-item-order="-218496" transform="translate(411.982666015625, 351.572265625)"></g><g id="g-root-sy_4_cu_4ijzg0140raq2-fill" data-item-order="-218492" transform="translate(404.97467041015625, 430.13287353515625)"></g><g id="g-root-sy_5_cu_3cyeo140r8cj-fill" data-item-order="-218488" transform="translate(373.613525390625, 511.28515625)"></g><g id="g-root-sy_2_cu_3cyeo140r8ck-fill" data-item-order="-218484" transform="translate(392.884033203125, 266.16796875)"></g><g id="g-root-sy_1_cu_1q8u04w140r8y5-fill" data-item-order="-218480" transform="translate(353.292236328125, 188)"></g><g id="g-root-tx_installa_v6pycw140r9qi-fill" data-item-order="0" transform="translate(547.481689453125, 241.5)"><g id="tx_installa_v6pycw140r9qi-fill" stroke="none" fill="#4f91fc"><g><text style="font: 20px Roboto, sans-serif; white-space: pre;" font-size="20px" font-family="Roboto, sans-serif"><tspan x="12" y="34" dominant-baseline="ideographic">Installation Guide</tspan></text></g></g></g><g id="g-root-ic_2_18lb0hc140lnuz-fill" data-item-order="0" transform="translate(487.481689453125, 229.49609375)"></g><g id="g-root-tx_stepstos_142cyls140r8xt-fill" data-item-order="0" transform="translate(547.719970703125, 277.818359375)"><g id="tx_stepstos_142cyls140r8xt-fill" stroke="none" fill="#f4f4f4"><g><text style="font: 15px Roboto, sans-serif; white-space: pre;" font-size="15px" font-family="Roboto, sans-serif"><tspan x="12" y="31" dominant-baseline="ideographic">Steps to set up the project</tspan></text></g></g></g><g id="g-root-ic_2_3d4q8140lmvb-fill" data-item-order="0" transform="translate(487.481689453125, 349.490234375)"></g><g id="g-root-tx_usageins_hvvx2o140r85o-fill" data-item-order="0" transform="translate(547.481689453125, 361.5)"><g id="tx_usageins_hvvx2o140r85o-fill" stroke="none" fill="#fb6762"><g><text style="font: 20px Roboto, sans-serif; white-space: pre;" font-size="20px" font-family="Roboto, sans-serif"><tspan x="12" y="34" dominant-baseline="ideographic">Usage Instructions</tspan></text></g></g></g><g id="g-root-tx_howtouse_qqwg8g140rair-fill" data-item-order="0" transform="translate(547.719970703125, 397.818359375)"><g id="tx_howtouse_qqwg8g140rair-fill" stroke="none" fill="#f4f4f4"><g><text style="font: 15px Roboto, sans-serif; white-space: pre;" font-size="15px" font-family="Roboto, sans-serif"><tspan x="12" y="31" dominant-baseline="ideographic">How to use the project effectively</tspan></text></g></g></g><g id="g-root-tx_coredesc_1cxdhrk140raj3-fill" data-item-order="0" transform="translate(547.719970703125, 157.82025146484375)"><g id="tx_coredesc_1cxdhrk140raj3-fill" stroke="none" fill="#f4f4f4"><g><text style="font: 15px Roboto, sans-serif; white-space: pre;" font-size="15px" font-family="Roboto, sans-serif"><tspan x="12" y="31" dominant-baseline="ideographic">Core description of the project</tspan></text></g></g></g><g id="g-root-ic_conf_v8ljxs140bsw4-fill" data-item-order="0" transform="translate(487.481689453125, 469.484375)"></g><g id="g-root-tx_projecto_18i6gq8140r85k-fill" data-item-order="0" transform="translate(547.481689453125, 122)"><g id="tx_projecto_18i6gq8140r85k-fill" stroke="none" fill="#43dd93"><g><text style="font: 20px Roboto, sans-serif; white-space: pre;" font-size="20px" font-family="Roboto, sans-serif"><tspan x="12" y="34" dominant-baseline="ideographic">Project Overview</tspan></text></g></g></g><g id="g-root-tx_contribu_4kfepc140r9qm-fill" data-item-order="0" transform="translate(547.481689453125, 481.5)"><g id="tx_contribu_4kfepc140r9qm-fill" stroke="none" fill="#f79438"><g><text style="font: 20px Roboto, sans-serif; white-space: pre;" font-size="20px" font-family="Roboto, sans-serif"><tspan x="12" y="34" dominant-baseline="ideographic">Contribution Guidelines</tspan></text></g></g></g><g id="g-root-tx_linkstod_4lwkw140raiv-fill" data-item-order="0" transform="translate(547.719970703125, 637.81640625)"><g id="tx_linkstod_4lwkw140raiv-fill" stroke="none" fill="#f4f4f4"><g><text style="font: 15px Roboto, sans-serif; white-space: pre;" font-size="15px" font-family="Roboto, sans-serif"><tspan x="12" y="31" dominant-baseline="ideographic">Links to documentation and issues</tspan></text></g></g></g><g id="g-root-tx_howtocon_dg2ey8140r8xx-fill" data-item-order="0" transform="translate(547.719970703125, 517.81640625)"><g id="tx_howtocon_dg2ey8140r8xx-fill" stroke="none" fill="#f4f4f4"><g><text style="font: 15px Roboto, sans-serif; white-space: pre;" font-size="15px" font-family="Roboto, sans-serif"><tspan x="12" y="31" dominant-baseline="ideographic">How to contribute to the project</tspan></text></g></g></g><g id="g-root-ic_3_1hf2f5c140r9j5-fill" data-item-order="0" transform="translate(487.481689453125, 589.48046875)"></g><g id="g-root-tx_addition_1luvx9s140r8qw-fill" data-item-order="0" transform="translate(547.481689453125, 601.5)"><g id="tx_addition_1luvx9s140r8qw-fill" stroke="none" fill="#ffe711"><g><text style="font: 20px Roboto, sans-serif; white-space: pre;" font-size="20px" font-family="Roboto, sans-serif"><tspan x="12" y="34" dominant-baseline="ideographic">Additional Resources</tspan></text></g></g></g><g id="g-root-tx_structur_1lt0i0g140r9qe-fill" data-item-order="0" transform="translate(247.481689453125, 38)"><g id="tx_structur_1lt0i0g140r9qe-fill" stroke="none" fill="#f4f4f4"><g><text style="font: bold 25px Roboto, sans-serif; white-space: pre;" font-weight="bold" font-size="25px" font-family="Roboto, sans-serif"><tspan x="15.64" y="43" dominant-baseline="ideographic">Structure of a README.md File</tspan></text></g></g></g><g id="g-root-ic_sear_1q8u6gg140ohe3-fill" data-item-order="0" transform="translate(487.481689453125, 109.5)"></g><g id="g-root-sy_0d_cu_18gb1gw140r951-stroke" data-item-order="-218512" transform="translate(14.481704711914062, 486.599609375)"><g id="sy_0d_cu_18gb1gw140r951-stroke" fill="none" stroke-linecap="round" stroke-linejoin="round" stroke-miterlimit="4" stroke="#f4f4f4" stroke-width="2"><g><path d="M 19.312079 169.9731L 42.463879 169.9731C 43.597079 169.9731 44.633579 169.3345 45.143279 168.3223L 112.527579 34.5096C 106.811179 29.8033 101.340779 24.6548 96.164279 19.0975L 19.312079 169.9731ZM 11.933079 167.162L 19.312079 169.9731L 96.164279 19.0975C 93.443279 16.1764 90.803479 13.1423 88.251779 10L 10.327779 162.997C 9.518279 164.5865 10.266179 166.527 11.933079 167.162ZM 98.137779 206.9008L 105.312479 208.7141C 105.312479 208.7141 107.399979 209.1396 108.373779 209.2233L 142.927379 54.1986C 138.741979 52.1455 134.627779 49.8799 130.597879 47.4112L 95.944379 203.3415C 95.592179 204.9259 96.564179 206.5031 98.137779 206.9008ZM 108.373779 209.2233C 109.347579 209.3069 111.550779 209.0675 111.550779 209.0675L 132.500379 206.4488C 133.758379 206.2915 134.781779 205.3604 135.056779 204.1228L 144.646279 160.9731L 151.091179 131.9731L 166.368279 63.2307C 158.373179 60.9587 150.532879 57.9294 142.927379 54.1986L 108.373779 209.2233ZM 287.783979 142.2293L 280.140579 123.503C 279.647079 122.2939 278.428179 121.543 277.126379 121.646L 271.615079 122.0822L 151.091179 131.9731L 144.646279 160.9731L 281.792479 146.677L 285.286079 146.3499C 287.290279 146.1623 288.544679 144.093 287.783979 142.2293ZM 299.102479 183.1681L 309.925079 184.2707L 257.406479 57.3543L 246.097479 60.4166L 271.615079 122.0822L 277.126379 121.646C 278.428179 121.543 279.647079 122.2939 280.140579 123.503L 287.783979 142.2293C 288.544679 144.093 287.290279 146.1623 285.286079 146.3499L 281.792479 146.677L 295.812779 180.7556C 296.235979 181.7784 297.421579 182.9379 299.102479 183.1681ZM 309.925079 184.2707L 328.403279 181.9609C 330.369679 181.7151 331.561679 179.6642 330.801979 177.834L 278.161479 51.0183C 274.074279 52.6109 269.870879 53.9915 265.557279 55.1473L 265.552979 55.1485L 265.499479 55.1628L 257.406479 57.3543L 309.925079 184.2707ZM 265.499479 55.1628C 265.517279 55.158 265.535079 55.1532 265.552979 55.1485"></path></g></g></g><g id="g-root-sy_0c_cu_v4uj3k140rapy-stroke" data-item-order="-218508" transform="translate(103.38888549804688, 226.8359375)"><g id="sy_0c_cu_v4uj3k140rapy-stroke" fill="none" stroke-linecap="round" stroke-linejoin="round" stroke-miterlimit="4" stroke="#f4f4f4" stroke-width="2"><g><path d="M 15.808823 184.08127C 36.392423 260.90037 105.622623 309.09547 170.438823 291.72807C 192.986523 285.68647 212.029823 272.50657 226.411823 254.65207L 209.266623 239.70217C 197.464923 253.53097 182.173223 263.73757 164.228223 268.54587C 110.081423 283.05447 52.281423 242.920869 35.128423 178.90497C 17.975423 114.88897 47.964823 51.23227 102.111623 36.72367C 136.802623 27.42827 172.993123 40.56217 199.032923 68.03597L 214.194623 53.59627C 182.854223 18.97577 138.426423 2.14627 95.898923 13.54147C 31.082723 30.90887 -4.774777 107.26217 15.808823 184.08127ZM 183.227323 83.08897L 167.939323 97.64897C 152.857023 84.12447 133.316923 78.05607 114.533123 83.08917C 82.258423 91.73717 64.437723 129.88487 74.729523 168.29437C 85.021323 206.70397 119.528323 230.83047 151.803023 222.18247C 160.492323 219.85417 168.134023 215.38757 174.461323 209.35327L 191.731923 224.41257C 182.573123 234.46777 170.988623 241.88737 157.531723 245.49307C 114.321023 257.07137 68.167523 224.94127 54.445123 173.72857C 40.722723 122.51577 64.627723 71.61367 107.838423 60.03537C 134.652523 52.85057 162.599623 62.49657 183.227323 83.08897ZM 136.590323 176.331169L 156.642123 193.81567C 153.336323 196.14667 149.632723 197.91747 145.591423 199.00027C 123.986123 204.78947 100.909323 188.72437 94.048123 163.11807C 87.186923 137.51167 99.139423 112.06057 120.744823 106.27137C 131.628623 103.35507 142.885823 105.98467 152.255323 112.58617L 134.859323 129.15377C 132.267023 128.67637 129.591223 128.74777 126.956623 129.45367C 116.020523 132.38397 109.936123 145.13847 113.366823 157.941669C 116.506723 169.66007 126.529323 177.35767 136.590323 176.331169ZM 195.600823 219.82547L 178.582723 204.98637C 183.652623 199.02407 187.640023 191.92997 190.358623 184.10277L 210.274123 191.36057C 207.002123 201.93147 202.029323 211.59357 195.600823 219.82547ZM 230.065923 249.87777L 213.025823 235.01947C 220.948423 224.52627 227.021523 212.26347 230.934623 198.88987L 250.835523 206.14237C 246.386423 222.28147 239.339923 237.12257 230.065923 249.87777ZM 235.866223 155.74117L 256.086323 155.74117C 256.939323 171.14887 255.605423 186.16777 252.319823 200.29727L 232.484223 193.06857C 235.325823 181.24367 236.520023 168.65927 235.866223 155.74117ZM 226.625023 112.22097C 228.374823 116.78917 229.910123 121.50817 231.211423 126.36467C 233.308723 134.19197 234.701223 142.01387 235.431023 149.74117L 255.644923 149.74117C 254.778723 140.30607 253.091123 130.75077 250.528823 121.18827C 249.032823 115.60497 247.279723 110.17297 245.290123 104.90627L 226.625023 112.22097ZM 191.606623 136.97727C 192.751023 141.24857 193.547923 145.51657 194.015923 149.74117L 214.229923 149.74117C 213.626123 143.80697 212.534323 137.80557 210.925123 131.79987C 209.828423 127.707069 208.524623 123.736069 207.031723 119.89957L 188.359223 127.21717C 189.615923 130.35247 190.704323 133.60997 191.606623 136.97727ZM 194.462723 155.74117C 194.761723 163.58727 193.930423 171.21217 192.093523 178.34897L 211.876423 185.55847C 214.176123 176.11897 215.162723 166.06647 214.676523 155.74117L 194.462723 155.74117ZM 161.296523 189.91347L 143.318623 174.23737C 145.620023 172.97507 147.609923 171.22207 149.224423 169.11217L 170.182623 176.75007C 168.006323 181.77347 165.002223 186.25067 161.296523 189.91347ZM 153.898823 155.74117C 153.768323 158.59057 153.182723 161.32087 152.200023 163.81057L 172.211723 171.10347C 173.611423 166.27917 174.309723 161.09407 174.216123 155.74117L 153.898823 155.74117ZM 152.969723 147.33007C 153.185323 148.13477 153.363423 148.93927 153.505023 149.74117L 173.782423 149.74117C 173.463023 147.22617 172.967923 144.69067 172.288123 142.153669C 171.580023 139.51077 170.699123 136.96947 169.664923 134.54337L 150.894423 141.89947C 151.751823 143.58717 152.453723 145.40437 152.969723 147.33007ZM 141.133823 131.46377C 143.484123 132.79397 145.648423 134.59537 147.504023 136.78387L 167.006823 129.14077C 164.253123 124.24137 160.838023 119.94267 156.965023 116.38647L 141.133823 131.46377ZM 172.241223 101.83767C 177.613823 107.51127 182.271023 114.20697 185.927823 121.72577L 204.706823 114.36637C 200.139323 104.26327 194.229323 95.20737 187.343923 87.45417L 172.241223 101.83767ZM 203.056523 72.48977L 218.136623 58.12777C 228.134123 70.08717 236.626823 83.94807 243.070723 99.33177L 224.359523 106.66457C 218.819523 93.86777 211.564323 82.36917 203.056523 72.48977Z"></path></g></g></g><g id="g-root-sy_0b_cu_m9tzxs140r8cv-stroke" data-item-order="-218504" transform="translate(49.848876953125, 202.96484375)"><g id="sy_0b_cu_m9tzxs140r8cv-stroke" fill="none" stroke-linecap="round" stroke-linejoin="round" stroke-miterlimit="4" stroke="#f4f4f4" stroke-width="2"><g><path d="M 197.408793 347.658485C 121.656593 367.956284 40.779893 311.757585 16.765693 222.135285C -7.248507 132.512985 34.693393 43.405185 110.445593 23.107485L 143.227293 14.230485C 136.598593 16.006685 130.230193 18.313485 124.143793 21.104885C 60.920593 50.100885 28.124993 131.376785 50.030393 213.128885C 71.935393 294.879485 140.972893 348.868085 210.222393 342.370285C 216.889092 341.744685 223.557793 340.558585 230.186493 338.782685L 197.408793 347.658485ZM 230.190493 338.781585L 230.186493 338.782685M 143.389489 14.117416C 193.747889 0.623916 246.409389 21.169816 283.018789 62.953116L 267.897089 77.354716C 236.556589 42.733616 192.128389 25.903616 149.600489 37.299016C 84.784289 54.666416 48.926789 131.019716 69.510389 207.838816C 90.093989 284.657916 159.324189 332.853016 224.140289 315.485616C 246.687889 309.444016 265.730989 296.264316 280.112889 278.410116L 297.207789 293.316216C 280.280889 315.218716 257.499989 331.394416 230.352689 338.668516C 154.867189 358.894716 74.206789 302.638116 50.192589 213.015816C 26.178289 123.393516 67.903989 34.343716 143.389489 14.117416ZM 324.415389 237.145216C 319.430489 256.046416 311.411189 273.462516 300.787089 288.476616L 283.767089 273.635816C 293.041089 260.880816 300.087589 246.039816 304.536789 229.900916L 324.415389 237.145216ZM 330.007289 179.500016C 331.058389 197.397016 329.583789 214.849816 325.853089 231.283216L 306.021189 224.055816C 309.306889 209.926416 310.640789 194.907616 309.787989 179.500016L 330.007289 179.500016ZM 323.549589 139.770116C 326.576789 151.068016 328.559389 162.356916 329.561289 173.500016L 309.346589 173.500016C 308.480489 164.064416 306.792789 154.508716 304.230389 144.945816C 302.734489 139.362916 300.981589 133.931316 298.992189 128.665016L 317.656289 121.350716C 319.887089 127.315016 321.858689 133.459816 323.549589 139.770116ZM 286.902789 67.539716C 298.390189 81.575816 308.120889 97.795716 315.469489 115.763416L 296.772789 123.090516C 290.328989 107.706716 281.836489 93.845716 271.838989 81.886216L 286.902789 67.539716ZM 155.813189 60.481216C 190.504589 51.185716 226.695489 64.320016 252.735389 91.794416L 236.929789 106.847416C 216.301989 86.254316 188.354389 76.607916 161.539989 83.792816C 118.329289 95.371116 94.424289 146.273316 108.146689 197.486116C 121.869089 248.698816 168.022489 280.828916 211.233289 269.250616C 224.689989 265.644916 236.274389 258.225516 245.432989 248.170616C 245.432989 248.170616 248.065589 245.166716 249.301889 243.583516C 255.730489 235.351816 260.703289 225.689816 263.975389 215.119116L 284.635889 222.648416C 280.722689 236.021816 274.649589 248.284516 266.726989 258.777516L 249.301889 243.583516C 248.065589 245.166716 245.432989 248.170616 245.432989 248.170616L 262.967689 263.460216C 251.166089 277.288716 235.874589 287.495116 217.929789 292.303416C 163.782989 306.812016 105.982989 266.678316 88.829989 202.662416C 71.676989 138.646516 101.666389 74.989816 155.813189 60.481216ZM 286.185489 216.827116C 289.027289 205.002316 290.221489 192.418016 289.567789 179.500016L 268.378189 179.500016C 268.864189 189.825216 267.877489 199.877716 265.577689 209.317016L 286.185489 216.827116ZM 289.132689 173.500016C 288.402889 165.772216 287.010389 157.949916 284.912989 150.122216C 283.611789 145.266116 282.076689 140.547516 280.327089 135.979816L 260.733789 143.658316C 262.226489 147.494416 263.530089 151.465016 264.626689 155.557416C 266.235989 161.563516 267.327789 167.565416 267.931589 173.500016L 289.132689 173.500016ZM 278.061689 130.423316C 272.521689 117.626416 265.266589 106.127716 256.758889 96.248216L 241.046289 111.212616C 247.931689 118.965916 253.841589 128.021916 258.408889 138.125116L 278.061689 130.423316ZM 168.234589 106.846716C 187.018889 101.813416 206.559289 107.882216 221.641789 121.407316L 205.957889 136.344416C 196.588189 129.742416 185.330589 127.112516 174.446389 130.028916C 152.840989 135.818116 140.888489 161.269216 147.749689 186.875516C 154.610889 212.481916 177.687689 228.547016 199.292989 222.757816C 203.334089 221.675016 207.037389 219.904416 210.343089 217.573516L 228.162389 233.111316C 221.835089 239.145416 214.193689 243.611816 205.504589 245.940016C 173.229889 254.588016 138.722889 230.461516 128.431089 192.051916C 118.139289 153.642316 135.959889 115.494716 168.234589 106.846716ZM 244.059889 207.861316C 241.341089 215.688316 237.353689 222.782216 232.283789 228.744416L 214.997589 213.671516C 218.703289 210.008816 221.707389 205.531816 223.883789 200.508516L 244.059889 207.861316ZM 248.164289 179.500016C 248.463189 187.346016 247.631789 194.970916 245.794789 202.107516L 225.912989 194.862016C 227.312689 190.037816 228.011189 184.852816 227.917689 179.500016L 248.164289 179.500016ZM 245.308089 160.734816C 246.452689 165.006516 247.249589 169.275016 247.717589 173.500016L 227.484089 173.500016C 227.164789 170.984616 226.669589 168.448716 225.989689 165.911216C 225.281689 163.268716 224.400989 160.727916 223.366989 158.302216L 242.061289 150.976016C 243.317789 154.110916 244.405989 157.367916 245.308089 160.734816ZM 225.943589 125.596116C 231.316189 131.269816 235.973289 137.965616 239.629989 145.484516L 220.708989 152.899516C 217.955489 147.999916 214.540489 143.701216 210.667489 140.144916L 225.943589 125.596116ZM 188.562389 152.911616C 185.969589 152.433816 183.293289 152.505116 180.658189 153.211216C 169.722089 156.141516 163.637689 168.896016 167.068289 181.699216C 170.208189 193.417216 180.230189 201.114716 190.290889 200.088816L 178.919389 190.173316C 177.670489 189.084616 177.540489 187.189516 178.629189 185.940616C 179.717889 184.691616 181.612989 184.561716 182.861889 185.650416L 197.019489 197.995216C 199.320889 196.733116 201.310689 194.980316 202.925289 192.870616L 195.047389 189.999716C 193.490589 189.432516 192.688389 187.710716 193.255589 186.154016C 193.822789 184.597216 195.544489 183.795016 197.101289 184.362216L 205.901189 187.569116C 206.883889 185.079516 207.469689 182.349316 207.600289 179.500016L 188.796589 179.500016C 187.139689 179.500016 185.796589 178.156916 185.796589 176.500016C 185.796589 174.843216 187.139689 173.500016 188.796589 173.500016L 207.206789 173.500016C 207.065089 172.697716 206.886989 171.892716 206.671289 171.087616C 206.155389 169.162316 205.453689 167.345516 204.596589 165.658216L 197.895889 168.284216C 196.353289 168.888716 194.612589 168.128316 194.008089 166.585716C 193.403489 165.043116 194.163889 163.302416 195.706489 162.697916L 201.206489 160.542516C 199.350989 158.353916 197.186789 156.552316 194.836489 155.222016L 183.864589 165.671416C 182.664789 166.814116 180.765789 166.767716 179.623189 165.568016C 178.480489 164.368216 178.526789 162.469216 179.726589 161.326616L 188.562389 152.911616Z"></path></g></g></g><g id="g-root-sy_0a_cu_hu0htc140r954-stroke" data-item-order="-218500" transform="translate(217.576416015625, 199.763671875)"><g id="sy_0a_cu_hu0htc140r954-stroke" fill="none" stroke-linecap="round" stroke-linejoin="round" stroke-miterlimit="4" stroke="#f4f4f4" stroke-width="2"><g><path d="M 10.7386 189.098831C 11.8273 187.849831 13.7223 187.719931 14.9713 188.808631L 198.9259 349.210031C 200.1749 350.298731 200.3048 352.193731 199.2161 353.442731C 198.1274 354.691731 196.2324 354.821631 194.9834 353.732931L 11.0288 193.331531C 9.7798 192.242831 9.6499 190.347731 10.7386 189.098831ZM 25.365 189.464531C 25.9321 187.907831 27.6539 187.105631 29.2107 187.672731L 235.2518 262.760231C 236.8086 263.327431 237.6108 265.049231 237.0436 266.605931C 236.4765 268.162731 234.7547 268.964931 233.1979 268.397731L 27.1567 193.310231C 25.6 192.743131 24.7978 191.021331 25.365 189.464531ZM 177.5774 10.931031C 178.72 12.130831 178.6737 14.029831 177.4739 15.172431L 15.9739 168.981931C 14.7742 170.124631 12.8752 170.078331 11.7326 168.878531C 10.5899 167.678731 10.6362 165.779831 11.836 164.637131L 173.336 10.827631C 174.5358 9.684931 176.4347 9.731231 177.5774 10.931031ZM 224.4587 92.167231C 225.0633 93.709831 224.3029 95.450431 222.7603 96.055031L 30.0053 171.594731C 28.4626 172.199331 26.722 171.438931 26.1174 169.896331C 25.5129 168.353631 26.2733 166.613031 27.8159 166.008431L 220.5709 90.468731C 222.1135 89.864131 223.8542 90.624631 224.4587 92.167231ZM 240.905 182.810531L 20.9059 182.810631C 19.2491 182.810631 17.9059 181.467431 17.9059 179.810631C 17.9059 178.153731 19.2491 176.810631 20.9059 176.810631L 240.905 176.810531C 242.5618 176.810531 243.905 178.153731 243.905 179.810531C 243.905 181.467431 242.5618 182.810531 240.905 182.810531Z"></path></g></g></g><g id="g-root-sy_3_cu_de6zow140r9xd-stroke" data-item-order="-218496" transform="translate(411.982666015625, 351.572265625)"><g id="sy_3_cu_de6zow140r9xd-stroke" fill="none" stroke-linecap="round" stroke-linejoin="round" stroke-miterlimit="4" stroke="#fb6762" stroke-width="2"><g><path d="M 20.1981 12.2519L 10 25L 39.9996 25L 49.4001 13.2494C 50.4477 11.9399 49.5153 10 47.8383 10L 24.8834 10C 23.0606 10 21.3367 10.8286 20.1981 12.2519ZM 20.1981 43.7481L 10 31L 39.9996 31L 49.4001 42.7506C 50.4477 44.0601 49.5153 46 47.8383 46L 24.8834 46C 23.0606 46 21.3367 45.1714 20.1981 43.7481Z"></path></g></g></g><g id="g-root-sy_4_cu_4ijzg0140raq2-stroke" data-item-order="-218492" transform="translate(404.97467041015625, 430.13287353515625)"><g id="sy_4_cu_4ijzg0140raq2-stroke" fill="none" stroke-linecap="round" stroke-linejoin="round" stroke-miterlimit="4" stroke="#f79438" stroke-width="2"><g><path d="M 25.9965 10.875L 12.0519 19.364L 40.2406 29.6291L 53.0944 21.8044C 54.5269 20.9324 54.3146 18.7906 52.7388 18.2168L 31.1695 10.3622C 29.4568 9.7385 27.5535 9.9272 25.9965 10.875ZM 15.2204 40.4673L 10 24.9992L 38.1887 35.2643L 43.0009 49.5222C 43.5372 51.1111 41.9974 52.6149 40.4216 52.041L 18.8523 44.1864C 17.1396 43.5627 15.8033 42.1943 15.2204 40.4673Z"></path></g></g></g><g id="g-root-sy_5_cu_3cyeo140r8cj-stroke" data-item-order="-218488" transform="translate(373.613525390625, 511.28515625)"><g id="sy_5_cu_3cyeo140r8cj-stroke" fill="none" stroke-linecap="round" stroke-linejoin="round" stroke-miterlimit="4" stroke="#ffe711" stroke-width="2"><g><path d="M 30.687331 10.096569L 14.624631 13.012769L 37.247931 32.714469L 52.054131 30.026669C 53.704131 29.727069 54.275031 27.651869 53.010331 26.550569L 35.699531 11.475269C 34.324931 10.278269 32.480731 9.770969 30.687331 10.096569ZM 10.005231 33.848569L 10.686731 17.537469L 33.310131 37.239169L 32.682231 52.274169C 32.612231 53.949769 30.635131 54.800369 29.370531 53.698969L 12.059631 38.623769C 10.685031 37.426669 9.929231 35.669669 10.005231 33.848569Z"></path></g></g></g><g id="g-root-sy_2_cu_3cyeo140r8ck-stroke" data-item-order="-218484" transform="translate(392.884033203125, 266.16796875)"><g id="sy_2_cu_3cyeo140r8ck-stroke" fill="none" stroke-linecap="round" stroke-linejoin="round" stroke-miterlimit="4" stroke="#4f91fc" stroke-width="2"><g><path d="M 14.8381 22.33287L 10 37.92477L 37.9275 26.96897L 42.3873 12.59697C 42.8843 10.99527 41.308 9.52987 39.7468 10.14237L 18.3774 18.52547C 16.6805 19.19117 15.3783 20.59207 14.8381 22.33287ZM 26.3417 51.65387L 12.1924 43.51067L 40.1199 32.55477L 53.1624 40.06067C 54.6159 40.89717 54.4564 43.04357 52.8952 43.65597L 31.5258 52.03917C 29.829 52.70477 27.9215 52.56307 26.3417 51.65387Z"></path></g></g></g><g id="g-root-sy_1_cu_1q8u04w140r8y5-stroke" data-item-order="-218480" transform="translate(353.292236328125, 188)"><g id="sy_1_cu_1q8u04w140r8y5-stroke" fill="none" stroke-linecap="round" stroke-linejoin="round" stroke-miterlimit="4" stroke="#43dd93" stroke-width="2"><g><path d="M 10.02267 31.2599L 11.43977 47.5236L 33.15067 26.8206L 31.84457 11.8292C 31.69907 10.1586 29.68557 9.3981 28.47197 10.5554L 11.85937 26.3968C 10.54017 27.6547 9.86447 29.444 10.02267 31.2599ZM 31.75827 54.0552L 15.58027 51.8671L 37.29107 31.1641L 52.20347 33.1807C 53.86537 33.4055 54.52937 35.4528 53.31567 36.6101L 36.70307 52.4515C 35.38397 53.7094 33.56457 54.2995 31.75827 54.0552Z"></path></g></g></g><g id="g-root-tx_installa_v6pycw140r9qi-stroke" data-item-order="0" transform="translate(547.481689453125, 241.5)"></g><g id="g-root-ic_2_18lb0hc140lnuz-stroke" data-item-order="0" transform="translate(487.481689453125, 229.49609375)"><g id="ic_2_18lb0hc140lnuz-stroke" fill="none" stroke-linecap="round" stroke-linejoin="round" stroke-miterlimit="4" stroke="#4f91fc" stroke-width="2"><g><path d="M 25.498444 48.696312C 26.498343 48.696312 27.298262 48.296356 27.898201 47.696411C 28.498142 47.096474 28.898102 46.096375 28.898102 45.296455L 28.898102 34.69772C 31.497841 33.497841 33.497639 30.69812 33.497639 27.498343C 33.497639 24.098684 31.497841 21.298965 28.498142 20.099085L 28.498142 20.499046L 28.498142 25.498543C 28.498142 27.098383 27.098284 28.498241 25.498444 28.498241C 23.898603 28.498241 22.498745 27.098383 22.498745 25.498543L 22.498745 20.499046L 22.498745 20.099085C 19.499046 21.298965 17.499247 24.098684 17.499247 27.498343C 17.499247 30.69812 19.299067 33.297859 22.098785 34.69772L 22.098785 45.296455C 21.898804 47.096272 23.498644 48.696312 25.498444 48.696312ZM 11.499849 15.499448C 11.499849 13.299668 13.299668 11.499849 15.499448 11.499849L 52.495731 11.499849C 54.695511 11.499849 56.495331 13.299668 56.495331 15.499448L 56.495331 52.495731C 56.495331 54.695511 54.695511 56.495331 52.495731 56.495331L 15.499448 56.495331C 13.299668 56.495331 11.499849 54.695511 11.499849 52.495731L 11.499849 15.499448ZM 19.499046 38.897099L 31.497841 38.897099M 47.496235 44.896496C 47.496235 46.896294 45.896397 48.296154 44.096573 48.296154C 42.096775 48.296154 40.696918 46.696316 40.696918 44.896496L 40.696918 33.897598L 47.496235 33.897598L 47.496235 44.896496ZM 44.096573 33.897598L 44.096573 20.099085M 37.497238 41.896797L 50.495934 41.896797"></path></g></g></g><g id="g-root-tx_stepstos_142cyls140r8xt-stroke" data-item-order="0" transform="translate(547.719970703125, 277.818359375)"></g><g id="g-root-ic_2_3d4q8140lmvb-stroke" data-item-order="0" transform="translate(487.481689453125, 349.490234375)"><g id="ic_2_3d4q8140lmvb-stroke" fill="none" stroke-linecap="round" stroke-linejoin="round" stroke-miterlimit="4" stroke="#fb6762" stroke-width="2"><g><path d="M 49.995983 26.998293C 49.989803 19.093159 44.21085 12.377645 36.394974 11.193051C 28.5791 10.008456 21.069752 14.70996 18.721413 22.258236C 16.373074 29.806515 19.889851 37.938347 26.998293 41.396847L 26.998293 49.995983C 26.998293 51.100441 27.893633 51.995781 28.998093 51.995781L 38.997086 51.995781C 40.101547 51.995781 40.996887 51.100441 40.996887 49.995983L 40.996887 41.396847C 46.506153 38.716404 50.000771 33.125019 49.995983 26.998293ZM 28.998093 51.995781L 38.997086 51.995781L 38.997086 51.995781L 38.997086 54.99548C 38.997086 56.099937 38.101749 56.995281 36.997288 56.995281L 30.99789 56.995281C 29.893431 56.995281 28.998093 56.099937 28.998093 54.99548L 28.998093 51.995781L 28.998093 51.995781ZM 26.998293 45.996384L 40.996887 45.996384"></path></g></g></g><g id="g-root-tx_usageins_hvvx2o140r85o-stroke" data-item-order="0" transform="translate(547.481689453125, 361.5)"></g><g id="g-root-tx_howtouse_qqwg8g140rair-stroke" data-item-order="0" transform="translate(547.719970703125, 397.818359375)"></g><g id="g-root-tx_coredesc_1cxdhrk140raj3-stroke" data-item-order="0" transform="translate(547.719970703125, 157.82025146484375)"></g><g id="g-root-ic_conf_v8ljxs140bsw4-stroke" data-item-order="0" transform="translate(487.481689453125, 469.484375)"><g id="ic_conf_v8ljxs140bsw4-stroke" fill="none" stroke-linecap="round" stroke-linejoin="round" stroke-miterlimit="4" stroke="#f79438" stroke-width="2"><g><path d="M 10 10M 56.40934 44.264561L 54.369545 42.224762C 54.369545 42.224762 54.19556 39.545033 53.443638 38.805107L 46.594322 32.045788C 45.665237 31.128864 44.171749 31.128864 43.242661 32.045788C 42.800297 32.482414 42.551292 33.078064 42.551292 33.699619C 42.551292 34.321175 42.800297 34.916821 43.242661 35.353451L 41.56683 33.699619C 40.637299 32.783779 39.144699 32.783779 38.215168 33.699619C 37.7728 34.13625 37.523796 34.731895 37.523796 35.353451C 37.523796 35.97501 37.7728 36.570656 38.215164 37.007286L 37.37925 36.183372C 36.450161 35.266449 34.956673 35.266449 34.027584 36.183369C 33.58522 36.619999 33.33622 37.215649 33.33622 37.837204C 33.33622 38.458759 33.58522 39.054405 34.027584 39.491035L 34.867504 40.318954C 33.938175 39.400715 32.443165 39.400715 31.513838 40.318954C 31.071474 40.755585 30.82247 41.351231 30.82247 41.97279C 30.82247 42.594345 31.071474 43.189991 31.513838 43.626621L 34.027588 46.106373C 33.140484 46.979267 32.640541 48.171494 32.639725 49.416039C 32.639725 50.655914 33.139675 51.845795 34.027588 52.723709C 36.357353 55.023476 40.674919 56.629314 44.280556 56.393337M 34.025585 46.104374L 36.539333 48.584126M 36.537334 41.968788L 34.861504 40.314957M 39.890995 38.661121L 38.215168 37.007286M 11.58584 23.730621L 13.625636 25.770416C 13.625636 25.770416 13.799619 28.450146 14.551543 29.190071L 21.400856 35.949394C 22.329943 36.866314 23.823431 36.866314 24.752518 35.949394C 25.194881 35.512764 25.443886 34.917114 25.443886 34.295559C 25.443886 33.674004 25.194881 33.078354 24.752518 32.641724L 26.42835 34.295559C 27.357882 35.211403 28.850483 35.211403 29.780014 34.295559C 30.222376 33.858929 30.47138 33.263279 30.47138 32.641724C 30.47138 32.020168 30.222376 31.424522 29.780012 30.987892L 30.615929 31.811808C 31.545017 32.728729 33.038502 32.728729 33.96759 31.811808C 34.409954 31.375177 34.658958 30.77953 34.658958 30.157974C 34.658958 29.536419 34.409954 28.940771 33.96759 28.504141L 33.127678 27.676224C 34.057003 28.594461 35.552013 28.594461 36.481339 27.676224C 36.923702 27.239594 37.172707 26.643946 37.172707 26.02239C 37.172707 25.400835 36.923702 24.805185 36.481339 24.368557L 33.96759 21.888805C 34.854694 21.015909 35.354633 19.823685 35.355453 18.579138C 35.355453 17.339264 34.855503 16.147383 33.96759 15.27147C 31.637827 12.971702 27.31826 11.365863 23.714622 11.599839M 33.971592 21.890806L 31.455845 19.411055M 31.457844 26.02639L 33.133675 27.680223M 28.104183 29.334059L 29.780012 30.987892M 38.955093 13.999599L 40.282959 12.473751C 40.488346 12.238123 40.785755 12.103048 41.098331 12.103432C 41.410908 12.103815 41.707989 12.239619 41.912796 12.475751L 44.568527 15.531445C 44.830822 15.833601 45.238682 15.965964 45.628422 15.87541L 49.572025 14.963502C 49.87709 14.892771 50.197838 14.957951 50.451096 15.14214C 50.704357 15.32633 50.865192 15.611389 50.891891 15.923406L 51.243858 19.957001C 51.277813 20.355127 51.529613 20.701645 51.897793 20.856909L 55.62542 22.43675C 55.915462 22.558538 56.137985 22.800747 56.23481 23.100052C 56.331631 23.399357 56.293129 23.726004 56.129368 23.994595L 54.043575 27.466246C 53.838913 27.807903 53.838913 28.234478 54.043575 28.576136L 56.129364 32.047783C 56.293797 32.315907 56.332664 32.642559 56.235748 32.94178C 56.138824 33.241005 55.915821 33.48283 55.625416 33.603626L 54.693512 33.999592M 29.094082 53.995583L 27.766214 55.525425C 27.560829 55.761055 27.26342 55.896133 26.950842 55.895752C 26.638266 55.895367 26.341187 55.75956 26.136379 55.523426L 23.480646 52.465736C 23.218098 52.163967 22.810471 52.031677 22.420752 52.121769L 18.477148 53.035679C 18.172085 53.106411 17.851339 53.041229 17.598078 52.85704C 17.344816 52.672848 17.183985 52.387791 17.157282 52.075775L 16.805317 48.042179C 16.770924 47.644211 16.519268 47.297897 16.151382 47.142265L 12.421757 45.560429C 12.132647 45.438156 11.911047 45.196136 11.814667 44.897396C 11.718287 44.598656 11.756664 44.272766 11.919807 44.004585L 14.005598 40.532932C 14.211062 40.190781 14.211062 39.763199 14.005598 39.421043L 11.919807 35.951393C 11.756664 35.683216 11.718287 35.357323 11.814667 35.058582C 11.911047 34.759842 12.132647 34.517822 12.421757 34.39555L 13.355663 33.997589"></path></g></g></g><g id="g-root-tx_projecto_18i6gq8140r85k-stroke" data-item-order="0" transform="translate(547.481689453125, 122)"></g><g id="g-root-tx_contribu_4kfepc140r9qm-stroke" data-item-order="0" transform="translate(547.481689453125, 481.5)"></g><g id="g-root-tx_linkstod_4lwkw140raiv-stroke" data-item-order="0" transform="translate(547.719970703125, 637.81640625)"></g><g id="g-root-tx_howtocon_dg2ey8140r8xx-stroke" data-item-order="0" transform="translate(547.719970703125, 517.81640625)"></g><g id="g-root-ic_3_1hf2f5c140r9j5-stroke" data-item-order="0" transform="translate(487.481689453125, 589.48046875)"><g id="ic_3_1hf2f5c140r9j5-stroke" fill="none" stroke-linecap="round" stroke-linejoin="round" stroke-miterlimit="4" stroke="#ffe711" stroke-width="2"><g><path d="M 34.937496 46.206364L 26.484344 54.659515C 23.370953 57.771282 18.324869 57.771282 15.211476 54.659515L 13.333665 52.781704C 10.222354 49.669682 10.222354 44.624855 13.333665 41.512836L 25.544437 29.300062C 28.657829 26.188292 33.703915 26.188292 36.817307 29.300062L 38.695118 31.179873M 33.057682 21.784817L 41.510834 13.333665C 44.62331 10.219687 49.671227 10.219687 52.783703 13.333665L 54.661514 15.209476C 57.772827 18.321497 57.772827 23.366325 54.661514 26.478344L 42.450741 38.69112C 39.338264 41.805099 34.290348 41.805099 31.177874 38.69112L 29.300062 36.811306"></path></g></g></g><g id="g-root-tx_addition_1luvx9s140r8qw-stroke" data-item-order="0" transform="translate(547.481689453125, 601.5)"></g><g id="g-root-tx_structur_1lt0i0g140r9qe-stroke" data-item-order="0" transform="translate(247.481689453125, 38)"></g><g id="g-root-ic_sear_1q8u6gg140ohe3-stroke" data-item-order="0" transform="translate(487.481689453125, 109.5)"><g id="ic_sear_1q8u6gg140ohe3-stroke" fill="none" stroke-linecap="round" stroke-linejoin="round" stroke-miterlimit="4" stroke="#43dd93" stroke-width="2"><g><path d="M 10.9999 30.99789C 10.9999 42.042477 19.953306 50.995884 30.99789 50.995884C 42.042477 50.995884 50.995884 42.042477 50.995884 30.99789C 50.995884 19.953306 42.042477 10.9999 30.99789 10.9999C 19.953306 10.9999 10.9999 19.953306 10.9999 30.99789ZM 56.995281 56.995281L 45.13847 45.13847M 24.998493 30.99789L 22.998693 33.499641C 21.828812 34.960823 21.828812 37.037952 22.998693 38.499138L 24.998493 41.000885M 36.997288 30.99789L 38.997086 33.499641C 40.166973 34.960823 40.166973 37.037952 38.997086 38.499138L 36.997288 41.000885M 30.99789 33.997589L 30.99789 42.996685M 28.998093 26.998293C 28.998093 28.102753 29.893431 28.998093 30.99789 28.998093C 32.102352 28.998093 32.997688 28.102753 32.997688 26.998293C 32.997688 25.893835 32.102352 24.998493 30.99789 24.998493C 29.893431 24.998493 28.998093 25.893835 28.998093 26.998293ZM 31.445847 20.222973C 31.163916 20.081699 30.831865 20.081699 30.549936 20.222973L 25.550438 22.722723C 25.212132 22.892248 24.998507 23.238228 24.998493 23.616632L 24.998493 30.99789L 30.99789 33.997589L 36.997288 30.99789L 36.997288 23.616632C 36.997276 23.238228 36.783649 22.892248 36.445343 22.722723Z"></path></g></g></g></g></g></svg>