<?xml version="1.0" encoding="utf-8" standalone="yes"?>
<!DOCTYPE svg PUBLIC "-//W3C//DTD SVG 1.1//EN" "http://www.w3.org/Graphics/SVG/1.1/DTD/svg11.dtd">
<svg width="672" height="660" viewBox="0 0 672 660" style="fill:none;stroke:none;fill-rule:evenodd;clip-rule:evenodd;stroke-linecap:round;stroke-linejoin:round;stroke-miterlimit:1.5;" version="1.1" xmlns="http://www.w3.org/2000/svg" xmlns:xlink="http://www.w3.org/1999/xlink"><style class="text-font-style fontImports" data-font-family="Roboto">@import url(https://fonts.googleapis.com/css2?family=Roboto:wght@400;700&amp;amp;display=block);</style><g id="items" style="isolation: isolate"><g id="blend" style="mix-blend-mode: normal"><g id="g-root-cp_2_sign-2_1lyo04w17whbt6-fill" data-item-order="-277043" transform="translate(326, 242)"></g><g id="g-root-cp_1_sign-1_1hiui0g17whclf-fill" data-item-order="-277019" transform="translate(104, 122)"></g><g id="g-root-cp_3_sign-3_18n7hrk17whde4-fill" data-item-order="-276995" transform="translate(104, 362)"></g><g id="g-root-tx_gitstash_147dzn417whe6d-fill" data-item-order="0" transform="translate(212, 38)"><g id="tx_gitstash_147dzn417whe6d-fill" stroke="none" fill="#f4f4f4"><g><text style="font: bold 25px Roboto, sans-serif; white-space: pre;" font-weight="bold" font-size="25px" font-family="Roboto, sans-serif"><tspan x="13.67" y="43" dominant-baseline="ideographic">Git Stash Scenarios</tspan></text></g></g></g><g id="g-root-ic_bust_18lc2i817wk7im-fill" data-item-order="0" transform="translate(134, 152)"></g><g id="g-root-tx_yourewor_qwjycw17whcli-fill" data-item-order="0" transform="translate(338, 140)"><g id="tx_yourewor_qwjycw17whcli-fill" stroke="none" fill="#f4f4f4"><g><text style="font: 15px Roboto, sans-serif; white-space: pre;" font-size="15px" font-family="Roboto, sans-serif"><tspan x="12" y="31" dominant-baseline="ideographic">You're working on a new </tspan><tspan x="12" y="49" dominant-baseline="ideographic">feature, but you notice a typo </tspan><tspan x="12" y="67" dominant-baseline="ideographic">that needs fixing right away.</tspan></text></g></g></g><g id="g-root-tx_quickbug_zkp9kg17woemd-fill" data-item-order="0" transform="translate(182, 158)"><g id="tx_quickbug_zkp9kg17woemd-fill" stroke="none" fill="#f4f4f4"><g><text style="font: bold 20px Roboto, sans-serif; white-space: pre;" font-weight="bold" font-size="20px" font-family="Roboto, sans-serif"><tspan x="16.83" y="34" dominant-baseline="ideographic">Quick Bug Fix</tspan></text></g></g></g><g id="g-root-tx_yourewor_qpoqeo17woc9a-fill" data-item-order="0" transform="translate(98, 242)"><g id="tx_yourewor_qpoqeo17woc9a-fill" stroke="none" fill="#f4f4f4"><g><text style="font: 15px Roboto, sans-serif; white-space: pre;" font-size="15px" font-family="Roboto, sans-serif"><tspan x="20.47" y="31" dominant-baseline="ideographic">You're working on your project, </tspan><tspan x="44.88" y="49" dominant-baseline="ideographic">but your teammate pushed </tspan><tspan x="12.05" y="67" dominant-baseline="ideographic">some changes. You need to pull </tspan><tspan x="36.95" y="85" dominant-baseline="ideographic">their changes, but you're not </tspan><tspan x="47.45" y="103" dominant-baseline="ideographic">ready to commit yours yet.</tspan></text></g></g></g><g id="g-root-tx_needtopu_v7dnsg17wk4r1-fill" data-item-order="0" transform="translate(338, 278)"><g id="tx_needtopu_v7dnsg17wk4r1-fill" stroke="none" fill="#f4f4f4"><g><text style="font: bold 20px Roboto, sans-serif; white-space: pre;" font-weight="bold" font-size="20px" font-family="Roboto, sans-serif"><tspan x="12" y="34" dominant-baseline="ideographic">Need to Pull Updates</tspan></text></g></g></g><g id="g-root-ic_warn_i0wy4017whde7-fill" data-item-order="0" transform="translate(554, 272)"></g><g id="g-root-ic_down_1hd888g17woefb-fill" data-item-order="0" transform="translate(134, 392)"></g><g id="g-root-tx_wrongbra_1lpw1io1862vpf-fill" data-item-order="0" transform="translate(182, 398)"><g id="tx_wrongbra_1lpw1io1862vpf-fill" stroke="none" fill="#f4f4f4"><g><text style="font: bold 20px Roboto, sans-serif; white-space: pre;" font-weight="bold" font-size="20px" font-family="Roboto, sans-serif"><tspan x="13.48" y="34" dominant-baseline="ideographic">Wrong Branch</tspan></text></g></g></g><g id="g-root-tx_youreali_1uqk5v417wk64i-fill" data-item-order="0" transform="translate(338, 392)"><g id="tx_youreali_1uqk5v417wk64i-fill" stroke="none" fill="#f4f4f4"><g><text style="font: 15px Roboto, sans-serif; white-space: pre;" font-size="15px" font-family="Roboto, sans-serif"><tspan x="12" y="28" dominant-baseline="ideographic">You realize you're working on </tspan><tspan x="12" y="46" dominant-baseline="ideographic">the wrong branch!</tspan></text></g></g></g><g id="g-root-cp_2_sign-2_1lyo04w17whbt6-stroke" data-item-order="-277043" transform="translate(326, 242)"><g id="cp_2_sign-2_1lyo04w17whbt6-stroke" fill="none" stroke-linecap="round" stroke-linejoin="round" stroke-miterlimit="4" stroke="#f79438" stroke-width="2"><g><path d="M 256 106L 10 106M 10 10L 256 10M 256 10C 282.5097 10 304 31.4903 304 58C 304 84.5097 282.5097 106 256 106M 10 106L 10 10"></path></g></g></g><g id="g-root-cp_1_sign-1_1hiui0g17whclf-stroke" data-item-order="-277019" transform="translate(104, 122)"><g id="cp_1_sign-1_1hiui0g17whclf-stroke" fill="none" stroke-linecap="round" stroke-linejoin="round" stroke-miterlimit="4" stroke="#ffe711" stroke-width="2"><g><path d="M 58 10L 232 10M 232 106L 58 106M 58 106C 31.4903 106 10 84.5097 10 58C 10 31.4903 31.4903 10 58 10M 232 10L 232 106"></path></g></g></g><g id="g-root-cp_3_sign-3_18n7hrk17whde4-stroke" data-item-order="-276995" transform="translate(104, 362)"><g id="cp_3_sign-3_18n7hrk17whde4-stroke" fill="none" stroke-linecap="round" stroke-linejoin="round" stroke-miterlimit="4" stroke="#fb6762" stroke-width="2"><g><path d="M 58 10L 232 10M 232 106L 58 106M 58 106C 31.4903 106 10 84.5097 10 58C 10 31.4903 31.4903 10 58 10M 232 10L 232 106"></path></g></g></g><g id="g-root-tx_gitstash_147dzn417whe6d-stroke" data-item-order="0" transform="translate(212, 38)"></g><g id="g-root-ic_bust_18lc2i817wk7im-stroke" data-item-order="0" transform="translate(134, 152)"><g id="ic_bust_18lc2i817wk7im-stroke" fill="none" stroke-linecap="round" stroke-linejoin="round" stroke-miterlimit="4" stroke="#ffe711" stroke-width="2"><g><path d="M 39.644501 39.805L 45.133003 45.293499M 27.472 34.814499C 27.472 38.740414 30.654583 41.923 34.580498 41.923C 38.506416 41.923 41.688999 38.740414 41.688999 34.814499C 41.688999 30.888584 38.506416 27.705999 34.580498 27.705999C 30.654583 27.705999 27.472 30.888584 27.472 34.814499M 11.188 43.1455L 11.9905 43.1455M 15.34 43.1455L 16.1425 43.1455M 20.959 43.1455L 21.763 43.1455M 33.002499 37.525002L 33.805 36.7225M 34.607502 32.7085L 34.607502 31.504002M 26.625999 24.8785L 27.428501 25.681M 25.777 43.1455L 26.5795 43.1455M 18.495771 19.545351L 19.730381 18.310741C 20.466223 17.579575 21.65489 17.581472 22.388397 18.314985L 23.58482 19.51141C 24.659258 20.585842 24.661156 22.327259 23.589062 23.404032L 23.589062 23.404032C 22.512974 24.480122 20.768288 24.480122 19.692198 23.404032L 18.495771 22.207607C 17.760611 21.472445 17.760611 20.280512 18.495771 19.545351ZM 14.895668 15.601102L 15.785562 14.711207C 15.785562 14.711207 17.289577 13.207192 18.793596 14.711207L 19.558331 15.475944C 19.558331 15.475944 21.062347 16.979959 19.558331 18.483976L 18.668436 19.373871C 18.668436 19.373871 17.164419 20.877886 15.660404 19.373871L 14.895668 18.609135C 14.895668 18.609135 13.391651 17.105118 14.895668 15.601102M 10.873 14.461C 10.723 15.601 13.03 17.7985 14.422 16.1665M 14.6215 10.7125C 15.76 10.5625 17.9575 12.871 16.3255 14.2615M 19.494999 15.412L 20.870501 12.5695M 22.393 18.309999L 24.148001 15.5395M 15.5965 19.309L 12.7555 20.686001M 18.496 22.2085L 15.724 23.963501"></path></g></g></g><g id="g-root-tx_yourewor_qwjycw17whcli-stroke" data-item-order="0" transform="translate(338, 140)"></g><g id="g-root-tx_quickbug_zkp9kg17woemd-stroke" data-item-order="0" transform="translate(182, 158)"></g><g id="g-root-tx_yourewor_qpoqeo17woc9a-stroke" data-item-order="0" transform="translate(98, 242)"></g><g id="g-root-tx_needtopu_v7dnsg17wk4r1-stroke" data-item-order="0" transform="translate(338, 278)"></g><g id="g-root-ic_warn_i0wy4017whde7-stroke" data-item-order="0" transform="translate(554, 272)"><g id="ic_warn_i0wy4017whde7-stroke" fill="none" stroke-linecap="round" stroke-linejoin="round" stroke-miterlimit="4" stroke="#f79438" stroke-width="2"><g><path d="M 40 36.25C 40 38.735283 37.985283 40.75 35.5 40.75L 20.5 40.75C 18.014719 40.75 16 38.735283 16 36.25L 16 24.25M 16 19.75C 16 17.264719 18.014719 15.25 20.5 15.25L 35.5 15.25C 37.985283 15.25 40 17.264719 40 19.75L 40 31.75M 11.5 29.125L 16 24.25L 20.5 29.125M 35.5 26.875L 40 31.75L 44.5 26.875M 28 19.75L 28 30.219999M 28 33.595001C 28.207108 33.595001 28.375 33.762894 28.375 33.970001C 28.375 34.177105 28.207108 34.345001 28 34.345001C 27.792892 34.345001 27.625 34.177105 27.625 33.970001C 27.625 33.762894 27.792892 33.595001 28 33.595001"></path></g></g></g><g id="g-root-ic_down_1hd888g17woefb-stroke" data-item-order="0" transform="translate(134, 392)"><g id="ic_down_1hd888g17woefb-stroke" fill="none" stroke-linecap="round" stroke-linejoin="round" stroke-miterlimit="4" stroke="#fb6762" stroke-width="2"><g><path d="M 10 10M 22.75 40.75L 27.25 45.25L 31.75 40.75M 10.75 10.75L 10.75 21.25C 10.75 22.078428 11.421573 22.75 12.25 22.75L 43.75 22.75C 44.578426 22.75 45.25 22.078428 45.25 21.25L 45.25 10.75M 27.25 22.75L 27.25 44.5"></path></g></g></g><g id="g-root-tx_wrongbra_1lpw1io1862vpf-stroke" data-item-order="0" transform="translate(182, 398)"></g><g id="g-root-tx_youreali_1uqk5v417wk64i-stroke" data-item-order="0" transform="translate(338, 392)"></g></g></g></svg>