<?xml version="1.0" encoding="utf-8" standalone="yes"?>
<!DOCTYPE svg PUBLIC "-//W3C//DTD SVG 1.1//EN" "http://www.w3.org/Graphics/SVG/1.1/DTD/svg11.dtd">
<svg width="708" height="660" viewBox="0 0 708 660" style="fill:none;stroke:none;fill-rule:evenodd;clip-rule:evenodd;stroke-linecap:round;stroke-linejoin:round;stroke-miterlimit:1.5;" version="1.1" xmlns="http://www.w3.org/2000/svg" xmlns:xlink="http://www.w3.org/1999/xlink"><style class="text-font-style fontImports" data-font-family="Roboto">@import url(https://fonts.googleapis.com/css2?family=Roboto:wght@400;700&amp;amp;display=block);</style><g id="items" style="isolation: isolate"><g id="blend" style="mix-blend-mode: normal"><g id="g-root-cp_4_g-4_hs61fk14a9zib-fill" data-item-order="-372229" transform="translate(508, 309)"></g><g id="g-root-cp_3_g-3_8wj16o14aa0b0-fill" data-item-order="-372225" transform="translate(367, 302)"></g><g id="g-root-cp_2_g-2_4gpj2814aa139-fill" data-item-order="-372221" transform="translate(223, 314)"></g><g id="g-root-cp_1_g-1_1umt1vk14a9yj2-fill" data-item-order="-372217" transform="translate(70, 306)"></g><g id="g-root-sy_0_Vector_1umt1vk14a9yj3-fill" data-item-order="-372209" transform="translate(560, 409)"></g><g id="g-root-sy_0_Vector_2_1q6zjr414a9zbc-fill" data-item-order="-372205" transform="translate(415, 230)"></g><g id="g-root-sy_0_Vector_2_1_1q6zjr414a9zbd-fill" data-item-order="-372201" transform="translate(266, 410)"></g><g id="g-root-sy_0_Vector_2_2_1lr61mo14aa03m-fill" data-item-order="-372197" transform="translate(122, 230)"></g><g id="g-root-tx_gitstash_1lr61mo14aa03n-fill" data-item-order="0" transform="translate(212, 38)"><g id="tx_gitstash_1lr61mo14aa03n-fill" stroke="none" fill="#f4f4f4"><g><text style="font: bold 25px Roboto, sans-serif; white-space: pre;" font-weight="bold" font-size="25px" font-family="Roboto, sans-serif"><tspan x="17.27" y="43" dominant-baseline="ideographic">Git Stashing Workflow</tspan></text></g></g></g><g id="g-root-tx_uncommit_1cxegn414a9zws-fill" data-item-order="0" transform="translate(56, 98)"><g id="tx_uncommit_1cxegn414a9zws-fill" stroke="none" fill="#ffe711"><g><text style="font: 20px Roboto, sans-serif; white-space: pre;" font-size="20px" font-family="Roboto, sans-serif"><tspan x="13.11" y="34" dominant-baseline="ideographic">Uncommitted </tspan><tspan x="34.45" y="58" dominant-baseline="ideographic">Changes</tspan></text></g></g></g><g id="g-root-tx_workonot_zmkfcw14a9yby-fill" data-item-order="0" transform="translate(344, 98)"><g id="tx_workonot_zmkfcw14a9yby-fill" stroke="none" fill="#fb6762"><g><text style="font: 20px Roboto, sans-serif; white-space: pre;" font-size="20px" font-family="Roboto, sans-serif"><tspan x="16.29" y="34" dominant-baseline="ideographic">Work on Other </tspan><tspan x="53.46" y="58" dominant-baseline="ideographic">Tasks</tspan></text></g></g></g><g id="g-root-tx_changesm_18hkyio14aa0p1-fill" data-item-order="0" transform="translate(38, 158)"><g id="tx_changesm_18hkyio14aa0p1-fill" stroke="none" fill="#f4f4f4"><g><text style="font: 15px Roboto, sans-serif; white-space: pre;" font-size="15px" font-family="Roboto, sans-serif"><tspan x="16.72" y="28" dominant-baseline="ideographic">Changes made but not </tspan><tspan x="55.84" y="46" dominant-baseline="ideographic">committed</tspan></text></g></g></g><g id="g-root-tx_performu_v6qx8g14a9z47-fill" data-item-order="0" transform="translate(332, 158)"><g id="tx_performu_v6qx8g14a9z47-fill" stroke="none" fill="#f4f4f4"><g><text style="font: 15px Roboto, sans-serif; white-space: pre;" font-size="15px" font-family="Roboto, sans-serif"><tspan x="13.43" y="28" dominant-baseline="ideographic">Perform urgent tasks or </tspan><tspan x="51.76" y="46" dominant-baseline="ideographic">pull updates</tspan></text></g></g></g><g id="g-root-tx_1_hu1gow14a9yiv-fill" data-item-order="0" transform="translate(110, 338)"><g id="tx_1_hu1gow14a9yiv-fill" stroke="none" fill="#f4f4f4"><g><text style="font: 30px Roboto, sans-serif; white-space: pre;" font-size="30px" font-family="Roboto, sans-serif"><tspan x="13.56" y="46" dominant-baseline="ideographic">1</tspan></text></g></g></g><g id="g-root-tx_2_m98hq814aa0we-fill" data-item-order="0" transform="translate(254, 338)"><g id="tx_2_m98hq814aa0we-fill" stroke="none" fill="#f4f4f4"><g><text style="font: 30px Roboto, sans-serif; white-space: pre;" font-size="30px" font-family="Roboto, sans-serif"><tspan x="13.56" y="46" dominant-baseline="ideographic">2</tspan></text></g></g></g><g id="g-root-tx_3_v4vhz414aa03p-fill" data-item-order="0" transform="translate(404, 338)"><g id="tx_3_v4vhz414aa03p-fill" stroke="none" fill="#f4f4f4"><g><text style="font: 30px Roboto, sans-serif; white-space: pre;" font-size="30px" font-family="Roboto, sans-serif"><tspan x="13.56" y="46" dominant-baseline="ideographic">3</tspan></text></g></g></g><g id="g-root-tx_4_18gc0cg14a9yis-fill" data-item-order="0" transform="translate(548, 338)"><g id="tx_4_18gc0cg14a9yis-fill" stroke="none" fill="#f4f4f4"><g><text style="font: 30px Roboto, sans-serif; white-space: pre;" font-size="30px" font-family="Roboto, sans-serif"><tspan x="13.56" y="46" dominant-baseline="ideographic">4</tspan></text></g></g></g><g id="g-root-tx_stashcha_de7ykg14a9zb4-fill" data-item-order="0" transform="translate(194, 506)"><g id="tx_stashcha_de7ykg14a9zb4-fill" stroke="none" fill="#f79438"><g><text style="font: 20px Roboto, sans-serif; white-space: pre;" font-size="20px" font-family="Roboto, sans-serif"><tspan x="15.14" y="34" dominant-baseline="ideographic">Stash Changes</tspan></text></g></g></g><g id="g-root-tx_restorec_2rg7414aa0w2-fill" data-item-order="0" transform="translate(482, 506)"><g id="tx_restorec_2rg7414aa0w2-fill" stroke="none" fill="#f366bb"><g><text style="font: 20px Roboto, sans-serif; white-space: pre;" font-size="20px" font-family="Roboto, sans-serif"><tspan x="12.36" y="34" dominant-baseline="ideographic">Restore Changes</tspan></text></g></g></g><g id="g-root-tx_temporar_4ikybk14aa03t-fill" data-item-order="0" transform="translate(188, 542)"><g id="tx_temporar_4ikybk14aa03t-fill" stroke="none" fill="#f4f4f4"><g><text style="font: 15px Roboto, sans-serif; white-space: pre;" font-size="15px" font-family="Roboto, sans-serif"><tspan x="31.32" y="28" dominant-baseline="ideographic">Temporarily save </tspan><tspan x="13.23" y="46" dominant-baseline="ideographic">uncommitted changes</tspan></text></g></g></g><g id="g-root-tx_retrieve_1q8uz0g14a9ybv-fill" data-item-order="0" transform="translate(488, 542)"><g id="tx_retrieve_1q8uz0g14a9ybv-fill" stroke="none" fill="#f4f4f4"><g><text style="font: 15px Roboto, sans-serif; white-space: pre;" font-size="15px" font-family="Roboto, sans-serif"><tspan x="24.74" y="31" dominant-baseline="ideographic">Retrieve stashed </tspan><tspan x="12.54" y="49" dominant-baseline="ideographic">changes to continue </tspan><tspan x="63.87" y="67" dominant-baseline="ideographic">work</tspan></text></g></g></g><g id="g-root-cp_4_g-4_hs61fk14a9zib-stroke" data-item-order="-372229" transform="translate(508, 309)"><g id="cp_4_g-4_hs61fk14a9zib-stroke" fill="none" stroke-linecap="round" stroke-linejoin="round" stroke-miterlimit="4" stroke="#f366bb" stroke-width="2"><g><path d="M 10.4693 56.7321C 9.8436 55.6603 9.8436 54.3397 10.4693 53.268L 34.7179 11.7321C 35.3436 10.6603 36.5 10 37.7514 10L 86.2486 10C 87.5 10 88.6564 10.6603 89.2821 11.7321L 113.5307 53.2679C 114.1564 54.3397 114.1564 55.6603 113.5307 56.732L 89.2821 98.2679C 88.6564 99.3397 87.5 100 86.2486 100L 37.7514 100C 36.5 100 35.3436 99.3397 34.7179 98.2679L 10.4693 56.7321Z"></path></g></g></g><g id="g-root-cp_3_g-3_8wj16o14aa0b0-stroke" data-item-order="-372225" transform="translate(367, 302)"><g id="cp_3_g-3_8wj16o14aa0b0-stroke" fill="none" stroke-linecap="round" stroke-linejoin="round" stroke-miterlimit="4" stroke="#fb6762" stroke-width="2"><g><path d="M 56.9559 10.6958C 58.1748 9.7681 59.8252 9.7681 61.0441 10.6958L 106.5663 45.3453C 107.7851 46.273 108.2951 47.9174 107.8296 49.4185L 90.4416 105.4826C 89.9761 106.9837 88.6408 108 87.1343 108L 30.8657 108C 29.3592 108 28.0239 106.9837 27.5584 105.4826L 10.1704 49.4185C 9.7049 47.9175 10.2149 46.273 11.4337 45.3453L 56.9559 10.6958Z"></path></g></g></g><g id="g-root-cp_2_g-2_4gpj2814aa139-stroke" data-item-order="-372221" transform="translate(223, 314)"><g id="cp_2_g-2_4gpj2814aa139-stroke" fill="none" stroke-linecap="round" stroke-linejoin="round" stroke-miterlimit="4" stroke="#f79438" stroke-width="2"><g><path d="M 10 14.0952C 10 11.8335 11.8335 10 14.0952 10L 91.9048 10C 94.1665 10 96 11.8335 96 14.0952L 96 91.9048C 96 94.1665 94.1665 96 91.9048 96L 14.0952 96C 11.8335 96 10 94.1665 10 91.9048L 10 14.0952Z"></path></g></g></g><g id="g-root-cp_1_g-1_1umt1vk14a9yj2-stroke" data-item-order="-372217" transform="translate(70, 306)"><g id="cp_1_g-1_1umt1vk14a9yj2-stroke" fill="none" stroke-linecap="round" stroke-linejoin="round" stroke-miterlimit="4" stroke="#ffe711" stroke-width="2"><g><path d="M 58.0476 12.3C 59.8042 9.2333 64.1958 9.2333 65.9524 12.3L 113.3817 95.1C 115.1384 98.1667 112.9426 102 109.4293 102L 14.5707 102C 11.0574 102 8.8616 98.1667 10.6183 95.1L 58.0476 12.3Z"></path></g></g></g><g id="g-root-sy_0_Vector_1umt1vk14a9yj3-stroke" data-item-order="-372209" transform="translate(560, 409)"><g id="sy_0_Vector_1umt1vk14a9yj3-stroke" fill="none" stroke-linecap="round" stroke-linejoin="round" stroke-miterlimit="4" stroke="#f4f4f4" stroke-width="2"><g><path d="M 10 70L 10 12"></path><path d="M 16.5 18L 10 11.5L 3.5 18" stroke-dasharray="none"></path></g></g></g><g id="g-root-sy_0_Vector_2_1q6zjr414a9zbc-stroke" data-item-order="-372205" transform="translate(415, 230)"><g id="sy_0_Vector_2_1q6zjr414a9zbc-stroke" fill="none" stroke-linecap="round" stroke-linejoin="round" stroke-miterlimit="4" stroke="#f4f4f4" stroke-width="2"><g><path d="M 10 10L 10 68"></path><path d="M 3.5 62L 10 68.5L 16.5 62" stroke-dasharray="none"></path></g></g></g><g id="g-root-sy_0_Vector_2_1_1q6zjr414a9zbd-stroke" data-item-order="-372201" transform="translate(266, 410)"><g id="sy_0_Vector_2_1_1q6zjr414a9zbd-stroke" fill="none" stroke-linecap="round" stroke-linejoin="round" stroke-miterlimit="4" stroke="#f4f4f4" stroke-width="2"><g><path d="M 10 70L 10 12"></path><path d="M 16.5 18L 10 11.5L 3.5 18" stroke-dasharray="none"></path></g></g></g><g id="g-root-sy_0_Vector_2_2_1lr61mo14aa03m-stroke" data-item-order="-372197" transform="translate(122, 230)"><g id="sy_0_Vector_2_2_1lr61mo14aa03m-stroke" fill="none" stroke-linecap="round" stroke-linejoin="round" stroke-miterlimit="4" stroke="#f4f4f4" stroke-width="2"><g><path d="M 10 10L 10 68"></path><path d="M 3.5 62L 10 68.5L 16.5 62" stroke-dasharray="none"></path></g></g></g><g id="g-root-tx_gitstash_1lr61mo14aa03n-stroke" data-item-order="0" transform="translate(212, 38)"></g><g id="g-root-tx_uncommit_1cxegn414a9zws-stroke" data-item-order="0" transform="translate(56, 98)"></g><g id="g-root-tx_workonot_zmkfcw14a9yby-stroke" data-item-order="0" transform="translate(344, 98)"></g><g id="g-root-tx_changesm_18hkyio14aa0p1-stroke" data-item-order="0" transform="translate(38, 158)"></g><g id="g-root-tx_performu_v6qx8g14a9z47-stroke" data-item-order="0" transform="translate(332, 158)"></g><g id="g-root-tx_1_hu1gow14a9yiv-stroke" data-item-order="0" transform="translate(110, 338)"></g><g id="g-root-tx_2_m98hq814aa0we-stroke" data-item-order="0" transform="translate(254, 338)"></g><g id="g-root-tx_3_v4vhz414aa03p-stroke" data-item-order="0" transform="translate(404, 338)"></g><g id="g-root-tx_4_18gc0cg14a9yis-stroke" data-item-order="0" transform="translate(548, 338)"></g><g id="g-root-tx_stashcha_de7ykg14a9zb4-stroke" data-item-order="0" transform="translate(194, 506)"></g><g id="g-root-tx_restorec_2rg7414aa0w2-stroke" data-item-order="0" transform="translate(482, 506)"></g><g id="g-root-tx_temporar_4ikybk14aa03t-stroke" data-item-order="0" transform="translate(188, 542)"></g><g id="g-root-tx_retrieve_1q8uz0g14a9ybv-stroke" data-item-order="0" transform="translate(488, 542)"></g></g></g></svg>