<?xml version="1.0" encoding="utf-8" standalone="yes"?>
<!DOCTYPE svg PUBLIC "-//W3C//DTD SVG 1.1//EN" "http://www.w3.org/Graphics/SVG/1.1/DTD/svg11.dtd">
<svg style="fill:none;stroke:none;fill-rule:evenodd;clip-rule:evenodd;stroke-linecap:round;stroke-linejoin:round;stroke-miterlimit:1.5;" version="1.1" xmlns="http://www.w3.org/2000/svg" xmlns:xlink="http://www.w3.org/1999/xlink" width="570" height="470" viewBox="0 0 570 470"><style class="text-font-style fontImports" data-font-family="Roboto">@import url(https://fonts.googleapis.com/css2?family=Roboto:wght@400;700&amp;amp;display=block);</style><g id="items" style="isolation: isolate"><g id="blend" style="mix-blend-mode: normal"><g id="g-root-cp_1_g-1_1cyndj3vfgiki-fill" data-item-order="-190730" transform="translate(44, 182)"><g id="cp_1_g-1_1cyndj3vfgiki-fill-merged" stroke="none" fill="#43dd93" fill-opacity="1"><g><path d="M109 10L73 22 V70 H10 V10 H109"></path></g></g></g><g id="g-root-cp_2_g-2_zntc8vvfggzn-fill" data-item-order="-190726" transform="translate(107, 182)"><g id="cp_2_g-2_zntc8vvfggzn-fill-merged" stroke="none" fill="#a6da37" fill-opacity="1"><g><path d="M46 10 V22 H10L46 10"></path></g></g><g id="cp_2_g-2_zntc8vvfggzn-fill-merged" stroke="none" fill="#a6da37" fill-opacity="1"><g><path d="M109 22L73 34 V82 H10 V22 H109"></path></g></g></g><g id="g-root-cp_3_g-3_qs6bzzvfghsc-fill" data-item-order="-190722" transform="translate(170, 194)"><g id="cp_3_g-3_qs6bzzvfghsc-fill-merged" stroke="none" fill="#4f91fc" fill-opacity="1"><g><path d="M46 10 V22 H10L46 10"></path></g></g><g id="cp_3_g-3_qs6bzzvfghsc-fill-merged" stroke="none" fill="#4f91fc" fill-opacity="1"><g><path d="M109 22L73 34 V82 H10 V22 H109"></path></g></g></g><g id="g-root-cp_4_g-4_mcctvjvfgikl-fill" data-item-order="-190718" transform="translate(233, 206)"><g id="cp_4_g-4_mcctvjvfgikl-fill-merged" stroke="none" fill="#1ac3fb" fill-opacity="1"><g><path d="M46 10 V22 H10L46 10"></path></g></g><g id="cp_4_g-4_mcctvjvfgikl-fill-merged" stroke="none" fill="#1ac3fb" fill-opacity="1"><g><path d="M109 22L73 34 V82 H10 V22 H109"></path></g></g></g><g id="g-root-cp_5_g-5_dhcaprvfgg7i-fill" data-item-order="-190714" transform="translate(296, 218)"><g id="cp_5_g-5_dhcaprvfgg7i-fill-merged" stroke="none" fill="#ffe711" fill-opacity="1"><g><path d="M46 10 V22 H10L46 10"></path></g></g><g id="cp_5_g-5_dhcaprvfgg7i-fill-merged" stroke="none" fill="#ffe711" fill-opacity="1"><g><path d="M109 22L73 34 V82 H10 V22 H109"></path></g></g></g><g id="g-root-cp_6_g-6_91islbvfggzr-fill" data-item-order="-190710" transform="translate(359, 230)"><g id="cp_6_g-6_91islbvfggzr-fill-merged" stroke="none" fill="#fb6762" fill-opacity="1"><g><path d="M46 10 V22 H10L46 10"></path></g></g><g id="cp_6_g-6_91islbvfggzr-fill-merged" stroke="none" fill="#fb6762" fill-opacity="1"><g><path d="M109 22L73 34 V82 H10 V22 H109"></path></g></g></g><g id="g-root-cp_7_g-7_1ur6c73vfgidk-fill" data-item-order="-190706" transform="translate(422, 242)"><g id="cp_7_g-7_1ur6c73vfgidk-fill-merged" stroke="none" fill="#f79438" fill-opacity="1"><g><path d="M46 10 V22 H10L46 10"></path></g></g><g id="cp_7_g-7_1ur6c73vfgidk-fill-merged" stroke="none" fill="#f79438" fill-opacity="1"><g><path d="M73.29 90.25 V82 H10 V22 H73.29 V13.74L109 52L73.29 90.25"></path></g></g></g><g id="g-root-ic_robo_905rzvfknwr-fill" data-item-order="-1296" transform="translate(182.114990234375, 218)"><g id="ic_robo_905rzvfknwr-fill-merged" stroke="none" fill="#2c2c2c" fill-opacity="1"><g><path d="M17.674 38.322C11.971 32.618 11.971 23.372 17.674 17.67C22.615 12.73 30.209 12.07 35.861 15.685L34.231 17.316C33.91 17.637 33.814 18.121 33.988 18.541C34.162 18.961 34.571 19.235 35.026 19.236 H40.786C41.407 19.236 41.911 18.732 41.911 18.111 V12.351C41.911 11.896 41.637 11.486 41.216 11.312C40.796 11.138 40.313 11.234 39.991 11.556L38.025 13.521C31.162 8.759 21.668 9.434 15.553 15.55C8.679 22.424 8.679 33.571 15.553 40.446C22.427 47.319 33.573 47.319 40.447 40.446C44.529 36.37 46.352 30.552 45.326 24.875C45.18 24.06 44.4 23.518 43.584 23.664C42.769 23.811 42.226 24.591 42.373 25.406C43.225 30.115 41.712 34.942 38.326 38.323C32.623 44.026 23.377 44.026 17.674 38.323 M29.502 23.35 V19.792C29.502 18.964 28.83 18.292 28.002 18.292C27.173 18.292 26.502 18.964 26.502 19.792 V23.35 H22.741C21.084 23.35 19.741 24.693 19.741 26.35 V33.199C19.741 34.856 21.084 36.199 22.741 36.199 H33.259C34.916 36.199 36.259 34.856 36.259 33.199 V26.35C36.259 24.693 34.916 23.35 33.259 23.35 H29.5 M23.797 30.865C23.797 31.486 24.301 31.99 24.922 31.99C25.543 31.99 26.047 31.486 26.047 30.865 V28.677C26.047 28.055 25.543 27.552 24.922 27.552C24.301 27.552 23.797 28.055 23.797 28.677 V30.867 M31.08 31.99C30.458 31.99 29.955 31.486 29.955 30.865 V28.677C29.955 28.055 30.458 27.552 31.08 27.552C31.701 27.552 32.205 28.055 32.205 28.677 V30.867C32.205 31.488 31.701 31.992 31.08 31.992"></path></g></g></g><g id="g-root-ic_axe_mg3oe7vfoy6k-fill" data-item-order="-1296" transform="translate(371.114990234375, 254)"><g id="ic_axe_mg3oe7vfoy6k-fill-merged" stroke="none" fill="#2c2c2c" fill-opacity="1"><g><path d="M36.295 20.8C35.196 25.71 30.827 29.193 25.795 29.17C25.187 29.172 24.58 29.122 23.98 29.02C23.669 28.965 23.396 28.779 23.23 28.51C23.053 28.245 23.003 27.915 23.095 27.61C23.095 27.61 23.095 27.61 23.095 27.505 V27.58C22.377 29.121 22.004 30.8 22 32.5 V44.2C22.004 44.684 22.201 45.146 22.547 45.484C22.894 45.822 23.361 46.008 23.845 46 H27.31C28.309 45.992 29.117 45.184 29.125 44.185 V40.105C32.123 38.395 35.802 38.395 38.8 40.105 V44.2C38.808 45.197 39.618 46 40.615 46 H44.065C45.067 46 45.88 45.187 45.88 44.185 V32.5C45.854 26.824 41.855 21.942 36.295 20.8 M36.145 31.96 H41.35C41.511 31.961 41.663 32.034 41.764 32.159C41.866 32.284 41.906 32.447 41.875 32.605C41.566 34.086 40.26 35.147 38.748 35.147C37.235 35.147 35.929 34.086 35.62 32.605C35.589 32.447 35.629 32.284 35.731 32.159C35.832 32.034 35.984 31.961 36.145 31.96 M26.575 31.96 H31.765C31.927 31.962 32.079 32.035 32.183 32.159C32.287 32.283 32.331 32.446 32.305 32.605C32.01 34.103 30.697 35.184 29.17 35.184C27.643 35.184 26.33 34.103 26.035 32.605C26.009 32.446 26.053 32.283 26.157 32.159C26.261 32.035 26.413 31.962 26.575 31.96 M23.035 24.46C22.775 23.722 22.355 23.051 21.805 22.495C21.256 21.947 20.589 21.531 19.855 21.28L10.66 30.49C10.025 31.129 9.836 32.087 10.18 32.919C10.524 33.751 11.334 34.296 12.235 34.3C12.829 34.303 13.401 34.072 13.825 33.655L23.035 24.46 M23.395 20.905C24.966 22.487 25.752 24.686 25.54 26.905C27.93 26.991 30.244 26.061 31.91 24.346C33.576 22.631 34.439 20.291 34.285 17.905C32.16 18.017 30.088 17.22 28.585 15.715C27.081 14.205 26.29 12.127 26.41 10C24.025 9.841 21.685 10.701 19.97 12.365C18.254 14.029 17.324 16.342 17.41 18.73C19.629 18.53 21.822 19.327 23.395 20.905"></path></g></g></g><g id="g-root-ic_thro_zoftbzvfnite-fill" data-item-order="-1296" transform="translate(245.114990234375, 230)"><g id="ic_thro_zoftbzvfnite-fill-merged" stroke="none" fill="#2c2c2c" fill-opacity="1"><g><path d="M31.75 14.125C31.75 16.196 33.429 17.875 35.5 17.875C37.571 17.875 39.25 16.196 39.25 14.125C39.25 12.054 37.571 10.375 35.5 10.375C33.429 10.375 31.75 12.054 31.75 14.125 M23.5 29.125 H13.855C13.733 29.123 13.618 29.068 13.54 28.975C13.489 28.866 13.489 28.739 13.54 28.63L16.675 19.105C16.94 18.318 16.517 17.465 15.73 17.2C14.943 16.935 14.09 17.358 13.825 18.145L10.075 29.395C9.947 29.773 9.974 30.186 10.152 30.544C10.329 30.901 10.641 31.174 11.02 31.3C11.176 31.346 11.337 31.371 11.5 31.375 V38.575C11.501 38.685 11.55 38.789 11.635 38.86C11.721 38.936 11.839 38.964 11.95 38.935C12.175 38.919 12.4 38.919 12.625 38.935C14.88 38.935 16.717 40.745 16.75 43C16.75 43.724 16.553 44.434 16.18 45.055C16.106 45.169 16.106 45.316 16.18 45.43C16.246 45.551 16.373 45.625 16.51 45.625 H21.475C22.223 45.633 22.863 45.09 22.975 44.35L25 30.85C25.066 30.415 24.938 29.973 24.649 29.641C24.36 29.309 23.94 29.12 23.5 29.125 M10 43C10 44.45 11.175 45.625 12.625 45.625C14.075 45.625 15.25 44.45 15.25 43C15.25 41.55 14.075 40.375 12.625 40.375C11.175 40.375 10 41.55 10 43 M20.5 27.625C22.364 27.625 23.875 26.114 23.875 24.25C23.875 22.386 22.364 20.875 20.5 20.875C18.636 20.875 17.125 22.386 17.125 24.25C17.125 26.114 18.636 27.625 20.5 27.625 M20.5 23.125C21.121 23.125 21.625 23.629 21.625 24.25C21.625 24.871 21.121 25.375 20.5 25.375C19.879 25.375 19.375 24.871 19.375 24.25C19.383 23.632 19.882 23.133 20.5 23.125 M24.25 20.125C24.25 21.161 25.089 22 26.125 22C27.161 22 28 21.161 28 20.125C28 19.089 27.161 18.25 26.125 18.25C25.089 18.25 24.25 19.089 24.25 20.125 M46 42.775L40 21.025C39.753 20.125 38.976 19.471 38.047 19.381C37.118 19.291 36.23 19.784 35.815 20.62L35.515 21.205C34.169 23.919 31.547 25.774 28.54 26.14C27.298 26.298 26.418 27.432 26.575 28.675C26.733 29.917 27.867 30.797 29.11 30.64C31.828 30.277 34.371 29.094 36.4 27.25C36.498 27.164 36.633 27.13 36.76 27.16C36.885 27.201 36.981 27.303 37.015 27.43L37.765 30.16C37.808 30.287 37.772 30.428 37.675 30.52C34.382 33.962 32.306 38.387 31.765 43.12C31.628 44.363 32.525 45.481 33.768 45.618C35.01 45.754 36.128 44.858 36.265 43.615C36.559 41.016 37.441 38.517 38.845 36.31C38.923 36.182 39.073 36.117 39.22 36.145C39.37 36.156 39.493 36.267 39.52 36.415L41.605 43.915C41.936 45.116 43.179 45.821 44.38 45.49C45.581 45.159 46.286 43.916 45.955 42.715"></path></g></g></g><g id="g-root-ic_robo_me894vvfghky-fill" data-item-order="-1296" transform="translate(56.114990234375, 194)"><g id="ic_robo_me894vvfghky-fill-merged" stroke="none" fill="#2c2c2c" fill-opacity="1"><g><path d="M39.999 14.98 V11.861C39.999 11.033 39.327 10.361 38.499 10.361C37.67 10.361 36.999 11.033 36.999 11.861 V14.98 H34.254C32.597 14.98 31.253 16.323 31.253 17.98 V23.251C31.253 24.908 32.597 26.251 34.254 26.251 H42.743C44.4 26.251 45.743 24.908 45.743 23.251 V17.98C45.743 16.323 44.4 14.98 42.743 14.98 H39.999 M29.003 18.781 V23.251C29.004 26.15 31.354 28.501 34.254 28.501 H37.594C37.849 29.551 37.984 30.652 37.984 31.783C37.986 39.44 31.777 45.648 24.119 45.645C16.463 45.646 10.256 39.439 10.258 31.783C10.257 24.103 16.464 17.897 24.119 17.897C25.84 17.897 27.487 18.209 29.005 18.781 M25.239 24.389C25.239 23.768 24.735 23.264 24.114 23.264C23.492 23.264 22.989 23.768 22.989 24.389 V30.635 H16.741C16.12 30.635 15.616 31.139 15.616 31.76C15.616 32.382 16.12 32.885 16.741 32.885 H22.989 V39.136C22.989 39.757 23.492 40.261 24.114 40.261C24.735 40.261 25.239 39.757 25.239 39.136 V32.885 H31.487C32.109 32.885 32.613 32.382 32.613 31.76C32.613 31.139 32.109 30.635 31.488 30.635 H25.239 V24.389 M34.674 21.577C34.674 22.198 35.177 22.702 35.799 22.702C36.42 22.702 36.924 22.198 36.924 21.577 V19.657C36.924 19.036 36.42 18.532 35.799 18.532C35.177 18.532 34.674 19.036 34.674 19.657 V21.577 M41.201 22.702C40.58 22.702 40.076 22.198 40.076 21.577 V19.657C40.076 19.036 40.58 18.532 41.201 18.532C41.823 18.532 42.326 19.036 42.326 19.657 V21.577C42.326 22.198 41.823 22.702 41.201 22.702"></path></g></g></g><g id="g-root-ic_circ_3dvzzvfowlf-fill" data-item-order="-1296" transform="translate(308.114990234375, 242)"><g id="ic_circ_3dvzzvfowlf-fill-merged" stroke="none" fill="#2c2c2c" fill-opacity="1"><g><path d="M28 10C18.059 10 10 18.059 10 28C10 37.941 18.059 46 28 46C37.941 46 46 37.941 46 28C46 18.059 37.941 10 28 10 M22.87 23.5 V34C22.87 34.523 22.509 34.976 22 35.095 H21.745C21.322 35.092 20.935 34.856 20.74 34.48L18.34 29.65C18.238 29.518 18.067 29.459 17.905 29.5C17.737 29.547 17.62 29.7 17.62 29.875 V34C17.62 34.621 17.116 35.125 16.495 35.125C15.874 35.125 15.37 34.621 15.37 34 V23.5C15.37 22.977 15.731 22.524 16.24 22.405C16.745 22.281 17.269 22.524 17.5 22.99L19.915 27.82C19.997 27.97 20.167 28.049 20.335 28.015C20.503 27.968 20.62 27.815 20.62 27.64 V23.5C20.62 22.879 21.124 22.375 21.745 22.375C22.366 22.375 22.87 22.879 22.87 23.5 M24.16 25.255C24.16 23.664 25.449 22.375 27.04 22.375 H30.535C31.156 22.375 31.66 22.879 31.66 23.5C31.66 24.121 31.156 24.625 30.535 24.625 H27.04C26.692 24.625 26.41 24.907 26.41 25.255 V27.25C26.41 27.457 26.578 27.625 26.785 27.625 H28.78C29.401 27.625 29.905 28.129 29.905 28.75C29.905 29.371 29.401 29.875 28.78 29.875 H26.785C26.578 29.875 26.41 30.043 26.41 30.25 V32.245C26.41 32.593 26.692 32.875 27.04 32.875 H30.535C31.156 32.875 31.66 33.379 31.66 34C31.66 34.621 31.156 35.125 30.535 35.125 H27.04C25.449 35.125 24.16 33.836 24.16 32.245 V25.255 M38.635 34.405L37.855 32.365C37.799 32.214 37.656 32.112 37.495 32.11C37.339 32.118 37.204 32.219 37.15 32.365L36.355 34.405C36.172 34.887 35.681 35.179 35.17 35.11C34.658 35.051 34.254 34.647 34.195 34.135L32.875 23.635C32.801 23.018 33.24 22.457 33.858 22.383C34.475 22.308 35.035 22.748 35.11 23.365L35.68 27.865C35.713 28.032 35.843 28.162 36.01 28.195C36.169 28.225 36.329 28.145 36.4 28 V27.895C36.597 27.495 37.004 27.241 37.45 27.241C37.896 27.241 38.303 27.495 38.5 27.895 V28C38.56 28.159 38.721 28.258 38.89 28.24C39.063 28.22 39.2 28.083 39.22 27.91L39.79 23.41C39.865 22.793 40.425 22.353 41.042 22.428C41.66 22.502 42.099 23.063 42.025 23.68L40.705 34.18C40.646 34.692 40.242 35.096 39.73 35.155 H39.595C39.156 35.115 38.78 34.822 38.635 34.405"></path></g></g></g><g id="g-root-ic_1_mdls1rvfkpoq-fill" data-item-order="-1296" transform="translate(119.114990234375, 206)"><g id="ic_1_mdls1rvfkpoq-fill-merged" stroke="none" fill="#2c2c2c" fill-opacity="1"><g><path d="M36.544 11.266C37.095 10.694 37.855 10.372 38.649 10.372C39.443 10.372 40.203 10.694 40.754 11.266L45.404 15.916C45.546 16.057 45.625 16.248 45.625 16.447 V29.047C45.625 29.461 45.289 29.797 44.875 29.797 H41.125C38.554 29.797 36.142 28.087 35.45 25.49C34.942 23.585 33.155 22.297 31.225 22.297 H28.675C27.061 22.297 25.675 20.911 25.675 19.297C25.675 17.683 27.061 16.297 28.675 16.297 H36.175C36.283 16.297 36.494 16.216 36.689 15.965C36.713 15.872 36.72 15.776 36.709 15.68C36.695 15.595 36.671 15.58 36.659 15.571C36.618 15.544 36.579 15.513 36.544 15.478C35.972 14.927 35.649 14.166 35.649 13.372C35.649 12.578 35.972 11.817 36.544 11.266 M14.5 25C16.985 25 19 22.985 19 20.5C19 18.015 16.985 16 14.5 16C12.015 16 10 18.015 10 20.5C10 22.985 12.015 25 14.5 25 M21.04 40.966C20.725 40.651 20.567 40.336 20.567 39.86 V39.662L19.304 40.453L17.567 44.557C17.095 45.82 15.673 46.294 14.41 45.82C13.306 45.346 12.832 44.24 12.989 43.135C13.014 42.97 13.068 42.81 13.147 42.662L15.2 37.927C15.35 37.471 15.752 37.042 16.105 36.844C16.829 37.559 17.803 37.964 18.82 37.973C20.935 37.973 22.75 36.158 22.75 34.043 V32.446C22.75 31.928 22.33 31.508 21.812 31.508C21.295 31.508 20.875 31.928 20.875 32.446 V34.043C20.875 35.122 19.898 36.098 18.82 36.098C17.983 36.098 17.207 35.512 16.901 34.745C16.82 34.512 16.779 34.267 16.778 34.019 V25.81C16.778 25.18 17.093 24.074 18.358 23.6C19.936 23.126 21.041 24.389 21.199 24.863L24.988 32.599C25.145 32.914 25.303 33.388 25.303 33.704 V38.756L27.988 42.229C28.777 43.334 28.618 44.755 27.514 45.544C26.566 46.175 25.303 46.175 24.514 45.386L24.199 45.071L21.041 40.966"></path></g></g></g><g id="g-root-ic_dust_8x5gzjvfqa6d-fill" data-item-order="-1296" transform="translate(440, 266)"><g id="ic_dust_8x5gzjvfqa6d-fill-merged" stroke="none" fill="#2c2c2c" fill-opacity="1"><g><path d="M10.856 10.279C11.574 9.864 12.492 10.109 12.907 10.826L19.944 22.981C21.452 22.405 23.018 22.201 24.462 22.396C26.341 22.651 28.091 23.611 29.044 25.393L32.335 31.226C32.742 31.948 32.487 32.863 31.766 33.27C31.044 33.677 30.129 33.422 29.722 32.701L27.166 28.171L23.8 30.111L26.335 34.603C26.725 35.323 26.466 36.222 25.753 36.624C25.04 37.026 24.136 36.782 23.722 36.076L21.202 31.609L18.066 33.419L20.635 37.975C21.042 38.697 20.788 39.612 20.066 40.019C19.344 40.426 18.429 40.171 18.022 39.45L14.726 33.605C13.702 31.852 13.752 29.849 14.497 28.08C15.067 26.723 16.052 25.474 17.335 24.463L10.311 12.33C9.895 11.613 10.138 10.695 10.855 10.279 M45.646 11.875C45.646 11.047 44.974 10.375 44.146 10.375C43.318 10.375 42.646 11.047 42.646 11.875 V35.086L30.181 44.271C29.92 44.462 29.811 44.801 29.912 45.109C30.013 45.417 30.301 45.625 30.625 45.625 H44.875C45.289 45.625 45.625 45.289 45.625 44.875 V36.875C45.64 36.793 45.647 36.709 45.646 36.625 V11.875 M12.925 42.025C11.931 42.025 11.125 42.831 11.125 43.825C11.125 44.819 11.931 45.625 12.925 45.625C13.919 45.625 14.725 44.819 14.725 43.825C14.725 42.831 13.919 42.025 12.925 42.025 M18.175 42.025C17.181 42.025 16.375 42.831 16.375 43.825C16.375 44.819 17.181 45.625 18.175 45.625C19.169 45.625 19.975 44.819 19.975 43.825C19.975 42.831 19.169 42.025 18.175 42.025 M23.425 42.025C22.431 42.025 21.625 42.831 21.625 43.825C21.625 44.819 22.431 45.625 23.425 45.625C24.419 45.625 25.225 44.819 25.225 43.825C25.225 42.831 24.419 42.025 23.425 42.025"></path></g></g></g><g id="g-root-tx_newsidee_18egjsvvfrpxl-fill" data-item-order="0" transform="translate(278, 158)"><g id="tx_newsidee_18egjsvvfrpxl-fill-merged" stroke="none" fill="#f4f4f4" fill-opacity="1"><g><text style="font: 10.5px Roboto, sans-serif; white-space: pre;" transform="translate(58, 22)" font-size="10.5px" font-family="Roboto, sans-serif"><tspan x="-40.45" y="0" dominant-baseline="ideographic">New side effects </tspan><tspan x="-28.02" y="12" dominant-baseline="ideographic">are started.</tspan></text></g></g></g><g id="g-root-tx_finalcle_v301fjvfrrii-fill" data-item-order="0" transform="translate(410, 146)"><g id="tx_finalcle_v301fjvfrrii-fill-merged" stroke="none" fill="#f79438" fill-opacity="1"><g><text style="font: bold 12px Roboto, sans-serif; white-space: pre;" transform="translate(52, 22)" font-weight="bold" font-size="12px" font-family="Roboto, sans-serif"><tspan x="-36.6" y="7" dominant-baseline="ideographic">Final Cleanup</tspan></text></g></g></g><g id="g-root-tx_thecompo_147dovzvfq9z7-fill" data-item-order="0" transform="translate(341, 374)"><g id="tx_thecompo_147dovzvfq9z7-fill-merged" stroke="none" fill="#f4f4f4" fill-opacity="1"><g><text style="font: 10.5px Roboto, sans-serif; white-space: pre;" transform="translate(58, 28)" font-size="10.5px" font-family="Roboto, sans-serif"><tspan x="-43.3" y="-6" dominant-baseline="ideographic">The component is </tspan><tspan x="-42.78" y="6" dominant-baseline="ideographic">removed from the </tspan><tspan x="-14.33" y="18" dominant-baseline="ideographic">DOM.</tspan></text></g></g></g><g id="g-root-tx_neweffec_1ha3k1rvfrp4w-fill" data-item-order="0" transform="translate(290, 122)"><g id="tx_neweffec_1ha3k1rvfrp4w-fill-merged" stroke="none" fill="#ffe711" fill-opacity="1"><g><text style="font: bold 12px Roboto, sans-serif; white-space: pre;" transform="translate(46, 28)" font-weight="bold" font-size="12px" font-family="Roboto, sans-serif"><tspan x="-33.89" y="0" dominant-baseline="ideographic">New Effects </tspan><tspan x="-23.67" y="14" dominant-baseline="ideographic">Initiated</tspan></text></g></g></g><g id="g-root-tx_finalres_qnt0e7vfrp4z-fill" data-item-order="0" transform="translate(410, 170)"><g id="tx_finalres_qnt0e7vfrp4z-fill-merged" stroke="none" fill="#f4f4f4" fill-opacity="1"><g><text style="font: 10.5px Roboto, sans-serif; white-space: pre;" transform="translate(52, 28)" font-size="10.5px" font-family="Roboto, sans-serif"><tspan x="-34.19" y="-6" dominant-baseline="ideographic">Final resource </tspan><tspan x="-37.55" y="6" dominant-baseline="ideographic">management is </tspan><tspan x="-27.19" y="18" dominant-baseline="ideographic">performed.</tspan></text></g></g></g><g id="g-root-tx_thecompo_9mmv3vfqbk7-fill" data-item-order="0" transform="translate(152, 134)"><g id="tx_thecompo_9mmv3vfqbk7-fill-merged" stroke="none" fill="#f4f4f4" fill-opacity="1"><g><text style="font: 10.5px Roboto, sans-serif; white-space: pre;" transform="translate(58, 22)" font-size="10.5px" font-family="Roboto, sans-serif"><tspan x="-41.43" y="0" dominant-baseline="ideographic">The component's </tspan><tspan x="-35.62" y="12" dominant-baseline="ideographic">state changes.</tspan></text></g></g></g><g id="g-root-tx_thecompo_i0a69rvfqcct-fill" data-item-order="0" transform="translate(26, 122)"><g id="tx_thecompo_i0a69rvfqcct-fill-merged" stroke="none" fill="#f4f4f4" fill-opacity="1"><g><text style="font: 10.5px Roboto, sans-serif; white-space: pre;" transform="translate(58, 22)" font-size="10.5px" font-family="Roboto, sans-serif"><tspan x="-42.54" y="0" dominant-baseline="ideographic">The component is </tspan><tspan x="-44.05" y="12" dominant-baseline="ideographic">added to the DOM.</tspan></text></g></g></g><g id="g-root-tx_componen_dl358fvfq9za-fill" data-item-order="0" transform="translate(164, 98)"><g id="tx_componen_dl358fvfq9za-fill-merged" stroke="none" fill="#4f91fc" fill-opacity="1"><g><text style="font: bold 12px Roboto, sans-serif; white-space: pre;" transform="translate(46, 28)" font-weight="bold" font-size="12px" font-family="Roboto, sans-serif"><tspan x="-32.77" y="0" dominant-baseline="ideographic">Component </tspan><tspan x="-23.77" y="14" dominant-baseline="ideographic">Updates</tspan></text></g></g></g><g id="g-root-tx_componen_vbqon3vfqarw-fill" data-item-order="0" transform="translate(38, 86)"><g id="tx_componen_vbqon3vfqarw-fill-merged" stroke="none" fill="#43dd93" fill-opacity="1"><g><text style="font: bold 12px Roboto, sans-serif; white-space: pre;" transform="translate(46, 28)" font-weight="bold" font-size="12px" font-family="Roboto, sans-serif"><tspan x="-32.77" y="0" dominant-baseline="ideographic">Component </tspan><tspan x="-21.97" y="14" dominant-baseline="ideographic">Mounts</tspan></text></g></g></g><g id="g-root-tx_reactcom_1d0issfvfghkx-fill" data-item-order="0" transform="translate(107, 38)"><g id="tx_reactcom_1d0issfvfghkx-fill-merged" stroke="none" fill="#f4f4f4" fill-opacity="1"><g><text style="font: bold 20px Roboto, sans-serif; white-space: pre;" transform="translate(184, 22)" font-weight="bold" font-size="20px" font-family="Roboto, sans-serif"><tspan x="-170.09" y="12" dominant-baseline="ideographic">React Component Lifecycle Sequence</tspan></text></g></g></g><g id="g-root-tx_effectru_145i9mnvfqayu-fill" data-item-order="0" transform="translate(101, 290)"><g id="tx_effectru_145i9mnvfqayu-fill-merged" stroke="none" fill="#a6da37" fill-opacity="1"><g><text style="font: bold 12px Roboto, sans-serif; white-space: pre;" transform="translate(46, 22)" font-weight="bold" font-size="12px" font-family="Roboto, sans-serif"><tspan x="-31.09" y="7" dominant-baseline="ideographic">Effect Runs</tspan></text></g></g></g><g id="g-root-tx_theiniti_dj7pz3vfqayv-fill" data-item-order="0" transform="translate(89, 314)"><g id="tx_theiniti_dj7pz3vfqayv-fill-merged" stroke="none" fill="#f4f4f4" fill-opacity="1"><g><text style="font: 10.5px Roboto, sans-serif; white-space: pre;" transform="translate(58, 22)" font-size="10.5px" font-family="Roboto, sans-serif"><tspan x="-33.73" y="0" dominant-baseline="ideographic">The initial side </tspan><tspan x="-42.83" y="12" dominant-baseline="ideographic">effect is executed.</tspan></text></g></g></g><g id="g-root-tx_cleanupp_7r7lrvfqcjs-fill" data-item-order="0" transform="translate(227, 314)"><g id="tx_cleanupp_7r7lrvfqcjs-fill-merged" stroke="none" fill="#1ac3fb" fill-opacity="1"><g><text style="font: bold 12px Roboto, sans-serif; white-space: pre;" transform="translate(46, 28)" font-weight="bold" font-size="12px" font-family="Roboto, sans-serif"><tspan x="-22.08" y="0" dominant-baseline="ideographic">Cleanup </tspan><tspan x="-28.22" y="14" dominant-baseline="ideographic">Processes</tspan></text></g></g></g><g id="g-root-tx_resource_1ly18anvfqart-fill" data-item-order="0" transform="translate(221, 350)"><g id="tx_resource_1ly18anvfqart-fill-merged" stroke="none" fill="#f4f4f4" fill-opacity="1"><g><text style="font: 10.5px Roboto, sans-serif; white-space: pre;" transform="translate(52, 28)" font-size="10.5px" font-family="Roboto, sans-serif"><tspan x="-34.56" y="-6" dominant-baseline="ideographic">Resources are </tspan><tspan x="-37.56" y="6" dominant-baseline="ideographic">released before </tspan><tspan x="-29.95" y="18" dominant-baseline="ideographic">new effects.</tspan></text></g></g></g><g id="g-root-tx_componen_18mkpxbvfqccq-fill" data-item-order="0" transform="translate(353, 338)"><g id="tx_componen_18mkpxbvfqccq-fill-merged" stroke="none" fill="#fb6762" fill-opacity="1"><g><text style="font: bold 12px Roboto, sans-serif; white-space: pre;" transform="translate(46, 28)" font-weight="bold" font-size="12px" font-family="Roboto, sans-serif"><tspan x="-32.77" y="0" dominant-baseline="ideographic">Component </tspan><tspan x="-29.23" y="14" dominant-baseline="ideographic">Unmounts</tspan></text></g></g></g><g id="g-root-cp_1_g-1_1cyndj3vfgiki-stroke" data-item-order="-190730" transform="translate(44, 182)"><g id="cp_1_g-1_1cyndj3vfgiki-stroke" fill="none" stroke-linecap="round" stroke-linejoin="round" stroke-miterlimit="4" stroke="#2c2c2c" stroke-width="2" stroke-opacity="1"><g><path d="M 109 10L 73 22L 73 70L 10 70L 10 10L 109 10Z"></path></g></g></g><g id="g-root-cp_2_g-2_zntc8vvfggzn-stroke" data-item-order="-190726" transform="translate(107, 182)"><g id="cp_2_g-2_zntc8vvfggzn-stroke" fill="none" stroke-linecap="round" stroke-linejoin="round" stroke-miterlimit="4" stroke="#2c2c2c" stroke-width="2" stroke-opacity="1"><g><path d="M 46 10L 46 22L 10 22L 46 10Z"></path></g></g><g id="cp_2_g-2_zntc8vvfggzn-stroke" fill="none" stroke-linecap="round" stroke-linejoin="round" stroke-miterlimit="4" stroke="#2c2c2c" stroke-width="2" stroke-opacity="1"><g><path d="M 109 22L 73 34L 73 82L 10 82L 10 22L 109 22Z"></path></g></g></g><g id="g-root-cp_3_g-3_qs6bzzvfghsc-stroke" data-item-order="-190722" transform="translate(170, 194)"><g id="cp_3_g-3_qs6bzzvfghsc-stroke" fill="none" stroke-linecap="round" stroke-linejoin="round" stroke-miterlimit="4" stroke="#2c2c2c" stroke-width="2" stroke-opacity="1"><g><path d="M 46 10L 46 22L 10 22L 46 10Z"></path></g></g><g id="cp_3_g-3_qs6bzzvfghsc-stroke" fill="none" stroke-linecap="round" stroke-linejoin="round" stroke-miterlimit="4" stroke="#2c2c2c" stroke-width="2" stroke-opacity="1"><g><path d="M 109 22L 73 34L 73 82L 10 82L 10 22L 109 22Z"></path></g></g></g><g id="g-root-cp_4_g-4_mcctvjvfgikl-stroke" data-item-order="-190718" transform="translate(233, 206)"><g id="cp_4_g-4_mcctvjvfgikl-stroke" fill="none" stroke-linecap="round" stroke-linejoin="round" stroke-miterlimit="4" stroke="#2c2c2c" stroke-width="2" stroke-opacity="1"><g><path d="M 46 10L 46 22L 10 22L 46 10Z"></path></g></g><g id="cp_4_g-4_mcctvjvfgikl-stroke" fill="none" stroke-linecap="round" stroke-linejoin="round" stroke-miterlimit="4" stroke="#2c2c2c" stroke-width="2" stroke-opacity="1"><g><path d="M 109 22L 73 34L 73 82L 10 82L 10 22L 109 22Z"></path></g></g></g><g id="g-root-cp_5_g-5_dhcaprvfgg7i-stroke" data-item-order="-190714" transform="translate(296, 218)"><g id="cp_5_g-5_dhcaprvfgg7i-stroke" fill="none" stroke-linecap="round" stroke-linejoin="round" stroke-miterlimit="4" stroke="#2c2c2c" stroke-width="2" stroke-opacity="1"><g><path d="M 46 10L 46 22L 10 22L 46 10Z"></path></g></g><g id="cp_5_g-5_dhcaprvfgg7i-stroke" fill="none" stroke-linecap="round" stroke-linejoin="round" stroke-miterlimit="4" stroke="#2c2c2c" stroke-width="2" stroke-opacity="1"><g><path d="M 109 22L 73 34L 73 82L 10 82L 10 22L 109 22Z"></path></g></g></g><g id="g-root-cp_6_g-6_91islbvfggzr-stroke" data-item-order="-190710" transform="translate(359, 230)"><g id="cp_6_g-6_91islbvfggzr-stroke" fill="none" stroke-linecap="round" stroke-linejoin="round" stroke-miterlimit="4" stroke="#2c2c2c" stroke-width="2" stroke-opacity="1"><g><path d="M 46 10L 46 22L 10 22L 46 10Z"></path></g></g><g id="cp_6_g-6_91islbvfggzr-stroke" fill="none" stroke-linecap="round" stroke-linejoin="round" stroke-miterlimit="4" stroke="#2c2c2c" stroke-width="2" stroke-opacity="1"><g><path d="M 109 22L 73 34L 73 82L 10 82L 10 22L 109 22Z"></path></g></g></g><g id="g-root-cp_7_g-7_1ur6c73vfgidk-stroke" data-item-order="-190706" transform="translate(422, 242)"><g id="cp_7_g-7_1ur6c73vfgidk-stroke" fill="none" stroke-linecap="round" stroke-linejoin="round" stroke-miterlimit="4" stroke="#2c2c2c" stroke-width="2" stroke-opacity="1"><g><path d="M 46 10L 46 22L 10 22L 46 10Z"></path></g></g><g id="cp_7_g-7_1ur6c73vfgidk-stroke" fill="none" stroke-linecap="round" stroke-linejoin="round" stroke-miterlimit="4" stroke="#2c2c2c" stroke-width="2" stroke-opacity="1"><g><path d="M 73.29 90.250234L 73.29 82.000234L 10 82.000234L 10 22.000234L 73.29 22.000234L 73.29 13.740234L 109 52.000234L 73.29 90.250234Z"></path></g></g></g><g id="g-root-ic_robo_905rzvfknwr-stroke" data-item-order="-1296" transform="translate(182.114990234375, 218)"></g><g id="g-root-ic_axe_mg3oe7vfoy6k-stroke" data-item-order="-1296" transform="translate(371.114990234375, 254)"></g><g id="g-root-ic_thro_zoftbzvfnite-stroke" data-item-order="-1296" transform="translate(245.114990234375, 230)"></g><g id="g-root-ic_robo_me894vvfghky-stroke" data-item-order="-1296" transform="translate(56.114990234375, 194)"></g><g id="g-root-ic_circ_3dvzzvfowlf-stroke" data-item-order="-1296" transform="translate(308.114990234375, 242)"></g><g id="g-root-ic_1_mdls1rvfkpoq-stroke" data-item-order="-1296" transform="translate(119.114990234375, 206)"></g><g id="g-root-ic_dust_8x5gzjvfqa6d-stroke" data-item-order="-1296" transform="translate(440, 266)"></g><g id="g-root-tx_newsidee_18egjsvvfrpxl-stroke" data-item-order="0" transform="translate(278, 158)"></g><g id="g-root-tx_finalcle_v301fjvfrrii-stroke" data-item-order="0" transform="translate(410, 146)"></g><g id="g-root-tx_thecompo_147dovzvfq9z7-stroke" data-item-order="0" transform="translate(341, 374)"></g><g id="g-root-tx_neweffec_1ha3k1rvfrp4w-stroke" data-item-order="0" transform="translate(290, 122)"></g><g id="g-root-tx_finalres_qnt0e7vfrp4z-stroke" data-item-order="0" transform="translate(410, 170)"></g><g id="g-root-tx_thecompo_9mmv3vfqbk7-stroke" data-item-order="0" transform="translate(152, 134)"></g><g id="g-root-tx_thecompo_i0a69rvfqcct-stroke" data-item-order="0" transform="translate(26, 122)"></g><g id="g-root-tx_componen_dl358fvfq9za-stroke" data-item-order="0" transform="translate(164, 98)"></g><g id="g-root-tx_componen_vbqon3vfqarw-stroke" data-item-order="0" transform="translate(38, 86)"></g><g id="g-root-tx_reactcom_1d0issfvfghkx-stroke" data-item-order="0" transform="translate(107, 38)"></g><g id="g-root-tx_effectru_145i9mnvfqayu-stroke" data-item-order="0" transform="translate(101, 290)"></g><g id="g-root-tx_theiniti_dj7pz3vfqayv-stroke" data-item-order="0" transform="translate(89, 314)"></g><g id="g-root-tx_cleanupp_7r7lrvfqcjs-stroke" data-item-order="0" transform="translate(227, 314)"></g><g id="g-root-tx_resource_1ly18anvfqart-stroke" data-item-order="0" transform="translate(221, 350)"></g><g id="g-root-tx_componen_18mkpxbvfqccq-stroke" data-item-order="0" transform="translate(353, 338)"></g></g></g></svg>