<?xml version="1.0" encoding="utf-8" standalone="yes"?>
<!DOCTYPE svg PUBLIC "-//W3C//DTD SVG 1.1//EN" "http://www.w3.org/Graphics/SVG/1.1/DTD/svg11.dtd">
<svg style="fill:none;stroke:none;fill-rule:evenodd;clip-rule:evenodd;stroke-linecap:round;stroke-linejoin:round;stroke-miterlimit:1.5;" version="1.1" xmlns="http://www.w3.org/2000/svg" xmlns:xlink="http://www.w3.org/1999/xlink" width="576" height="588" viewBox="0 0 576 588"><style class="text-font-style fontImports" data-font-family="Roboto">@import url(https://fonts.googleapis.com/css2?family=Roboto:wght@400;700&amp;amp;display=block);</style><g id="items" style="isolation: isolate"><g id="blend" style="mix-blend-mode: normal"><g id="g-root-sy_-1_Vector_vbqoofxx77ri-fill" data-item-order="999740237" transform="translate(52.934051513671875, 198)"></g><g id="g-root-cp_1_g-1_qvx6jzxx78jr-fill" data-item-order="999740238" transform="translate(59.93798828125, 235)"><g id="cp_1_g-1_qvx6jzxx78jr-fill-merged" stroke="none" fill="#4f91fc" fill-opacity="1"><g><path d="M10 34C10 47.255 20.745 58 34 58C47.255 58 58 47.255 58 34C58 20.745 47.255 10 34 10C20.745 10 10 20.745 10 34"></path></g></g></g><g id="g-root-cp_2_g-2_mgq5inxx7668-fill" data-item-order="999740244" transform="translate(122.93798828125, 330)"><g id="cp_2_g-2_mgq5inxx7668-fill-merged" stroke="none" fill="#1ac3fb" fill-opacity="1"><g><path d="M10 34C10 47.255 20.745 58 34 58C47.255 58 58 47.255 58 34C58 20.745 47.255 10 34 10C20.745 10 10 20.745 10 34"></path></g></g></g><g id="g-root-cp_3_g-3_dl359rxx76yx-fill" data-item-order="999740250" transform="translate(185.93798828125, 219)"><g id="cp_3_g-3_dl359rxx76yx-fill-merged" stroke="none" fill="#43dd93" fill-opacity="1"><g><path d="M10 34C10 47.255 20.745 58 34 58C47.255 58 58 47.255 58 34C58 20.745 47.255 10 34 10C20.745 10 10 20.745 10 34"></path></g></g></g><g id="g-root-cp_4_g-4_959n5bxx77r6-fill" data-item-order="999740256" transform="translate(249.93798828125, 306)"><g id="cp_4_g-4_959n5bxx77r6-fill-merged" stroke="none" fill="#a6da37" fill-opacity="1"><g><path d="M10 34C10 47.255 20.745 58 34 58C47.255 58 58 47.255 58 34C58 20.745 47.255 10 34 10C20.745 10 10 20.745 10 34"></path></g></g></g><g id="g-root-cp_5_g-5_959n5bxx77r7-fill" data-item-order="999740262" transform="translate(312.93798828125, 236)"><g id="cp_5_g-5_959n5bxx77r7-fill-merged" stroke="none" fill="#ffe711" fill-opacity="1"><g><path d="M10 34C10 47.255 20.745 58 34 58C47.255 58 58 47.255 58 34C58 20.745 47.255 10 34 10C20.745 10 10 20.745 10 34"></path></g></g></g><g id="g-root-cp_6_g-6_9mmwfxx78jw-fill" data-item-order="999740268" transform="translate(375.93798828125, 363)"><g id="cp_6_g-6_9mmwfxx78jw-fill-merged" stroke="none" fill="#f79438" fill-opacity="1"><g><path d="M10 34C10 47.255 20.745 58 34 58C47.255 58 58 47.255 58 34C58 20.745 47.255 10 34 10C20.745 10 10 20.745 10 34"></path></g></g></g><g id="g-root-cp_7_g-7_1uux6r3xx7951-fill" data-item-order="999740274" transform="translate(438.93798828125, 207)"><g id="cp_7_g-7_1uux6r3xx7951-fill-merged" stroke="none" fill="#fb6762" fill-opacity="1"><g><path d="M10 34C10 47.255 20.745 58 34 58C47.255 58 58 47.255 58 34C58 20.745 47.255 10 34 10C20.745 10 10 20.745 10 34"></path></g></g></g><g id="g-root-ic_nati_qnt0fjxx8m4n-fill" data-item-order="999999424" transform="translate(71.93798828125, 247)"><g id="ic_nati_qnt0fjxx8m4n-fill-merged" stroke="none" fill="#2c2c2c" fill-opacity="1"><g><path d="M34 22C34 20.1 32 18.72 29.1 17.9C29.18 17.54 29.26 17.19 29.32 16.85C29.92 13.49 28.93 12.15 28 11.61C27.07 11.07 25.41 10.89 22.8 13.08C22.53 13.31 22.27 13.55 22 13.81C21.73 13.55 21.47 13.31 21.2 13.08C18.59 10.89 16.93 11.07 16 11.61C15.07 12.15 14.08 13.49 14.68 16.85C14.74 17.19 14.82 17.54 14.9 17.9C12 18.72 10 20.1 10 22C10 23.9 12 25.28 14.9 26.1C14.82 26.46 14.74 26.81 14.68 27.1C14.08 30.46 15.07 31.8 16 32.34C16.407 32.575 16.87 32.696 17.34 32.69C18.75 32.69 20.39 31.69 22 30.15C23.61 31.7 25.25 32.69 26.66 32.69C27.125 32.711 27.588 32.608 28 32.39C28.93 31.85 29.92 30.51 29.32 27.15C29.26 26.81 29.18 26.46 29.1 26.15C32 25.28 34 23.9 34 22 M26.66 13.26C26.778 13.257 26.896 13.284 27 13.34C27.41 13.58 27.68 14.65 27.35 16.5C27.3 16.81 27.23 17.13 27.15 17.5C26.4 17.36 25.61 17.26 24.81 17.18C24.34 16.52 23.81 15.89 23.37 15.32C23.61 15.09 23.85 14.86 24.08 14.67C24.77 13.94 25.673 13.447 26.66 13.26 M26.43 24.31L26.55 24.62 H26.22C26.26 24.622 26.297 24.562 26.33 24.5C26.369 24.44 26.403 24.376 26.43 24.31 M24.6 23.5C24.3 24.01 24 24.5 23.7 24.95C23.15 24.95 22.59 25 22 25C21.41 25 20.85 25 20.3 24.95C20 24.49 19.7 24.01 19.4 23.5C19.1 22.99 18.85 22.5 18.6 22C18.85 21.5 19.11 21 19.4 20.5C19.69 20 19.99 19.5 20.3 19.05C20.85 19 21.41 19 22 19C22.59 19 23.15 19 23.7 19.05C24.01 19.52 24.31 20 24.6 20.5C24.89 21 25.15 21.5 25.4 22C25.15 22.5 24.89 23 24.6 23.5 M22.21 27L22 27.24L21.79 27 H22.21 M17.67 24.5C17.703 24.562 17.74 24.622 17.78 24.68 H17.45L17.57 24.31C17.597 24.376 17.631 24.44 17.67 24.5 M17.57 19.69L17.45 19.38 H17.78C17.74 19.378 17.703 19.438 17.67 19.5C17.631 19.56 17.597 19.624 17.57 19.69 M22 16.75L22.21 17 H21.79L22 16.75 M26.33 19.5C26.297 19.438 26.26 19.378 26.22 19.32 H26.55L26.43 19.69C26.403 19.624 26.369 19.56 26.33 19.5 M16.65 16.5C16.32 14.65 16.59 13.58 17 13.34C17.101 13.284 17.215 13.256 17.33 13.26C18.315 13.43 19.221 13.906 19.92 14.62C20.16 14.81 20.39 15.04 20.63 15.27C20.14 15.84 19.63 16.47 19.19 17.13C18.39 17.21 17.6 17.31 16.85 17.45C16.77 17.13 16.7 16.81 16.65 16.5 M12 22C12 21.32 13.28 20.45 15.49 19.82C15.74 20.53 16.04 21.26 16.38 22C16.04 22.74 15.74 23.47 15.49 24.18C13.28 23.55 12 22.68 12 22 M17 30.66C16.59 30.42 16.32 29.35 16.65 27.5C16.65 27.19 16.77 26.87 16.85 26.55C17.6 26.69 18.38 26.79 19.18 26.87C19.65 27.52 20.18 28.15 20.63 28.73C19 30.32 17.59 31 17 30.66 M27.35 27.5C27.68 29.35 27.41 30.42 27 30.66C26.42 31 25 30.32 23.37 28.73C23.87 28.15 24.37 27.52 24.82 26.87C25.62 26.79 26.4 26.69 27.15 26.55C27.23 26.87 27.3 27.19 27.35 27.5 M28.51 24.18C28.26 23.47 27.96 22.74 27.62 22C27.96 21.26 28.26 20.53 28.51 19.82C30.72 20.45 32 21.32 32 22C32 22.68 30.72 23.55 28.51 24.18 M20 22C20 23.105 20.895 24 22 24C23.105 24 24 23.105 24 22C24 20.895 23.105 20 22 20C20.895 20 20 20.895 20 22"></path></g></g></g><g id="g-root-ic_refr_1d1rqzzxxe9s3-fill" data-item-order="999999424" transform="translate(387.93798828125, 375)"><g id="ic_refr_1d1rqzzxxe9s3-fill-merged" stroke="none" fill="#2c2c2c" fill-opacity="1"><g><path d="M23.5 29 H25C25.276 29 25.5 28.776 25.5 28.5 V21C25.498 20.809 25.39 20.636 25.22 20.55L22.22 19.05C22.082 18.98 21.918 18.98 21.78 19.05L18.78 20.55C18.61 20.636 18.502 20.809 18.5 21 V28.5C18.5 28.776 18.724 29 19 29 H20.5C20.776 29 21 28.776 21 28.5 V27.5C21 27.224 21.224 27 21.5 27 H22.5C22.776 27 23 27.224 23 27.5 V28.5C23 28.776 23.224 29 23.5 29 M20.5 21.5 H23.5C23.776 21.5 24 21.724 24 22C24 22.276 23.776 22.5 23.5 22.5 H20.5C20.224 22.5 20 22.276 20 22C20 21.724 20.224 21.5 20.5 21.5 M20.5 25C20.224 25 20 24.776 20 24.5C20 24.224 20.224 24 20.5 24 H23.5C23.776 24 24 24.224 24 24.5C24 24.776 23.776 25 23.5 25 H20.5 M30.7 27.79C30.479 27.642 30.208 27.588 29.947 27.641C29.686 27.694 29.457 27.848 29.31 28.07C27.343 31.072 23.742 32.569 20.227 31.846C16.711 31.122 13.994 28.325 13.373 24.79C12.751 21.255 14.352 17.699 17.41 15.82C17.559 15.729 17.744 15.722 17.9 15.801C18.055 15.881 18.157 16.036 18.17 16.21L18.26 17.31C18.285 17.591 18.465 17.835 18.727 17.94C18.988 18.046 19.287 17.995 19.5 17.81L23.5 14.31C23.672 14.156 23.764 13.931 23.748 13.7C23.732 13.47 23.611 13.259 23.42 13.13L18.92 10.13C18.674 9.981 18.366 9.981 18.12 10.13C17.874 10.278 17.734 10.554 17.76 10.84L17.92 13C17.938 13.209 17.821 13.405 17.63 13.49C13.431 15.349 10.876 19.669 11.271 24.243C11.665 28.818 14.922 32.637 19.377 33.75C23.832 34.862 28.501 33.022 31 29.17C31.297 28.706 31.163 28.089 30.7 27.79 M31.81 23C31.545 22.981 31.283 23.068 31.082 23.243C30.881 23.417 30.758 23.665 30.74 23.93C30.711 24.392 30.641 24.851 30.53 25.3C30.467 25.56 30.511 25.834 30.652 26.062C30.793 26.289 31.019 26.451 31.28 26.51 H31.51C31.984 26.523 32.401 26.201 32.51 25.74C32.637 25.168 32.714 24.586 32.74 24C32.741 23.474 32.335 23.037 31.81 23 M30.15 20C30.302 20.381 30.67 20.63 31.08 20.63C31.206 20.626 31.331 20.603 31.45 20.56C31.949 20.352 32.193 19.785 32 19.28C31.791 18.746 31.537 18.231 31.24 17.74C30.931 17.348 30.381 17.244 29.95 17.496C29.519 17.748 29.34 18.279 29.53 18.74C29.769 19.143 29.976 19.564 30.15 20 M25.61 15.27C26.034 15.457 26.442 15.678 26.83 15.93C26.99 16.037 27.177 16.097 27.37 16.1C27.71 16.099 28.026 15.926 28.21 15.64C28.509 15.179 28.38 14.562 27.92 14.26C27.444 13.944 26.942 13.67 26.42 13.44C26.171 13.335 25.89 13.336 25.642 13.441C25.393 13.547 25.198 13.748 25.1 14C24.908 14.492 25.132 15.048 25.61 15.27"></path></g></g></g><g id="g-root-ic_file_v9v9f3xxctfm-fill" data-item-order="999999424" transform="translate(324.93798828125, 248)"><g id="ic_file_v9v9f3xxctfm-fill-merged" stroke="none" fill="#2c2c2c" fill-opacity="1"><g><path d="M12.819 11.157C13.271 10.705 13.885 10.451 14.524 10.451 H26.297C26.936 10.451 27.549 10.705 28.001 11.156L31.182 14.338C31.634 14.79 31.888 15.403 31.888 16.042 V30.799C31.888 32.318 30.657 33.549 29.138 33.549 H14.524C13.192 33.55 12.112 32.47 12.112 31.138 V12.862C12.112 12.222 12.366 11.609 12.819 11.157 M16.827 23.013C17.107 22.896 17.43 22.96 17.645 23.175L19.343 24.874L24.217 20C24.608 19.61 25.241 19.61 25.632 20.001C26.022 20.391 26.022 21.025 25.631 21.415L20.757 26.288L22.457 27.988C22.671 28.202 22.735 28.525 22.619 28.805C22.503 29.085 22.23 29.268 21.927 29.268 H17.114C16.7 29.268 16.364 28.932 16.364 28.518 V23.706C16.364 23.403 16.547 23.129 16.827 23.013"></path></g></g></g><g id="g-root-ic_3_i0wne7xx9zbi-fill" data-item-order="999999424" transform="translate(134.93798828125, 342)"><g id="ic_3_i0wne7xx9zbi-fill-merged" stroke="none" fill="#2c2c2c" fill-opacity="1"><g><path d="M20.46 28.37L17.72 31.11C16.616 32.159 14.884 32.159 13.78 31.11L12.89 30.22C12.357 29.692 12.061 28.97 12.07 28.22C12.058 27.469 12.354 26.746 12.89 26.22L18.69 20.41C19.781 19.33 21.539 19.33 22.63 20.41L23.52 21.31C23.715 21.682 24.123 21.892 24.539 21.836C24.956 21.78 25.293 21.469 25.382 21.058C25.472 20.648 25.295 20.225 24.94 20L24.05 19.11C22.18 17.242 19.15 17.242 17.28 19.11L11.47 24.91C9.602 26.78 9.602 29.81 11.47 31.68L12.36 32.57C13.257 33.473 14.477 33.98 15.75 33.98C17.023 33.98 18.243 33.473 19.14 32.57L21.87 29.84C22.059 29.652 22.166 29.397 22.166 29.13C22.166 28.863 22.059 28.608 21.87 28.42C21.494 28.018 20.864 27.996 20.46 28.37 M32.53 12.36L31.63 11.47C29.758 9.608 26.732 9.608 24.86 11.47L22 14.38C21.715 14.624 21.59 15.008 21.678 15.373C21.766 15.739 22.051 16.024 22.417 16.112C22.782 16.2 23.166 16.075 23.41 15.79L26.32 12.89C27.409 11.804 29.171 11.804 30.26 12.89L31.15 13.79C31.686 14.316 31.982 15.039 31.97 15.79C31.979 16.54 31.683 17.262 31.15 17.79L25.35 23.59C24.822 24.123 24.1 24.419 23.35 24.41C22.599 24.421 21.877 24.125 21.35 23.59C20.965 23.392 20.496 23.464 20.188 23.77C19.881 24.075 19.805 24.543 20 24.93C20.896 25.834 22.117 26.342 23.39 26.34C24.658 26.343 25.875 25.839 26.77 24.94L32.58 19.13C34.448 17.26 34.448 14.23 32.58 12.36"></path></g></g></g><g id="g-root-ic_refr_1lvjbzjxxfnd0-fill" data-item-order="999999424" transform="translate(450.93798828125, 219)"><g id="ic_refr_1lvjbzjxxfnd0-fill-merged" stroke="none" fill="#2c2c2c" fill-opacity="1"><g><path d="M26.19 16.54C26.005 16.456 25.787 16.501 25.65 16.65L25.16 17.13C23.588 15.851 21.4 15.647 19.619 16.614C17.838 17.58 16.817 19.526 17.033 21.541C17.249 23.556 18.659 25.241 20.604 25.808C22.55 26.376 24.645 25.713 25.91 24.13C26.077 23.922 26.153 23.656 26.123 23.392C26.093 23.127 25.959 22.885 25.75 22.72C25.319 22.38 24.693 22.451 24.35 22.88C23.335 24.163 21.479 24.397 20.178 23.405C18.877 22.413 18.611 20.561 19.579 19.243C20.548 17.924 22.395 17.625 23.73 18.57L22.65 19.65C22.501 19.787 22.456 20.005 22.54 20.19C22.617 20.377 22.798 20.499 23 20.5 H26C26.276 20.5 26.5 20.276 26.5 20 V17C26.499 16.798 26.377 16.617 26.19 16.54 M27 10 H17C15.343 10 14 11.343 14 13 V31C14 32.657 15.343 34 17 34 H27C28.657 34 30 32.657 30 31 V13C30 11.343 28.657 10 27 10 M28 29C28 29.276 27.776 29.5 27.5 29.5 H16.5C16.224 29.5 16 29.276 16 29 V13.5C16 13.224 16.224 13 16.5 13 H27.5C27.776 13 28 13.224 28 13.5 V29"></path></g></g></g><g id="g-root-ic_2_1d0istrxxbguh-fill" data-item-order="999999424" transform="translate(261.93798828125, 318)"><g id="ic_2_1d0istrxxbguh-fill-merged" stroke="none" fill="#2c2c2c" fill-opacity="1"><g><path d="M22 34C28.627 34 34 28.627 34 22C34 15.373 28.627 10 22 10C15.373 10 10 15.373 10 22C10 28.627 15.373 34 22 34 M28.45 21.19C28.384 20.638 28.778 20.136 29.33 20.07C29.882 20.004 30.384 20.398 30.45 20.95C30.487 21.299 30.503 21.649 30.5 22C30.499 22.401 30.472 22.802 30.42 23.2C30.383 23.465 30.242 23.703 30.027 23.863C29.813 24.023 29.544 24.09 29.28 24.05C28.737 23.968 28.362 23.463 28.44 22.92C28.48 22.615 28.5 22.308 28.5 22C28.498 21.729 28.482 21.459 28.45 21.19 M28.45 25.9C28.659 26.065 28.793 26.307 28.823 26.572C28.853 26.836 28.777 27.102 28.61 27.31C28.143 27.898 27.602 28.422 27 28.87C26.831 28.992 26.628 29.059 26.42 29.06C26.1 29.061 25.799 28.908 25.61 28.65C25.453 28.435 25.388 28.167 25.429 27.904C25.47 27.642 25.615 27.406 25.83 27.25C26.294 26.906 26.714 26.507 27.08 26.06C27.423 25.631 28.049 25.56 28.48 25.9 M22.78 30.46C22.514 30.475 22.246 30.475 21.98 30.46C21.606 30.457 21.232 30.433 20.86 30.39C20.308 30.318 19.918 29.812 19.99 29.26C20.062 28.708 20.568 28.318 21.12 28.39C21.409 28.425 21.699 28.445 21.99 28.45C22.193 28.46 22.397 28.46 22.6 28.45C23.152 28.397 23.643 28.803 23.695 29.355C23.748 29.907 23.342 30.398 22.79 30.45 M19.78 14.54C20.053 14.475 20.341 14.528 20.573 14.686C20.805 14.844 20.96 15.092 21 15.37C21.084 15.914 20.713 16.423 20.17 16.51C17.455 16.907 15.456 19.257 15.5 22C15.494 23.932 16.352 25.766 17.84 27C18.265 27.353 18.323 27.985 17.97 28.41C17.617 28.835 16.985 28.893 16.56 28.54C14.614 26.927 13.492 24.528 13.5 22C13.437 18.269 16.157 15.073 19.85 14.54 H19.78"></path></g></g></g><g id="g-root-ic_down_qqxdv3xxbfns-fill" data-item-order="999999424" transform="translate(197.93798828125, 231)"><g id="ic_down_qqxdv3xxbfns-fill-merged" stroke="none" fill="#2c2c2c" fill-opacity="1"><g><path d="M27.5 21C23.91 21 21 23.91 21 27.5C21 31.09 23.91 34 27.5 34C31.09 34 34 31.09 34 27.5C33.994 23.912 31.088 21.006 27.5 21 M30.29 28.06L27.89 31.06C27.795 31.178 27.652 31.247 27.5 31.247C27.348 31.247 27.205 31.178 27.11 31.06L24.71 28.06C24.592 27.909 24.569 27.704 24.65 27.53C24.734 27.358 24.909 27.25 25.1 27.25 H26C26.276 27.25 26.5 27.026 26.5 26.75 V24.5C26.5 23.948 26.948 23.5 27.5 23.5C28.052 23.5 28.5 23.948 28.5 24.5 V26.75C28.5 27.026 28.724 27.25 29 27.25 H29.9C30.091 27.25 30.266 27.358 30.35 27.53C30.431 27.704 30.408 27.909 30.29 28.06 M17 20C19.761 20 22 17.761 22 15C22 12.239 19.761 10 17 10C14.239 10 12 12.239 12 15C12 17.761 14.239 20 17 20 M14.1 14.26C14.141 14.106 14.252 13.98 14.4 13.92C14.539 13.855 14.701 13.855 14.84 13.92C15.925 14.605 17.177 14.979 18.46 15C18.771 14.997 19.082 14.973 19.39 14.93C19.544 14.91 19.699 14.962 19.81 15.07C19.926 15.177 19.982 15.334 19.96 15.49C19.706 17.031 18.311 18.12 16.754 17.992C15.197 17.864 13.999 16.562 14 15C14.002 14.75 14.035 14.501 14.1 14.26 M21.44 22C21.422 21.859 21.341 21.734 21.22 21.66C20.026 20.895 18.638 20.486 17.22 20.48C13.89 20.485 10.957 22.671 10 25.86C9.956 26.011 9.986 26.174 10.08 26.3C10.172 26.429 10.322 26.503 10.48 26.5 H19.14C19.382 26.503 19.59 26.329 19.63 26.09C19.876 24.742 20.461 23.479 21.33 22.42C21.435 22.307 21.476 22.15 21.44 22"></path></g></g></g><g id="g-root-tx_thedataf_deueenxxig3n-fill" data-item-order="1000000000" transform="translate(290, 158)"><g id="tx_thedataf_deueenxxig3n-fill-merged" stroke="none" fill="#f4f4f4" fill-opacity="1"><g><text style="font: 10.5px Roboto, sans-serif; white-space: pre;" transform="translate(58, 28)" font-size="10.5px" font-family="Roboto, sans-serif"><tspan x="-41.59" y="-6" dominant-baseline="ideographic">The data fetching </tspan><tspan x="-45.25" y="6" dominant-baseline="ideographic">process completes </tspan><tspan x="-30.92" y="18" dominant-baseline="ideographic">successfully.</tspan></text></g></g></g><g id="g-root-tx_thedataf_1unfhprxxig3l-fill" data-item-order="1000000000" transform="translate(164, 152)"><g id="tx_thedataf_1unfhprxxig3l-fill-merged" stroke="none" fill="#f4f4f4" fill-opacity="1"><g><text style="font: 10.5px Roboto, sans-serif; white-space: pre;" transform="translate(58, 22)" font-size="10.5px" font-family="Roboto, sans-serif"><tspan x="-42.14" y="0" dominant-baseline="ideographic">The data fetching </tspan><tspan x="-38.17" y="12" dominant-baseline="ideographic">process begins.</tspan></text></g></g></g><g id="g-root-tx_thereact_13z9isvxxih3b-fill" data-item-order="1000000000" transform="translate(50, 140)"><g id="tx_thereact_13z9isvxxih3b-fill-merged" stroke="none" fill="#f4f4f4" fill-opacity="1"><g><text style="font: 10.5px Roboto, sans-serif; white-space: pre;" transform="translate(46, 34)" font-size="10.5px" font-family="Roboto, sans-serif"><tspan x="-24.76" y="-12" dominant-baseline="ideographic">The React </tspan><tspan x="-33.2" y="0" dominant-baseline="ideographic">component is </tspan><tspan x="-33.49" y="12" dominant-baseline="ideographic">initialized and </tspan><tspan x="-23.34" y="24" dominant-baseline="ideographic">rendered.</tspan></text></g></g></g><g id="g-root-tx_thecompo_18i7ecvxxihhh-fill" data-item-order="1000000000" transform="translate(416, 128)"><g id="tx_thecompo_18i7ecvxxihhh-fill-merged" stroke="none" fill="#f4f4f4" fill-opacity="1"><g><text style="font: 10.5px Roboto, sans-serif; white-space: pre;" transform="translate(58, 28)" font-size="10.5px" font-family="Roboto, sans-serif"><tspan x="-43.97" y="-6" dominant-baseline="ideographic">The component re-</tspan><tspan x="-39.67" y="6" dominant-baseline="ideographic">renders to reflect </tspan><tspan x="-42.3" y="18" dominant-baseline="ideographic">the updated state.</tspan></text></g></g></g><g id="g-root-tx_response_18gyg6nxxifbe-fill" data-item-order="1000000000" transform="translate(302, 116)"><g id="tx_response_18gyg6nxxifbe-fill-merged" stroke="none" fill="#ffe711" fill-opacity="1"><g><text style="font: bold 12px Roboto, sans-serif; white-space: pre;" transform="translate(46, 28)" font-weight="bold" font-size="12px" font-family="Roboto, sans-serif"><tspan x="-28.11" y="0" dominant-baseline="ideographic">Response </tspan><tspan x="-24.45" y="14" dominant-baseline="ideographic">received</tspan></text></g></g></g><g id="g-root-tx_fetchsta_dcyz5bxxih3c-fill" data-item-order="1000000000" transform="translate(176, 122)"><g id="tx_fetchsta_dcyz5bxxih3c-fill-merged" stroke="none" fill="#43dd93" fill-opacity="1"><g><text style="font: bold 12px Roboto, sans-serif; white-space: pre;" transform="translate(46, 22)" font-weight="bold" font-size="12px" font-family="Roboto, sans-serif"><tspan x="-32.27" y="7" dominant-baseline="ideographic">Fetch starts</tspan></text></g></g></g><g id="g-root-tx_componen_1q9heunxxif4c-fill" data-item-order="1000000000" transform="translate(416, 86)"><g id="tx_componen_1q9heunxxif4c-fill-merged" stroke="none" fill="#fb6762" fill-opacity="1"><g><text style="font: bold 12px Roboto, sans-serif; white-space: pre;" transform="translate(58, 28)" font-weight="bold" font-size="12px" font-family="Roboto, sans-serif"><tspan x="-40.51" y="0" dominant-baseline="ideographic">Component re-</tspan><tspan x="-20.65" y="14" dominant-baseline="ideographic">renders</tspan></text></g></g></g><g id="g-root-tx_componen_dbq0z3xxiexa-fill" data-item-order="1000000000" transform="translate(50, 98)"><g id="tx_componen_dbq0z3xxiexa-fill-merged" stroke="none" fill="#4f91fc" fill-opacity="1"><g><text style="font: bold 12px Roboto, sans-serif; white-space: pre;" transform="translate(46, 28)" font-weight="bold" font-size="12px" font-family="Roboto, sans-serif"><tspan x="-32.77" y="0" dominant-baseline="ideographic">Component </tspan><tspan x="-21.91" y="14" dominant-baseline="ideographic">mounts</tspan></text></g></g></g><g id="g-root-tx_thecompo_zs6nvzxxh151-fill" data-item-order="1000000000" transform="translate(350, 482)"><g id="tx_thecompo_zs6nvzxxh151-fill-merged" stroke="none" fill="#f4f4f4" fill-opacity="1"><g><text style="font: 10.5px Roboto, sans-serif; white-space: pre;" transform="translate(58, 34)" font-size="10.5px" font-family="Roboto, sans-serif"><tspan x="-41.43" y="-12" dominant-baseline="ideographic">The component's </tspan><tspan x="-38.8" y="0" dominant-baseline="ideographic">state is updated </tspan><tspan x="-38.79" y="12" dominant-baseline="ideographic">with the fetched </tspan><tspan x="-13.09" y="24" dominant-baseline="ideographic">data.</tspan></text></g></g></g><g id="g-root-tx_basicdat_1ha3k33xx8m4m-fill" data-item-order="1000000000" transform="translate(134, 38)"><g id="tx_basicdat_1ha3k33xx8m4m-fill-merged" stroke="none" fill="#f4f4f4" fill-opacity="1"><g><text style="font: bold 20px Roboto, sans-serif; white-space: pre;" transform="translate(154, 22)" font-weight="bold" font-size="20px" font-family="Roboto, sans-serif"><tspan x="-136.13" y="12" dominant-baseline="ideographic">Basic Data Fetching Sequence</tspan></text></g></g></g><g id="g-root-tx_loadings_mfh7cfxxh0ju-fill" data-item-order="1000000000" transform="translate(230, 398)"><g id="tx_loadings_mfh7cfxxh0ju-fill-merged" stroke="none" fill="#a6da37" fill-opacity="1"><g><text style="font: bold 12px Roboto, sans-serif; white-space: pre;" transform="translate(52, 22)" font-weight="bold" font-size="12px" font-family="Roboto, sans-serif"><tspan x="-36.69" y="7" dominant-baseline="ideographic">Loading state</tspan></text></g></g></g><g id="g-root-tx_useeffec_18k2tm7xxh2bs-fill" data-item-order="1000000000" transform="translate(116, 422)"><g id="tx_useeffec_18k2tm7xxh2bs-fill-merged" stroke="none" fill="#1ac3fb" fill-opacity="1"><g><text style="font: bold 12px Roboto, sans-serif; white-space: pre;" transform="translate(40, 28)" font-weight="bold" font-size="12px" font-family="Roboto, sans-serif"><tspan x="-27.13" y="0" dominant-baseline="ideographic">useEffect </tspan><tspan x="-22.69" y="14" dominant-baseline="ideographic">triggers</tspan></text></g></g></g><g id="g-root-tx_thecompo_4o76unxxh2wz-fill" data-item-order="1000000000" transform="translate(224, 428)"><g id="tx_thecompo_4o76unxxh2wz-fill-merged" stroke="none" fill="#f4f4f4" fill-opacity="1"><g><text style="font: 10.5px Roboto, sans-serif; white-space: pre;" transform="translate(58, 34)" font-size="10.5px" font-family="Roboto, sans-serif"><tspan x="-37.96" y="-12" dominant-baseline="ideographic">The component </tspan><tspan x="-38.62" y="0" dominant-baseline="ideographic">enters a loading </tspan><tspan x="-44.74" y="12" dominant-baseline="ideographic">state while waiting </tspan><tspan x="-20.95" y="24" dominant-baseline="ideographic">for data.</tspan></text></g></g></g><g id="g-root-tx_stateupd_1hiu7anxxh1xo-fill" data-item-order="1000000000" transform="translate(356, 452)"><g id="tx_stateupd_1hiu7anxxh1xo-fill-merged" stroke="none" fill="#f79438" fill-opacity="1"><g><text style="font: bold 12px Roboto, sans-serif; white-space: pre;" transform="translate(52, 22)" font-weight="bold" font-size="12px" font-family="Roboto, sans-serif"><tspan x="-37.38" y="7" dominant-baseline="ideographic">State updates</tspan></text></g></g></g><g id="g-root-tx_theuseef_74qjzxxh1j5-fill" data-item-order="1000000000" transform="translate(98, 464)"><g id="tx_theuseef_74qjzxxh1j5-fill-merged" stroke="none" fill="#f4f4f4" fill-opacity="1"><g><text style="font: 10.5px Roboto, sans-serif; white-space: pre;" transform="translate(58, 34)" font-size="10.5px" font-family="Roboto, sans-serif"><tspan x="-45.81" y="-12" dominant-baseline="ideographic">The useEffect hook </tspan><tspan x="-33.36" y="0" dominant-baseline="ideographic">is activated to </tspan><tspan x="-30.48" y="12" dominant-baseline="ideographic">perform side </tspan><tspan x="-18.41" y="24" dominant-baseline="ideographic">effects.</tspan></text></g></g></g><g id="g-root-sy_-1_Vector_vbqoofxx77ri-stroke" data-item-order="999740237" transform="translate(52.934051513671875, 198)"><g id="sy_-1_Vector_vbqoofxx77ri-stroke" fill="none" stroke-linecap="round" stroke-linejoin="round" stroke-miterlimit="4" stroke="#f4f4f4" stroke-width="2" stroke-dasharray="5.0, 7.0" stroke-opacity="1"><style>.fillAsStrokeColor-mk-18k2wrzyheuis { fill:#f4f4f4; }</style><g><path d="M 450.659969 161.99L 450.659969 38.99C 450.659969 23.01 436.949969 10 420.089969 10C 403.229969 10 389.519969 23.01 389.519969 38.99L 389.519969 200.01C 389.519969 217.1 374.859969 231 356.839969 231C 338.809969 231 324.149969 217.1 324.149969 200.01C 324.149969 199.75 324.149969 199.5 324.159969 199.24L 324.159969 68.95C 324.159969 52.96 310.439969 39.96 293.579969 39.96C 276.719969 39.96 263.009969 52.96 263.009969 68.95L 263.009969 142.58C 263.009969 159.68 248.349969 173.58 230.329969 173.58C 212.309969 173.58 197.649969 159.68 197.649969 142.58L 197.649969 52.02C 197.649969 36.04 183.939969 23.04 167.079969 23.04C 150.219969 23.04 136.499969 36.04 136.499969 52.02L 136.499969 167.58C 136.499969 184.67 121.839969 198.57 103.819969 198.57C 85.799969 198.57 71.139969 184.67 71.139969 167.58L 71.139969 66.91C 71.139969 50.93 57.429969 37.92 40.569969 37.92C 23.709969 37.92 9.999969 50.93 9.999969 66.91L 9.999969 165.42"></path><path d="M 444.199969 156L 450.699969 162.5L 457.199969 156" stroke-dasharray="none"></path><path d="M 6.999969 165.424C 6.999969 167.080859 8.343115 168.424005 9.999969 168.424005C 11.656824 168.424005 12.999969 167.080859 12.999969 165.424005C 12.999969 163.76715 11.656824 162.424005 9.999969 162.424005C 8.343115 162.424005 6.999969 163.76715 6.999969 165.424005Z" stroke-dasharray="none" class="fillAsStrokeColor-mk-18k2wrzyheuis" fill="#f4f4f4"></path></g></g></g><g id="g-root-cp_1_g-1_qvx6jzxx78jr-stroke" data-item-order="999740238" transform="translate(59.93798828125, 235)"><g id="cp_1_g-1_qvx6jzxx78jr-stroke" fill="none" stroke-linecap="round" stroke-linejoin="round" stroke-miterlimit="4" stroke="#2c2c2c" stroke-width="2" stroke-opacity="1"><g><path d="M 10 34C 10.000001 47.254835 20.745167 58.000001 34.000001 58.000001C 47.254835 58.000001 58.000001 47.254835 58.000001 34.000001C 58.000001 20.745167 47.254835 10.000001 34.000001 10.000001C 20.745167 10.000001 10.000001 20.745167 10.000001 34.000001"></path></g></g></g><g id="g-root-cp_2_g-2_mgq5inxx7668-stroke" data-item-order="999740244" transform="translate(122.93798828125, 330)"><g id="cp_2_g-2_mgq5inxx7668-stroke" fill="none" stroke-linecap="round" stroke-linejoin="round" stroke-miterlimit="4" stroke="#2c2c2c" stroke-width="2" stroke-opacity="1"><g><path d="M 10 34C 10.000001 47.254835 20.745167 58.000001 34.000001 58.000001C 47.254835 58.000001 58.000001 47.254835 58.000001 34.000001C 58.000001 20.745167 47.254835 10.000001 34.000001 10.000001C 20.745167 10.000001 10.000001 20.745167 10.000001 34.000001"></path></g></g></g><g id="g-root-cp_3_g-3_dl359rxx76yx-stroke" data-item-order="999740250" transform="translate(185.93798828125, 219)"><g id="cp_3_g-3_dl359rxx76yx-stroke" fill="none" stroke-linecap="round" stroke-linejoin="round" stroke-miterlimit="4" stroke="#2c2c2c" stroke-width="2" stroke-opacity="1"><g><path d="M 10 34C 10.000001 47.254835 20.745167 58.000001 34.000001 58.000001C 47.254835 58.000001 58.000001 47.254835 58.000001 34.000001C 58.000001 20.745167 47.254835 10.000001 34.000001 10.000001C 20.745167 10.000001 10.000001 20.745167 10.000001 34.000001"></path></g></g></g><g id="g-root-cp_4_g-4_959n5bxx77r6-stroke" data-item-order="999740256" transform="translate(249.93798828125, 306)"><g id="cp_4_g-4_959n5bxx77r6-stroke" fill="none" stroke-linecap="round" stroke-linejoin="round" stroke-miterlimit="4" stroke="#2c2c2c" stroke-width="2" stroke-opacity="1"><g><path d="M 10 34C 10.000001 47.254835 20.745167 58.000001 34.000001 58.000001C 47.254835 58.000001 58.000001 47.254835 58.000001 34.000001C 58.000001 20.745167 47.254835 10.000001 34.000001 10.000001C 20.745167 10.000001 10.000001 20.745167 10.000001 34.000001"></path></g></g></g><g id="g-root-cp_5_g-5_959n5bxx77r7-stroke" data-item-order="999740262" transform="translate(312.93798828125, 236)"><g id="cp_5_g-5_959n5bxx77r7-stroke" fill="none" stroke-linecap="round" stroke-linejoin="round" stroke-miterlimit="4" stroke="#2c2c2c" stroke-width="2" stroke-opacity="1"><g><path d="M 10 34C 10.000001 47.254835 20.745167 58.000001 34.000001 58.000001C 47.254835 58.000001 58.000001 47.254835 58.000001 34.000001C 58.000001 20.745167 47.254835 10.000001 34.000001 10.000001C 20.745167 10.000001 10.000001 20.745167 10.000001 34.000001"></path></g></g></g><g id="g-root-cp_6_g-6_9mmwfxx78jw-stroke" data-item-order="999740268" transform="translate(375.93798828125, 363)"><g id="cp_6_g-6_9mmwfxx78jw-stroke" fill="none" stroke-linecap="round" stroke-linejoin="round" stroke-miterlimit="4" stroke="#2c2c2c" stroke-width="2" stroke-opacity="1"><g><path d="M 10 34C 10.000001 47.254835 20.745167 58.000001 34.000001 58.000001C 47.254835 58.000001 58.000001 47.254835 58.000001 34.000001C 58.000001 20.745167 47.254835 10.000001 34.000001 10.000001C 20.745167 10.000001 10.000001 20.745167 10.000001 34.000001"></path></g></g></g><g id="g-root-cp_7_g-7_1uux6r3xx7951-stroke" data-item-order="999740274" transform="translate(438.93798828125, 207)"><g id="cp_7_g-7_1uux6r3xx7951-stroke" fill="none" stroke-linecap="round" stroke-linejoin="round" stroke-miterlimit="4" stroke="#2c2c2c" stroke-width="2" stroke-opacity="1"><g><path d="M 10 34C 10.000001 47.254835 20.745167 58.000001 34.000001 58.000001C 47.254835 58.000001 58.000001 47.254835 58.000001 34.000001C 58.000001 20.745167 47.254835 10.000001 34.000001 10.000001C 20.745167 10.000001 10.000001 20.745167 10.000001 34.000001"></path></g></g></g><g id="g-root-ic_nati_qnt0fjxx8m4n-stroke" data-item-order="999999424" transform="translate(71.93798828125, 247)"></g><g id="g-root-ic_refr_1d1rqzzxxe9s3-stroke" data-item-order="999999424" transform="translate(387.93798828125, 375)"></g><g id="g-root-ic_file_v9v9f3xxctfm-stroke" data-item-order="999999424" transform="translate(324.93798828125, 248)"></g><g id="g-root-ic_3_i0wne7xx9zbi-stroke" data-item-order="999999424" transform="translate(134.93798828125, 342)"></g><g id="g-root-ic_refr_1lvjbzjxxfnd0-stroke" data-item-order="999999424" transform="translate(450.93798828125, 219)"></g><g id="g-root-ic_2_1d0istrxxbguh-stroke" data-item-order="999999424" transform="translate(261.93798828125, 318)"></g><g id="g-root-ic_down_qqxdv3xxbfns-stroke" data-item-order="999999424" transform="translate(197.93798828125, 231)"></g><g id="g-root-tx_thedataf_deueenxxig3n-stroke" data-item-order="1000000000" transform="translate(290, 158)"></g><g id="g-root-tx_thedataf_1unfhprxxig3l-stroke" data-item-order="1000000000" transform="translate(164, 152)"></g><g id="g-root-tx_thereact_13z9isvxxih3b-stroke" data-item-order="1000000000" transform="translate(50, 140)"></g><g id="g-root-tx_thecompo_18i7ecvxxihhh-stroke" data-item-order="1000000000" transform="translate(416, 128)"></g><g id="g-root-tx_response_18gyg6nxxifbe-stroke" data-item-order="1000000000" transform="translate(302, 116)"></g><g id="g-root-tx_fetchsta_dcyz5bxxih3c-stroke" data-item-order="1000000000" transform="translate(176, 122)"></g><g id="g-root-tx_componen_1q9heunxxif4c-stroke" data-item-order="1000000000" transform="translate(416, 86)"></g><g id="g-root-tx_componen_dbq0z3xxiexa-stroke" data-item-order="1000000000" transform="translate(50, 98)"></g><g id="g-root-tx_thecompo_zs6nvzxxh151-stroke" data-item-order="1000000000" transform="translate(350, 482)"></g><g id="g-root-tx_basicdat_1ha3k33xx8m4m-stroke" data-item-order="1000000000" transform="translate(134, 38)"></g><g id="g-root-tx_loadings_mfh7cfxxh0ju-stroke" data-item-order="1000000000" transform="translate(230, 398)"></g><g id="g-root-tx_useeffec_18k2tm7xxh2bs-stroke" data-item-order="1000000000" transform="translate(116, 422)"></g><g id="g-root-tx_thecompo_4o76unxxh2wz-stroke" data-item-order="1000000000" transform="translate(224, 428)"></g><g id="g-root-tx_stateupd_1hiu7anxxh1xo-stroke" data-item-order="1000000000" transform="translate(356, 452)"></g><g id="g-root-tx_theuseef_74qjzxxh1j5-stroke" data-item-order="1000000000" transform="translate(98, 464)"></g></g></g></svg>