<?xml version="1.0" encoding="utf-8" standalone="yes"?>
<!DOCTYPE svg PUBLIC "-//W3C//DTD SVG 1.1//EN" "http://www.w3.org/Graphics/SVG/1.1/DTD/svg11.dtd">
<svg style="fill:none;stroke:none;fill-rule:evenodd;clip-rule:evenodd;stroke-linecap:round;stroke-linejoin:round;stroke-miterlimit:1.5;" version="1.1" xmlns="http://www.w3.org/2000/svg" xmlns:xlink="http://www.w3.org/1999/xlink" width="912" height="684" viewBox="0 0 912 684"><style class="text-font-style fontImports" data-font-family="Roboto">@import url(https://fonts.googleapis.com/css2?family=Roboto:wght@400;700&amp;amp;display=block);</style><g id="items" style="isolation: isolate"><g id="blend" style="mix-blend-mode: normal"><g id="g-root-cp_1_g-1_1hapi6z6gmmtj-fill" data-item-order="-508022" transform="translate(297.1679992675781, 206)"><g id="cp_1_g-1_1hapi6z6gmmtj-fill-merged" stroke="none" fill="#e0cb15" fill-opacity="1"><g><path d="M92.162 76C92.162 112.451 121.711 142 158.162 142C194.613 142 224.162 112.451 224.162 76C224.162 39.549 194.613 10 158.162 10C121.711 10 92.162 39.549 92.162 76"></path></g></g><g id="cp_1_g-1_1hapi6z6gmmtj-fill-merged" stroke="none" fill="#e0cb15" fill-opacity="1"><g><path d="M216.337 107.2C221.33 97.91 224.162 87.286 224.162 76.001C224.162 73.667 224.041 71.361 223.805 69.09C227.675 70.62 231.497 72.294 235.262 74.108C261.251 86.633 283.667 105.468 300.477 128.87L325.881 118.175L304.165 174.675L248.461 150.768L264.285 144.107C251.916 129.057 236.394 116.837 218.764 108.34C217.958 107.952 217.149 107.572 216.337 107.2 M100.906 108.853C95.686 111.425 90.621 114.342 85.747 117.591C69.002 128.754 55.009 143.507 44.76 160.732L34.626 134.367L10 144.936C23.305 121.284 42.025 101.068 64.67 85.972C73.454 80.116 82.723 75.102 92.351 70.972C92.226 72.632 92.162 74.309 92.162 76.001C92.162 87.961 95.344 99.179 100.906 108.853"></path></g></g></g><g id="g-root-cp_2_g-2_1cuw02j6gmnls-fill" data-item-order="-508016" transform="translate(415.10400390625, 346.20703125)"><g id="cp_2_g-2_1cuw02j6gmnls-fill-merged" stroke="none" fill="#de8431" fill-opacity="1"><g><path d="M121.945 177.313C121.945 213.763 151.495 243.313 187.945 243.313C224.396 243.313 253.945 213.763 253.945 177.313C253.945 140.862 224.396 111.313 187.945 111.313C151.495 111.313 121.945 140.862 121.945 177.313"></path></g></g><g id="cp_2_g-2_1cuw02j6gmnls-fill-merged" stroke="none" fill="#de8431" fill-opacity="1"><g><path d="M186.229 34.467L160.011 23.215L159.688 23.397C171.146 43.779 177.093 66.796 176.943 90.178C176.894 97.723 176.211 105.222 174.915 112.6C179.127 111.756 183.484 111.313 187.945 111.313C196.754 111.313 205.159 113.039 212.842 116.171C214.18 107.681 214.886 99.075 214.942 90.422C215.122 62.416 208.481 34.819 195.633 10L186.229 34.467 M145.374 227.75C135.599 219.492 128.258 208.443 124.579 195.833C119.988 199.374 115.159 202.625 110.117 205.561C92.839 215.622 73.573 221.684 53.733 223.357L53.89 196.313L10 237.997L53.402 280.313L53.511 261.477C80.158 259.761 106.089 251.879 129.239 238.399C134.828 235.145 140.214 231.588 145.374 227.75"></path></g></g></g><g id="g-root-cp_3_g-3_13z8ztn6gmoeh-fill" data-item-order="-508010" transform="translate(233, 330.366943359375)"><g id="cp_3_g-3_13z8ztn6gmoeh-fill-merged" stroke="none" fill="#e55753" fill-opacity="1"><g><path d="M10 193.152C10 229.603 39.549 259.152 76 259.152C112.451 259.152 142 229.603 142 193.152C142 156.702 112.451 127.152 76 127.152C39.549 127.152 10 156.702 10 193.152"></path></g></g><g id="cp_3_g-3_13z8ztn6gmoeh-fill-merged" stroke="none" fill="#e55753" fill-opacity="1"><g><path d="M63.749 42.603L43.091 33.906L98.795 10L120.511 66.5L98.788 57.355C92.023 75.151 89.096 94.229 90.259 113.329C90.583 118.651 91.222 123.933 92.167 129.148C86.994 127.846 81.578 127.154 76 127.154C68.266 127.154 60.842 128.484 53.946 130.928C53.182 125.871 52.641 120.769 52.329 115.639C50.81 90.696 54.731 65.782 63.749 42.603 M119.968 242.376C128.094 248.568 136.785 254.049 145.949 258.738C167.87 269.954 191.88 276.319 216.354 277.48L192.105 253.837L208.081 238.664C192.507 236.745 177.33 232.109 163.258 224.909C154.935 220.651 147.113 215.554 139.904 209.72C136.593 222.526 129.535 233.825 119.968 242.376"></path></g></g></g><g id="g-root-ic_shar_m8lgez6gmnlv-fill" data-item-order="-3600" transform="translate(416, 242)"><g id="ic_shar_m8lgez6gmnlv-fill-merged" stroke="none" fill="#ffffff" fill-opacity="1"><g><path d="M28.125 37.5 H14.375C11.964 37.514 10.014 39.464 10 41.875 V65.625C10.014 68.036 11.964 69.986 14.375 70 H28.125C30.541 70 32.5 68.041 32.5 65.625 V41.875C32.5 39.459 30.541 37.5 28.125 37.5 M14.375 41.25 H28.125C28.47 41.25 28.75 41.53 28.75 41.875 V60 H13.75 V42C13.712 41.814 13.761 41.621 13.882 41.475C14.004 41.329 14.185 41.246 14.375 41.25 M65.625 10 H46.875C44.464 10.014 42.514 11.964 42.5 14.375 V31.875C42.514 34.286 44.464 36.236 46.875 36.25 H65.625C68.036 36.236 69.986 34.286 70 31.875 V14.375C69.986 11.964 68.036 10.014 65.625 10 M57.5 18.925 V23.925 H46.25 V18.925 H57.5 M61.25 18.925 H66.25 V23.925 H61.25 V18.925 M46.25 31.875 V27.625 H57.5 V32.5 H46.875C46.53 32.5 46.25 32.22 46.25 31.875 M65.625 32.5 H61.3 V27.625 H66.3 V31.875C66.301 32.05 66.228 32.217 66.1 32.336C65.971 32.454 65.799 32.514 65.625 32.5 M39.525 15.925L33.9 10.525C33.363 10.001 32.564 9.853 31.875 10.15C31.18 10.442 30.727 11.121 30.725 11.875 V15.4 H28.85C23.76 15.33 19.571 19.386 19.475 24.475 V25.3 H15.725C14.961 25.3 14.273 25.765 13.987 26.474C13.701 27.183 13.875 27.995 14.425 28.525L20 33.925C20.732 34.656 21.918 34.656 22.65 33.925L28.275 28.525C28.825 27.995 28.999 27.183 28.713 26.474C28.427 25.765 27.739 25.3 26.975 25.3 H23.225 V24.475C23.32 21.457 25.831 19.08 28.85 19.15 H30.725 V22.675C30.727 23.429 31.18 24.108 31.875 24.4C32.073 24.487 32.284 24.538 32.5 24.55C32.986 24.555 33.454 24.366 33.8 24.025L39.425 18.625C39.812 18.289 40.042 17.808 40.061 17.297C40.08 16.785 39.886 16.288 39.525 15.925"></path></g></g></g><g id="g-root-ic_exch_1q9gvvf6go0le-fill" data-item-order="-3600" transform="translate(271.95001220703125, 483.52001953125)"><g id="ic_exch_1q9gvvf6go0le-fill-merged" stroke="none" fill="#ffffff" fill-opacity="1"><g><path d="M24.325 23.125 H19.675C18.639 23.125 17.8 23.964 17.8 25C17.8 26.036 18.639 26.875 19.675 26.875 H24.325C25.361 26.875 26.2 26.036 26.2 25C26.2 23.964 25.361 23.125 24.325 23.125 M37.5 10.625 H16.825C13.591 10.273 10.679 12.594 10.3 15.825 V28.75C10.202 32.451 13.124 35.53 16.825 35.625 H37.5C39.282 35.586 40.974 34.838 42.203 33.548C43.432 32.258 44.097 30.531 44.05 28.75 V15.825C43.671 12.584 40.743 10.259 37.5 10.625 M37.5 31.875 H16.825C15.201 31.768 13.964 30.375 14.05 28.75 V20C14.05 19.655 14.33 19.375 14.675 19.375 H39.675C40.02 19.375 40.3 19.655 40.3 20 V28.75C40.385 30.385 39.134 31.781 37.5 31.875 M35.725 60.95L28.225 55.95C27.652 55.576 26.92 55.544 26.316 55.866C25.712 56.189 25.332 56.815 25.325 57.5 V57.925C25.322 58.149 25.199 58.355 25.002 58.463C24.806 58.572 24.567 58.567 24.375 58.45C21.47 56.622 19.705 53.432 19.7 50C19.7 48.619 18.581 47.5 17.2 47.5C15.819 47.5 14.7 48.619 14.7 50C14.719 56.457 18.868 62.177 25 64.2C25.252 64.293 25.421 64.531 25.425 64.8 V67.5C25.438 68.53 26.27 69.362 27.3 69.375C27.675 69.379 28.042 69.265 28.35 69.05L35.85 64.05C36.363 63.701 36.67 63.121 36.67 62.5C36.67 61.879 36.363 61.299 35.85 60.95 H35.725 M48.65 19.075L56.15 24.075C56.744 24.424 57.481 24.424 58.075 24.075C58.664 23.765 59.045 23.165 59.075 22.5 V22.075C59.083 21.858 59.203 21.661 59.391 21.555C59.58 21.448 59.81 21.446 60 21.55C62.915 23.372 64.69 26.563 64.7 30C64.7 31.381 65.819 32.5 67.2 32.5C68.581 32.5 69.7 31.381 69.7 30C69.695 23.57 65.592 17.858 59.5 15.8C59.248 15.707 59.079 15.469 59.075 15.2 V12.5C59.077 11.813 58.703 11.18 58.1 10.85C57.509 10.49 56.766 10.49 56.175 10.85L48.675 15.85C48.144 16.186 47.822 16.771 47.825 17.4C47.793 18.063 48.105 18.696 48.65 19.075 M64.675 34.375 H52.175C49.764 34.389 47.814 36.339 47.8 38.75 V65C47.73 67.329 49.547 69.28 51.875 69.375 H65C67.318 69.267 69.121 67.319 69.05 65 V38.75C69.036 36.339 67.086 34.389 64.675 34.375 M58.425 66.875C57.389 66.875 56.55 66.036 56.55 65C56.55 63.964 57.389 63.125 58.425 63.125C59.461 63.125 60.3 63.964 60.3 65C60.287 66.03 59.455 66.862 58.425 66.875 M52.175 38.125 H64.675C65.02 38.125 65.3 38.405 65.3 38.75 V60C65.3 60.345 65.02 60.625 64.675 60.625 H52.175C51.83 60.625 51.55 60.345 51.55 60 V38.75C51.55 38.405 51.83 38.125 52.175 38.125"></path></g></g></g><g id="g-root-ic_2_vah7iz6gmoe8-fill" data-item-order="-3600" transform="translate(566, 482)"><g id="ic_2_vah7iz6gmoe8-fill-merged" stroke="none" fill="#ffffff" fill-opacity="1"><g><path d="M42.292 20.76C43.747 18.067 46.49 16.227 49.555 16.227C51.786 16.216 53.929 17.098 55.506 18.675C57.084 20.253 57.965 22.396 57.952 24.627 V26.065 H54.352C53.382 26.065 52.506 26.649 52.134 27.546C51.763 28.443 51.968 29.476 52.655 30.162L58.655 36.162C59.592 37.099 61.11 37.099 62.047 36.162L68.048 30.162C68.734 29.476 68.94 28.443 68.568 27.546C68.197 26.649 67.321 26.065 66.35 26.065 H62.75 V24.625C62.763 21.121 61.376 17.757 58.899 15.279C56.421 12.801 53.057 11.415 49.553 11.427C43.7 11.427 38.935 15.43 37.155 20.565 H18.345C14.429 20.572 11.257 23.744 11.25 27.66 V55.36C11.257 59.276 14.429 62.448 18.345 62.455 H37.5C39.78 66.185 43.86 68.573 48.595 68.573C52.099 68.585 55.462 67.198 57.939 64.72C60.417 62.242 61.803 58.879 61.79 55.375 V51.775C61.79 50.449 60.716 49.374 59.39 49.374C58.064 49.374 56.99 50.449 56.99 51.775 V55.375C57.003 57.606 56.123 59.75 54.546 61.328C52.969 62.906 50.826 63.787 48.595 63.775C46.674 63.797 44.805 63.145 43.315 61.933C45.986 60.842 47.734 58.247 47.74 55.362 V27.663C47.733 24.38 45.481 21.528 42.29 20.76 M20.54 31.435C20.54 30.11 21.615 29.035 22.94 29.035 H36.052C37.347 29.077 38.375 30.138 38.375 31.434C38.375 32.729 37.347 33.791 36.052 33.832 H22.94C21.615 33.832 20.54 32.758 20.54 31.432 M16.05 27.658C16.05 26.4 17.087 25.362 18.345 25.362 H40.645C41.903 25.362 42.943 26.4 42.943 27.658 V37.295 H16.05 V27.66 M31.995 44.77C31.995 46.151 30.876 47.27 29.495 47.27C28.114 47.27 26.995 46.151 26.995 44.77C26.995 43.389 28.114 42.27 29.495 42.27C30.876 42.27 31.995 43.389 31.995 44.77 M29.495 56.1C30.876 56.1 31.995 54.981 31.995 53.6C31.995 52.219 30.876 51.1 29.495 51.1C28.114 51.1 26.995 52.219 26.995 53.6C26.995 54.981 28.114 56.1 29.495 56.1 M23.233 44.77C23.233 46.151 22.113 47.27 20.733 47.27C19.352 47.27 18.233 46.151 18.233 44.77C18.233 43.389 19.352 42.27 20.733 42.27C22.113 42.27 23.233 43.389 23.233 44.77 M20.733 56.1C22.113 56.1 23.233 54.981 23.233 53.6C23.233 52.219 22.113 51.1 20.733 51.1C19.352 51.1 18.233 52.219 18.233 53.6C18.233 54.981 19.352 56.1 20.733 56.1 M40.757 44.77C40.757 46.151 39.638 47.27 38.257 47.27C36.877 47.27 35.757 46.151 35.757 44.77C35.757 43.389 36.877 42.27 38.257 42.27C39.638 42.27 40.757 43.389 40.757 44.77 M38.257 56.1C39.638 56.1 40.757 54.981 40.757 53.6C40.757 52.219 39.638 51.1 38.257 51.1C36.877 51.1 35.757 52.219 35.757 53.6C35.757 54.981 36.877 56.1 38.257 56.1"></path></g></g></g><g id="g-root-tx_reactsta_zk1ysb6gmm0y-fill" data-item-order="0" transform="translate(266, 38)"><g id="tx_reactsta_zk1ysb6gmm0y-fill-merged" stroke="none" fill="#484848" fill-opacity="1"><g><text style="font: bold 25px Roboto, sans-serif; white-space: pre;" transform="translate(190, 28)" font-weight="bold" font-size="25px" font-family="Roboto, sans-serif"><tspan x="-176.11" y="15" dominant-baseline="ideographic">React State Management Cycle</tspan></text></g></g></g><g id="g-root-tx_statecha_1d3066z6go1l2-fill" data-item-order="0" transform="translate(380, 98)"><g id="tx_statecha_1d3066z6go1l2-fill-merged" stroke="none" fill="#e0cb15" fill-opacity="1"><g><text style="font: bold 20px Roboto, sans-serif; white-space: pre;" transform="translate(76, 22)" font-weight="bold" font-size="20px" font-family="Roboto, sans-serif"><tspan x="-60.38" y="12" dominant-baseline="ideographic">State Change</tspan></text></g></g></g><g id="g-root-tx_datainth_147d5y36go2dr-fill" data-item-order="0" transform="translate(356, 134)"><g id="tx_datainth_147d5y36go2dr-fill-merged" stroke="none" fill="#484848" fill-opacity="1"><g><text style="font: 15px Roboto, sans-serif; white-space: pre;" transform="translate(100, 28)" font-size="15px" font-family="Roboto, sans-serif"><tspan x="-83.92" y="0" dominant-baseline="ideographic">Data in the application is </tspan><tspan x="-33.11" y="18" dominant-baseline="ideographic">modified.</tspan></text></g></g></g><g id="g-root-tx_interact_i0w4ez6go2de-fill" data-item-order="0" transform="translate(62, 482)"><g id="tx_interact_i0w4ez6go2de-fill-merged" stroke="none" fill="#e55753" fill-opacity="1"><g><text style="font: bold 20px Roboto, sans-serif; white-space: pre;" transform="translate(142, 22)" font-weight="bold" font-size="20px" font-family="Roboto, sans-serif"><tspan x="-121.63" y="12" dominant-baseline="ideographic">Interactive UI</tspan></text></g></g></g><g id="g-root-tx_rerender_vccmsb6go0sg-fill" data-item-order="0" transform="translate(698, 482)"><g id="tx_rerender_vccmsb6go0sg-fill-merged" stroke="none" fill="#de8431" fill-opacity="1"><g><text style="font: bold 20px Roboto, sans-serif; white-space: pre;" transform="translate(10, 34)" font-weight="bold" font-size="20px" font-family="Roboto, sans-serif"><tspan x="2" y="0" dominant-baseline="ideographic">Re-render </tspan><tspan x="2" y="24" dominant-baseline="ideographic">Component</tspan></text></g></g></g><g id="g-root-tx_usersexp_9594636go363-fill" data-item-order="0" transform="translate(26, 518)"><g id="tx_usersexp_9594636go363-fill-merged" stroke="none" fill="#484848" fill-opacity="1"><g><text style="font: 15px Roboto, sans-serif; white-space: pre;" transform="translate(178, 40)" font-size="15px" font-family="Roboto, sans-serif"><tspan x="-128.41" y="-9" dominant-baseline="ideographic">Users experience a </tspan><tspan x="-163.42" y="9" dominant-baseline="ideographic">dynamic and responsive </tspan><tspan x="-65.13" y="27" dominant-baseline="ideographic">interface.</tspan></text></g></g></g><g id="g-root-tx_reactupd_mgpmjf6go1l5-fill" data-item-order="0" transform="translate(698, 542)"><g id="tx_reactupd_mgpmjf6go1l5-fill-merged" stroke="none" fill="#484848" fill-opacity="1"><g><text style="font: 15px Roboto, sans-serif; white-space: pre;" transform="translate(10, 28)" font-size="15px" font-family="Roboto, sans-serif"><tspan x="2" y="0" dominant-baseline="ideographic">React updates the UI to </tspan><tspan x="2" y="18" dominant-baseline="ideographic">reflect changes.</tspan></text></g></g></g><g id="g-root-cp_1_g-1_1hapi6z6gmmtj-stroke" data-item-order="-508022" transform="translate(297.1679992675781, 206)"><g id="cp_1_g-1_1hapi6z6gmmtj-stroke" fill="none" stroke-linecap="round" stroke-linejoin="round" stroke-miterlimit="4" stroke="#ffffff" stroke-width="2" stroke-opacity="1"><g><path d="M 92.162109 76C 92.162111 112.450795 121.711318 142.000002 158.162111 142.000002C 194.612905 142.000002 224.162111 112.450795 224.162111 76.000002C 224.162111 39.549208 194.612905 10.000002 158.162111 10.000002C 121.711318 10.000002 92.162111 39.549208 92.162111 76.000002"></path></g></g><g id="cp_1_g-1_1hapi6z6gmmtj-stroke" fill="none" stroke-linecap="round" stroke-linejoin="round" stroke-miterlimit="4" stroke="#ffffff" stroke-width="2" stroke-opacity="1"><g><path d="M 216.3369 107.200144C 221.3297 97.910044 224.1621 87.286244 224.1621 76.000944C 224.1621 73.666944 224.041 71.361244 223.8046 69.089844C 227.6751 70.620444 231.4967 72.293744 235.2615 74.108144C 261.2506 86.633444 283.667 105.467944 300.4773 128.869644L 325.8813 118.174644L 304.165 174.674644L 248.4611 150.768444L 264.2848 144.106744C 251.9157 129.057244 236.394 116.836844 218.7637 108.340044C 217.9581 107.951744 217.1491 107.571844 216.3369 107.200144ZM 100.9064 108.852944C 95.6856 111.425344 90.621 114.341844 85.7474 117.590644C 69.0017 128.753544 55.0093 143.507344 44.76 160.731744L 34.6265 134.367144L 10 144.935944C 23.3052 121.283844 42.0246 101.067644 64.67 85.971944C 73.4544 80.116144 82.7227 75.102144 92.3508 70.972144C 92.2258 72.632044 92.1621 74.309044 92.1621 76.000944C 92.1621 87.961344 95.3436 99.178744 100.9064 108.852944Z"></path></g></g></g><g id="g-root-cp_2_g-2_1cuw02j6gmnls-stroke" data-item-order="-508016" transform="translate(415.10400390625, 346.20703125)"><g id="cp_2_g-2_1cuw02j6gmnls-stroke" fill="none" stroke-linecap="round" stroke-linejoin="round" stroke-miterlimit="4" stroke="#ffffff" stroke-width="2" stroke-opacity="1"><g><path d="M 121.945313 177.3125C 121.945314 213.763295 151.494521 243.312502 187.945314 243.312502C 224.396108 243.312502 253.945314 213.763295 253.945314 177.312502C 253.945314 140.861708 224.396108 111.312502 187.945314 111.312502C 151.494521 111.312502 121.945314 140.861708 121.945314 177.312502"></path></g></g><g id="cp_2_g-2_1cuw02j6gmnls-stroke" fill="none" stroke-linecap="round" stroke-linejoin="round" stroke-miterlimit="4" stroke="#ffffff" stroke-width="2" stroke-opacity="1"><g><path d="M 186.2287 34.4671L 160.011 23.2153L 159.6884 23.3967C 171.1459 43.7792 177.0928 66.7961 176.9426 90.1777C 176.8941 97.7231 176.2112 105.2224 174.9146 112.5995C 179.1271 111.756 183.4845 111.3134 187.9453 111.3134C 196.7538 111.3134 205.1593 113.039 212.8421 116.1706C 214.18 107.6814 214.8862 99.0753 214.9418 90.4219C 215.1217 62.4162 208.4812 34.8185 195.6329 10L 186.2287 34.4671ZM 145.374 227.7502C 135.5994 219.4916 128.2583 208.443 124.579 195.833C 119.9882 199.3737 115.159 202.6249 110.1171 205.5609C 92.8386 215.6222 73.5727 221.6838 53.733 223.3574L 53.8902 196.3134L 10 237.9967L 53.4019 280.3134L 53.5114 261.4769C 80.1577 259.7612 106.0893 251.8794 129.239 238.3991C 134.8282 235.1445 140.2137 231.5877 145.374 227.7502Z"></path></g></g></g><g id="g-root-cp_3_g-3_13z8ztn6gmoeh-stroke" data-item-order="-508010" transform="translate(233, 330.366943359375)"><g id="cp_3_g-3_13z8ztn6gmoeh-stroke" fill="none" stroke-linecap="round" stroke-linejoin="round" stroke-miterlimit="4" stroke="#ffffff" stroke-width="2" stroke-opacity="1"><g><path d="M 10 193.152344C 10.000002 229.603139 39.549208 259.152346 76.000002 259.152346C 112.450795 259.152346 142.000002 229.603139 142.000002 193.152346C 142.000002 156.701552 112.450795 127.152346 76.000002 127.152346C 39.549208 127.152346 10.000002 156.701552 10.000002 193.152346"></path></g></g><g id="cp_3_g-3_13z8ztn6gmoeh-stroke" fill="none" stroke-linecap="round" stroke-linejoin="round" stroke-miterlimit="4" stroke="#ffffff" stroke-width="2" stroke-opacity="1"><g><path d="M 63.74872 42.6031L 43.09082 33.9062L 98.79472 10L 120.51102 66.5L 98.78842 57.3549C 92.02332 75.1513 89.09552 94.2294 90.25852 113.3293C 90.58252 118.6514 91.22162 123.9332 92.16702 129.1483C 86.99372 127.8457 81.57772 127.1538 76.00002 127.1538C 68.26582 127.1538 60.84242 128.4841 53.94602 130.9284C 53.18182 125.8706 52.64112 120.7693 52.32872 115.6388C 50.81002 90.6959 54.73102 65.7821 63.74872 42.6031ZM 119.96832 242.3765C 128.09442 248.5684 136.78472 254.0495 145.94902 258.7383C 167.86982 269.954 191.88032 276.3189 216.35372 277.48L 192.10452 253.8371L 208.08052 238.6644C 192.50702 236.7455 177.33002 232.1093 163.25752 224.9091C 154.93452 220.6507 147.11272 215.5542 139.90372 209.7198C 136.59332 222.5263 129.53482 233.8252 119.96832 242.3765Z"></path></g></g></g><g id="g-root-ic_shar_m8lgez6gmnlv-stroke" data-item-order="-3600" transform="translate(416, 242)"></g><g id="g-root-ic_exch_1q9gvvf6go0le-stroke" data-item-order="-3600" transform="translate(271.95001220703125, 483.52001953125)"></g><g id="g-root-ic_2_vah7iz6gmoe8-stroke" data-item-order="-3600" transform="translate(566, 482)"></g><g id="g-root-tx_reactsta_zk1ysb6gmm0y-stroke" data-item-order="0" transform="translate(266, 38)"></g><g id="g-root-tx_statecha_1d3066z6go1l2-stroke" data-item-order="0" transform="translate(380, 98)"></g><g id="g-root-tx_datainth_147d5y36go2dr-stroke" data-item-order="0" transform="translate(356, 134)"></g><g id="g-root-tx_interact_i0w4ez6go2de-stroke" data-item-order="0" transform="translate(62, 482)"></g><g id="g-root-tx_rerender_vccmsb6go0sg-stroke" data-item-order="0" transform="translate(698, 482)"></g><g id="g-root-tx_usersexp_9594636go363-stroke" data-item-order="0" transform="translate(26, 518)"></g><g id="g-root-tx_reactupd_mgpmjf6go1l5-stroke" data-item-order="0" transform="translate(698, 542)"></g></g></g></svg>