<?xml version="1.0" encoding="utf-8" standalone="yes"?>
<!DOCTYPE svg PUBLIC "-//W3C//DTD SVG 1.1//EN" "http://www.w3.org/Graphics/SVG/1.1/DTD/svg11.dtd">
<svg style="fill:none;stroke:none;fill-rule:evenodd;clip-rule:evenodd;stroke-linecap:round;stroke-linejoin:round;stroke-miterlimit:1.5;" version="1.1" xmlns="http://www.w3.org/2000/svg" xmlns:xlink="http://www.w3.org/1999/xlink" width="888" height="954" viewBox="0 0 888 954"><style class="text-font-style fontImports" data-font-family="Roboto">@import url(https://fonts.googleapis.com/css2?family=Roboto:wght@400;700&amp;amp;display=block);</style><g id="items" style="isolation: isolate"><g id="blend" style="mix-blend-mode: normal"><g id="g-root-cp_5_g-5_1hd80lrz1dz49-fill" data-item-order="-720712" transform="translate(434, 746)"><g id="cp_5_g-5_1hd80lrz1dz49-fill-merged" stroke="none" fill="#de8431" fill-opacity="1"><g><path d="M346.789 130C379.523 130 406 103.137 406 70C406 36.863 379.523 10 346.789 10 H106L106.987 10.5C127.809 21.97 141.941 44.314 141.941 70C141.941 95.686 127.809 118.03 106.987 129.5L106 130 H346.789"></path></g></g><g id="cp_5_g-5_1hd80lrz1dz49-fill-merged" stroke="none" fill="#de8431" fill-opacity="1"><g><path d="M130 70C130 103.137 103.137 130 70 130C36.863 130 10 103.137 10 70C10 36.863 36.863 10 70 10C103.137 10 130 36.863 130 70 M25.08 70C25.08 94.808 45.192 114.92 70 114.92C94.808 114.92 114.92 94.808 114.92 70C114.92 45.192 94.808 25.08 70 25.08C45.192 25.08 25.08 45.192 25.08 70"></path></g></g></g><g id="g-root-cp_4_g-4_141ri8fz1e0p6-fill" data-item-order="-720696" transform="translate(434, 590)"><g id="cp_4_g-4_141ri8fz1e0p6-fill-merged" stroke="none" fill="#e0cb15" fill-opacity="1"><g><path d="M346.789 130C379.523 130 406 103.137 406 70C406 36.863 379.523 10 346.789 10 H106L106.987 10.5C127.809 21.97 141.941 44.314 141.941 70C141.941 95.686 127.809 118.03 106.987 129.5L106 130 H346.789"></path></g></g><g id="cp_4_g-4_141ri8fz1e0p6-fill-merged" stroke="none" fill="#e0cb15" fill-opacity="1"><g><path d="M130 70C130 103.137 103.137 130 70 130C36.863 130 10 103.137 10 70C10 36.863 36.863 10 70 10C103.137 10 130 36.863 130 70 M25.08 70C25.08 94.808 45.192 114.92 70 114.92C94.808 114.92 114.92 94.808 114.92 70C114.92 45.192 94.808 25.08 70 25.08C45.192 25.08 25.08 45.192 25.08 70"></path></g></g></g><g id="g-root-cp_3_g-3_zly03zz1e1hf-fill" data-item-order="-720680" transform="translate(434, 434)"><g id="cp_3_g-3_zly03zz1e1hf-fill-merged" stroke="none" fill="#92bd39" fill-opacity="1"><g><path d="M346.789 130C379.523 130 406 103.137 406 70C406 36.863 379.523 10 346.789 10 H106L106.987 10.5C127.809 21.97 141.941 44.314 141.941 70C141.941 95.686 127.809 118.03 106.987 129.5L106 130 H346.789"></path></g></g><g id="cp_3_g-3_zly03zz1e1hf-fill-merged" stroke="none" fill="#92bd39" fill-opacity="1"><g><path d="M130 70C130 103.137 103.137 130 70 130C36.863 130 10 103.137 10 70C10 36.863 36.863 10 70 10C103.137 10 130 36.863 130 70 M25.08 70C25.08 94.808 45.192 114.92 70 114.92C94.808 114.92 114.92 94.808 114.92 70C114.92 45.192 94.808 25.08 70 25.08C45.192 25.08 25.08 45.192 25.08 70"></path></g></g></g><g id="g-root-cp_2_g-2_mb3ytrz1dzwk-fill" data-item-order="-720664" transform="translate(434, 278)"><g id="cp_2_g-2_mb3ytrz1dzwk-fill-merged" stroke="none" fill="#3cc583" fill-opacity="1"><g><path d="M346.789 130C379.523 130 406 103.137 406 70C406 36.863 379.523 10 346.789 10 H106L106.987 10.5C127.809 21.97 141.941 44.314 141.941 70C141.941 95.686 127.809 118.03 106.987 129.5L106 130 H346.789"></path></g></g><g id="cp_2_g-2_mb3ytrz1dzwk-fill-merged" stroke="none" fill="#3cc583" fill-opacity="1"><g><path d="M130 70C130 103.137 103.137 130 70 130C36.863 130 10 103.137 10 70C10 36.863 36.863 10 70 10C103.137 10 130 36.863 130 70 M25.08 70C25.08 94.808 45.192 114.92 70 114.92C94.808 114.92 114.92 94.808 114.92 70C114.92 45.192 94.808 25.08 70 25.08C45.192 25.08 25.08 45.192 25.08 70"></path></g></g></g><g id="g-root-cp_1_g-1_8znggfz1e1hh-fill" data-item-order="-720648" transform="translate(434, 122)"><g id="cp_1_g-1_8znggfz1e1hh-fill-merged" stroke="none" fill="#1eabda" fill-opacity="1"><g><path d="M346.789 130C379.523 130 406 103.137 406 70C406 36.863 379.523 10 346.789 10 H106L106.987 10.5C127.809 21.97 141.941 44.314 141.941 70C141.941 95.686 127.809 118.03 106.987 129.5L106 130 H346.789"></path></g></g><g id="cp_1_g-1_8znggfz1e1hh-fill-merged" stroke="none" fill="#1eabda" fill-opacity="1"><g><path d="M130 70C130 103.137 103.137 130 70 130C36.863 130 10 103.137 10 70C10 36.863 36.863 10 70 10C103.137 10 130 36.863 130 70 M25.08 70C25.08 94.808 45.192 114.92 70 114.92C94.808 114.92 114.92 94.808 114.92 70C114.92 45.192 94.808 25.08 70 25.08C45.192 25.08 25.08 45.192 25.08 70"></path></g></g></g><g id="g-root-cp_0_g-0_1upxh5bz1dzpi-fill" data-item-order="-720630" transform="translate(38, 386)"><g id="cp_0_g-0_1upxh5bz1dzpi-fill-merged" stroke="none" fill="#666666" fill-opacity="1"><g><path d="M226 118C226 177.647 177.647 226 118 226C58.353 226 10 177.647 10 118C10 58.353 58.353 10 118 10C177.647 10 226 58.353 226 118 M31.461 118C31.461 165.794 70.206 204.539 118 204.539C165.794 204.539 204.539 165.794 204.539 118C204.539 70.206 165.794 31.461 118 31.461C70.206 31.461 31.461 70.206 31.461 118"></path></g></g></g><g id="g-root-cp_1_g-1_1_1luagwfz1e0i7-fill" data-item-order="-720618" transform="translate(211.0999755859375, 176)"><g id="cp_1_g-1_1_1luagwfz1e0i7-fill-merged" stroke="none" fill="#1eabda" fill-opacity="1"><g><path d="M226.9 16C226.9 19.314 224.214 22 220.9 22C217.587 22 214.9 19.314 214.9 16C214.9 12.686 217.587 10 220.9 10C224.214 10 226.9 12.686 226.9 16 M22.002 224C22.002 227.314 19.315 230 16.002 230C12.688 230 10.002 227.314 10.002 224C10.002 220.686 12.688 218 16.002 218C19.315 218 22.002 220.686 22.002 224"></path></g></g></g><g id="g-root-cp_2_g-2_1_1hegyrzz1e1ag-fill" data-item-order="-720612" transform="translate(250, 332)"><g id="cp_2_g-2_1_1hegyrzz1e1ag-fill-merged" stroke="none" fill="#3cc583" fill-opacity="1"><g><path d="M188 16C188 19.314 185.314 22 182 22C178.686 22 176 19.314 176 16C176 12.686 178.686 10 182 10C185.314 10 188 12.686 188 16 M22 110.5C22 113.814 19.314 116.5 16 116.5C12.686 116.5 10 113.814 10 110.5C10 107.186 12.686 104.5 16 104.5C19.314 104.5 22 107.186 22 110.5"></path></g></g></g><g id="g-root-cp_3_g-3_1_1cyngnjz1e22p-fill" data-item-order="-720606" transform="translate(266, 488)"><g id="cp_3_g-3_1_1cyngnjz1e22p-fill-merged" stroke="none" fill="#92bd39" fill-opacity="1"><g><path d="M172 16C172 19.314 169.314 22 166 22C162.686 22 160 19.314 160 16C160 12.686 162.686 10 166 10C169.314 10 172 12.686 172 16 M22 16C22 19.314 19.314 22 16 22C12.686 22 10 19.314 10 16C10 12.686 12.686 10 16 10C19.314 10 22 12.686 22 16"></path></g></g></g><g id="g-root-cp_4_g-4_1_143mxhrz1dzpm-fill" data-item-order="-720600" transform="translate(252.8984375, 544)"><g id="cp_4_g-4_1_143mxhrz1dzpm-fill-merged" stroke="none" fill="#e0cb15" fill-opacity="1"><g><path d="M185.102 116C185.102 119.314 182.415 122 179.102 122C175.788 122 173.102 119.314 173.102 116C173.102 112.686 175.788 110 179.102 110C182.415 110 185.102 112.686 185.102 116 M22 16C22 19.314 19.314 22 16 22C12.686 22 10 19.314 10 16C10 12.686 12.686 10 16 10C19.314 10 22 12.686 22 16"></path></g></g></g><g id="g-root-cp_5_g-5_1_zntfdbz1e0hv-fill" data-item-order="-720594" transform="translate(210, 592.800048828125)"><g id="cp_5_g-5_1_zntfdbz1e0hv-fill-merged" stroke="none" fill="#de8431" fill-opacity="1"><g><path d="M228 223.2C228 226.514 225.314 229.2 222 229.2C218.686 229.2 216 226.514 216 223.2C216 219.887 218.686 217.2 222 217.2C225.314 217.2 228 219.887 228 223.2 M22 16.001C22 19.314 19.314 22.001 16 22.001C12.686 22.001 10 19.314 10 16.001C10 12.687 12.686 10.001 16 10.001C19.314 10.001 22 12.687 22 16.001"></path></g></g></g><g id="g-root-tx_register_hrjm6nz1i8ec-fill" data-item-order="0" transform="translate(578, 350)"><g id="tx_register_hrjm6nz1i8ec-fill-merged" stroke="none" fill="#ffffff" fill-opacity="1"><g><text style="font: 15px Roboto, sans-serif; white-space: pre;" transform="translate(10, 28)" font-size="15px" font-family="Roboto, sans-serif"><tspan x="2" y="0" dominant-baseline="ideographic">Registering for updates from </tspan><tspan x="2" y="18" dominant-baseline="ideographic">external services.</tspan></text></g></g></g><g id="g-root-tx_subscrib_18ntr7zz1gttu-fill" data-item-order="0" transform="translate(578, 290)"><g id="tx_subscrib_18ntr7zz1gttu-fill-merged" stroke="none" fill="#ffffff" fill-opacity="1"><g><text style="font: bold 20px Roboto, sans-serif; white-space: pre;" transform="translate(10, 34)" font-weight="bold" font-size="20px" font-family="Roboto, sans-serif"><tspan x="2" y="0" dominant-baseline="ideographic">Subscribing to a </tspan><tspan x="2" y="24" dominant-baseline="ideographic">Service</tspan></text></g></g></g><g id="g-root-ic_serv_ddljbjz1gu12-fill" data-item-order="0" transform="translate(470, 314)"></g><g id="g-root-ic_4_1qclvdbz1i9s4-fill" data-item-order="0" transform="translate(117, 434)"></g><g id="g-root-ic_add_1qf3rprz1fe2q-fill" data-item-order="0" transform="translate(470, 470)"></g><g id="g-root-tx_recordin_hs639rz1fdoi-fill" data-item-order="0" transform="translate(578, 818)"><g id="tx_recordin_hs639rz1fdoi-fill-merged" stroke="none" fill="#ffffff" fill-opacity="1"><g><text style="font: 15px Roboto, sans-serif; white-space: pre;" transform="translate(10, 28)" font-size="15px" font-family="Roboto, sans-serif"><tspan x="2" y="0" dominant-baseline="ideographic">Recording information for </tspan><tspan x="2" y="18" dominant-baseline="ideographic">debugging purposes.</tspan></text></g></g></g><g id="g-root-tx_sideeffe_1usfdhrz1i8zv-fill" data-item-order="0" transform="translate(86, 506)"><g id="tx_sideeffe_1usfdhrz1i8zv-fill-merged" stroke="none" fill="#484848" fill-opacity="1"><g><text style="font: bold 20px Roboto, sans-serif; white-space: pre;" transform="translate(70, 22)" font-weight="bold" font-size="20px" font-family="Roboto, sans-serif"><tspan x="-54.03" y="12" dominant-baseline="ideographic">Side Effects</tspan></text></g></g></g><g id="g-root-tx_directly_qp21ovz1gsg5-fill" data-item-order="0" transform="translate(578, 506)"><g id="tx_directly_qp21ovz1gsg5-fill-merged" stroke="none" fill="#ffffff" fill-opacity="1"><g><text style="font: 15px Roboto, sans-serif; white-space: pre;" transform="translate(10, 28)" font-size="15px" font-family="Roboto, sans-serif"><tspan x="2" y="0" dominant-baseline="ideographic">Directly modifying the </tspan><tspan x="2" y="18" dominant-baseline="ideographic">Document Object Model.</tspan></text></g></g></g><g id="g-root-tx_retrievi_92rtvzz1i7m2-fill" data-item-order="0" transform="translate(578, 194)"><g id="tx_retrievi_92rtvzz1i7m2-fill-merged" stroke="none" fill="#ffffff" fill-opacity="1"><g><text style="font: 15px Roboto, sans-serif; white-space: pre;" transform="translate(10, 28)" font-size="15px" font-family="Roboto, sans-serif"><tspan x="2" y="0" dominant-baseline="ideographic">Retrieving data from external </tspan><tspan x="2" y="18" dominant-baseline="ideographic">API endpoints.</tspan></text></g></g></g><g id="g-root-tx_fetching_mdlv67z1i96x-fill" data-item-order="0" transform="translate(578, 134)"><g id="tx_fetching_mdlv67z1i96x-fill-merged" stroke="none" fill="#ffffff" fill-opacity="1"><g><text style="font: bold 20px Roboto, sans-serif; white-space: pre;" transform="translate(10, 34)" font-weight="bold" font-size="20px" font-family="Roboto, sans-serif"><tspan x="2" y="0" dominant-baseline="ideographic">Fetching Data from </tspan><tspan x="2" y="24" dominant-baseline="ideographic">API</tspan></text></g></g></g><g id="g-root-ic_clou_1um6mmnz1i7f2-fill" data-item-order="0" transform="translate(470, 158)"></g><g id="g-root-ic_2_4gpkwfz1ff9f-fill" data-item-order="0" transform="translate(470, 626)"></g><g id="g-root-tx_settingu_vb4aofz1ffuo-fill" data-item-order="0" transform="translate(578, 602)"><g id="tx_settingu_vb4aofz1ffuo-fill-merged" stroke="none" fill="#ffffff" fill-opacity="1"><g><text style="font: bold 20px Roboto, sans-serif; white-space: pre;" transform="translate(10, 34)" font-weight="bold" font-size="20px" font-family="Roboto, sans-serif"><tspan x="2" y="0" dominant-baseline="ideographic">Setting Up Timers or </tspan><tspan x="2" y="24" dominant-baseline="ideographic">Intervals</tspan></text></g></g></g><g id="g-root-tx_creating_i0a9e7z1fe9t-fill" data-item-order="0" transform="translate(578, 662)"><g id="tx_creating_i0a9e7z1fe9t-fill-merged" stroke="none" fill="#ffffff" fill-opacity="1"><g><text style="font: 15px Roboto, sans-serif; white-space: pre;" transform="translate(10, 28)" font-size="15px" font-family="Roboto, sans-serif"><tspan x="2" y="0" dominant-baseline="ideographic">Creating time-based </tspan><tspan x="2" y="18" dominant-baseline="ideographic">execution schedules.</tspan></text></g></g></g><g id="g-root-tx_explorin_qs6f4fz1e1ak-fill" data-item-order="0" transform="translate(254, 38)"><g id="tx_explorin_qs6f4fz1e1ak-fill-merged" stroke="none" fill="#484848" fill-opacity="1"><g><text style="font: bold 25px Roboto, sans-serif; white-space: pre;" transform="translate(190, 28)" font-weight="bold" font-size="25px" font-family="Roboto, sans-serif"><tspan x="-172.19" y="15" dominant-baseline="ideographic">Exploring Side Effects in React</tspan></text></g></g></g><g id="g-root-ic_1_dhcdu7z1dzpp-fill" data-item-order="0" transform="translate(470, 782)"></g><g id="g-root-tx_loggingt_v304jzz1ff9d-fill" data-item-order="0" transform="translate(578, 758)"><g id="tx_loggingt_v304jzz1ff9d-fill-merged" stroke="none" fill="#ffffff" fill-opacity="1"><g><text style="font: bold 20px Roboto, sans-serif; white-space: pre;" transform="translate(10, 34)" font-weight="bold" font-size="20px" font-family="Roboto, sans-serif"><tspan x="2" y="0" dominant-baseline="ideographic">Logging to the </tspan><tspan x="2" y="24" dominant-baseline="ideographic">Console</tspan></text></g></g></g><g id="g-root-tx_manually_13zw2z3z1gu10-fill" data-item-order="0" transform="translate(578, 446)"><g id="tx_manually_13zw2z3z1gu10-fill-merged" stroke="none" fill="#ffffff" fill-opacity="1"><g><text style="font: bold 20px Roboto, sans-serif; white-space: pre;" transform="translate(10, 34)" font-weight="bold" font-size="20px" font-family="Roboto, sans-serif"><tspan x="2" y="0" dominant-baseline="ideographic">Manually Changing </tspan><tspan x="2" y="24" dominant-baseline="ideographic">the DOM</tspan></text></g></g></g><g id="g-root-cp_5_g-5_1hd80lrz1dz49-stroke" data-item-order="-720712" transform="translate(434, 746)"><g id="cp_5_g-5_1hd80lrz1dz49-stroke" fill="none" stroke-linecap="round" stroke-linejoin="round" stroke-miterlimit="4" stroke="#ffffff" stroke-width="2" stroke-opacity="1"><g><path d="M 346.7895 130C 379.5233 130 406 103.1371 406 70C 406 36.8629 379.5233 10 346.7895 10L 106 10L 106.9868 10.5003C 127.809 21.97 141.9408 44.3143 141.9408 70C 141.9408 95.6856 127.809 118.0299 106.9868 129.4996L 106 130L 346.7895 130Z"></path></g></g><g id="cp_5_g-5_1hd80lrz1dz49-stroke" fill="none" stroke-linecap="round" stroke-linejoin="round" stroke-miterlimit="4" stroke="#ffffff" stroke-width="2" stroke-opacity="1"><g><path d="M 130 70C 130 103.1371 103.1371 130 70 130C 36.8629 130 10 103.1371 10 70C 10 36.8629 36.8629 10 70 10C 103.1371 10 130 36.8629 130 70ZM 25.0804 70C 25.0804 94.8084 45.1916 114.9196 70 114.9196C 94.8084 114.9196 114.9196 94.8084 114.9196 70C 114.9196 45.1916 94.8084 25.0804 70 25.0804C 45.1916 25.0804 25.0804 45.1916 25.0804 70Z"></path></g></g></g><g id="g-root-cp_4_g-4_141ri8fz1e0p6-stroke" data-item-order="-720696" transform="translate(434, 590)"><g id="cp_4_g-4_141ri8fz1e0p6-stroke" fill="none" stroke-linecap="round" stroke-linejoin="round" stroke-miterlimit="4" stroke="#ffffff" stroke-width="2" stroke-opacity="1"><g><path d="M 346.7895 130C 379.5233 130 406 103.1371 406 70C 406 36.8629 379.5233 10 346.7895 10L 106 10L 106.9868 10.5003C 127.809 21.97 141.9408 44.3143 141.9408 70C 141.9408 95.6856 127.809 118.0299 106.9868 129.4996L 106 130L 346.7895 130Z"></path></g></g><g id="cp_4_g-4_141ri8fz1e0p6-stroke" fill="none" stroke-linecap="round" stroke-linejoin="round" stroke-miterlimit="4" stroke="#ffffff" stroke-width="2" stroke-opacity="1"><g><path d="M 130 70C 130 103.1371 103.1371 130 70 130C 36.8629 130 10 103.1371 10 70C 10 36.8629 36.8629 10 70 10C 103.1371 10 130 36.8629 130 70ZM 25.0804 70C 25.0804 94.8084 45.1916 114.9196 70 114.9196C 94.8084 114.9196 114.9196 94.8084 114.9196 70C 114.9196 45.1916 94.8084 25.0804 70 25.0804C 45.1916 25.0804 25.0804 45.1916 25.0804 70Z"></path></g></g></g><g id="g-root-cp_3_g-3_zly03zz1e1hf-stroke" data-item-order="-720680" transform="translate(434, 434)"><g id="cp_3_g-3_zly03zz1e1hf-stroke" fill="none" stroke-linecap="round" stroke-linejoin="round" stroke-miterlimit="4" stroke="#ffffff" stroke-width="2" stroke-opacity="1"><g><path d="M 346.7895 130C 379.5233 130 406 103.1371 406 70C 406 36.8629 379.5233 10 346.7895 10L 106 10L 106.9868 10.5003C 127.809 21.97 141.9408 44.3143 141.9408 70C 141.9408 95.6856 127.809 118.0299 106.9868 129.4996L 106 130L 346.7895 130Z"></path></g></g><g id="cp_3_g-3_zly03zz1e1hf-stroke" fill="none" stroke-linecap="round" stroke-linejoin="round" stroke-miterlimit="4" stroke="#ffffff" stroke-width="2" stroke-opacity="1"><g><path d="M 130 70C 130 103.1371 103.1371 130 70 130C 36.8629 130 10 103.1371 10 70C 10 36.8629 36.8629 10 70 10C 103.1371 10 130 36.8629 130 70ZM 25.0804 70C 25.0804 94.8084 45.1916 114.9196 70 114.9196C 94.8084 114.9196 114.9196 94.8084 114.9196 70C 114.9196 45.1916 94.8084 25.0804 70 25.0804C 45.1916 25.0804 25.0804 45.1916 25.0804 70Z"></path></g></g></g><g id="g-root-cp_2_g-2_mb3ytrz1dzwk-stroke" data-item-order="-720664" transform="translate(434, 278)"><g id="cp_2_g-2_mb3ytrz1dzwk-stroke" fill="none" stroke-linecap="round" stroke-linejoin="round" stroke-miterlimit="4" stroke="#ffffff" stroke-width="2" stroke-opacity="1"><g><path d="M 346.7895 130C 379.5233 130 406 103.1371 406 70C 406 36.8629 379.5233 10 346.7895 10L 106 10L 106.9868 10.5003C 127.809 21.97 141.9408 44.3143 141.9408 70C 141.9408 95.6856 127.809 118.0299 106.9868 129.4996L 106 130L 346.7895 130Z"></path></g></g><g id="cp_2_g-2_mb3ytrz1dzwk-stroke" fill="none" stroke-linecap="round" stroke-linejoin="round" stroke-miterlimit="4" stroke="#ffffff" stroke-width="2" stroke-opacity="1"><g><path d="M 130 70C 130 103.1371 103.1371 130 70 130C 36.8629 130 10 103.1371 10 70C 10 36.8629 36.8629 10 70 10C 103.1371 10 130 36.8629 130 70ZM 25.0804 70C 25.0804 94.8084 45.1916 114.9196 70 114.9196C 94.8084 114.9196 114.9196 94.8084 114.9196 70C 114.9196 45.1916 94.8084 25.0804 70 25.0804C 45.1916 25.0804 25.0804 45.1916 25.0804 70Z"></path></g></g></g><g id="g-root-cp_1_g-1_8znggfz1e1hh-stroke" data-item-order="-720648" transform="translate(434, 122)"><g id="cp_1_g-1_8znggfz1e1hh-stroke" fill="none" stroke-linecap="round" stroke-linejoin="round" stroke-miterlimit="4" stroke="#ffffff" stroke-width="2" stroke-opacity="1"><g><path d="M 346.7895 130C 379.5233 130 406 103.1371 406 70C 406 36.8629 379.5233 10 346.7895 10L 106 10L 106.9868 10.5003C 127.809 21.97 141.9408 44.3143 141.9408 70C 141.9408 95.6856 127.809 118.0299 106.9868 129.4996L 106 130L 346.7895 130Z"></path></g></g><g id="cp_1_g-1_8znggfz1e1hh-stroke" fill="none" stroke-linecap="round" stroke-linejoin="round" stroke-miterlimit="4" stroke="#ffffff" stroke-width="2" stroke-opacity="1"><g><path d="M 130 70C 130 103.1371 103.1371 130 70 130C 36.8629 130 10 103.1371 10 70C 10 36.8629 36.8629 10 70 10C 103.1371 10 130 36.8629 130 70ZM 25.0804 70C 25.0804 94.8084 45.1916 114.9196 70 114.9196C 94.8084 114.9196 114.9196 94.8084 114.9196 70C 114.9196 45.1916 94.8084 25.0804 70 25.0804C 45.1916 25.0804 25.0804 45.1916 25.0804 70Z"></path></g></g></g><g id="g-root-cp_0_g-0_1upxh5bz1dzpi-stroke" data-item-order="-720630" transform="translate(38, 386)"><g id="cp_0_g-0_1upxh5bz1dzpi-stroke" fill="none" stroke-linecap="round" stroke-linejoin="round" stroke-miterlimit="4" stroke="#ffffff" stroke-width="2" stroke-opacity="1"><g><path d="M 226 118C 226 177.6468 177.6468 226 118 226C 58.3532 226 10 177.6468 10 118C 10 58.3532 58.3532 10 118 10C 177.6468 10 226 58.3532 226 118ZM 31.4608 118C 31.4608 165.7943 70.2057 204.5392 118 204.5392C 165.7943 204.5392 204.5392 165.7943 204.5392 118C 204.5392 70.2057 165.7943 31.4608 118 31.4608C 70.2057 31.4608 31.4608 70.2057 31.4608 118Z"></path></g></g></g><g id="g-root-cp_1_g-1_1_1luagwfz1e0i7-stroke" data-item-order="-720618" transform="translate(211.0999755859375, 176)"><g id="cp_1_g-1_1_1luagwfz1e0i7-stroke" fill="none" stroke-linecap="round" stroke-linejoin="round" stroke-miterlimit="4" stroke="#484848" stroke-width="2" stroke-opacity="1"><g><path d="M 226.900024 16C 226.900024 19.3137 224.213724 22 220.900024 22C 217.586324 22 214.900024 19.3137 214.900024 16C 214.900024 12.6863 217.586324 10 220.900024 10C 224.213724 10 226.900024 12.6863 226.900024 16ZM 22.000024 224C 22.000024 227.3137 19.313724 230 16.000024 230C 12.686324 230 10.000024 227.3137 10.000024 224C 10.000024 220.6863 12.686324 218 16.000024 218C 19.313724 218 22.000024 220.6863 22.000024 224ZM 214.900024 16L 109.196324 16L 18.300024 218.5"></path></g></g></g><g id="g-root-cp_2_g-2_1_1hegyrzz1e1ag-stroke" data-item-order="-720612" transform="translate(250, 332)"><g id="cp_2_g-2_1_1hegyrzz1e1ag-stroke" fill="none" stroke-linecap="round" stroke-linejoin="round" stroke-miterlimit="4" stroke="#484848" stroke-width="2" stroke-opacity="1"><g><path d="M 188 16C 188 19.3137 185.3137 22 182 22C 178.6863 22 176 19.3137 176 16C 176 12.6863 178.6863 10 182 10C 185.3137 10 188 12.6863 188 16ZM 22 110.5C 22 113.8137 19.3137 116.5 16 116.5C 12.6863 116.5 10 113.8137 10 110.5C 10 107.1863 12.6863 104.5 16 104.5C 19.3137 104.5 22 107.1863 22 110.5ZM 176 16L 74 16L 19.5 105.62"></path></g></g></g><g id="g-root-cp_3_g-3_1_1cyngnjz1e22p-stroke" data-item-order="-720606" transform="translate(266, 488)"><g id="cp_3_g-3_1_1cyngnjz1e22p-stroke" fill="none" stroke-linecap="round" stroke-linejoin="round" stroke-miterlimit="4" stroke="#484848" stroke-width="2" stroke-opacity="1"><g><path d="M 172 16C 172 19.3137 169.3137 22 166 22C 162.6863 22 160 19.3137 160 16C 160 12.6863 162.6863 10 166 10C 169.3137 10 172 12.6863 172 16ZM 22 16C 22 19.3137 19.3137 22 16 22C 12.6863 22 10 19.3137 10 16C 10 12.6863 12.6863 10 16 10C 19.3137 10 22 12.6863 22 16ZM 160 16L 22 16"></path></g></g></g><g id="g-root-cp_4_g-4_1_143mxhrz1dzpm-stroke" data-item-order="-720600" transform="translate(252.8984375, 544)"><g id="cp_4_g-4_1_143mxhrz1dzpm-stroke" fill="none" stroke-linecap="round" stroke-linejoin="round" stroke-miterlimit="4" stroke="#484848" stroke-width="2" stroke-opacity="1"><g><path d="M 185.101563 116C 185.101563 119.3137 182.415263 122 179.101563 122C 175.787863 122 173.101563 119.3137 173.101563 116C 173.101563 112.6863 175.787863 110 179.101563 110C 182.415263 110 185.101563 112.6863 185.101563 116ZM 22.001563 16C 22.001563 19.3137 19.315263 22 16.001562 22C 12.687863 22 10.001563 19.3137 10.001563 16C 10.001563 12.6863 12.687863 10 16.001562 10C 19.315263 10 22.001563 12.6863 22.001563 16ZM 173.101563 116L 74.925763 116L 19.101563 21.1"></path></g></g></g><g id="g-root-cp_5_g-5_1_zntfdbz1e0hv-stroke" data-item-order="-720594" transform="translate(210, 592.800048828125)"><g id="cp_5_g-5_1_zntfdbz1e0hv-stroke" fill="none" stroke-linecap="round" stroke-linejoin="round" stroke-miterlimit="4" stroke="#484848" stroke-width="2" stroke-opacity="1"><g><path d="M 228 223.199951C 228 226.513651 225.3137 229.199951 222 229.199951C 218.6863 229.199951 216 226.513651 216 223.199951C 216 219.886251 218.6863 217.199951 222 217.199951C 225.3137 217.199951 228 219.886251 228 223.199951ZM 22 15.999951C 22 19.313651 19.3137 21.999951 16 21.999951C 12.6863 21.999951 10 19.313651 10 15.999951C 10 12.686251 12.6863 9.999951 16 9.999951C 19.3137 9.999951 22 12.686251 22 15.999951ZM 216 223.199951L 114 223.199951L 18.5 21.429951"></path></g></g></g><g id="g-root-tx_register_hrjm6nz1i8ec-stroke" data-item-order="0" transform="translate(578, 350)"></g><g id="g-root-tx_subscrib_18ntr7zz1gttu-stroke" data-item-order="0" transform="translate(578, 290)"></g><g id="g-root-ic_serv_ddljbjz1gu12-stroke" data-item-order="0" transform="translate(470, 314)"><g id="ic_serv_ddljbjz1gu12-stroke" fill="none" stroke-linecap="round" stroke-linejoin="round" stroke-miterlimit="4" stroke="#484848" stroke-width="2" stroke-opacity="1"><g><path d="M 11 21.104L 31 27.732L 31 56.903999L 11.132 50ZM 37 57L 57 50L 57 21.290001L 37 27.636ZM 33.98 23.07L 55.062 17.278L 33.98 11.282L 13.184 16.966L 33.98 23.07Z"></path></g></g></g><g id="g-root-ic_4_1qclvdbz1i9s4-stroke" data-item-order="0" transform="translate(117, 434)"><g id="ic_4_1qclvdbz1i9s4-stroke" fill="none" stroke-linecap="round" stroke-linejoin="round" stroke-miterlimit="4" stroke="#484848" stroke-width="2" stroke-opacity="1"><g><path d="M 40.0275 45.912498C 39.513607 44.378536 38.350433 43.148609 36.8475 42.550003L 30.272501 39.93L 31.364998 33.375C 31.717716 31.224228 30.767138 29.068073 28.941418 27.877701C 27.1157 26.687328 24.759304 26.687328 22.933582 27.877701C 21.107864 29.068073 20.157286 31.224228 20.51 33.375L 21.602499 39.93L 15.0275 42.550003C 13.007027 43.363655 11.65708 45.293015 11.585052 47.469975C 11.513024 49.646935 12.73249 51.661304 14.694761 52.606735C 16.657034 53.552166 18.992367 53.250511 20.650002 51.837502L 25.9375 47.295002L 31.224998 51.837502C 33.102558 53.456398 35.8311 53.619083 37.887722 52.234764C 39.944344 50.850445 40.820633 48.261326 40.0275 45.912502ZM 39.6875 30.585001L 68.4375 30.585001L 64.6875 26.835001M 49.6875 41.834999L 68.4375 41.834999L 64.6875 38.084999M 45.9375 53.084999L 68.4375 53.084999L 64.6875 49.334999M 21.397499 42.235001C 21.3972 44.742584 23.429914 46.775543 25.9375 46.775543C 28.445084 46.775543 30.4778 44.742584 30.477501 42.235001C 30.4778 39.727413 28.445084 37.694458 25.9375 37.694458C 23.429914 37.694458 21.3972 39.727413 21.397499 42.235001"></path></g></g></g><g id="g-root-ic_add_1qf3rprz1fe2q-stroke" data-item-order="0" transform="translate(470, 470)"><g id="ic_add_1qf3rprz1fe2q-stroke" fill="none" stroke-linecap="round" stroke-linejoin="round" stroke-miterlimit="4" stroke="#484848" stroke-width="2" stroke-opacity="1"><g><path d="M 20 12L 20 16M 16 20L 12 20M 16 48L 12 48M 48 12L 48 16M 20 52L 20 56M 48 52L 48 56M 56 20L 52 20M 56 48L 52 48M 20 20L 48 20L 48 48L 20 48ZM 26 34C 26 38.418278 29.581722 42 34 42C 38.418278 42 42 38.418278 42 34C 42 29.581722 38.418278 26 34 26C 29.581722 26 26 29.581722 26 34M 34 30L 34 38M 30 34L 38 34"></path></g></g></g><g id="g-root-tx_recordin_hs639rz1fdoi-stroke" data-item-order="0" transform="translate(578, 818)"></g><g id="g-root-tx_sideeffe_1usfdhrz1i8zv-stroke" data-item-order="0" transform="translate(86, 506)"></g><g id="g-root-tx_directly_qp21ovz1gsg5-stroke" data-item-order="0" transform="translate(578, 506)"></g><g id="g-root-tx_retrievi_92rtvzz1i7m2-stroke" data-item-order="0" transform="translate(578, 194)"></g><g id="g-root-tx_fetching_mdlv67z1i96x-stroke" data-item-order="0" transform="translate(578, 134)"></g><g id="g-root-ic_clou_1um6mmnz1i7f2-stroke" data-item-order="0" transform="translate(470, 158)"><g id="ic_clou_1um6mmnz1i7f2-stroke" fill="none" stroke-linecap="round" stroke-linejoin="round" stroke-miterlimit="4" stroke="#484848" stroke-width="2" stroke-opacity="1"><g><path d="M 49.534 56.731998L 49.534 43.664001M 46.919998 43.664001L 52.147999 43.664001M 46.919998 56.731998L 52.147999 56.731998M 32.237999 56.731998L 32.237999 51.504002M 32.237999 51.504002L 36.16 51.504002C 38.324745 51.5037 40.07946 49.748745 40.07946 47.584C 40.07946 45.419254 38.324745 43.664299 36.16 43.664001L 32.237999 43.664001ZM 14.941999 56.731998L 16.417999 46.894001C 16.713694 45.051308 18.303732 43.696075 20.17 43.696075C 22.03627 43.696075 23.626307 45.051308 23.922001 46.894001L 25.4 56.731998M 15.628 52.158001L 24.712 52.158001M 57 29.268C 57.00251 26.553617 55.899284 23.955311 53.944599 22.071943C 51.98991 20.188576 49.352413 19.182644 46.639999 19.285999C 43.916706 13.503402 37.61792 10.304704 31.342236 11.517374C 25.066551 12.730043 20.412907 18.045113 20.040001 24.426001C 17.828627 23.962803 15.526266 24.520912 13.772458 25.945301C 12.01865 27.369688 11.000196 29.508636 11 31.768C 11 39.388 19 39.267998 19 39.267998L 48 39.267998C 48 39.267998 57 38.096001 57 29.268Z"></path></g></g></g><g id="g-root-ic_2_4gpkwfz1ff9f-stroke" data-item-order="0" transform="translate(470, 626)"><g id="ic_2_4gpkwfz1ff9f-stroke" fill="none" stroke-linecap="round" stroke-linejoin="round" stroke-miterlimit="4" stroke="#484848" stroke-width="2" stroke-opacity="1"><g><path d="M 23.236 33.992001L 34.007999 33.992001L 41.841999 43.784M 46.245998 50.638C 46.245712 52.287327 47.582672 53.624523 49.231998 53.624523C 50.881325 53.624523 52.218288 52.287327 52.217999 50.638C 52.218288 48.988674 50.881325 47.651478 49.231998 47.651478C 47.582672 47.651478 46.245712 48.988674 46.245998 50.638M 12.23 28.426001C 12.854139 25.954893 13.894326 23.608047 15.306 21.486M 20.09 16.336C 22.079926 14.739687 24.338631 13.511113 26.76 12.708M 33.683998 11.508C 36.231365 11.48674 38.76498 11.883335 41.183998 12.682M 47.400002 15.946C 49.446419 17.465603 51.226006 19.314804 52.666 21.417999M 55.624001 27.799999C 56.326744 30.250824 56.611397 32.802563 56.466 35.348M 54.958 42.209999C 54.081425 44.47942 52.809025 46.575256 51.199997 48.399998M 42.366001 54.888C 35.434166 57.655064 27.581539 56.806618 21.400723 52.62278C 15.219908 48.438942 11.51455 41.463707 11.507999 34"></path></g></g></g><g id="g-root-tx_settingu_vb4aofz1ffuo-stroke" data-item-order="0" transform="translate(578, 602)"></g><g id="g-root-tx_creating_i0a9e7z1fe9t-stroke" data-item-order="0" transform="translate(578, 662)"></g><g id="g-root-tx_explorin_qs6f4fz1e1ak-stroke" data-item-order="0" transform="translate(254, 38)"></g><g id="g-root-ic_1_dhcdu7z1dzpp-stroke" data-item-order="0" transform="translate(470, 782)"><g id="ic_1_dhcdu7z1dzpp-stroke" fill="none" stroke-linecap="round" stroke-linejoin="round" stroke-miterlimit="4" stroke="#484848" stroke-width="2" stroke-opacity="1"><g><path d="M 37 20L 37 13C 37 11.895431 36.104568 11 35 11L 13 11C 11.895431 11 11 11.895431 11 13L 11 55C 11 56.104568 11.895431 57 13 57L 35 57C 36.104568 57 37 56.104568 37 55L 37 48M 57 34L 19 34M 47 44L 57 34L 47 24"></path></g></g></g><g id="g-root-tx_loggingt_v304jzz1ff9d-stroke" data-item-order="0" transform="translate(578, 758)"></g><g id="g-root-tx_manually_13zw2z3z1gu10-stroke" data-item-order="0" transform="translate(578, 446)"></g></g></g></svg>