<?xml version="1.0" encoding="utf-8" standalone="yes"?>
<!DOCTYPE svg PUBLIC "-//W3C//DTD SVG 1.1//EN" "http://www.w3.org/Graphics/SVG/1.1/DTD/svg11.dtd">
<svg style="fill:none;stroke:none;fill-rule:evenodd;clip-rule:evenodd;stroke-linecap:round;stroke-linejoin:round;stroke-miterlimit:1.5;" version="1.1" xmlns="http://www.w3.org/2000/svg" xmlns:xlink="http://www.w3.org/1999/xlink" width="956" height="258" viewBox="0 0 956 258"><style class="text-font-style fontImports" data-font-family="Roboto">@import url(https://fonts.googleapis.com/css2?family=Roboto:wght@400;700&amp;amp;display=block);</style><g id="items" style="isolation: isolate"><g id="blend" style="mix-blend-mode: normal"><g id="g-root-ic_up_147dsjcf2eako-fill" data-item-order="0" transform="translate(124, 68)"></g><g id="g-root-ic_bash_dg3g6wf2foju-fill" data-item-order="0" transform="translate(280, 68)"></g><g id="g-root-ic_chec_dl38vsf2fnyk-fill" data-item-order="0" transform="translate(436, 68)"></g><g id="g-root-ic_1_1luwyigf2h1qm-fill" data-item-order="0" transform="translate(592, 68)"></g><g id="g-root-ic_3_1ly1f3sf1w003-fill" data-item-order="0" transform="translate(748, 68)"></g><g id="g-root-tx_lowestco_qrjyk8f2fmyx-fill" data-item-order="0" transform="translate(94, 128)"><g id="tx_lowestco_qrjyk8f2fmyx-fill-merged" stroke="none" fill="#f4f4f4" fill-opacity="1"><g><text style="font: 20px Roboto, sans-serif; white-space: pre;" transform="translate(58, 46)" font-size="20px" font-family="Roboto, sans-serif"><tspan x="-34.82" y="-12" dominant-baseline="ideographic">Lowest </tspan><tspan x="-43.46" y="12" dominant-baseline="ideographic">Common </tspan><tspan x="-42.49" y="36" dominant-baseline="ideographic">Ancestor</tspan></text></g></g></g><g id="g-root-tx_keepstat_qvxa60f2fpjf-fill" data-item-order="0" transform="translate(244, 128)"><g id="tx_keepstat_qvxa60f2fpjf-fill-merged" stroke="none" fill="#f4f4f4" fill-opacity="1"><g><text style="font: 20px Roboto, sans-serif; white-space: pre;" transform="translate(64, 34)" font-size="20px" font-family="Roboto, sans-serif"><tspan x="-50.56" y="0" dominant-baseline="ideographic">Keep State </tspan><tspan x="-26.69" y="24" dominant-baseline="ideographic">Local</tspan></text></g></g></g><g id="g-root-tx_namecall_4mxtkf2h3il-fill" data-item-order="0" transform="translate(406, 128)"><g id="tx_namecall_4mxtkf2h3il-fill-merged" stroke="none" fill="#f4f4f4" fill-opacity="1"><g><text style="font: 20px Roboto, sans-serif; white-space: pre;" transform="translate(58, 46)" font-size="20px" font-family="Roboto, sans-serif"><tspan x="-29.14" y="-12" dominant-baseline="ideographic">Name </tspan><tspan x="-40.66" y="12" dominant-baseline="ideographic">Callback </tspan><tspan x="-28.58" y="36" dominant-baseline="ideographic">Props</tspan></text></g></g></g><g id="g-root-tx_passonly_4nkwjcf1w0zu-fill" data-item-order="0" transform="translate(556, 128)"><g id="tx_passonly_4nkwjcf1w0zu-fill-merged" stroke="none" fill="#f4f4f4" fill-opacity="1"><g><text style="font: 20px Roboto, sans-serif; white-space: pre;" transform="translate(64, 46)" font-size="20px" font-family="Roboto, sans-serif"><tspan x="-46.55" y="-12" dominant-baseline="ideographic">Pass Only </tspan><tspan x="-32.09" y="12" dominant-baseline="ideographic">What's </tspan><tspan x="-36.81" y="36" dominant-baseline="ideographic">Needed</tspan></text></g></g></g><g id="g-root-tx_usecompo_2rlq0f1xfr8-fill" data-item-order="0" transform="translate(706, 128)"><g id="tx_usecompo_2rlq0f1xfr8-fill-merged" stroke="none" fill="#f4f4f4" fill-opacity="1"><g><text style="font: 20px Roboto, sans-serif; white-space: pre;" transform="translate(70, 34)" font-size="20px" font-family="Roboto, sans-serif"><tspan x="-16.95" y="0" dominant-baseline="ideographic">Use </tspan><tspan x="-56.83" y="24" dominant-baseline="ideographic">Composition</tspan></text></g></g></g><g id="g-root-ic_up_147dsjcf2eako-stroke" data-item-order="0" transform="translate(124, 68)"><g id="ic_up_147dsjcf2eako-stroke" fill="none" stroke-linecap="round" stroke-linejoin="round" stroke-miterlimit="4" stroke="#ffe711" stroke-width="2" stroke-opacity="1"><g><path d="M 10 10M 45.25 15.2845L 40.75 10.7845L 36.25 15.2845M 19.1875 43.510002C 18.032648 43.911198 16.855711 44.24575 15.6625 44.512001M 25.450001 40.5355C 24.438503 41.157707 23.393412 41.723568 22.3195 42.230499M 12.25 45.0835C 11.755 45.139 11.2555 45.182499 10.75 45.2155M 40.75 10.7845C 40.777 11.326 40.75 12.6205 40.75 13.168C 40.75967 22.561991 36.647179 31.48719 29.5 37.5835C 29.120001 37.907501 28.733 38.223499 28.339001 38.531502"></path></g></g></g><g id="g-root-ic_bash_dg3g6wf2foju-stroke" data-item-order="0" transform="translate(280, 68)"><g id="ic_bash_dg3g6wf2foju-stroke" fill="none" stroke-linecap="round" stroke-linejoin="round" stroke-miterlimit="4" stroke="#f79438" stroke-width="2" stroke-opacity="1"><g><path d="M 10 10M 44.463398 44.476601L 33.560051 33.57325M 19.471901 34.364201C 14.668975 32.48695 11.536615 27.89785 11.536615 22.78738L 11.536615 14.8609C 11.536615 14.23513 11.954275 13.713655 12.47632 13.505065C 13.938086 12.774985 17.070446 11.52343 21.560141 11.52343C 26.04985 11.52343 29.390951 12.67069 30.85285 13.400755C 31.47925 13.713655 31.79245 14.23513 31.79245 14.8609L 31.79245 18.60853M 10 10M 38.813499 33.578201L 33.56155 33.579102L 33.56155 38.830151M 10 10M 42.3745 31.983549L 44.464001 26.583401L 39.16375 27.094749L 38.807053 21.13282L 33.76255 24.903355L 29.110001 21.357325L 28.5634 27.655449L 22.816151 27.44725L 25.834 33.080502L 21.276371 37.083698L 27.239201 38.663498L 26.1724 43.976799L 31.4182 42.5368"></path></g></g></g><g id="g-root-ic_chec_dl38vsf2fnyk-stroke" data-item-order="0" transform="translate(436, 68)"><g id="ic_chec_dl38vsf2fnyk-stroke" fill="none" stroke-linecap="round" stroke-linejoin="round" stroke-miterlimit="4" stroke="#fb6762" stroke-width="2" stroke-opacity="1"><g><path d="M 27.187 36.251499C 27.187 41.222061 31.216438 45.251503 36.187 45.251503C 41.157562 45.251503 45.187 41.222061 45.187 36.251503C 45.187 31.280937 41.157562 27.251501 36.187 27.251501C 31.216438 27.251501 27.187 31.280937 27.187 36.251503ZM 40.197998 33.633999L 35.8405 39.445C 35.644745 39.705666 35.345543 39.868607 35.02037 39.891628C 34.695198 39.914646 34.37603 39.795486 34.1455 39.565002L 31.8955 37.314999M 41.935001 25.7155C 42.097897 24.988121 42.182377 24.24538 42.187 23.5C 42.187 16.459 35.137001 10.75 26.437 10.75C 17.737 10.75 10.687 16.460501 10.687 23.5C 10.766927 27.011126 12.43111 30.297586 15.214 32.439999L 12.187 39.25L 20.65 35.349998C 21.80715 35.713558 22.996651 35.964718 24.202 36.099998"></path></g></g></g><g id="g-root-ic_1_1luwyigf2h1qm-stroke" data-item-order="0" transform="translate(592, 68)"><g id="ic_1_1luwyigf2h1qm-stroke" fill="none" stroke-linecap="round" stroke-linejoin="round" stroke-miterlimit="4" stroke="#f366bb" stroke-width="2" stroke-opacity="1"><g><path d="M 23.455616 36.78775C 23.3074 36.78775 23.18725 36.667603 23.18725 36.519402C 23.18725 36.371201 23.3074 36.251049 23.455616 36.251049M 23.45566 36.78775C 23.603859 36.78775 23.72401 36.667603 23.72401 36.519402C 23.72401 36.371201 23.603859 36.251049 23.45566 36.251049M 29.359301 36.78775C 29.2111 36.78775 29.09095 36.667603 29.09095 36.519402C 29.09095 36.371201 29.2111 36.251049 29.359301 36.251049M 29.359449 36.78775C 29.50765 36.78775 29.6278 36.667603 29.6278 36.519402C 29.6278 36.371201 29.50765 36.251049 29.359449 36.251049M 28.82275 40.1422C 27.481001 41.4841 25.334049 41.4841 24.12649 40.1422M 10 10M 15.92566 44.435951L 11.49778 33.164951C 10.961068 31.8232 11.63194 30.481449 12.973721 29.94475C 14.3155 29.408051 15.657295 30.07885 16.19401 31.42075L 18.304316 36.90295M 10 10M 36.886902 44.435951L 41.314751 33.164951C 41.851452 31.8232 41.1805 30.481449 39.838749 29.94475C 38.496998 29.408051 37.155251 30.07885 36.618553 31.42075L 34.436649 36.93145M 30.969551 29.94475C 30.030251 31.957451 28.0177 33.433449 25.73665 33.433449C 23.723965 33.433449 21.979645 32.359901 20.906216 30.88405M 26.40745 44.570049C 30.85375 44.570049 34.458252 40.965702 34.458252 36.519402C 34.458252 32.073101 30.85375 28.46875 26.40745 28.46875C 21.961256 28.46875 18.356846 32.073101 18.356846 36.519402C 18.356846 40.965702 21.961256 44.570049 26.40745 44.570049ZM 29.296001 18.951235L 23.618906 22.228945C 22.32127 22.978134 20.5303 22.49824 19.781111 21.200605C 19.031935 19.902969 19.511814 18.112015 20.80945 17.362825L 28.5952 12.867685C 30.2173 11.931205 32.213951 11.643535 34.073502 11.867575L 39.839352 12.864085L 44.070999 12.864085M 10 10M 44.100403 20.244324L 39.234249 23.05378C 37.774452 23.896614 36.03355 24.252819 34.429901 24.09733L 30.64225 23.905106C 29.132351 23.911825 27.96505 22.639286 28.120451 21.03562C 28.207451 19.687796 29.317749 18.614201 30.571899 18.538929L 35.45155 18.749561"></path></g></g></g><g id="g-root-ic_3_1ly1f3sf1w003-stroke" data-item-order="0" transform="translate(748, 68)"><g id="ic_3_1ly1f3sf1w003-stroke" fill="none" stroke-linecap="round" stroke-linejoin="round" stroke-miterlimit="4" stroke="#cb68f9" stroke-width="2" stroke-opacity="1"><g><path d="M 24.577 35.137001L 14.2345 35.137001C 12.310063 35.137001 10.75 33.576935 10.75 31.6525L 10.75 22.943501L 15.1 22.943501C 15.100126 21.500469 16.26997 20.330729 17.712999 20.330729C 19.156031 20.330729 20.325874 21.500469 20.326 22.943501L 24.676001 22.943501L 24.676001 30.2395M 10.75 22.943501L 10.75 14.2345C 10.75 12.310063 12.310063 10.75 14.2345 10.75L 24.684999 10.75L 24.684999 14.2345C 25.63319 14.211777 26.519243 14.704639 27.000019 15.522219C 27.480797 16.339798 27.480797 17.353703 27.000019 18.171282C 26.519243 18.988861 25.63319 19.481724 24.684999 19.459L 24.684999 22.943501M 33.660999 22.943501L 24.684999 22.943501M 24.684999 10.75L 34.265499 10.75C 36.189934 10.75 37.75 12.310063 37.75 14.2345L 37.75 22.943501M 27.25 36.25C 27.250002 41.220566 31.279438 45.25 36.25 45.25C 41.220566 45.25 45.25 41.220566 45.25 36.25C 45.25 31.279438 41.220566 27.250002 36.25 27.250002C 31.279438 27.250002 27.250002 31.279438 27.250002 36.25M 38.5 40.150002C 37.107697 40.95385 35.392303 40.95385 34 40.150002M 36.25 27.25C 37.492641 27.25 38.5 28.25736 38.5 29.5C 38.5 30.742641 37.492641 31.75 36.25 31.75M 40.1875 34C 40.498161 34 40.75 34.251842 40.75 34.5625M 39.625 34.5625C 39.625 34.251842 39.876842 34 40.1875 34M 40.1875 35.125C 39.876842 35.125 39.625 34.873161 39.625 34.5625M 40.75 34.5625C 40.75 34.873161 40.498161 35.125 40.1875 35.125M 32.3125 34C 32.623161 34 32.875 34.251842 32.875 34.5625M 31.75 34.5625C 31.75 34.251842 32.001839 34 32.3125 34M 32.3125 35.125C 32.001839 35.125 31.75 34.873161 31.75 34.5625M 32.875 34.5625C 32.875 34.873161 32.623161 35.125 32.3125 35.125"></path></g></g></g><g id="g-root-tx_lowestco_qrjyk8f2fmyx-stroke" data-item-order="0" transform="translate(94, 128)"></g><g id="g-root-tx_keepstat_qvxa60f2fpjf-stroke" data-item-order="0" transform="translate(244, 128)"></g><g id="g-root-tx_namecall_4mxtkf2h3il-stroke" data-item-order="0" transform="translate(406, 128)"></g><g id="g-root-tx_passonly_4nkwjcf1w0zu-stroke" data-item-order="0" transform="translate(556, 128)"></g><g id="g-root-tx_usecompo_2rlq0f1xfr8-stroke" data-item-order="0" transform="translate(706, 128)"></g></g></g><path id="w4gpby0g68emi" d="M65.283 12.757a.35.35 0 0 0 .584.157l5.203-5.141-6.183 3.523.396 1.461zm-2.216-11.7a.35.35 0 0 0-.522.305v3.111l3.276-1.868-2.754-1.548zm3.728 2.105l-4.25 2.421v2.445l6.391-3.644-2.141-1.222zm4.708 3.303a.35.35 0 0 0 0-.609l-1.592-.9-7.365 4.199v1.782a.35.35 0 0 0 .523.305l8.435-4.777z M44.542 2.513c0-.433.355-.783.792-.783s.792.35.792.783-.355.783-.792.783-.792-.35-.792-.783zm59.171 0c0-.433.355-.783.792-.783s.792.35.792.783-.355.783-.792.783-.792-.35-.792-.783zm-85.951 7.636h-1.27v-.487c-.276.201-.864.609-1.881.609-1.202 0-2.274-.794-2.137-2.078.118-1.106 1.153-1.584 1.848-1.727l2.17-.345c0-.539-.29-.956-1.064-1.006s-1.21.305-1.571 1.017l-1.124-.605c1.218-2.631 5.029-1.764 5.029.414v4.207zm-1.27-2.86c.006.396-.062 1.112-.819 1.59-.587.37-1.841.299-1.903-.395-.049-.555.461-.791.906-.898l1.816-.297zm72.662 2.86h-1.27v-.487c-.276.201-.864.609-1.881.609-1.202 0-2.274-.794-2.137-2.078.118-1.106 1.153-1.584 1.848-1.727l2.17-.345c0-.539-.29-.956-1.064-1.006s-1.21.305-1.571 1.017l-1.124-.605c1.218-2.631 5.029-1.764 5.029.414v4.207zm-1.27-2.86c.006.396-.062 1.112-.82 1.59-.587.37-1.841.299-1.903-.395-.049-.555.461-.791.906-.898l1.816-.297zM99.096 10.149H97.85v-8.45h1.246v4.895l2.68-2.559h1.738l-2.633 2.535 2.715 3.578h-1.556l-2.077-2.707-.867.844v1.863zm6.053-6.114h-1.255v6.113h1.255V4.035zm-59.2 0h-1.255v6.113h1.255V4.035zm5.584 6.113V1.697h1.255v2.695c.361-.346 1-.485 1.47-.485 1.452 0 2.477 1.082 2.457 2.448v3.792h-1.27v-3.68c0-.408-.214-1.339-1.315-1.339-.968 0-1.342.756-1.342 1.339v3.681h-1.255zm-4.76-4.894V4.039h.621a.45.45 0 0 0 .45-.45v-.855h1.251v1.305h1.309v1.215h-1.309v3.109c0 .293.105.664.648.664.365 0 .531-.035.736-.07v1.137s-.361.113-.857.113c-1.398 0-1.777-1.051-1.777-1.788V5.254h-1.071zM36.528 4.039h-1.394l2.191 6.106h1.125l1.234-3.918 1.238 3.918h1.129l2.188-6.106h-1.383l-1.359 3.93-1.256-3.93h-1.124l-1.242 3.957-1.348-3.957zM26.212 7.141c-.02 1.566 1.187 3.129 3.223 3.129 1.566 0 2.383-.918 2.734-1.719L31.172 8c-.315.399-.801 1.094-1.738 1.094-1.145 0-1.825-.781-1.891-1.52h4.625c.074-.284.148-.995-.03-1.559-.336-1.064-1.221-2.102-2.839-2.102s-3.088 1.152-3.088 3.227zm1.363-.75h3.348c-.055-.43-.566-1.301-1.623-1.301a1.79 1.79 0 0 0-1.725 1.301zm-8.758.75c.038 1.758 1.277 3.133 3.145 3.133 1.074 0 1.723-.477 1.961-.672v.547h1.242V1.703h-1.258v2.888c-.414-.36-1.062-.68-1.93-.68-1.91 0-3.198 1.473-3.16 3.23zm1.309-.08c0 1.119.723 1.978 1.836 1.978a1.88 1.88 0 0 0 1.94-1.904c0-1.371-1.011-1.99-1.972-1.99s-1.805.798-1.805 1.916zm76.683-.028C96.771 5.275 95.532 3.9 93.664 3.9c-1.074 0-1.723.477-1.961.672v-.547h-1.242v8.22h1.258V9.583c.414.36 1.063.68 1.93.68 1.91 0 3.198-1.473 3.16-3.23zm-1.309.08c0-1.119-.723-1.978-1.836-1.978a1.88 1.88 0 0 0-1.94 1.904c0 1.371 1.011 1.99 1.972 1.99S95.5 8.231 95.5 7.113zM106.441 10.173V4.036h1.254v.382c.361-.346 1-.485 1.47-.485 1.452 0 2.477 1.082 2.457 2.448v3.792h-1.27V6.492c0-.408-.214-1.339-1.315-1.339-.969 0-1.342.756-1.342 1.339v3.681h-1.254zm-30.383-.021V1.824h1.084l4.215 5.777V1.824h1.32v8.328h-1.094l-4.207-5.796v5.796h-1.319zM5.24 10.149H4V2.377h1.014l2.664 3.597 2.654-3.592h1.03v7.766h-1.256V4.762L7.678 8.068 5.24 4.742v5.407z" transform="translate(823, 227)" fill="#ababab88" stroke="none"></path></svg>