<?xml version="1.0" encoding="utf-8" standalone="yes"?>
<!DOCTYPE svg PUBLIC "-//W3C//DTD SVG 1.1//EN" "http://www.w3.org/Graphics/SVG/1.1/DTD/svg11.dtd">
<svg style="fill:none;stroke:none;fill-rule:evenodd;clip-rule:evenodd;stroke-linecap:round;stroke-linejoin:round;stroke-miterlimit:1.5;" version="1.1" xmlns="http://www.w3.org/2000/svg" xmlns:xlink="http://www.w3.org/1999/xlink" width="624" height="672" viewBox="0 0 624 672"><style class="text-font-style fontImports" data-font-family="Roboto">@import url(https://fonts.googleapis.com/css2?family=Roboto:wght@400;700&amp;amp;display=block);</style><g id="items" style="isolation: isolate"><g id="blend" style="mix-blend-mode: normal"><g id="g-root-sy_0_arrow-left-stroke_m8lmpbxdc8au-fill" data-item-order="-331761" transform="translate(37.999969482421875, 198.94091796875)"></g><g id="g-root-sy_0_arrow-right-stroke_m8lmpbxdc8av-fill" data-item-order="-331757" transform="translate(448.9509582519531, 350)"></g><g id="g-root-cp_3_g-3_hss4kvxdc934-fill" data-item-order="-331756" transform="translate(301.9999694824219, 206)"><g id="cp_3_g-3_hss4kvxdc934-fill-merged" stroke="none" fill="#ffe711" fill-opacity="1"><g><path d="M46.007 154C46.007 144.546 47.87 135.184 51.488 126.45C55.105 117.715 60.409 109.779 67.094 103.094C73.779 96.409 81.715 91.105 90.45 87.488C99.184 83.87 108.546 82.007 118 82.007C127.454 82.007 136.816 83.87 145.55 87.488C154.285 91.105 162.221 96.409 168.906 103.094C175.592 109.779 180.895 117.715 184.512 126.45C188.13 135.184 189.992 144.546 189.992 154 H262C262 135.09 258.275 116.365 251.039 98.894C243.802 81.423 233.195 65.548 219.823 52.177C206.452 38.805 190.577 28.198 173.107 20.961C155.636 13.725 136.91 10 118 10C99.09 10 80.365 13.725 62.894 20.961C45.423 28.198 29.548 38.805 16.177 52.177C14.047 54.306 11.987 56.5 10 58.753C22.813 73.281 32.563 90.245 38.666 108.63C43.532 123.287 46 138.607 46 154"></path></g></g></g><g id="g-root-cp_4_g-4_8x54bzxdc9vt-fill" data-item-order="-331752" transform="translate(49.999969482421875, 350)"><g id="cp_4_g-4_8x54bzxdc9vt-fill-merged" stroke="none" fill="#f79438" fill-opacity="1"><g><path d="M262 105.247C249.169 90.699 239.41 73.708 233.309 55.294C228.46 40.659 226 25.366 226 10C225.99 29.093 218.406 47.404 204.905 60.905C191.404 74.406 173.093 81.99 154 81.99C134.907 81.99 116.596 74.406 103.095 60.905C89.594 47.404 82.01 29.093 82.01 10 H10C10 48.191 25.171 84.818 52.177 111.823C79.182 138.829 115.809 154 154 154C192.191 154 228.818 138.829 255.823 111.823C257.957 109.69 260.016 107.497 262 105.247"></path></g></g></g><g id="g-root-cp_2_g-2_4hy3anxdc7ia-fill" data-item-order="-331748" transform="translate(265.9999694824219, 350)"><g id="cp_2_g-2_4hy3anxdc7ia-fill-merged" stroke="none" fill="#a6da37" fill-opacity="1"><g><path d="M298 10C298 48.191 282.829 84.818 255.823 111.823C228.818 138.829 192.191 154 154 154C115.809 154 79.182 138.829 52.177 111.823C25.171 84.818 10 48.191 10 10 H81.994C81.994 29.097 89.58 47.412 103.084 60.916C116.588 74.42 134.903 82.006 154 82.006C173.097 82.006 191.412 74.42 204.916 60.916C218.42 47.412 226.006 29.097 226.006 10 H298"></path></g></g></g><g id="g-root-cp_1_g-1_4hy3anxdc7ib-fill" data-item-order="-331744" transform="translate(49.999969482421875, 206)"><g id="cp_1_g-1_4hy3anxdc7ib-fill-merged" stroke="none" fill="#43dd93" fill-opacity="1"><g><path d="M10 154C10 115.809 25.171 79.182 52.177 52.177C79.182 25.171 115.809 10 154 10C192.191 10 228.818 25.171 255.823 52.177C282.829 79.182 298 115.809 298 154 H225.999C225.999 134.904 218.414 116.591 204.911 103.089C191.409 89.586 173.095 82.001 154 82.001C134.904 82.001 116.591 89.586 103.089 103.089C89.586 116.591 82.001 134.904 82.001 154 H10"></path></g></g></g><g id="g-root-tx_useeffec_1q7lmwfxdc8w4-fill" data-item-order="0" transform="translate(139.99996948242188, 38)"><g id="tx_useeffec_1q7lmwfxdc8w4-fill-merged" stroke="none" fill="#f4f4f4" fill-opacity="1"><g><text style="font: bold 25px Roboto, sans-serif; white-space: pre;" transform="translate(172, 28)" font-weight="bold" font-size="25px" font-family="Roboto, sans-serif"><tspan x="-159.83" y="15" dominant-baseline="ideographic">useEffect Dependency Cycle</tspan></text></g></g></g><g id="g-root-tx_initialr_1hdu1wvxdc8p5-fill" data-item-order="0" transform="translate(127.99996948242188, 110)"><g id="tx_initialr_1hdu1wvxdc8p5-fill-merged" stroke="none" fill="#43dd93" fill-opacity="1"><g><text style="font: bold 20px Roboto, sans-serif; white-space: pre;" transform="translate(76, 22)" font-weight="bold" font-size="20px" font-family="Roboto, sans-serif"><tspan x="-59.8" y="12" dominant-baseline="ideographic">Initial Render</tspan></text></g></g></g><g id="g-root-tx_runeffec_mbq04vxdc9hh-fill" data-item-order="0" transform="translate(355.9999694824219, 110)"><g id="tx_runeffec_mbq04vxdc9hh-fill-merged" stroke="none" fill="#ffe711" fill-opacity="1"><g><text style="font: bold 20px Roboto, sans-serif; white-space: pre;" transform="translate(64, 22)" font-weight="bold" font-size="20px" font-family="Roboto, sans-serif"><tspan x="-46.67" y="12" dominant-baseline="ideographic">Run Effect</tspan></text></g></g></g><g id="g-root-tx_componen_1cy0jsfxdc9he-fill" data-item-order="0" transform="translate(103.99996948242188, 146)"><g id="tx_componen_1cy0jsfxdc9he-fill-merged" stroke="none" fill="#f4f4f4" fill-opacity="1"><g><text style="font: 15px Roboto, sans-serif; white-space: pre;" transform="translate(100, 28)" font-size="15px" font-family="Roboto, sans-serif"><tspan x="-82.44" y="0" dominant-baseline="ideographic">Component mounts and </tspan><tspan x="-27.08" y="18" dominant-baseline="ideographic">renders</tspan></text></g></g></g><g id="g-root-tx_effectex_dgpgz3xdc74e-fill" data-item-order="0" transform="translate(319.9999694824219, 146)"><g id="tx_effectex_dgpgz3xdc74e-fill-merged" stroke="none" fill="#f4f4f4" fill-opacity="1"><g><text style="font: 15px Roboto, sans-serif; white-space: pre;" transform="translate(100, 28)" font-size="15px" font-family="Roboto, sans-serif"><tspan x="-85.88" y="0" dominant-baseline="ideographic">Effect executes based on </tspan><tspan x="-48.35" y="18" dominant-baseline="ideographic">dependencies</tspan></text></g></g></g><g id="g-root-tx_1_1414ldbxdc83x-fill" data-item-order="0" transform="translate(181.99996948242188, 224)"><g id="tx_1_1414ldbxdc83x-fill-merged" stroke="none" fill="#2c2c2c" fill-opacity="1"><g><text style="font: bold 30px Roboto, sans-serif; white-space: pre;" transform="translate(22, 28)" font-weight="bold" font-size="30px" font-family="Roboto, sans-serif"><tspan x="-8.61" y="18" dominant-baseline="ideographic">1</tspan></text></g></g></g><g id="g-root-tx_3_8z0jlbxdc8w7-fill" data-item-order="0" transform="translate(397.9999694824219, 224)"><g id="tx_3_8z0jlbxdc8w7-fill-merged" stroke="none" fill="#2c2c2c" fill-opacity="1"><g><text style="font: bold 30px Roboto, sans-serif; white-space: pre;" transform="translate(22, 28)" font-weight="bold" font-size="30px" font-family="Roboto, sans-serif"><tspan x="-8.61" y="18" dominant-baseline="ideographic">3</tspan></text></g></g></g><g id="g-root-tx_4_1upaka7xdc748-fill" data-item-order="0" transform="translate(181.99996948242188, 440)"><g id="tx_4_1upaka7xdc748-fill-merged" stroke="none" fill="#2c2c2c" fill-opacity="1"><g><text style="font: bold 30px Roboto, sans-serif; white-space: pre;" transform="translate(22, 28)" font-weight="bold" font-size="30px" font-family="Roboto, sans-serif"><tspan x="-8.61" y="18" dominant-baseline="ideographic">4</tspan></text></g></g></g><g id="g-root-tx_2_qpo2zzxdc9ou-fill" data-item-order="0" transform="translate(398.4999694824219, 440.5)"><g id="tx_2_qpo2zzxdc9ou-fill-merged" stroke="none" fill="#2c2c2c" fill-opacity="1"><g><text style="font: bold 30px Roboto, sans-serif; white-space: pre;" transform="translate(22, 28)" font-weight="bold" font-size="30px" font-family="Roboto, sans-serif"><tspan x="-8.61" y="18" dominant-baseline="ideographic">2</tspan></text></g></g></g><g id="g-root-tx_rerender_58ylrxdc8pb-fill" data-item-order="0" transform="translate(145.99996948242188, 518)"><g id="tx_rerender_58ylrxdc8pb-fill-merged" stroke="none" fill="#f79438" fill-opacity="1"><g><text style="font: bold 20px Roboto, sans-serif; white-space: pre;" transform="translate(58, 22)" font-weight="bold" font-size="20px" font-family="Roboto, sans-serif"><tspan x="-45.02" y="12" dominant-baseline="ideographic">Re-render</tspan></text></g></g></g><g id="g-root-tx_checkdep_14300mnxdc74b-fill" data-item-order="0" transform="translate(343.9999694824219, 518)"><g id="tx_checkdep_14300mnxdc74b-fill-merged" stroke="none" fill="#a6da37" fill-opacity="1"><g><text style="font: bold 20px Roboto, sans-serif; white-space: pre;" transform="translate(76, 34)" font-weight="bold" font-size="20px" font-family="Roboto, sans-serif"><tspan x="-28.11" y="0" dominant-baseline="ideographic">Check </tspan><tspan x="-63.56" y="24" dominant-baseline="ideographic">Dependencies</tspan></text></g></g></g><g id="g-root-tx_componen_1uqjigfxdc9ag-fill" data-item-order="0" transform="translate(103.99996948242188, 554)"><g id="tx_componen_1uqjigfxdc9ag-fill-merged" stroke="none" fill="#f4f4f4" fill-opacity="1"><g><text style="font: 15px Roboto, sans-serif; white-space: pre;" transform="translate(100, 28)" font-size="15px" font-family="Roboto, sans-serif"><tspan x="-82.7" y="0" dominant-baseline="ideographic">Component re-renders if </tspan><tspan x="-26.41" y="18" dominant-baseline="ideographic">needed</tspan></text></g></g></g><g id="g-root-tx_useeffec_qrji9bxdc8p8-fill" data-item-order="0" transform="translate(337.9999694824219, 578)"><g id="tx_useeffec_qrji9bxdc8p8-fill-merged" stroke="none" fill="#f4f4f4" fill-opacity="1"><g><text style="font: 15px Roboto, sans-serif; white-space: pre;" transform="translate(82, 28)" font-size="15px" font-family="Roboto, sans-serif"><tspan x="-67.32" y="0" dominant-baseline="ideographic">useEffect evaluates </tspan><tspan x="-48.35" y="18" dominant-baseline="ideographic">dependencies</tspan></text></g></g></g><g id="g-root-sy_0_arrow-left-stroke_m8lmpbxdc8au-stroke" data-item-order="-331761" transform="translate(37.999969482421875, 198.94091796875)"><g id="sy_0_arrow-left-stroke_m8lmpbxdc8au-stroke" fill="none" stroke-linecap="round" stroke-linejoin="round" stroke-miterlimit="4" stroke="#f4f4f4" stroke-width="2" stroke-opacity="1"><g><path d="M 9.999969 161.06C 9.999969 126.47 21.499969 92.85 42.689969 65.51C 63.469969 38.68 92.419969 19.38 125.139969 10.51"></path><path d="M 121.199969 18.5L 125.599969 10.4L 117.499969 6.1" stroke-dasharray="none"></path></g></g></g><g id="g-root-sy_0_arrow-right-stroke_m8lmpbxdc8av-stroke" data-item-order="-331757" transform="translate(448.9509582519531, 350)"><g id="sy_0_arrow-right-stroke_m8lmpbxdc8av-stroke" fill="none" stroke-linecap="round" stroke-linejoin="round" stroke-miterlimit="4" stroke="#f4f4f4" stroke-width="2" stroke-opacity="1"><g><path d="M 127.04 11.98C 126.61 45.87 115.15 78.73 94.36 105.55C 73.17 132.89 43.5 152.42 10 161.06"></path><path d="M 133.2 18.2L 127 11.5L 120.3 17.8" stroke-dasharray="none"></path></g></g></g><g id="g-root-cp_3_g-3_hss4kvxdc934-stroke" data-item-order="-331756" transform="translate(301.9999694824219, 206)"><g id="cp_3_g-3_hss4kvxdc934-stroke" fill="none" stroke-linecap="round" stroke-linejoin="round" stroke-miterlimit="4" stroke="#2c2c2c" stroke-width="2" stroke-opacity="1"><g><path d="M 46 154L 46.0075 154C 46.0075 144.5458 47.8696 135.1842 51.4876 126.4496C 55.1055 117.7151 60.4085 109.7787 67.0936 103.0936C 73.7787 96.4085 81.7151 91.1055 90.4497 87.4876C 99.1842 83.8696 108.5458 82.0075 118 82.0075C 127.4542 82.0075 136.8158 83.8696 145.5504 87.4876C 154.2849 91.1055 162.2213 96.4085 168.9064 103.0936C 175.5916 109.7787 180.8945 117.7151 184.5125 126.4497C 188.1304 135.1842 189.9925 144.5459 189.9925 154L 262 154.0001C 262 135.0897 258.2754 116.3646 251.0387 98.8937C 243.802 81.4228 233.1951 65.5483 219.8234 52.1767C 206.4518 38.805 190.5774 28.1981 173.1065 20.9614C 155.6356 13.7247 136.9104 10 118.0001 10C 99.0897 10 80.3645 13.7247 62.8936 20.9613C 45.4227 28.198 29.5483 38.805 16.1767 52.1766C 14.0468 54.3064 11.9871 56.4998 10 58.7529C 22.8125 73.281 32.5625 90.245 38.6658 108.6299C 43.5318 123.2873 46 138.6071 46 154Z"></path></g></g></g><g id="g-root-cp_4_g-4_8x54bzxdc9vt-stroke" data-item-order="-331752" transform="translate(49.999969482421875, 350)"><g id="cp_4_g-4_8x54bzxdc9vt-stroke" fill="none" stroke-linecap="round" stroke-linejoin="round" stroke-miterlimit="4" stroke="#2c2c2c" stroke-width="2" stroke-opacity="1"><g><path d="M 262.0002 105.2472C 249.1695 90.6987 239.4104 73.7076 233.3088 55.2937C 228.4595 40.6591 226 25.3658 226 10L 225.9901 10C 225.9901 29.093 218.4055 47.4039 204.9047 60.9047C 191.4039 74.4055 173.093 81.9901 154 81.9901C 134.907 81.9901 116.5961 74.4055 103.0953 60.9047C 89.5945 47.4039 82.0099 29.093 82.0099 10L 10 10C 10 48.1912 25.1714 84.8182 52.1766 111.8234C 79.1819 138.8286 115.8088 154 154 154C 192.1912 154 228.8181 138.8286 255.8234 111.8234C 257.9567 109.69 260.0162 107.4967 262.0002 105.2472Z"></path></g></g></g><g id="g-root-cp_2_g-2_4hy3anxdc7ia-stroke" data-item-order="-331748" transform="translate(265.9999694824219, 350)"><g id="cp_2_g-2_4hy3anxdc7ia-stroke" fill="none" stroke-linecap="round" stroke-linejoin="round" stroke-miterlimit="4" stroke="#2c2c2c" stroke-width="2" stroke-opacity="1"><g><path d="M 298 10C 298 48.1912 282.8286 84.8181 255.8234 111.8234C 228.8181 138.8286 192.1912 154 154 154C 115.8088 154 79.1819 138.8286 52.1766 111.8234C 25.1714 84.8182 10 48.1912 10 10L 81.9937 10C 81.9937 29.0973 89.5801 47.4123 103.0839 60.9161C 116.5877 74.4199 134.9027 82.0063 154 82.0063C 173.0973 82.0063 191.4123 74.4199 204.9161 60.9161C 218.4199 47.4123 226.0063 29.0973 226.0063 10L 298 10Z"></path></g></g></g><g id="g-root-cp_1_g-1_4hy3anxdc7ib-stroke" data-item-order="-331744" transform="translate(49.999969482421875, 206)"><g id="cp_1_g-1_4hy3anxdc7ib-stroke" fill="none" stroke-linecap="round" stroke-linejoin="round" stroke-miterlimit="4" stroke="#2c2c2c" stroke-width="2" stroke-opacity="1"><g><path d="M 10 154C 10 115.8088 25.1714 79.1819 52.1766 52.1766C 79.1819 25.1714 115.8088 10 154 10C 192.1912 10 228.8181 25.1714 255.8233 52.1766C 282.8286 79.1818 298 115.8088 298 154L 225.9995 154C 225.9995 134.9045 218.4138 116.5912 204.9113 103.0887C 191.4088 89.5861 173.0954 82.0005 154 82.0005C 134.9045 82.0005 116.5912 89.5861 103.0887 103.0887C 89.5861 116.5912 82.0005 134.9045 82.0005 154L 10 154Z"></path></g></g></g><g id="g-root-tx_useeffec_1q7lmwfxdc8w4-stroke" data-item-order="0" transform="translate(139.99996948242188, 38)"></g><g id="g-root-tx_initialr_1hdu1wvxdc8p5-stroke" data-item-order="0" transform="translate(127.99996948242188, 110)"></g><g id="g-root-tx_runeffec_mbq04vxdc9hh-stroke" data-item-order="0" transform="translate(355.9999694824219, 110)"></g><g id="g-root-tx_componen_1cy0jsfxdc9he-stroke" data-item-order="0" transform="translate(103.99996948242188, 146)"></g><g id="g-root-tx_effectex_dgpgz3xdc74e-stroke" data-item-order="0" transform="translate(319.9999694824219, 146)"></g><g id="g-root-tx_1_1414ldbxdc83x-stroke" data-item-order="0" transform="translate(181.99996948242188, 224)"></g><g id="g-root-tx_3_8z0jlbxdc8w7-stroke" data-item-order="0" transform="translate(397.9999694824219, 224)"></g><g id="g-root-tx_4_1upaka7xdc748-stroke" data-item-order="0" transform="translate(181.99996948242188, 440)"></g><g id="g-root-tx_2_qpo2zzxdc9ou-stroke" data-item-order="0" transform="translate(398.4999694824219, 440.5)"></g><g id="g-root-tx_rerender_58ylrxdc8pb-stroke" data-item-order="0" transform="translate(145.99996948242188, 518)"></g><g id="g-root-tx_checkdep_14300mnxdc74b-stroke" data-item-order="0" transform="translate(343.9999694824219, 518)"></g><g id="g-root-tx_componen_1uqjigfxdc9ag-stroke" data-item-order="0" transform="translate(103.99996948242188, 554)"></g><g id="g-root-tx_useeffec_qrji9bxdc8p8-stroke" data-item-order="0" transform="translate(337.9999694824219, 578)"></g></g></g></svg>