<?xml version="1.0" encoding="utf-8" standalone="yes"?>
<!DOCTYPE svg PUBLIC "-//W3C//DTD SVG 1.1//EN" "http://www.w3.org/Graphics/SVG/1.1/DTD/svg11.dtd">
<svg style="fill:none;stroke:none;fill-rule:evenodd;clip-rule:evenodd;stroke-linecap:round;stroke-linejoin:round;stroke-miterlimit:1.5;" version="1.1" xmlns="http://www.w3.org/2000/svg" xmlns:xlink="http://www.w3.org/1999/xlink" width="1033" height="588" viewBox="0 0 1033 588"><style class="text-font-style fontImports" data-font-family="Roboto">@import url(https://fonts.googleapis.com/css2?family=Roboto:wght@400;700&amp;amp;display=block);</style><g id="items" style="isolation: isolate"><g id="blend" style="mix-blend-mode: normal"><g id="g-root-cp_1_g-1_4l27r216oruu-fill" data-item-order="-484610" transform="translate(38, 266)"><g id="cp_1_g-1_4l27r216oruu-fill-merged" stroke="none" fill="#fffbda" fill-opacity="1"><g><path d="M10 238C10 244.63 15.37 250 22 250 H166C172.63 250 178 244.63 178 238 V46C178 39.37 172.63 34 166 34 H118L94 10L70 34 H22C15.38 34 10 39.37 10 46 V238"></path></g></g></g><g id="g-root-cp_2_g-2_1qbc8fy16oq2v-fill" data-item-order="-484586" transform="translate(230, 266)"><g id="cp_2_g-2_1qbc8fy16oq2v-fill-merged" stroke="none" fill="#fff2e5" fill-opacity="1"><g><path d="M10 238C10 244.63 15.37 250 22 250 H166C172.63 250 178 244.63 178 238 V46C178 39.37 172.63 34 166 34 H118L94 10L70 34 H22C15.38 34 10 39.37 10 46 V238"></path></g></g></g><g id="g-root-cp_3_g-3_1czvq2m16orns-fill" data-item-order="-484562" transform="translate(422, 266)"><g id="cp_3_g-3_1czvq2m16orns-fill-merged" stroke="none" fill="#ffeceb" fill-opacity="1"><g><path d="M10 238C10 244.63 15.37 250 22 250 H166C172.63 250 178 244.63 178 238 V46C178 39.37 172.63 34 166 34 H118L94 10L70 34 H22C15.38 34 10 39.37 10 46 V238"></path></g></g></g><g id="g-root-cp_4_g-4_18kop1a16opa9-fill" data-item-order="-484538" transform="translate(614, 266)"><g id="cp_4_g-4_18kop1a16opa9-fill-merged" stroke="none" fill="#ffebf7" fill-opacity="1"><g><path d="M10 238C10 244.63 15.37 250 22 250 H166C172.63 250 178 244.63 178 238 V46C178 39.37 172.63 34 166 34 H118L94 10L70 34 H22C15.38 34 10 39.37 10 46 V238"></path></g></g></g><g id="g-root-cp_5_g-5_v986ny16oqv6-fill" data-item-order="-484514" transform="translate(806, 266)"><g id="cp_5_g-5_v986ny16oqv6-fill-merged" stroke="none" fill="#faf0ff" fill-opacity="1"><g><path d="M10 238C10 244.63 15.37 250 22 250 H166C172.63 250 178 244.63 178 238 V46C178 39.37 172.63 34 166 34 H118L94 10L70 34 H22C15.38 34 10 39.37 10 46 V238"></path></g></g></g><g id="g-root-tx_userefbe_mdl6f216ornv-fill" data-item-order="0" transform="translate(380.5, 38)"><g id="tx_userefbe_mdl6f216ornv-fill-merged" stroke="none" fill="#484848" fill-opacity="1"><g><text style="font: bold 25px Roboto, sans-serif; white-space: pre;" transform="translate(136, 28)" font-weight="bold" font-size="25px" font-family="Roboto, sans-serif"><tspan x="-123.85" y="15" dominant-baseline="ideographic">useRef Best Practices</tspan></text></g></g></g><g id="g-root-ic_hold_146453216orgu-fill" data-item-order="0" transform="translate(62, 122)"></g><g id="g-root-ic_dust_146453216q5mx-fill" data-item-order="0" transform="translate(254, 122)"></g><g id="g-root-ic_fing_qoevum16rjsw-fill" data-item-order="0" transform="translate(446, 122)"></g><g id="g-root-ic_eye_hz0mgu16ueiw-fill" data-item-order="0" transform="translate(638, 122)"></g><g id="g-root-ic_root_145hnzy16x630-fill" data-item-order="0" transform="translate(830, 122)"></g><g id="g-root-tx_dontover_4mxn0e16oqv8-fill" data-item-order="0" transform="translate(56, 314)"><g id="tx_dontover_4mxn0e16oqv8-fill-merged" stroke="none" fill="#e0cb15" fill-opacity="1"><g><text style="font: 20px Roboto, sans-serif; white-space: pre;" transform="translate(76, 34)" font-size="20px" font-family="Roboto, sans-serif"><tspan x="-63.59" y="0" dominant-baseline="ideographic">Don't Overuse </tspan><tspan x="-22.59" y="24" dominant-baseline="ideographic">Refs</tspan></text></g></g></g><g id="g-root-tx_cleanups_92r54u16q493-fill" data-item-order="0" transform="translate(242, 314)"><g id="tx_cleanups_92r54u16q493-fill-merged" stroke="none" fill="#de8431" fill-opacity="1"><g><text style="font: 20px Roboto, sans-serif; white-space: pre;" transform="translate(82, 34)" font-size="20px" font-family="Roboto, sans-serif"><tspan x="-64.06" y="0" dominant-baseline="ideographic">Clean Up Side </tspan><tspan x="-33.89" y="24" dominant-baseline="ideographic">Effects</tspan></text></g></g></g><g id="g-root-tx_userefsf_18f2f9a16rkli-fill" data-item-order="0" transform="translate(446, 314)"><g id="tx_userefsf_18f2f9a16rkli-fill-merged" stroke="none" fill="#e55753" fill-opacity="1"><g><text style="font: 20px Roboto, sans-serif; white-space: pre;" transform="translate(70, 46)" font-size="20px" font-family="Roboto, sans-serif"><tspan x="-57.07" y="-12" dominant-baseline="ideographic">Use Refs for </tspan><tspan x="-49.3" y="12" dominant-baseline="ideographic">Imperative </tspan><tspan x="-36.34" y="36" dominant-baseline="ideographic">Actions</tspan></text></g></g></g><g id="g-root-tx_initiali_1qbypj216x6v6-fill" data-item-order="0" transform="translate(824, 314)"><g id="tx_initiali_1qbypj216x6v6-fill-merged" stroke="none" fill="#ba5de5" fill-opacity="1"><g><text style="font: 20px Roboto, sans-serif; white-space: pre;" transform="translate(76, 34)" font-size="20px" font-family="Roboto, sans-serif"><tspan x="-61.94" y="0" dominant-baseline="ideographic">Initialize Refs </tspan><tspan x="-39.27" y="24" dominant-baseline="ideographic">Properly</tspan></text></g></g></g><g id="g-root-tx_avoidrea_1d14o8u16udql-fill" data-item-order="0" transform="translate(620, 314)"><g id="tx_avoidrea_1d14o8u16udql-fill-merged" stroke="none" fill="#de58a9" fill-opacity="1"><g><text style="font: 20px Roboto, sans-serif; white-space: pre;" transform="translate(88, 58)" font-size="20px" font-family="Roboto, sans-serif"><tspan x="-26.99" y="-24" dominant-baseline="ideographic">Avoid </tspan><tspan x="-73.84" y="0" dominant-baseline="ideographic">Reading/Writing </tspan><tspan x="-53.79" y="24" dominant-baseline="ideographic">Refs During </tspan><tspan x="-33.49" y="48" dominant-baseline="ideographic">Render</tspan></text></g></g></g><g id="g-root-tx_preferde_1hhknge16opvx-fill" data-item-order="0" transform="translate(50, 374)"><g id="tx_preferde_1hhknge16opvx-fill-merged" stroke="none" fill="#ab9e2b" fill-opacity="1"><g><text style="font: 15px Roboto, sans-serif; white-space: pre;" transform="translate(82, 40)" font-size="15px" font-family="Roboto, sans-serif"><tspan x="-60.3" y="-9" dominant-baseline="ideographic">Prefer declarative </tspan><tspan x="-66.42" y="9" dominant-baseline="ideographic">React patterns with </tspan><tspan x="-55.89" y="27" dominant-baseline="ideographic">state and props.</tspan></text></g></g></g><g id="g-root-tx_alwayscl_1d1r5by16q4u8-fill" data-item-order="0" transform="translate(242, 374)"><g id="tx_alwayscl_1d1r5by16q4u8-fill-merged" stroke="none" fill="#b27338" fill-opacity="1"><g><text style="font: 15px Roboto, sans-serif; white-space: pre;" transform="translate(82, 40)" font-size="15px" font-family="Roboto, sans-serif"><tspan x="-66.97" y="-9" dominant-baseline="ideographic">Always clear timers </tspan><tspan x="-67.61" y="9" dominant-baseline="ideographic">and intervals stored </tspan><tspan x="-24.59" y="27" dominant-baseline="ideographic">in refs.</tspan></text></g></g></g><g id="g-root-tx_startwit_1hgbpa616x7nv-fill" data-item-order="0" transform="translate(824, 374)"><g id="tx_startwit_1hgbpa616x7nv-fill-merged" stroke="none" fill="#a455c9" fill-opacity="1"><g><text style="font: 15px Roboto, sans-serif; white-space: pre;" transform="translate(76, 46)" font-size="15px" font-family="Roboto, sans-serif"><tspan x="-63.36" y="-18" dominant-baseline="ideographic">Start with `null` for </tspan><tspan x="-51.77" y="0" dominant-baseline="ideographic">DOM refs or an </tspan><tspan x="-59.75" y="18" dominant-baseline="ideographic">appropriate initial </tspan><tspan x="-63.94" y="36" dominant-baseline="ideographic">value for data refs.</tspan></text></g></g></g><g id="g-root-tx_focusscr_v48dz216rj0n-fill" data-item-order="0" transform="translate(446, 398)"><g id="tx_focusscr_v48dz216rj0n-fill-merged" stroke="none" fill="#c64b47" fill-opacity="1"><g><text style="font: 15px Roboto, sans-serif; white-space: pre;" transform="translate(70, 40)" font-size="15px" font-family="Roboto, sans-serif"><tspan x="-43.27" y="-9" dominant-baseline="ideographic">Focus, scroll, </tspan><tspan x="-57.79" y="9" dominant-baseline="ideographic">animations, third-</tspan><tspan x="-47.4" y="27" dominant-baseline="ideographic">party libraries.</tspan></text></g></g></g><g id="g-root-tx_dothisin_vah4u616ucxy-fill" data-item-order="0" transform="translate(632, 422)"><g id="tx_dothisin_vah4u616ucxy-fill-merged" stroke="none" fill="#c04b92" fill-opacity="1"><g><text style="font: 15px Roboto, sans-serif; white-space: pre;" transform="translate(76, 40)" font-size="15px" font-family="Roboto, sans-serif"><tspan x="-51.13" y="-9" dominant-baseline="ideographic">Do this in event </tspan><tspan x="-37.48" y="9" dominant-baseline="ideographic">handlers or </tspan><tspan x="-60.08" y="27" dominant-baseline="ideographic">useEffect instead.</tspan></text></g></g></g><g id="g-root-cp_1_g-1_4l27r216oruu-stroke" data-item-order="-484610" transform="translate(38, 266)"><g id="cp_1_g-1_4l27r216oruu-stroke" fill="none" stroke-linecap="round" stroke-linejoin="round" stroke-miterlimit="4" stroke="#e0cb15" stroke-width="2" stroke-opacity="1"><g><path d="M 10 58L 10 46C 10 39.37 15.38 34 22 34L 70 34L 94 10L 118 34L 166 34C 172.63 34 178 39.37 178 46L 178 58M 178 58L 178 226M 10 226L 10 58M 178 226L 178 238C 178 244.63 172.63 250 166 250L 22 250C 15.37 250 10 244.63 10 238L 10 226"></path></g></g></g><g id="g-root-cp_2_g-2_1qbc8fy16oq2v-stroke" data-item-order="-484586" transform="translate(230, 266)"><g id="cp_2_g-2_1qbc8fy16oq2v-stroke" fill="none" stroke-linecap="round" stroke-linejoin="round" stroke-miterlimit="4" stroke="#de8431" stroke-width="2" stroke-opacity="1"><g><path d="M 10 58L 10 46C 10 39.37 15.38 34 22 34L 70 34L 94 10L 118 34L 166 34C 172.63 34 178 39.37 178 46L 178 58M 178 58L 178 226M 10 226L 10 58M 178 226L 178 238C 178 244.63 172.63 250 166 250L 22 250C 15.37 250 10 244.63 10 238L 10 226"></path></g></g></g><g id="g-root-cp_3_g-3_1czvq2m16orns-stroke" data-item-order="-484562" transform="translate(422, 266)"><g id="cp_3_g-3_1czvq2m16orns-stroke" fill="none" stroke-linecap="round" stroke-linejoin="round" stroke-miterlimit="4" stroke="#e55753" stroke-width="2" stroke-opacity="1"><g><path d="M 10 58L 10 46C 10 39.37 15.38 34 22 34L 70 34L 94 10L 118 34L 166 34C 172.63 34 178 39.37 178 46L 178 58M 178 58L 178 226M 10 226L 10 58M 178 226L 178 238C 178 244.63 172.63 250 166 250L 22 250C 15.37 250 10 244.63 10 238L 10 226"></path></g></g></g><g id="g-root-cp_4_g-4_18kop1a16opa9-stroke" data-item-order="-484538" transform="translate(614, 266)"><g id="cp_4_g-4_18kop1a16opa9-stroke" fill="none" stroke-linecap="round" stroke-linejoin="round" stroke-miterlimit="4" stroke="#de58a9" stroke-width="2" stroke-opacity="1"><g><path d="M 10 58L 10 46C 10 39.37 15.38 34 22 34L 70 34L 94 10L 118 34L 166 34C 172.63 34 178 39.37 178 46L 178 58M 178 58L 178 226M 10 226L 10 58M 178 226L 178 238C 178 244.63 172.63 250 166 250L 22 250C 15.37 250 10 244.63 10 238L 10 226"></path></g></g></g><g id="g-root-cp_5_g-5_v986ny16oqv6-stroke" data-item-order="-484514" transform="translate(806, 266)"><g id="cp_5_g-5_v986ny16oqv6-stroke" fill="none" stroke-linecap="round" stroke-linejoin="round" stroke-miterlimit="4" stroke="#ba5de5" stroke-width="2" stroke-opacity="1"><g><path d="M 10 58L 10 46C 10 39.37 15.38 34 22 34L 70 34L 94 10L 118 34L 166 34C 172.63 34 178 39.37 178 46L 178 58M 178 58L 178 226M 10 226L 10 58M 178 226L 178 238C 178 244.63 172.63 250 166 250L 22 250C 15.37 250 10 244.63 10 238L 10 226"></path></g></g></g><g id="g-root-tx_userefbe_mdl6f216ornv-stroke" data-item-order="0" transform="translate(380.5, 38)"></g><g id="g-root-ic_hold_146453216orgu-stroke" data-item-order="0" transform="translate(62, 122)"><g id="ic_hold_146453216orgu-stroke" fill="none" stroke-linecap="round" stroke-linejoin="round" stroke-miterlimit="4" stroke="#e0cb15" stroke-width="2" stroke-opacity="1"><g><path d="M 120 127.5L 120 57.5M 109.690002 57.5C 111.349251 44.347019 106.383904 31.226435 96.432304 22.467461C 86.480698 13.708488 72.835861 10.449193 60 13.765C 58.024582 14.250573 56.347305 15.550203 55.38385 17.341793C 54.420391 19.133385 54.260937 21.249249 54.945 23.164999L 54.945 23.164999C 56.353775 26.982117 60.403233 29.133795 64.355003 28.165001C 71.572838 26.492081 79.160912 28.10692 85.072105 32.573864C 90.983307 37.04081 94.608612 43.899647 94.970001 51.300003C 95.135742 55.13546 93.809677 58.88607 91.270004 61.765003L 86 67.800003C 84.179291 69.887421 81.574326 71.126144 78.806061 71.220917C 76.037781 71.315689 73.354202 70.258011 71.395004 68.300003L 61.110001 58C 58.179935 55.071243 53.430592 55.071774 50.501179 58.001179C 47.57177 60.930592 47.571243 65.679939 50.499996 68.609993L 71.639999 89.75C 75.390991 93.499847 77.498863 98.586105 77.5 103.889999L 77.5 127.5M 106 35.044998C 114.561905 39.253372 119.990067 47.959751 120.000008 57.500004M 35 27.5L 50 27.5C 50 27.5 55 27.5 55 32.5L 55 47.5C 55 47.5 55 52.5 50 52.5L 35 52.5C 35 52.5 30 52.5 30 47.5L 30 32.5C 30 32.5 30 27.5 35 27.5M 35 52.5L 35 62.5M 30 47.5L 20 47.5M 30 32.5L 20 32.5M 65 47.5L 55 47.5M 35 27.5L 35 17.5M 40 36.25C 40.690353 36.25 41.25 36.809647 41.25 37.5M 38.75 37.5C 38.75 36.809647 39.309647 36.25 40 36.25M 40 38.75C 39.309647 38.75 38.75 38.190353 38.75 37.5M 41.25 37.5C 41.25 38.190353 40.690353 38.75 40 38.75"></path></g></g></g><g id="g-root-ic_dust_146453216q5mx-stroke" data-item-order="0" transform="translate(254, 122)"><g id="ic_dust_146453216q5mx-stroke" fill="none" stroke-linecap="round" stroke-linejoin="round" stroke-miterlimit="4" stroke="#de8431" stroke-width="2" stroke-opacity="1"><g><path d="M 10 10M 126.249504 91.25L 78.749496 126.25L 126.249504 126.25L 126.249504 91.25ZM 126.249504 91.25L 126.249504 16.25M 10 10M 13.750305 13.75L 41.250301 61.25M 30.250198 87.75C 25.2502 79.25 30.250198 67.75 41.250198 61.25C 52.250198 55.249847 64.75 56.749802 69.25 65.25L 30.250198 87.75ZM 10 10M 30.250248 87.75L 41.250252 107.25M 10 10M 43.25045 80.25L 54.25045 99.75M 10 10M 56.250301 72.75L 67.250504 92.25M 10 10M 69.25 65.25L 80.25 84.75M 19.750299 126.250496C 19.198 126.250496 18.750299 125.803001 18.750299 125.250504C 18.750299 124.698494 19.198 124.250496 19.750299 124.250496M 19.750099 126.250496C 20.302401 126.250496 20.750099 125.803001 20.750099 125.250504C 20.750099 124.698494 20.302401 124.250496 19.750099 124.250496M 37.250298 126.250496C 36.698002 126.250496 36.250301 125.803001 36.250301 125.250504C 36.250301 124.698494 36.698002 124.250496 37.250298 124.250496M 37.250099 126.250496C 37.802399 126.250496 38.250099 125.803001 38.250099 125.250504C 38.250099 124.698494 37.802399 124.250496 37.250099 124.250496M 54.750298 126.250496C 54.197998 126.250496 53.750301 125.803001 53.750301 125.250504C 53.750301 124.698494 54.197998 124.250496 54.750298 124.250496M 54.750099 126.250496C 55.302399 126.250496 55.750099 125.803001 55.750099 125.250504C 55.750099 124.698494 55.302399 124.250496 54.750099 124.250496"></path></g></g></g><g id="g-root-ic_fing_qoevum16rjsw-stroke" data-item-order="0" transform="translate(446, 122)"><g id="ic_fing_qoevum16rjsw-stroke" fill="none" stroke-linecap="round" stroke-linejoin="round" stroke-miterlimit="4" stroke="#e55753" stroke-width="2" stroke-opacity="1"><g><path d="M 122.5 127.5L 122.5 114.160004C 122.497238 104.958122 115.036865 97.5 105.834999 97.5L 97.5 97.5L 97.5 75C 97.5 70.857864 94.142143 67.5 90 67.5C 85.857864 67.5 82.5 70.857864 82.5 75L 82.5 110L 76.055 104.599998C 73.845856 101.946266 69.903725 101.585854 67.25 103.794998C 64.596268 106.004135 64.235855 109.946274 66.445 112.600006L 78.839996 127.5M 55 102.5L 20 102.5C 15.736031 102.374786 12.379514 98.819115 12.5 94.555008L 12.5 20.445C 12.379514 16.180895 15.736031 12.625224 20 12.5L 120 12.5C 124.263977 12.625224 127.620483 16.180895 127.500008 20.445L 127.5 94.554993M 107.5 82.5L 112.5 82.5M 27.5 82.5L 72.5 82.5M 37.5 77.5L 37.5 87.5M 50 45.625L 50 31.975C 49.999985 30.81296 50.62513 29.740767 51.63641 29.168362C 52.647697 28.595959 53.888721 28.611864 54.885002 29.209999L 84.434998 42.860001C 85.405991 43.442924 86.000061 44.492462 86.000061 45.625C 86.000061 46.757538 85.405991 47.807072 84.434998 48.389999L 54.885002 62.040001C 53.888721 62.638134 52.647697 62.654041 51.63641 62.081638C 50.62513 61.509232 49.999985 60.437042 50 59.274998Z"></path></g></g></g><g id="g-root-ic_eye_hz0mgu16ueiw-stroke" data-item-order="0" transform="translate(638, 122)"><g id="ic_eye_hz0mgu16ueiw-stroke" fill="none" stroke-linecap="round" stroke-linejoin="round" stroke-miterlimit="4" stroke="#de58a9" stroke-width="2" stroke-opacity="1"><g><path d="M 69.998001 14.176215C 54.655651 13.921206 38.788101 24.639151 28.8123 35.619701C 27.7652 36.7822 27.185749 38.291351 27.185749 39.8559C 27.185749 41.420448 27.7652 42.9296 28.8123 44.092049C 38.567348 54.84045 54.393047 65.809494 69.998001 65.551003C 85.602997 65.809494 101.428497 54.84045 111.195 44.092049C 112.242004 42.9296 112.821503 41.420448 112.821503 39.8559C 112.821503 38.291351 112.242004 36.7822 111.195 35.619701C 101.208 24.639151 85.3405 13.921206 69.998001 14.176215ZM 81.9785 39.866051C 81.9785 42.235252 81.276001 44.5513 79.959503 46.521248C 78.642998 48.491199 76.772499 50.026596 74.583504 50.93325C 72.394501 51.839901 69.986 52.077148 67.662003 51.614952C 65.338501 51.152702 63.204002 50.011803 61.529003 48.336502C 59.853447 46.661201 58.712547 44.526752 58.250351 42.203049C 57.788147 39.879349 58.025352 37.470749 58.932053 35.281849C 59.838699 33.092949 61.374001 31.222099 63.344002 29.9058C 65.314003 28.5895 67.629997 27.88695 69.999001 27.88695C 73.176498 27.88695 76.223 29.14905 78.469498 31.39555C 80.716003 33.642048 81.9785 36.688999 81.9785 39.866051ZM 91.022499 112.343994C 101.059998 110.350998 109.639503 106.976501 115.676003 102.6465C 121.711998 98.316498 124.933998 93.226006 124.933998 88.018501C 124.933998 81.034996 119.146004 74.338005 108.844002 69.400497M 31.155901 69.400497C 26.07935 71.833504 22.021851 74.732498 19.247749 77.942497C 15.08995 82.753502 14.002075 88.047501 16.1217 93.154999C 18.24135 98.262497 23.473299 102.953995 31.155951 106.636497C 38.838551 110.318497 48.62685 112.8265 59.282997 113.842003C 62.829498 114.180496 66.418999 114.348 70 114.348L 74.831001 114.348M 10 10M 64.260002 102.868004L 75.739998 114.348L 64.260002 125.828003"></path></g></g></g><g id="g-root-ic_root_145hnzy16x630-stroke" data-item-order="0" transform="translate(830, 122)"><g id="ic_root_145hnzy16x630-stroke" fill="none" stroke-linecap="round" stroke-linejoin="round" stroke-miterlimit="4" stroke="#ba5de5" stroke-width="2" stroke-opacity="1"><g><path d="M 12.5 70.080002L 127.5 70.080002M 120.919998 17.58C 120.919998 17.58 107.815002 51.110001 88 43.369999C 83.003357 41.522854 79.393394 37.121796 78.559235 31.860367C 77.725075 26.59894 79.796722 21.297104 83.977005 17.995026C 88.15728 14.692947 93.794716 13.905234 98.720009 15.935C 105.915009 18.076611 113.487923 18.637754 120.919998 17.58ZM 72.5 42.579998C 78.635765 33.907806 88.509796 28.646353 99.130005 28.389999M 24.08 17.58C 24.08 17.58 37.18 51.110001 57 43.369999C 61.977119 41.508007 65.565491 37.109562 66.390228 31.859941C 67.214958 26.610317 65.148193 21.323431 60.981804 18.024958C 56.815411 14.726485 51.19537 13.927831 46.275002 15.935C 39.08157 18.075886 31.510448 18.637026 24.08 17.58ZM 45.869999 28.389999C 56.490208 28.646353 66.364243 33.907806 72.5 42.580002L 72.5 125.080002M 72.5 105.080002L 62.5 105.080002C 59.738575 105.080002 57.5 107.318573 57.5 110.080002L 57.5 120.080002M 92.5 120.080002L 92.5 97.580002C 92.5 93.437866 89.142136 90.080002 85 90.080002L 52.5 90.080002C 46.98399 90.096474 42.516476 94.563988 42.5 100.080002L 42.5 117.580002M 92.5 105.080002L 97.5 105.080002C 100.261421 105.080002 102.5 107.318573 102.5 110.080002L 102.5 115.080002M 42.5 102.580002L 32.5 107.580002"></path></g></g></g><g id="g-root-tx_dontover_4mxn0e16oqv8-stroke" data-item-order="0" transform="translate(56, 314)"></g><g id="g-root-tx_cleanups_92r54u16q493-stroke" data-item-order="0" transform="translate(242, 314)"></g><g id="g-root-tx_userefsf_18f2f9a16rkli-stroke" data-item-order="0" transform="translate(446, 314)"></g><g id="g-root-tx_initiali_1qbypj216x6v6-stroke" data-item-order="0" transform="translate(824, 314)"></g><g id="g-root-tx_avoidrea_1d14o8u16udql-stroke" data-item-order="0" transform="translate(620, 314)"></g><g id="g-root-tx_preferde_1hhknge16opvx-stroke" data-item-order="0" transform="translate(50, 374)"></g><g id="g-root-tx_alwayscl_1d1r5by16q4u8-stroke" data-item-order="0" transform="translate(242, 374)"></g><g id="g-root-tx_startwit_1hgbpa616x7nv-stroke" data-item-order="0" transform="translate(824, 374)"></g><g id="g-root-tx_focusscr_v48dz216rj0n-stroke" data-item-order="0" transform="translate(446, 398)"></g><g id="g-root-tx_dothisin_vah4u616ucxy-stroke" data-item-order="0" transform="translate(632, 422)"></g></g></g></svg>